%TF.GenerationSoftware,KiCad,Pcbnew,(6.0.4)*%
%TF.CreationDate,2022-11-15T14:34:14+02:00*%
%TF.ProjectId,pcb_heater_element,7063625f-6865-4617-9465-725f656c656d,rev?*%
%TF.SameCoordinates,Original*%
%TF.FileFunction,Copper,L1,Top*%
%TF.FilePolarity,Positive*%
%FSLAX46Y46*%
G04 Gerber Fmt 4.6, Leading zero omitted, Abs format (unit mm)*
G04 Created by KiCad (PCBNEW (6.0.4)) date 2022-11-15 14:34:14*
%MOMM*%
%LPD*%
G01*
G04 APERTURE LIST*
%TA.AperFunction,NonConductor*%
%ADD10C,2.000000*%
%TD*%
%TA.AperFunction,Conductor*%
%ADD11C,2.000000*%
%TD*%
G04 APERTURE END LIST*
D10*
X202750000Y-275500000D02*
G75*
G03*
X202750000Y-270000000I0J2750000D01*
G01*
X202750000Y-154500000D02*
G75*
G03*
X202750000Y-149000000I0J2750000D01*
G01*
X120750000Y-231500000D02*
G75*
G03*
X120750000Y-237000000I0J-2750000D01*
G01*
X202750000Y-308500000D02*
G75*
G03*
X202750000Y-303000000I0J2750000D01*
G01*
X196750000Y-220500000D02*
G75*
G03*
X196750000Y-215000000I0J2750000D01*
G01*
X120750000Y-77500000D02*
G75*
G03*
X120750000Y-83000000I0J-2750000D01*
G01*
X120750000Y-154500000D02*
G75*
G03*
X120750000Y-160000000I0J-2750000D01*
G01*
X202750000Y-319500000D02*
G75*
G03*
X202750000Y-314000000I0J2750000D01*
G01*
X120750000Y-209500000D02*
G75*
G03*
X120750000Y-215000000I0J-2750000D01*
G01*
X120750000Y-286500000D02*
G75*
G03*
X120750000Y-292000000I0J-2750000D01*
G01*
X202750000Y-352500000D02*
G75*
G03*
X202750000Y-347000000I0J2750000D01*
G01*
X120750000Y-99500000D02*
G75*
G03*
X120750000Y-105000000I0J-2750000D01*
G01*
X202750000Y-242500000D02*
G75*
G03*
X202750000Y-237000000I0J2750000D01*
G01*
X120750000Y-264500000D02*
G75*
G03*
X120750000Y-270000000I0J-2750000D01*
G01*
X120750000Y-253500000D02*
G75*
G03*
X120750000Y-259000000I0J-2750000D01*
G01*
X120750000Y-308500000D02*
G75*
G03*
X120750000Y-314000000I0J-2750000D01*
G01*
X120750000Y-66500000D02*
G75*
G03*
X120750000Y-72000000I0J-2750000D01*
G01*
X202750000Y-286500000D02*
G75*
G03*
X202750000Y-281000000I0J2750000D01*
G01*
X202750000Y-231500000D02*
G75*
G03*
X202750000Y-226000000I0J2750000D01*
G01*
X202750000Y-165500000D02*
G75*
G03*
X202750000Y-160000000I0J2750000D01*
G01*
X120750000Y-187500000D02*
G75*
G03*
X120750000Y-193000000I0J-2750000D01*
G01*
X202750000Y-176500000D02*
G75*
G03*
X202750000Y-171000000I0J2750000D01*
G01*
X120750000Y-198500000D02*
G75*
G03*
X120750000Y-204000000I0J-2750000D01*
G01*
X202750000Y-198500000D02*
G75*
G03*
X202750000Y-193000000I0J2750000D01*
G01*
X120750000Y-110500000D02*
G75*
G03*
X120750000Y-116000000I0J-2750000D01*
G01*
X202750000Y-209500000D02*
G75*
G03*
X202750000Y-204000000I0J2750000D01*
G01*
X202750000Y-77500000D02*
G75*
G03*
X202750000Y-72000000I0J2750000D01*
G01*
X120750000Y-143500000D02*
G75*
G03*
X120750000Y-149000000I0J-2750000D01*
G01*
X120750000Y-297500000D02*
G75*
G03*
X120750000Y-303000000I0J-2750000D01*
G01*
X120750000Y-330500000D02*
G75*
G03*
X120750000Y-336000000I0J-2750000D01*
G01*
X120750000Y-165500000D02*
G75*
G03*
X120750000Y-171000000I0J-2750000D01*
G01*
X120750000Y-319500000D02*
G75*
G03*
X120750000Y-325000000I0J-2750000D01*
G01*
X202750000Y-88500000D02*
G75*
G03*
X202750000Y-83000000I0J2750000D01*
G01*
X202750000Y-143500000D02*
G75*
G03*
X202750000Y-138000000I0J2750000D01*
G01*
X120750000Y-88500000D02*
G75*
G03*
X120750000Y-94000000I0J-2750000D01*
G01*
X202750000Y-187500000D02*
G75*
G03*
X202750000Y-182000000I0J2750000D01*
G01*
X202750000Y-99500000D02*
G75*
G03*
X202750000Y-94000000I0J2750000D01*
G01*
X202750000Y-132500000D02*
G75*
G03*
X202750000Y-127000000I0J2750000D01*
G01*
X120750000Y-341500000D02*
G75*
G03*
X120750000Y-347000000I0J-2750000D01*
G01*
X202750000Y-66500000D02*
G75*
G03*
X202750000Y-61000000I0J2750000D01*
G01*
X202750000Y-110500000D02*
G75*
G03*
X202750000Y-105000000I0J2750000D01*
G01*
X120750000Y-275500000D02*
G75*
G03*
X120750000Y-281000000I0J-2750000D01*
G01*
X120750000Y-220500000D02*
G75*
G03*
X120750000Y-226000000I0J-2750000D01*
G01*
X202750000Y-253500000D02*
G75*
G03*
X202750000Y-248000000I0J2750000D01*
G01*
X120750000Y-121500000D02*
G75*
G03*
X120750000Y-127000000I0J-2750000D01*
G01*
X120750000Y-132500000D02*
G75*
G03*
X120750000Y-138000000I0J-2750000D01*
G01*
X202750000Y-297500000D02*
G75*
G03*
X202750000Y-292000000I0J2750000D01*
G01*
X202750000Y-264500000D02*
G75*
G03*
X202750000Y-259000000I0J2750000D01*
G01*
X120750000Y-242500000D02*
G75*
G03*
X120750000Y-248000000I0J-2750000D01*
G01*
X120750000Y-176500000D02*
G75*
G03*
X120750000Y-182000000I0J-2750000D01*
G01*
X202750000Y-341500000D02*
G75*
G03*
X202750000Y-336000000I0J2750000D01*
G01*
X202750000Y-330500000D02*
G75*
G03*
X202750000Y-325000000I0J2750000D01*
G01*
X202750000Y-121500000D02*
G75*
G03*
X202750000Y-116000000I0J2750000D01*
G01*
D11*
%TO.N,*%
X202750000Y-336000000D02*
X120750000Y-336000000D01*
X120750000Y-264500000D02*
X202750000Y-264500000D01*
X120750000Y-110500000D02*
X202750000Y-110500000D01*
X202750000Y-292000000D02*
X120750000Y-292000000D01*
X120750000Y-352500000D02*
X202750000Y-352500000D01*
X120750000Y-231500000D02*
X202750000Y-231500000D01*
X202750000Y-160000000D02*
X120750000Y-160000000D01*
X120750000Y-99500000D02*
X202750000Y-99500000D01*
X202750000Y-72000000D02*
X120750000Y-72000000D01*
X120750000Y-154500000D02*
X202750000Y-154500000D01*
X120750000Y-132500000D02*
X202750000Y-132500000D01*
X120750000Y-66500000D02*
X202750000Y-66500000D01*
X120750000Y-319500000D02*
X202750000Y-319500000D01*
X202750000Y-61000000D02*
X120750000Y-61000000D01*
X196750000Y-215000000D02*
X120750000Y-215000000D01*
X202750000Y-314000000D02*
X120750000Y-314000000D01*
X202750000Y-94000000D02*
X120750000Y-94000000D01*
X202750000Y-281000000D02*
X120750000Y-281000000D01*
X202750000Y-105000000D02*
X120750000Y-105000000D01*
X202750000Y-204000000D02*
X120750000Y-204000000D01*
X202750000Y-83000000D02*
X120750000Y-83000000D01*
X120750000Y-176500000D02*
X202750000Y-176500000D01*
X120750000Y-275500000D02*
X202750000Y-275500000D01*
X120750000Y-198500000D02*
X202750000Y-198500000D01*
X120750000Y-143500000D02*
X202750000Y-143500000D01*
X120750000Y-341500000D02*
X202750000Y-341500000D01*
X202750000Y-182000000D02*
X120750000Y-182000000D01*
X202750000Y-325000000D02*
X120750000Y-325000000D01*
X120750000Y-77500000D02*
X202750000Y-77500000D01*
X202750000Y-226000000D02*
X120750000Y-226000000D01*
X202750000Y-248000000D02*
X120750000Y-248000000D01*
X120750000Y-209500000D02*
X202750000Y-209500000D01*
X120750000Y-297500000D02*
X202750000Y-297500000D01*
X202750000Y-347000000D02*
X120750000Y-347000000D01*
X202750000Y-237000000D02*
X120750000Y-237000000D01*
X202750000Y-171000000D02*
X120750000Y-171000000D01*
X120750000Y-308500000D02*
X202750000Y-308500000D01*
X202750000Y-303000000D02*
X120750000Y-303000000D01*
X202750000Y-193000000D02*
X120750000Y-193000000D01*
X202750000Y-259000000D02*
X120750000Y-259000000D01*
X120750000Y-88500000D02*
X202750000Y-88500000D01*
X202750000Y-138000000D02*
X120750000Y-138000000D01*
X120750000Y-330500000D02*
X202750000Y-330500000D01*
X202750000Y-127000000D02*
X120750000Y-127000000D01*
X202750000Y-116000000D02*
X120750000Y-116000000D01*
X120750000Y-286500000D02*
X202750000Y-286500000D01*
X120750000Y-187500000D02*
X202750000Y-187500000D01*
X202750000Y-149000000D02*
X120750000Y-149000000D01*
X120750000Y-242500000D02*
X202750000Y-242500000D01*
X202750000Y-270000000D02*
X120750000Y-270000000D01*
X120750000Y-165500000D02*
X202750000Y-165500000D01*
X120750000Y-121500000D02*
X202750000Y-121500000D01*
X196750000Y-220500000D02*
X120750000Y-220500000D01*
X120750000Y-253500000D02*
X202750000Y-253500000D01*
%TD*%
%TA.AperFunction,NonConductor*%
G36*
X204092775Y-349020002D02*
G01*
X204138176Y-349071331D01*
X204188293Y-349175400D01*
X204195173Y-349192930D01*
X204257867Y-349396178D01*
X204262058Y-349414538D01*
X204293760Y-349624871D01*
X204295167Y-349643650D01*
X204295167Y-349856350D01*
X204293760Y-349875129D01*
X204262058Y-350085462D01*
X204257867Y-350103822D01*
X204195173Y-350307070D01*
X204188293Y-350324601D01*
X204096001Y-350516246D01*
X204086585Y-350532554D01*
X203966770Y-350708291D01*
X203955029Y-350723015D01*
X203810347Y-350878946D01*
X203796542Y-350891754D01*
X203788518Y-350898153D01*
X203630246Y-351024370D01*
X203614687Y-351034978D01*
X203430481Y-351141329D01*
X203413514Y-351149500D01*
X203215513Y-351227210D01*
X203197517Y-351232761D01*
X202990149Y-351280091D01*
X202971529Y-351282898D01*
X202927313Y-351286212D01*
X202885416Y-351289352D01*
X202815992Y-351274497D01*
X202765619Y-351224466D01*
X202750000Y-351163704D01*
X202750000Y-349126000D01*
X202770002Y-349057879D01*
X202823658Y-349011386D01*
X202876000Y-349000000D01*
X204024654Y-349000000D01*
X204092775Y-349020002D01*
G37*
%TD.AperFunction*%
%TA.AperFunction,NonConductor*%
G36*
X208692121Y-349020002D02*
G01*
X208738614Y-349073658D01*
X208750000Y-349126000D01*
X208749999Y-354874000D01*
X208729997Y-354942121D01*
X208676341Y-354988614D01*
X208623999Y-355000000D01*
X202876000Y-355000000D01*
X202807879Y-354979998D01*
X202761386Y-354926342D01*
X202750000Y-354874000D01*
X202750000Y-353825226D01*
X202770002Y-353757105D01*
X202823658Y-353710612D01*
X202869817Y-353699378D01*
X203134594Y-353686370D01*
X203134598Y-353686370D01*
X203137684Y-353686218D01*
X203521634Y-353629265D01*
X203898153Y-353534952D01*
X204263614Y-353404187D01*
X204614499Y-353238231D01*
X204663837Y-353208659D01*
X204944777Y-353040271D01*
X204944786Y-353040265D01*
X204947427Y-353038682D01*
X205259193Y-352807460D01*
X205546794Y-352546794D01*
X205807460Y-352259193D01*
X206038682Y-351947427D01*
X206040265Y-351944786D01*
X206040271Y-351944777D01*
X206236648Y-351617140D01*
X206238231Y-351614499D01*
X206305619Y-351472020D01*
X206402867Y-351266405D01*
X206402867Y-351266404D01*
X206404187Y-351263614D01*
X206534952Y-350898153D01*
X206629265Y-350521634D01*
X206686218Y-350137684D01*
X206705264Y-349750000D01*
X206686218Y-349362316D01*
X206685764Y-349359255D01*
X206653907Y-349144488D01*
X206663697Y-349074169D01*
X206709950Y-349020307D01*
X206778543Y-349000000D01*
X208624000Y-349000000D01*
X208692121Y-349020002D01*
G37*
%TD.AperFunction*%
%TA.AperFunction,NonConductor*%
G36*
X120692121Y-349020002D02*
G01*
X120738614Y-349073658D01*
X120750000Y-349126000D01*
X120750000Y-351179405D01*
X120729998Y-351247526D01*
X120676342Y-351294019D01*
X120635531Y-351304875D01*
X120530289Y-351314546D01*
X120524727Y-351316115D01*
X120524725Y-351316115D01*
X120424112Y-351344491D01*
X120317936Y-351374435D01*
X120120053Y-351472020D01*
X120115427Y-351475474D01*
X120115426Y-351475475D01*
X119947891Y-351600580D01*
X119943267Y-351604033D01*
X119793499Y-351766051D01*
X119675764Y-351952650D01*
X119594006Y-352157579D01*
X119550962Y-352373976D01*
X119550886Y-352379751D01*
X119550886Y-352379755D01*
X119549437Y-352490496D01*
X119548074Y-352594594D01*
X119549053Y-352600291D01*
X119549053Y-352600292D01*
X119553475Y-352626024D01*
X119585438Y-352812043D01*
X119661804Y-353019043D01*
X119774614Y-353208659D01*
X119920090Y-353374543D01*
X120093360Y-353511137D01*
X120288620Y-353613869D01*
X120499333Y-353679297D01*
X120638811Y-353695805D01*
X120704107Y-353723675D01*
X120743971Y-353782424D01*
X120750000Y-353820932D01*
X120750000Y-354874000D01*
X120729998Y-354942121D01*
X120676342Y-354988614D01*
X120624000Y-355000000D01*
X114876000Y-355000000D01*
X114807879Y-354979998D01*
X114761386Y-354926342D01*
X114750000Y-354874000D01*
X114750000Y-349126000D01*
X114770002Y-349057879D01*
X114823658Y-349011386D01*
X114876000Y-349000000D01*
X120624000Y-349000000D01*
X120692121Y-349020002D01*
G37*
%TD.AperFunction*%
%TA.AperFunction,NonConductor*%
G36*
X120692121Y-59020002D02*
G01*
X120738614Y-59073658D01*
X120750000Y-59126000D01*
X120750000Y-59679405D01*
X120729998Y-59747526D01*
X120676342Y-59794019D01*
X120635531Y-59804875D01*
X120530289Y-59814546D01*
X120524727Y-59816115D01*
X120524725Y-59816115D01*
X120424112Y-59844491D01*
X120317936Y-59874435D01*
X120120053Y-59972020D01*
X120115427Y-59975474D01*
X120115426Y-59975475D01*
X119947891Y-60100580D01*
X119943267Y-60104033D01*
X119793499Y-60266051D01*
X119675764Y-60452650D01*
X119594006Y-60657579D01*
X119550962Y-60873976D01*
X119550886Y-60879751D01*
X119550886Y-60879755D01*
X119549437Y-60990496D01*
X119548074Y-61094594D01*
X119549053Y-61100291D01*
X119549053Y-61100292D01*
X119553475Y-61126024D01*
X119585438Y-61312043D01*
X119661804Y-61519043D01*
X119774614Y-61708659D01*
X119920090Y-61874543D01*
X120093360Y-62011137D01*
X120288620Y-62113869D01*
X120499333Y-62179297D01*
X120638811Y-62195805D01*
X120704107Y-62223675D01*
X120743971Y-62282424D01*
X120750000Y-62320932D01*
X120750000Y-64874000D01*
X120729998Y-64942121D01*
X120676342Y-64988614D01*
X120624000Y-65000000D01*
X114876000Y-65000000D01*
X114807879Y-64979998D01*
X114761386Y-64926342D01*
X114750000Y-64874000D01*
X114750000Y-59126000D01*
X114770002Y-59057879D01*
X114823658Y-59011386D01*
X114876000Y-59000000D01*
X120624000Y-59000000D01*
X120692121Y-59020002D01*
G37*
%TD.AperFunction*%
%TA.AperFunction,NonConductor*%
G36*
X208692121Y-59020002D02*
G01*
X208738614Y-59073658D01*
X208750000Y-59126000D01*
X208750000Y-64874000D01*
X208729998Y-64942121D01*
X208676342Y-64988614D01*
X208624000Y-65000000D01*
X206670895Y-65000000D01*
X206602774Y-64979998D01*
X206556281Y-64926342D01*
X206546177Y-64856068D01*
X206548671Y-64843385D01*
X206628515Y-64524628D01*
X206629265Y-64521634D01*
X206686218Y-64137684D01*
X206705264Y-63750000D01*
X206686218Y-63362316D01*
X206629265Y-62978366D01*
X206534952Y-62601847D01*
X206404187Y-62236386D01*
X206238231Y-61885501D01*
X206223116Y-61860283D01*
X206040271Y-61555223D01*
X206040265Y-61555214D01*
X206038682Y-61552573D01*
X206013814Y-61519043D01*
X205809307Y-61243297D01*
X205809304Y-61243293D01*
X205807460Y-61240807D01*
X205546794Y-60953206D01*
X205259193Y-60692540D01*
X204947427Y-60461318D01*
X204944786Y-60459735D01*
X204944777Y-60459729D01*
X204617140Y-60263352D01*
X204617141Y-60263352D01*
X204614499Y-60261769D01*
X204263614Y-60095813D01*
X203898153Y-59965048D01*
X203521634Y-59870735D01*
X203137684Y-59813782D01*
X203134598Y-59813630D01*
X203134594Y-59813630D01*
X202869817Y-59800622D01*
X202802760Y-59777302D01*
X202758956Y-59721429D01*
X202750000Y-59674774D01*
X202750000Y-59126000D01*
X202770002Y-59057879D01*
X202823658Y-59011386D01*
X202876000Y-59000000D01*
X208624000Y-59000000D01*
X208692121Y-59020002D01*
G37*
%TD.AperFunction*%
%TA.AperFunction,NonConductor*%
G36*
X202933375Y-62214242D02*
G01*
X202971529Y-62217102D01*
X202990149Y-62219909D01*
X203197517Y-62267239D01*
X203215513Y-62272790D01*
X203413514Y-62350500D01*
X203430481Y-62358671D01*
X203614687Y-62465022D01*
X203630247Y-62475630D01*
X203792288Y-62604853D01*
X203796541Y-62608245D01*
X203810347Y-62621054D01*
X203955029Y-62776985D01*
X203966770Y-62791709D01*
X204086585Y-62967446D01*
X204096001Y-62983754D01*
X204188293Y-63175399D01*
X204195173Y-63192930D01*
X204257867Y-63396178D01*
X204262058Y-63414538D01*
X204293760Y-63624871D01*
X204295167Y-63643650D01*
X204295167Y-63856350D01*
X204293760Y-63875129D01*
X204262058Y-64085462D01*
X204257867Y-64103822D01*
X204195173Y-64307070D01*
X204188293Y-64324601D01*
X204096001Y-64516246D01*
X204086585Y-64532554D01*
X203966770Y-64708291D01*
X203955029Y-64723015D01*
X203810347Y-64878946D01*
X203796541Y-64891755D01*
X203695275Y-64972511D01*
X203629545Y-64999345D01*
X203616716Y-65000000D01*
X202876000Y-65000000D01*
X202807879Y-64979998D01*
X202761386Y-64926342D01*
X202750000Y-64874000D01*
X202750000Y-62336296D01*
X202770002Y-62268175D01*
X202823658Y-62221682D01*
X202885415Y-62210648D01*
X202933375Y-62214242D01*
G37*
%TD.AperFunction*%
M02*
