%TF.GenerationSoftware,KiCad,Pcbnew,(6.0.4)*%
%TF.CreationDate,2022-11-13T13:18:27+02:00*%
%TF.ProjectId,pcb_heater_element,7063625f-6865-4617-9465-725f656c656d,rev?*%
%TF.SameCoordinates,Original*%
%TF.FileFunction,Copper,L1,Top*%
%TF.FilePolarity,Positive*%
%FSLAX46Y46*%
G04 Gerber Fmt 4.6, Leading zero omitted, Abs format (unit mm)*
G04 Created by KiCad (PCBNEW (6.0.4)) date 2022-11-13 13:18:27*
%MOMM*%
%LPD*%
G01*
G04 APERTURE LIST*
%TA.AperFunction,NonConductor*%
%ADD10C,4.000000*%
%TD*%
%TA.AperFunction,ViaPad*%
%ADD11C,0.800000*%
%TD*%
%TA.AperFunction,Conductor*%
%ADD12C,4.000000*%
%TD*%
G04 APERTURE END LIST*
D10*
X120750000Y-247250000D02*
G75*
G03*
X120750000Y-255250000I0J-4000000D01*
G01*
X202750000Y-71250000D02*
G75*
G03*
X202750000Y-63250000I0J4000000D01*
G01*
X120750000Y-263250000D02*
G75*
G03*
X120750000Y-271250000I0J-4000000D01*
G01*
X202750000Y-87250000D02*
G75*
G03*
X202750000Y-79250000I0J4000000D01*
G01*
X202750000Y-199250000D02*
G75*
G03*
X202750000Y-191250000I0J4000000D01*
G01*
X202750000Y-135250000D02*
G75*
G03*
X202750000Y-127250000I0J4000000D01*
G01*
X120750000Y-71250000D02*
G75*
G03*
X120750000Y-79250000I0J-4000000D01*
G01*
X202750000Y-167250000D02*
G75*
G03*
X202750000Y-159250000I0J4000000D01*
G01*
X202750000Y-247250000D02*
G75*
G03*
X202750000Y-239250000I0J4000000D01*
G01*
X202750000Y-183250000D02*
G75*
G03*
X202750000Y-175250000I0J4000000D01*
G01*
X202750000Y-295250000D02*
G75*
G03*
X202750000Y-287250000I0J4000000D01*
G01*
X120750000Y-87250000D02*
G75*
G03*
X120750000Y-95250000I0J-4000000D01*
G01*
X120750000Y-167250000D02*
G75*
G03*
X120750000Y-175250000I0J-4000000D01*
G01*
X120750000Y-279250000D02*
G75*
G03*
X120750000Y-287250000I0J-4000000D01*
G01*
X202750000Y-327250000D02*
G75*
G03*
X202750000Y-319250000I0J4000000D01*
G01*
X202750000Y-311250000D02*
G75*
G03*
X202750000Y-303250000I0J4000000D01*
G01*
X120750000Y-343250000D02*
G75*
G03*
X120750000Y-351250000I0J-4000000D01*
G01*
X120750000Y-103250000D02*
G75*
G03*
X120750000Y-111250000I0J-4000000D01*
G01*
X120750000Y-119250000D02*
G75*
G03*
X120750000Y-127250000I0J-4000000D01*
G01*
X202750000Y-103250000D02*
G75*
G03*
X202750000Y-95250000I0J4000000D01*
G01*
X120750000Y-295250000D02*
G75*
G03*
X120750000Y-303250000I0J-4000000D01*
G01*
X120750000Y-327250000D02*
G75*
G03*
X120750000Y-335250000I0J-4000000D01*
G01*
X202750000Y-231250000D02*
G75*
G03*
X202750000Y-223250000I0J4000000D01*
G01*
X202750000Y-279250000D02*
G75*
G03*
X202750000Y-271250000I0J4000000D01*
G01*
X120750000Y-231250000D02*
G75*
G03*
X120750000Y-239250000I0J-4000000D01*
G01*
X120750000Y-183250000D02*
G75*
G03*
X120750000Y-191250000I0J-4000000D01*
G01*
X202750000Y-215250000D02*
G75*
G03*
X202750000Y-207250000I0J4000000D01*
G01*
X202750000Y-151250000D02*
G75*
G03*
X202750000Y-143250000I0J4000000D01*
G01*
X202750000Y-119250000D02*
G75*
G03*
X202750000Y-111250000I0J4000000D01*
G01*
X202750000Y-263250000D02*
G75*
G03*
X202750000Y-255250000I0J4000000D01*
G01*
X120750000Y-135250000D02*
G75*
G03*
X120750000Y-143250000I0J-4000000D01*
G01*
X202750000Y-343250000D02*
G75*
G03*
X202750000Y-335250000I0J4000000D01*
G01*
X120750000Y-199250000D02*
G75*
G03*
X120750000Y-207250000I0J-4000000D01*
G01*
X120750000Y-215250000D02*
G75*
G03*
X120750000Y-223250000I0J-4000000D01*
G01*
X120750000Y-311250000D02*
G75*
G03*
X120750000Y-319250000I0J-4000000D01*
G01*
X120750000Y-151250000D02*
G75*
G03*
X120750000Y-159250000I0J-4000000D01*
G01*
D11*
%TO.N,*%
X111750732Y-218750000D03*
X111750732Y-220750000D03*
X111750732Y-217750000D03*
X111750732Y-221750000D03*
X111750732Y-216750000D03*
X111750732Y-215750000D03*
X111750732Y-219750000D03*
X111750732Y-222750000D03*
%TD*%
D12*
%TO.N,*%
X202750000Y-223250000D02*
X120750000Y-223250000D01*
X120750000Y-71250000D02*
X202750000Y-71250000D01*
X120750000Y-263250000D02*
X202750000Y-263250000D01*
X202750000Y-159250000D02*
X120750000Y-159250000D01*
X120750000Y-351250000D02*
X202750000Y-351250000D01*
X202750000Y-335250000D02*
X120750000Y-335250000D01*
X120750000Y-151250000D02*
X202750000Y-151250000D01*
X202750000Y-303250000D02*
X120750000Y-303250000D01*
X120750000Y-343250000D02*
X202750000Y-343250000D01*
X202750000Y-95250000D02*
X120750000Y-95250000D01*
X202750000Y-127250000D02*
X120750000Y-127250000D01*
X120750000Y-199250000D02*
X202750000Y-199250000D01*
X202750000Y-79250000D02*
X120750000Y-79250000D01*
X120750000Y-103250000D02*
X202750000Y-103250000D01*
X202750000Y-207250000D02*
X120750000Y-207250000D01*
X120750000Y-87250000D02*
X202750000Y-87250000D01*
X120750000Y-183250000D02*
X202750000Y-183250000D01*
X202750000Y-143250000D02*
X120750000Y-143250000D01*
X120750000Y-279250000D02*
X202750000Y-279250000D01*
X202750000Y-111250000D02*
X120750000Y-111250000D01*
X120750000Y-215250000D02*
X202750000Y-215250000D01*
X202750000Y-63250000D02*
X120750000Y-63250000D01*
X120750000Y-231250000D02*
X202750000Y-231250000D01*
X202750000Y-255250000D02*
X120750000Y-255250000D01*
X202750000Y-175250000D02*
X120750000Y-175250000D01*
X202750000Y-319250000D02*
X120750000Y-319250000D01*
X120750000Y-119250000D02*
X202750000Y-119250000D01*
X202750000Y-191250000D02*
X120750000Y-191250000D01*
X202750000Y-271250000D02*
X120750000Y-271250000D01*
X120750000Y-311250000D02*
X202750000Y-311250000D01*
X120750000Y-247250000D02*
X202750000Y-247250000D01*
X120750000Y-327250000D02*
X202750000Y-327250000D01*
X120750000Y-135250000D02*
X202750000Y-135250000D01*
X202750000Y-239250000D02*
X120750000Y-239250000D01*
X120750000Y-295250000D02*
X202750000Y-295250000D01*
X120750000Y-167250000D02*
X202750000Y-167250000D01*
X202750000Y-287250000D02*
X120750000Y-287250000D01*
%TD*%
%TA.AperFunction,NonConductor*%
G36*
X120692121Y-60270002D02*
G01*
X120738614Y-60323658D01*
X120750000Y-60376000D01*
X120750000Y-60926666D01*
X120729998Y-60994787D01*
X120676342Y-61041280D01*
X120632350Y-61052389D01*
X120496040Y-61061443D01*
X120458318Y-61063948D01*
X120454224Y-61064773D01*
X120454220Y-61064774D01*
X120316905Y-61092462D01*
X120171761Y-61121728D01*
X119895363Y-61216900D01*
X119891630Y-61218769D01*
X119891626Y-61218771D01*
X119637724Y-61345916D01*
X119633980Y-61347791D01*
X119630515Y-61350146D01*
X119473627Y-61456767D01*
X119392205Y-61512101D01*
X119174284Y-61706945D01*
X118984047Y-61928898D01*
X118824836Y-62174062D01*
X118699448Y-62438129D01*
X118610086Y-62716459D01*
X118558319Y-63004164D01*
X118545059Y-63296187D01*
X118570536Y-63587399D01*
X118634305Y-63872683D01*
X118735244Y-64147027D01*
X118737188Y-64150715D01*
X118737192Y-64150723D01*
X118829573Y-64325938D01*
X118871580Y-64405612D01*
X119040918Y-64643893D01*
X119240283Y-64857686D01*
X119466171Y-65043233D01*
X119714616Y-65197275D01*
X119981250Y-65317105D01*
X120067923Y-65342944D01*
X120257394Y-65399428D01*
X120257402Y-65399430D01*
X120261391Y-65400619D01*
X120265508Y-65401271D01*
X120265512Y-65401272D01*
X120546649Y-65445799D01*
X120546654Y-65445799D01*
X120550117Y-65446348D01*
X120602751Y-65448738D01*
X120629716Y-65449963D01*
X120696860Y-65473035D01*
X120740870Y-65528744D01*
X120750000Y-65575833D01*
X120750000Y-66124000D01*
X120729998Y-66192121D01*
X120676342Y-66238614D01*
X120624000Y-66250000D01*
X114876000Y-66250000D01*
X114807879Y-66229998D01*
X114761386Y-66176342D01*
X114750000Y-66124000D01*
X114750000Y-60376000D01*
X114770002Y-60307879D01*
X114823658Y-60261386D01*
X114876000Y-60250000D01*
X120624000Y-60250000D01*
X120692121Y-60270002D01*
G37*
%TD.AperFunction*%
%TA.AperFunction,NonConductor*%
G36*
X208692121Y-60270002D02*
G01*
X208738614Y-60323658D01*
X208750000Y-60376000D01*
X208750000Y-64893676D01*
X208729998Y-64961797D01*
X208676342Y-65008290D01*
X208606068Y-65018394D01*
X208541488Y-64988900D01*
X208505788Y-64937287D01*
X208483788Y-64877653D01*
X208483787Y-64877652D01*
X208482935Y-64875341D01*
X208278949Y-64432860D01*
X208040874Y-64007748D01*
X207770180Y-63602626D01*
X207528604Y-63296187D01*
X207470062Y-63221926D01*
X207470052Y-63221914D01*
X207468535Y-63219990D01*
X207137798Y-62862202D01*
X206780010Y-62531465D01*
X206778086Y-62529948D01*
X206778074Y-62529938D01*
X206399322Y-62231356D01*
X206397374Y-62229820D01*
X205992252Y-61959126D01*
X205567140Y-61721051D01*
X205124659Y-61517065D01*
X204667538Y-61348424D01*
X204665154Y-61347752D01*
X204665149Y-61347750D01*
X204200983Y-61216841D01*
X204200971Y-61216838D01*
X204198595Y-61216168D01*
X204196175Y-61215687D01*
X204196164Y-61215684D01*
X203889226Y-61154631D01*
X203720720Y-61121113D01*
X203564886Y-61102669D01*
X203239315Y-61064135D01*
X203239304Y-61064134D01*
X203236861Y-61063845D01*
X203009349Y-61054906D01*
X202942066Y-61032245D01*
X202897716Y-60976805D01*
X202890743Y-60953714D01*
X202780142Y-60400711D01*
X202786396Y-60329990D01*
X202829892Y-60273877D01*
X202903695Y-60250000D01*
X208624000Y-60250000D01*
X208692121Y-60270002D01*
G37*
%TD.AperFunction*%
%TA.AperFunction,NonConductor*%
G36*
X208692121Y-348270002D02*
G01*
X208738614Y-348323658D01*
X208750000Y-348376000D01*
X208750000Y-354124000D01*
X208729998Y-354192121D01*
X208676342Y-354238614D01*
X208624000Y-354250000D01*
X202876000Y-354250000D01*
X202807879Y-354229998D01*
X202761386Y-354176342D01*
X202750000Y-354124000D01*
X202750000Y-353573334D01*
X202770002Y-353505213D01*
X202823658Y-353458720D01*
X202867650Y-353447611D01*
X203037511Y-353436329D01*
X203041682Y-353436052D01*
X203045776Y-353435227D01*
X203045780Y-353435226D01*
X203217410Y-353400619D01*
X203328239Y-353378272D01*
X203604637Y-353283100D01*
X203608370Y-353281231D01*
X203608374Y-353281229D01*
X203862276Y-353154084D01*
X203862278Y-353154083D01*
X203866020Y-353152209D01*
X203967013Y-353083575D01*
X204104336Y-352990250D01*
X204104339Y-352990248D01*
X204107795Y-352987899D01*
X204325716Y-352793055D01*
X204515953Y-352571102D01*
X204675164Y-352325938D01*
X204800552Y-352061871D01*
X204889914Y-351783541D01*
X204941681Y-351495836D01*
X204954941Y-351203813D01*
X204929464Y-350912601D01*
X204865695Y-350627317D01*
X204764756Y-350352973D01*
X204762812Y-350349285D01*
X204762808Y-350349277D01*
X204630373Y-350098092D01*
X204630372Y-350098091D01*
X204628420Y-350094388D01*
X204459082Y-349856107D01*
X204259717Y-349642314D01*
X204033829Y-349456767D01*
X203785384Y-349302725D01*
X203518750Y-349182895D01*
X203432077Y-349157056D01*
X203242606Y-349100572D01*
X203242598Y-349100570D01*
X203238609Y-349099381D01*
X203234492Y-349098729D01*
X203234488Y-349098728D01*
X202953351Y-349054201D01*
X202953346Y-349054201D01*
X202949883Y-349053652D01*
X202897249Y-349051262D01*
X202870284Y-349050037D01*
X202803140Y-349026965D01*
X202759130Y-348971256D01*
X202750000Y-348924167D01*
X202750000Y-348376000D01*
X202770002Y-348307879D01*
X202823658Y-348261386D01*
X202876000Y-348250000D01*
X208624000Y-348250000D01*
X208692121Y-348270002D01*
G37*
%TD.AperFunction*%
%TA.AperFunction,NonConductor*%
G36*
X114958512Y-349511100D02*
G01*
X114994212Y-349562713D01*
X115017065Y-349624659D01*
X115221051Y-350067140D01*
X115459126Y-350492252D01*
X115729820Y-350897374D01*
X115731356Y-350899322D01*
X116029938Y-351278074D01*
X116029948Y-351278086D01*
X116031465Y-351280010D01*
X116362202Y-351637798D01*
X116719990Y-351968535D01*
X116721914Y-351970052D01*
X116721926Y-351970062D01*
X116989754Y-352181199D01*
X117102626Y-352270180D01*
X117507748Y-352540874D01*
X117932860Y-352778949D01*
X118375341Y-352982935D01*
X118832462Y-353151576D01*
X118834846Y-353152248D01*
X118834851Y-353152250D01*
X119299017Y-353283159D01*
X119299029Y-353283162D01*
X119301405Y-353283832D01*
X119303825Y-353284313D01*
X119303836Y-353284316D01*
X119610774Y-353345369D01*
X119779280Y-353378887D01*
X119935114Y-353397331D01*
X120260685Y-353435865D01*
X120260696Y-353435866D01*
X120263139Y-353436155D01*
X120490651Y-353445094D01*
X120557934Y-353467755D01*
X120602284Y-353523195D01*
X120609257Y-353546286D01*
X120719858Y-354099289D01*
X120713604Y-354170010D01*
X120670108Y-354226123D01*
X120596305Y-354250000D01*
X114876000Y-354250000D01*
X114807879Y-354229998D01*
X114761386Y-354176342D01*
X114750000Y-354124000D01*
X114750000Y-349606324D01*
X114770002Y-349538203D01*
X114823658Y-349491710D01*
X114893932Y-349481606D01*
X114958512Y-349511100D01*
G37*
%TD.AperFunction*%
M02*
