%TF.GenerationSoftware,KiCad,Pcbnew,(6.0.4)*%
%TF.CreationDate,2022-11-13T13:18:27+02:00*%
%TF.ProjectId,pcb_heater_element,7063625f-6865-4617-9465-725f656c656d,rev?*%
%TF.SameCoordinates,Original*%
%TF.FileFunction,Legend,Top*%
%TF.FilePolarity,Positive*%
%FSLAX46Y46*%
G04 Gerber Fmt 4.6, Leading zero omitted, Abs format (unit mm)*
G04 Created by KiCad (PCBNEW (6.0.4)) date 2022-11-13 13:18:27*
%MOMM*%
%LPD*%
G01*
G04 APERTURE LIST*
%ADD10C,0.200000*%
%ADD11C,0.250000*%
G04 APERTURE END LIST*
D10*
X112700000Y-347300000D02*
X121700000Y-347300000D01*
X210700000Y-355300000D02*
X201700000Y-355300000D01*
X121750000Y-59200000D02*
X121750000Y-67300000D01*
X112750000Y-59200000D02*
X121750000Y-59200000D01*
X121700000Y-347300000D02*
X121700000Y-355400000D01*
X121700000Y-355400000D02*
X112700000Y-355400000D01*
X201750000Y-67300000D02*
X201750000Y-59200000D01*
X210750000Y-67300000D02*
X201750000Y-67300000D01*
X201750000Y-59200000D02*
X210750000Y-59200000D01*
X201700000Y-347200000D02*
X210700000Y-347200000D01*
X201700000Y-355300000D02*
X201700000Y-347200000D01*
X121750000Y-67300000D02*
X112750000Y-67300000D01*
D11*
X157130952Y-354702380D02*
X157130952Y-355416666D01*
X157083333Y-355559523D01*
X156988095Y-355654761D01*
X156845238Y-355702380D01*
X156750000Y-355702380D01*
X158083333Y-355702380D02*
X157607142Y-355702380D01*
X157607142Y-354702380D01*
X158988095Y-355607142D02*
X158940476Y-355654761D01*
X158797619Y-355702380D01*
X158702380Y-355702380D01*
X158559523Y-355654761D01*
X158464285Y-355559523D01*
X158416666Y-355464285D01*
X158369047Y-355273809D01*
X158369047Y-355130952D01*
X158416666Y-354940476D01*
X158464285Y-354845238D01*
X158559523Y-354750000D01*
X158702380Y-354702380D01*
X158797619Y-354702380D01*
X158940476Y-354750000D01*
X158988095Y-354797619D01*
X159702380Y-354702380D02*
X159702380Y-355416666D01*
X159654761Y-355559523D01*
X159559523Y-355654761D01*
X159416666Y-355702380D01*
X159321428Y-355702380D01*
X160654761Y-355702380D02*
X160178571Y-355702380D01*
X160178571Y-354702380D01*
X161559523Y-355607142D02*
X161511904Y-355654761D01*
X161369047Y-355702380D01*
X161273809Y-355702380D01*
X161130952Y-355654761D01*
X161035714Y-355559523D01*
X160988095Y-355464285D01*
X160940476Y-355273809D01*
X160940476Y-355130952D01*
X160988095Y-354940476D01*
X161035714Y-354845238D01*
X161130952Y-354750000D01*
X161273809Y-354702380D01*
X161369047Y-354702380D01*
X161511904Y-354750000D01*
X161559523Y-354797619D01*
X162273809Y-354702380D02*
X162273809Y-355416666D01*
X162226190Y-355559523D01*
X162130952Y-355654761D01*
X161988095Y-355702380D01*
X161892857Y-355702380D01*
X163226190Y-355702380D02*
X162750000Y-355702380D01*
X162750000Y-354702380D01*
X164130952Y-355607142D02*
X164083333Y-355654761D01*
X163940476Y-355702380D01*
X163845238Y-355702380D01*
X163702380Y-355654761D01*
X163607142Y-355559523D01*
X163559523Y-355464285D01*
X163511904Y-355273809D01*
X163511904Y-355130952D01*
X163559523Y-354940476D01*
X163607142Y-354845238D01*
X163702380Y-354750000D01*
X163845238Y-354702380D01*
X163940476Y-354702380D01*
X164083333Y-354750000D01*
X164130952Y-354797619D01*
X164845238Y-354702380D02*
X164845238Y-355416666D01*
X164797619Y-355559523D01*
X164702380Y-355654761D01*
X164559523Y-355702380D01*
X164464285Y-355702380D01*
X165797619Y-355702380D02*
X165321428Y-355702380D01*
X165321428Y-354702380D01*
X166702380Y-355607142D02*
X166654761Y-355654761D01*
X166511904Y-355702380D01*
X166416666Y-355702380D01*
X166273809Y-355654761D01*
X166178571Y-355559523D01*
X166130952Y-355464285D01*
X166083333Y-355273809D01*
X166083333Y-355130952D01*
X166130952Y-354940476D01*
X166178571Y-354845238D01*
X166273809Y-354750000D01*
X166416666Y-354702380D01*
X166511904Y-354702380D01*
X166654761Y-354750000D01*
X166702380Y-354797619D01*
M02*
