  0
SECTION
  2
HEADER
  9
$ANGBASE
  50
0.0
  9
$ANGDIR
  70
1
  9
$MEASUREMENT
  70
1
  0
ENDSEC
  0
SECTION
  2
TABLES
  0
TABLE
  2
LTYPE
  70
4
  0
LTYPE
  5
40F
  2
CONTINUOUS
  70
0
  3
Solid line
  72
65
  73
0
  40
0.0
  0
LTYPE
  5
410
  2
DASHDOT
 70
0
  3
Dash Dot ____ _ ____ _
 72
65
 73
4
 40
2.0
 49
1.25
 49
-0.25
 49
0.25
 49
-0.25
  0
LTYPE
  5
411
  2
DASHED
 70
0
  3
Dashed __ __ __ __ __
 72
65
 73
2
 40
0.75
 49
0.5
 49
-0.25
  0
LTYPE
  5
43B
  2
DOTTED
 70
0
  3
Dotted .  .  .  .
 72
65
 73
2
 40
0.2
 49
0.0
 49
-0.2
  0
ENDTAB
  0
TABLE
  2
STYLE
  70
4
  0
STYLE
  2
KICAD
  70
0
  40
0
  41
1
  42
1
  50
0
  71
0
  3
isocp.shx
  0
STYLE
  2
KICADB
  70
0
  40
0
  41
1
  42
1
  50
0
  71
0
  3
isocp.shx
  0
STYLE
  2
KICADI
  70
0
  40
0
  41
1
  42
1
  50
15
  71
0
  3
isocp.shx
  0
STYLE
  2
KICADBI
  70
0
  40
0
  41
1
  42
1
  50
15
  71
0
  3
isocp.shx
  0
ENDTAB
  0
TABLE
  2
LAYER
  70
1
  0
LAYER
  2
BLACK
  70
0
  62
7
  6
CONTINUOUS
  0
ENDTAB
  0
ENDSEC
  0
SECTION
  2
ENTITIES
0
LINE
8
BLACK
6
CONTINUOUS
10
98.1921
20
-61.52
11
98.2386
21
-61.5737
0
LINE
8
BLACK
6
CONTINUOUS
10
98.2386
20
-61.5737
11
98.25
21
-61.626
0
LINE
8
BLACK
6
CONTINUOUS
10
98.25
20
-61.626
11
98.25
21
-67.374
0
LINE
8
BLACK
6
CONTINUOUS
10
98.25
20
-67.374
11
98.23
21
-67.4421
0
LINE
8
BLACK
6
CONTINUOUS
10
98.23
20
-67.4421
11
98.1763
21
-67.4886
0
LINE
8
BLACK
6
CONTINUOUS
10
98.1763
20
-67.4886
11
98.124
21
-67.5
0
LINE
8
BLACK
6
CONTINUOUS
10
98.124
20
-67.5
11
92.376
21
-67.5
0
LINE
8
BLACK
6
CONTINUOUS
10
92.376
20
-67.5
11
92.3079
21
-67.48
0
LINE
8
BLACK
6
CONTINUOUS
10
92.3079
20
-67.48
11
92.2614
21
-67.4263
0
LINE
8
BLACK
6
CONTINUOUS
10
92.2614
20
-67.4263
11
92.25
21
-67.374
0
LINE
8
BLACK
6
CONTINUOUS
10
92.25
20
-67.374
11
92.25
21
-61.626
0
LINE
8
BLACK
6
CONTINUOUS
10
92.25
20
-61.626
11
92.27
21
-61.5579
0
LINE
8
BLACK
6
CONTINUOUS
10
92.27
20
-61.5579
11
92.3237
21
-61.5114
0
LINE
8
BLACK
6
CONTINUOUS
10
92.3237
20
-61.5114
11
92.376
21
-61.5
0
LINE
8
BLACK
6
CONTINUOUS
10
92.376
20
-61.5
11
98.124
21
-61.5
0
LINE
8
BLACK
6
CONTINUOUS
10
98.124
20
-61.5
11
98.1921
21
-61.52
0
LINE
8
BLACK
6
CONTINUOUS
10
110.192
20
-61.52
11
110.239
21
-61.5737
0
LINE
8
BLACK
6
CONTINUOUS
10
110.239
20
-61.5737
11
110.25
21
-61.626
0
LINE
8
BLACK
6
CONTINUOUS
10
110.25
20
-61.626
11
110.25
21
-67.374
0
LINE
8
BLACK
6
CONTINUOUS
10
110.25
20
-67.374
11
110.23
21
-67.4421
0
LINE
8
BLACK
6
CONTINUOUS
10
110.23
20
-67.4421
11
110.176
21
-67.4886
0
LINE
8
BLACK
6
CONTINUOUS
10
110.176
20
-67.4886
11
110.124
21
-67.5
0
LINE
8
BLACK
6
CONTINUOUS
10
110.124
20
-67.5
11
104.376
21
-67.5
0
LINE
8
BLACK
6
CONTINUOUS
10
104.376
20
-67.5
11
104.308
21
-67.48
0
LINE
8
BLACK
6
CONTINUOUS
10
104.308
20
-67.48
11
104.261
21
-67.4263
0
LINE
8
BLACK
6
CONTINUOUS
10
104.261
20
-67.4263
11
104.25
21
-67.374
0
LINE
8
BLACK
6
CONTINUOUS
10
104.25
20
-67.374
11
104.25
21
-61.626
0
LINE
8
BLACK
6
CONTINUOUS
10
104.25
20
-61.626
11
104.27
21
-61.5579
0
LINE
8
BLACK
6
CONTINUOUS
10
104.27
20
-61.5579
11
104.324
21
-61.5114
0
LINE
8
BLACK
6
CONTINUOUS
10
104.324
20
-61.5114
11
104.376
21
-61.5
0
LINE
8
BLACK
6
CONTINUOUS
10
104.376
20
-61.5
11
110.124
21
-61.5
0
LINE
8
BLACK
6
CONTINUOUS
10
110.124
20
-61.5
11
110.192
21
-61.52
  0
ENDSEC
  0
EOF
