%TF.GenerationSoftware,KiCad,Pcbnew,(6.0.4)*%
%TF.CreationDate,2022-11-12T02:37:30+02:00*%
%TF.ProjectId,pcb_heater,7063625f-6865-4617-9465-722e6b696361,rev?*%
%TF.SameCoordinates,Original*%
%TF.FileFunction,Copper,L1,Top*%
%TF.FilePolarity,Positive*%
%FSLAX46Y46*%
G04 Gerber Fmt 4.6, Leading zero omitted, Abs format (unit mm)*
G04 Created by KiCad (PCBNEW (6.0.4)) date 2022-11-12 02:37:30*
%MOMM*%
%LPD*%
G01*
G04 APERTURE LIST*
%TA.AperFunction,NonConductor*%
%ADD10C,3.360000*%
%TD*%
%TA.AperFunction,Conductor*%
%ADD11C,3.360000*%
%TD*%
G04 APERTURE END LIST*
D10*
X113750000Y-297000000D02*
G75*
G03*
X118750000Y-302000000I5000000J0D01*
G01*
X214750000Y-72000000D02*
G75*
G03*
X219750000Y-67000000I0J5000000D01*
G01*
X113750000Y-77000000D02*
G75*
G03*
X118750000Y-82000000I5000000J0D01*
G01*
X113750000Y-277000000D02*
G75*
G03*
X118750000Y-282000000I5000000J0D01*
G01*
X113750000Y-197000000D02*
G75*
G03*
X118750000Y-202000000I5000000J0D01*
G01*
X118750000Y-112000000D02*
G75*
G03*
X113750000Y-117000000I0J-5000000D01*
G01*
X118750000Y-212000000D02*
G75*
G03*
X113750000Y-217000000I0J-5000000D01*
G01*
X118750000Y-172000000D02*
G75*
G03*
X113750000Y-177000000I0J-5000000D01*
G01*
X118750000Y-152000000D02*
G75*
G03*
X113750000Y-157000000I0J-5000000D01*
G01*
X214750000Y-292000000D02*
G75*
G03*
X219750000Y-287000000I0J5000000D01*
G01*
X219750000Y-187000000D02*
G75*
G03*
X214750000Y-182000000I-5000000J0D01*
G01*
X214750000Y-112000000D02*
G75*
G03*
X219750000Y-107000000I0J5000000D01*
G01*
X219750000Y-247000000D02*
G75*
G03*
X214750000Y-242000000I-5000000J0D01*
G01*
X118750000Y-192000000D02*
G75*
G03*
X113750000Y-197000000I0J-5000000D01*
G01*
X118750000Y-232000000D02*
G75*
G03*
X113750000Y-237000000I0J-5000000D01*
G01*
X118750000Y-252000000D02*
G75*
G03*
X113750000Y-257000000I0J-5000000D01*
G01*
X113750000Y-137000000D02*
G75*
G03*
X118750000Y-142000000I5000000J0D01*
G01*
X113750000Y-257000000D02*
G75*
G03*
X118750000Y-262000000I5000000J0D01*
G01*
X219750000Y-127000000D02*
G75*
G03*
X214750000Y-122000000I-5000000J0D01*
G01*
X219750000Y-287000000D02*
G75*
G03*
X214750000Y-282000000I-5000000J0D01*
G01*
X113750000Y-157000000D02*
G75*
G03*
X118750000Y-162000000I5000000J0D01*
G01*
X214750000Y-212000000D02*
G75*
G03*
X219750000Y-207000000I0J5000000D01*
G01*
X113750000Y-217000000D02*
G75*
G03*
X118750000Y-222000000I5000000J0D01*
G01*
X219750000Y-227000000D02*
G75*
G03*
X214750000Y-222000000I-5000000J0D01*
G01*
X214750000Y-192000000D02*
G75*
G03*
X219750000Y-187000000I0J5000000D01*
G01*
X113750000Y-117000000D02*
G75*
G03*
X118750000Y-122000000I5000000J0D01*
G01*
X214750000Y-272000000D02*
G75*
G03*
X219750000Y-267000000I0J5000000D01*
G01*
X219750000Y-167000000D02*
G75*
G03*
X214750000Y-162000000I-5000000J0D01*
G01*
X214750000Y-252000000D02*
G75*
G03*
X219750000Y-247000000I0J5000000D01*
G01*
X118750000Y-272000000D02*
G75*
G03*
X113750000Y-277000000I0J-5000000D01*
G01*
X118750000Y-292000000D02*
G75*
G03*
X113750000Y-297000000I0J-5000000D01*
G01*
X219750000Y-87000000D02*
G75*
G03*
X214750000Y-82000000I-5000000J0D01*
G01*
X113750000Y-237000000D02*
G75*
G03*
X118750000Y-242000000I5000000J0D01*
G01*
X219750000Y-267000000D02*
G75*
G03*
X214750000Y-262000000I-5000000J0D01*
G01*
X214750000Y-92000000D02*
G75*
G03*
X219750000Y-87000000I0J5000000D01*
G01*
X214750000Y-232000000D02*
G75*
G03*
X219750000Y-227000000I0J5000000D01*
G01*
X214750000Y-152000000D02*
G75*
G03*
X219750000Y-147000000I0J5000000D01*
G01*
X219750000Y-147000000D02*
G75*
G03*
X214750000Y-142000000I-5000000J0D01*
G01*
X214750000Y-172000000D02*
G75*
G03*
X219750000Y-167000000I0J5000000D01*
G01*
X113750000Y-97000000D02*
G75*
G03*
X118750000Y-102000000I5000000J0D01*
G01*
X118750000Y-92000000D02*
G75*
G03*
X113750000Y-97000000I0J-5000000D01*
G01*
X219750000Y-207000000D02*
G75*
G03*
X214750000Y-202000000I-5000000J0D01*
G01*
X118750000Y-72000000D02*
G75*
G03*
X113750000Y-77000000I0J-5000000D01*
G01*
X113750000Y-177000000D02*
G75*
G03*
X118750000Y-182000000I5000000J0D01*
G01*
X214750000Y-132000000D02*
G75*
G03*
X219750000Y-127000000I0J5000000D01*
G01*
X219750000Y-107000000D02*
G75*
G03*
X214750000Y-102000000I-5000000J0D01*
G01*
X118750000Y-132000000D02*
G75*
G03*
X113750000Y-137000000I0J-5000000D01*
G01*
D11*
%TO.N,*%
X118750000Y-262000000D02*
X214750000Y-262000000D01*
X118750000Y-102000000D02*
X214750000Y-102000000D01*
X118750000Y-282000000D02*
X214750000Y-282000000D01*
X118750000Y-152000000D02*
X214750000Y-152000000D01*
X118750000Y-242000000D02*
X214750000Y-242000000D01*
X118750000Y-82000000D02*
X214750000Y-82000000D01*
X118750000Y-232000000D02*
X214750000Y-232000000D01*
X118750000Y-92000000D02*
X214750000Y-92000000D01*
X118750000Y-222000000D02*
X214750000Y-222000000D01*
X118750000Y-252000000D02*
X214750000Y-252000000D01*
X118750000Y-192000000D02*
X214750000Y-192000000D01*
X118750000Y-122000000D02*
X214750000Y-122000000D01*
X118750000Y-202000000D02*
X214750000Y-202000000D01*
X118750000Y-292000000D02*
X214750000Y-292000000D01*
X118750000Y-212000000D02*
X214750000Y-212000000D01*
X118750000Y-142000000D02*
X214750000Y-142000000D01*
X118750000Y-162000000D02*
X214750000Y-162000000D01*
X118750000Y-172000000D02*
X214750000Y-172000000D01*
X118750000Y-112000000D02*
X214750000Y-112000000D01*
X214750000Y-72000000D02*
X118750000Y-72000000D01*
X118750000Y-132000000D02*
X214750000Y-132000000D01*
X118750000Y-182000000D02*
X214750000Y-182000000D01*
X118750000Y-272000000D02*
X214750000Y-272000000D01*
%TD*%
%TA.AperFunction,NonConductor*%
G36*
X224692121Y-58020002D02*
G01*
X224738614Y-58073658D01*
X224750000Y-58126000D01*
X224750000Y-66874000D01*
X224729998Y-66942121D01*
X224676342Y-66988614D01*
X224624000Y-67000000D01*
X222381782Y-67000000D01*
X222313661Y-66979998D01*
X222267168Y-66926342D01*
X222256031Y-66881912D01*
X222243890Y-66688942D01*
X222243641Y-66684980D01*
X222184495Y-66374928D01*
X222086956Y-66074734D01*
X222085267Y-66071144D01*
X221954250Y-65792717D01*
X221954246Y-65792710D01*
X221952562Y-65789131D01*
X221783432Y-65522625D01*
X221582233Y-65279418D01*
X221352140Y-65063346D01*
X221096779Y-64877816D01*
X220820179Y-64725753D01*
X220816510Y-64724300D01*
X220816505Y-64724298D01*
X220530372Y-64611010D01*
X220530371Y-64611010D01*
X220526702Y-64609557D01*
X220220975Y-64531060D01*
X219907821Y-64491500D01*
X219592179Y-64491500D01*
X219279025Y-64531060D01*
X218973298Y-64609557D01*
X218969629Y-64611010D01*
X218969628Y-64611010D01*
X218683495Y-64724298D01*
X218683490Y-64724300D01*
X218679821Y-64725753D01*
X218403221Y-64877816D01*
X218147860Y-65063346D01*
X217917767Y-65279418D01*
X217716568Y-65522625D01*
X217547438Y-65789131D01*
X217545754Y-65792710D01*
X217545750Y-65792717D01*
X217414733Y-66071144D01*
X217413044Y-66074734D01*
X217315505Y-66374928D01*
X217256359Y-66684980D01*
X217256110Y-66688942D01*
X217243969Y-66881912D01*
X217219729Y-66948642D01*
X217163260Y-66991674D01*
X217118218Y-67000000D01*
X214876000Y-67000000D01*
X214807879Y-66979998D01*
X214761386Y-66926342D01*
X214750000Y-66874000D01*
X214750000Y-58126000D01*
X214770002Y-58057879D01*
X214823658Y-58011386D01*
X214876000Y-58000000D01*
X224624000Y-58000000D01*
X224692121Y-58020002D01*
G37*
%TD.AperFunction*%
M02*
