%TF.GenerationSoftware,KiCad,Pcbnew,(6.0.9)*%
%TF.CreationDate,2022-11-24T17:37:49+02:00*%
%TF.ProjectId,pcb_heater_driver,7063625f-6865-4617-9465-725f64726976,rev?*%
%TF.SameCoordinates,Original*%
%TF.FileFunction,Soldermask,Top*%
%TF.FilePolarity,Negative*%
%FSLAX46Y46*%
G04 Gerber Fmt 4.6, Leading zero omitted, Abs format (unit mm)*
G04 Created by KiCad (PCBNEW (6.0.9)) date 2022-11-24 17:37:49*
%MOMM*%
%LPD*%
G01*
G04 APERTURE LIST*
G04 Aperture macros list*
%AMRoundRect*
0 Rectangle with rounded corners*
0 $1 Rounding radius*
0 $2 $3 $4 $5 $6 $7 $8 $9 X,Y pos of 4 corners*
0 Add a 4 corners polygon primitive as box body*
4,1,4,$2,$3,$4,$5,$6,$7,$8,$9,$2,$3,0*
0 Add four circle primitives for the rounded corners*
1,1,$1+$1,$2,$3*
1,1,$1+$1,$4,$5*
1,1,$1+$1,$6,$7*
1,1,$1+$1,$8,$9*
0 Add four rect primitives between the rounded corners*
20,1,$1+$1,$2,$3,$4,$5,0*
20,1,$1+$1,$4,$5,$6,$7,0*
20,1,$1+$1,$6,$7,$8,$9,0*
20,1,$1+$1,$8,$9,$2,$3,0*%
%AMFreePoly0*
4,1,6,0.600000,-0.600000,-0.600000,-0.600000,-0.600000,0.000000,0.000000,0.600000,0.600000,0.600000,0.600000,-0.600000,0.600000,-0.600000,$1*%
%AMFreePoly1*
4,1,22,0.500000,-0.750000,0.000000,-0.750000,0.000000,-0.745033,-0.079941,-0.743568,-0.215256,-0.701293,-0.333266,-0.622738,-0.424486,-0.514219,-0.481581,-0.384460,-0.499164,-0.250000,-0.500000,-0.250000,-0.500000,0.250000,-0.499164,0.250000,-0.499963,0.256109,-0.478152,0.396186,-0.417904,0.524511,-0.324060,0.630769,-0.204165,0.706417,-0.067858,0.745374,0.000000,0.744959,0.000000,0.750000,
0.500000,0.750000,0.500000,-0.750000,0.500000,-0.750000,$1*%
%AMFreePoly2*
4,1,20,0.000000,0.744959,0.073905,0.744508,0.209726,0.703889,0.328688,0.626782,0.421226,0.519385,0.479903,0.390333,0.500000,0.250000,0.500000,-0.250000,0.499851,-0.262216,0.476331,-0.402017,0.414519,-0.529596,0.319384,-0.634700,0.198574,-0.708877,0.061801,-0.746166,0.000000,-0.745033,0.000000,-0.750000,-0.500000,-0.750000,-0.500000,0.750000,0.000000,0.750000,0.000000,0.744959,
0.000000,0.744959,$1*%
G04 Aperture macros list end*
%ADD10C,0.625000*%
%ADD11C,2.300000*%
%ADD12C,3.000000*%
%ADD13C,4.500000*%
%ADD14RoundRect,0.200000X-0.200000X-0.275000X0.200000X-0.275000X0.200000X0.275000X-0.200000X0.275000X0*%
%ADD15C,2.000000*%
%ADD16R,0.650000X1.050000*%
%ADD17R,2.000000X2.000000*%
%ADD18R,0.400000X0.800000*%
%ADD19R,0.800000X0.400000*%
%ADD20R,1.200000X1.200000*%
%ADD21FreePoly0,90.000000*%
%ADD22R,0.800000X0.800000*%
%ADD23RoundRect,0.225000X0.225000X0.250000X-0.225000X0.250000X-0.225000X-0.250000X0.225000X-0.250000X0*%
%ADD24RoundRect,0.200000X0.200000X0.275000X-0.200000X0.275000X-0.200000X-0.275000X0.200000X-0.275000X0*%
%ADD25FreePoly1,0.000000*%
%ADD26FreePoly2,0.000000*%
%ADD27C,1.498000*%
%ADD28C,1.950000*%
%ADD29RoundRect,0.225000X0.250000X-0.225000X0.250000X0.225000X-0.250000X0.225000X-0.250000X-0.225000X0*%
%ADD30RoundRect,0.218750X0.218750X0.256250X-0.218750X0.256250X-0.218750X-0.256250X0.218750X-0.256250X0*%
%ADD31O,2.600000X2.600000*%
%ADD32C,3.600000*%
%ADD33C,6.400000*%
%ADD34RoundRect,0.250000X-0.650000X0.325000X-0.650000X-0.325000X0.650000X-0.325000X0.650000X0.325000X0*%
%ADD35R,4.000000X1.500000*%
%ADD36RoundRect,0.218750X-0.218750X-0.256250X0.218750X-0.256250X0.218750X0.256250X-0.218750X0.256250X0*%
%ADD37R,0.440000X0.670000*%
%ADD38R,3.500000X1.750000*%
%ADD39C,4.400000*%
%ADD40C,2.600000*%
%ADD41RoundRect,0.225000X-0.250000X0.225000X-0.250000X-0.225000X0.250000X-0.225000X0.250000X0.225000X0*%
%ADD42RoundRect,0.150000X0.150000X-0.587500X0.150000X0.587500X-0.150000X0.587500X-0.150000X-0.587500X0*%
%ADD43R,1.700000X1.700000*%
%ADD44O,1.700000X1.700000*%
%ADD45R,1.000000X0.700000*%
%ADD46R,0.600000X0.700000*%
%ADD47RoundRect,0.200000X0.275000X-0.200000X0.275000X0.200000X-0.275000X0.200000X-0.275000X-0.200000X0*%
%ADD48RoundRect,0.150000X-0.825000X-0.150000X0.825000X-0.150000X0.825000X0.150000X-0.825000X0.150000X0*%
%ADD49R,2.500000X2.300000*%
%ADD50RoundRect,0.150000X-0.150000X0.587500X-0.150000X-0.587500X0.150000X-0.587500X0.150000X0.587500X0*%
%ADD51RoundRect,0.200000X-0.275000X0.200000X-0.275000X-0.200000X0.275000X-0.200000X0.275000X0.200000X0*%
%ADD52C,0.650000*%
%ADD53R,1.450000X0.600000*%
%ADD54R,1.450000X0.300000*%
%ADD55O,1.600000X1.000000*%
%ADD56O,2.100000X1.000000*%
%ADD57RoundRect,0.062500X0.325000X0.062500X-0.325000X0.062500X-0.325000X-0.062500X0.325000X-0.062500X0*%
%ADD58RoundRect,0.062500X0.062500X0.325000X-0.062500X0.325000X-0.062500X-0.325000X0.062500X-0.325000X0*%
%ADD59R,1.750000X1.750000*%
%ADD60RoundRect,1.125000X1.625000X1.125000X-1.625000X1.125000X-1.625000X-1.125000X1.625000X-1.125000X0*%
%ADD61RoundRect,0.225000X-0.225000X-0.250000X0.225000X-0.250000X0.225000X0.250000X-0.225000X0.250000X0*%
%ADD62RoundRect,0.250000X-0.362500X-1.075000X0.362500X-1.075000X0.362500X1.075000X-0.362500X1.075000X0*%
%ADD63RoundRect,0.381000X0.381000X-3.119000X0.381000X3.119000X-0.381000X3.119000X-0.381000X-3.119000X0*%
G04 APERTURE END LIST*
D10*
X201254225Y-133363033D02*
X201373273Y-133482080D01*
X201254225Y-133601128D01*
X201135178Y-133482080D01*
X201254225Y-133363033D01*
X201254225Y-133601128D01*
X201254225Y-132648747D02*
X201135178Y-131220176D01*
X201254225Y-131101128D01*
X201373273Y-131220176D01*
X201254225Y-132648747D01*
X201254225Y-131101128D01*
X202444701Y-133363033D02*
X202563749Y-133482080D01*
X202444701Y-133601128D01*
X202325654Y-133482080D01*
X202444701Y-133363033D01*
X202444701Y-133601128D01*
X202444701Y-132648747D02*
X202325654Y-131220176D01*
X202444701Y-131101128D01*
X202563749Y-131220176D01*
X202444701Y-132648747D01*
X202444701Y-131101128D01*
X203635178Y-133363033D02*
X203754225Y-133482080D01*
X203635178Y-133601128D01*
X203516130Y-133482080D01*
X203635178Y-133363033D01*
X203635178Y-133601128D01*
X203635178Y-132648747D02*
X203516130Y-131220176D01*
X203635178Y-131101128D01*
X203754225Y-131220176D01*
X203635178Y-132648747D01*
X203635178Y-131101128D01*
X204825654Y-133601128D02*
X204825654Y-131101128D01*
X205420892Y-131101128D01*
X205778035Y-131220176D01*
X206016130Y-131458271D01*
X206135178Y-131696366D01*
X206254225Y-132172556D01*
X206254225Y-132529699D01*
X206135178Y-133005890D01*
X206016130Y-133243985D01*
X205778035Y-133482080D01*
X205420892Y-133601128D01*
X204825654Y-133601128D01*
X207206606Y-132886842D02*
X208397082Y-132886842D01*
X206968511Y-133601128D02*
X207801844Y-131101128D01*
X208635178Y-133601128D01*
X209468511Y-133601128D02*
X209468511Y-131101128D01*
X210897082Y-133601128D01*
X210897082Y-131101128D01*
X213397082Y-131220176D02*
X213158987Y-131101128D01*
X212801844Y-131101128D01*
X212444701Y-131220176D01*
X212206606Y-131458271D01*
X212087559Y-131696366D01*
X211968511Y-132172556D01*
X211968511Y-132529699D01*
X212087559Y-133005890D01*
X212206606Y-133243985D01*
X212444701Y-133482080D01*
X212801844Y-133601128D01*
X213039940Y-133601128D01*
X213397082Y-133482080D01*
X213516130Y-133363033D01*
X213516130Y-132529699D01*
X213039940Y-132529699D01*
X214587559Y-132291604D02*
X215420892Y-132291604D01*
X215778035Y-133601128D02*
X214587559Y-133601128D01*
X214587559Y-131101128D01*
X215778035Y-131101128D01*
X218278035Y-133601128D02*
X217444701Y-132410652D01*
X216849463Y-133601128D02*
X216849463Y-131101128D01*
X217801844Y-131101128D01*
X218039940Y-131220176D01*
X218158987Y-131339223D01*
X218278035Y-131577318D01*
X218278035Y-131934461D01*
X218158987Y-132172556D01*
X218039940Y-132291604D01*
X217801844Y-132410652D01*
X216849463Y-132410652D01*
X219349463Y-133363033D02*
X219468511Y-133482080D01*
X219349463Y-133601128D01*
X219230416Y-133482080D01*
X219349463Y-133363033D01*
X219349463Y-133601128D01*
X219349463Y-132648747D02*
X219230416Y-131220176D01*
X219349463Y-131101128D01*
X219468511Y-131220176D01*
X219349463Y-132648747D01*
X219349463Y-131101128D01*
X220539940Y-133363033D02*
X220658987Y-133482080D01*
X220539940Y-133601128D01*
X220420892Y-133482080D01*
X220539940Y-133363033D01*
X220539940Y-133601128D01*
X220539940Y-132648747D02*
X220420892Y-131220176D01*
X220539940Y-131101128D01*
X220658987Y-131220176D01*
X220539940Y-132648747D01*
X220539940Y-131101128D01*
X221730416Y-133363033D02*
X221849463Y-133482080D01*
X221730416Y-133601128D01*
X221611368Y-133482080D01*
X221730416Y-133363033D01*
X221730416Y-133601128D01*
X221730416Y-132648747D02*
X221611368Y-131220176D01*
X221730416Y-131101128D01*
X221849463Y-131220176D01*
X221730416Y-132648747D01*
X221730416Y-131101128D01*
X197742321Y-137626128D02*
X197742321Y-135126128D01*
X198575654Y-136911842D01*
X199408987Y-135126128D01*
X199408987Y-137626128D01*
X200480416Y-136911842D02*
X201670892Y-136911842D01*
X200242321Y-137626128D02*
X201075654Y-135126128D01*
X201908987Y-137626128D01*
X202742321Y-137626128D02*
X202742321Y-135126128D01*
X203932797Y-137626128D02*
X203932797Y-135126128D01*
X205361368Y-137626128D01*
X205361368Y-135126128D01*
X206432797Y-137507080D02*
X206789940Y-137626128D01*
X207385178Y-137626128D01*
X207623273Y-137507080D01*
X207742321Y-137388033D01*
X207861368Y-137149937D01*
X207861368Y-136911842D01*
X207742321Y-136673747D01*
X207623273Y-136554699D01*
X207385178Y-136435652D01*
X206908987Y-136316604D01*
X206670892Y-136197556D01*
X206551844Y-136078509D01*
X206432797Y-135840414D01*
X206432797Y-135602318D01*
X206551844Y-135364223D01*
X206670892Y-135245176D01*
X206908987Y-135126128D01*
X207504225Y-135126128D01*
X207861368Y-135245176D01*
X210480416Y-135126128D02*
X211313749Y-137626128D01*
X212147082Y-135126128D01*
X213456606Y-135126128D02*
X213932797Y-135126128D01*
X214170892Y-135245176D01*
X214408987Y-135483271D01*
X214528035Y-135959461D01*
X214528035Y-136792795D01*
X214408987Y-137268985D01*
X214170892Y-137507080D01*
X213932797Y-137626128D01*
X213456606Y-137626128D01*
X213218511Y-137507080D01*
X212980416Y-137268985D01*
X212861368Y-136792795D01*
X212861368Y-135959461D01*
X212980416Y-135483271D01*
X213218511Y-135245176D01*
X213456606Y-135126128D01*
X216789940Y-137626128D02*
X215599463Y-137626128D01*
X215599463Y-135126128D01*
X217266130Y-135126128D02*
X218694701Y-135126128D01*
X217980416Y-137626128D02*
X217980416Y-135126128D01*
X219408987Y-136911842D02*
X220599463Y-136911842D01*
X219170892Y-137626128D02*
X220004225Y-135126128D01*
X220837559Y-137626128D01*
X222980416Y-135245176D02*
X222742321Y-135126128D01*
X222385178Y-135126128D01*
X222028035Y-135245176D01*
X221789940Y-135483271D01*
X221670892Y-135721366D01*
X221551844Y-136197556D01*
X221551844Y-136554699D01*
X221670892Y-137030890D01*
X221789940Y-137268985D01*
X222028035Y-137507080D01*
X222385178Y-137626128D01*
X222623273Y-137626128D01*
X222980416Y-137507080D01*
X223099463Y-137388033D01*
X223099463Y-136554699D01*
X222623273Y-136554699D01*
X224170892Y-136316604D02*
X225004225Y-136316604D01*
X225361368Y-137626128D02*
X224170892Y-137626128D01*
X224170892Y-135126128D01*
X225361368Y-135126128D01*
X229385178Y-128073152D02*
X229504225Y-127954104D01*
X229623273Y-128073152D01*
X229504225Y-128192199D01*
X229385178Y-128073152D01*
X229623273Y-128073152D01*
X228670892Y-128073152D02*
X227242321Y-128192199D01*
X227123273Y-128073152D01*
X227242321Y-127954104D01*
X228670892Y-128073152D01*
X227123273Y-128073152D01*
X229385178Y-126882675D02*
X229504225Y-126763628D01*
X229623273Y-126882675D01*
X229504225Y-127001723D01*
X229385178Y-126882675D01*
X229623273Y-126882675D01*
X228670892Y-126882675D02*
X227242321Y-127001723D01*
X227123273Y-126882675D01*
X227242321Y-126763628D01*
X228670892Y-126882675D01*
X227123273Y-126882675D01*
X229385178Y-125692199D02*
X229504225Y-125573152D01*
X229623273Y-125692199D01*
X229504225Y-125811247D01*
X229385178Y-125692199D01*
X229623273Y-125692199D01*
X228670892Y-125692199D02*
X227242321Y-125811247D01*
X227123273Y-125692199D01*
X227242321Y-125573152D01*
X228670892Y-125692199D01*
X227123273Y-125692199D01*
X227361368Y-124620771D02*
X227242321Y-124501723D01*
X227123273Y-124263628D01*
X227123273Y-123668390D01*
X227242321Y-123430295D01*
X227361368Y-123311247D01*
X227599463Y-123192199D01*
X227837559Y-123192199D01*
X228194701Y-123311247D01*
X229623273Y-124739818D01*
X229623273Y-123192199D01*
X227123273Y-122358866D02*
X227123273Y-120811247D01*
X228075654Y-121644580D01*
X228075654Y-121287437D01*
X228194701Y-121049342D01*
X228313749Y-120930295D01*
X228551844Y-120811247D01*
X229147082Y-120811247D01*
X229385178Y-120930295D01*
X229504225Y-121049342D01*
X229623273Y-121287437D01*
X229623273Y-122001723D01*
X229504225Y-122239818D01*
X229385178Y-122358866D01*
X227123273Y-119263628D02*
X227123273Y-119025533D01*
X227242321Y-118787437D01*
X227361368Y-118668390D01*
X227599463Y-118549342D01*
X228075654Y-118430295D01*
X228670892Y-118430295D01*
X229147082Y-118549342D01*
X229385178Y-118668390D01*
X229504225Y-118787437D01*
X229623273Y-119025533D01*
X229623273Y-119263628D01*
X229504225Y-119501723D01*
X229385178Y-119620771D01*
X229147082Y-119739818D01*
X228670892Y-119858866D01*
X228075654Y-119858866D01*
X227599463Y-119739818D01*
X227361368Y-119620771D01*
X227242321Y-119501723D01*
X227123273Y-119263628D01*
X227123273Y-117716009D02*
X229623273Y-116882676D01*
X227123273Y-116049342D01*
X228908987Y-115335056D02*
X228908987Y-114144580D01*
X229623273Y-115573152D02*
X227123273Y-114739818D01*
X229623273Y-113906485D01*
X229385178Y-111644580D02*
X229504225Y-111763628D01*
X229623273Y-112120771D01*
X229623273Y-112358866D01*
X229504225Y-112716009D01*
X229266130Y-112954104D01*
X229028035Y-113073152D01*
X228551844Y-113192199D01*
X228194701Y-113192199D01*
X227718511Y-113073152D01*
X227480416Y-112954104D01*
X227242321Y-112716009D01*
X227123273Y-112358866D01*
X227123273Y-112120771D01*
X227242321Y-111763628D01*
X227361368Y-111644580D01*
X229385178Y-110573152D02*
X229504225Y-110454104D01*
X229623273Y-110573152D01*
X229504225Y-110692199D01*
X229385178Y-110573152D01*
X229623273Y-110573152D01*
X228670892Y-110573152D02*
X227242321Y-110692199D01*
X227123273Y-110573152D01*
X227242321Y-110454104D01*
X228670892Y-110573152D01*
X227123273Y-110573152D01*
X229385178Y-109382676D02*
X229504225Y-109263628D01*
X229623273Y-109382676D01*
X229504225Y-109501723D01*
X229385178Y-109382676D01*
X229623273Y-109382676D01*
X228670892Y-109382676D02*
X227242321Y-109501723D01*
X227123273Y-109382676D01*
X227242321Y-109263628D01*
X228670892Y-109382676D01*
X227123273Y-109382676D01*
X229385178Y-108192199D02*
X229504225Y-108073152D01*
X229623273Y-108192199D01*
X229504225Y-108311247D01*
X229385178Y-108192199D01*
X229623273Y-108192199D01*
X228670892Y-108192199D02*
X227242321Y-108311247D01*
X227123273Y-108192199D01*
X227242321Y-108073152D01*
X228670892Y-108192199D01*
X227123273Y-108192199D01*
D11*
%TO.C,J1*%
X77300983Y-60832676D03*
X77300983Y-65832676D03*
%TD*%
D12*
%TO.C,PS1*%
X216050987Y-93814996D03*
X216050987Y-87064996D03*
D13*
X140050987Y-52564996D03*
X140050987Y-58064996D03*
%TD*%
D14*
%TO.C,R11*%
X88075985Y-107457673D03*
X89725985Y-107457673D03*
%TD*%
D15*
%TO.C,RV1*%
X205962322Y-104892677D03*
X213462322Y-107092677D03*
%TD*%
D16*
%TO.C,SW3*%
X83646159Y-129439997D03*
X83646159Y-133589997D03*
X81496159Y-129439997D03*
X81496159Y-133589997D03*
%TD*%
D14*
%TO.C,R21*%
X84502146Y-87805173D03*
X86152146Y-87805173D03*
%TD*%
D17*
%TO.C,C2*%
X103236692Y-48492675D03*
D15*
X103236692Y-53492675D03*
%TD*%
D18*
%TO.C,U1*%
X74842322Y-125582676D03*
X75692322Y-125582676D03*
X76542322Y-125582676D03*
X77392322Y-125582676D03*
X78242322Y-125582676D03*
X79092322Y-125582676D03*
X79942322Y-125582676D03*
X80792322Y-125582676D03*
X81642322Y-125582676D03*
X82492322Y-125582676D03*
X83342322Y-125582676D03*
X84192322Y-125582676D03*
X85042322Y-125582676D03*
X85892322Y-125582676D03*
X86742322Y-125582676D03*
D19*
X87792322Y-124532676D03*
X87792322Y-123682676D03*
X87792322Y-122832676D03*
X87792322Y-121982676D03*
X87792322Y-121132676D03*
X87792322Y-120282676D03*
X87792322Y-119432676D03*
X87792322Y-118582676D03*
X87792322Y-117732676D03*
X87792322Y-116882676D03*
X87792322Y-116032676D03*
X87792322Y-115182676D03*
X87792322Y-114332676D03*
X87792322Y-113482676D03*
X87792322Y-112632676D03*
D18*
X86742322Y-111582676D03*
X85892322Y-111582676D03*
X85042322Y-111582676D03*
X84192322Y-111582676D03*
X83342322Y-111582676D03*
X82492322Y-111582676D03*
X81642322Y-111582676D03*
X80792322Y-111582676D03*
X79942322Y-111582676D03*
X79092322Y-111582676D03*
X78242322Y-111582676D03*
X77392322Y-111582676D03*
X76542322Y-111582676D03*
X75692322Y-111582676D03*
X74842322Y-111582676D03*
D19*
X73792322Y-112632676D03*
X73792322Y-113482676D03*
X73792322Y-114332676D03*
X73792322Y-115182676D03*
X73792322Y-116032676D03*
X73792322Y-116882676D03*
X73792322Y-117732676D03*
X73792322Y-118582676D03*
X73792322Y-119432676D03*
X73792322Y-120282676D03*
X73792322Y-121132676D03*
X73792322Y-121982676D03*
X73792322Y-122832676D03*
X73792322Y-123682676D03*
X73792322Y-124532676D03*
D20*
X82442322Y-120232676D03*
X80792322Y-120232676D03*
X80792322Y-116932676D03*
X79142322Y-116932676D03*
D21*
X79142322Y-120232676D03*
D20*
X82442322Y-118582676D03*
X82442322Y-116932676D03*
X80792322Y-118582676D03*
X79142322Y-118582676D03*
D22*
X73792322Y-125582676D03*
X87792322Y-125582676D03*
X87792322Y-111582676D03*
X73792322Y-111582676D03*
%TD*%
D23*
%TO.C,C8*%
X76399824Y-127832673D03*
X74849824Y-127832673D03*
%TD*%
D14*
%TO.C,R3*%
X120737325Y-80805173D03*
X122387325Y-80805173D03*
%TD*%
D24*
%TO.C,R5*%
X151575987Y-140317675D03*
X149925987Y-140317675D03*
%TD*%
D25*
%TO.C,TH3*%
X92325985Y-122082673D03*
D26*
X93625985Y-122082673D03*
%TD*%
D27*
%TO.C,SW5*%
X174425985Y-142987494D03*
X178925985Y-142987494D03*
D28*
X180180985Y-140497494D03*
X173170985Y-140497494D03*
%TD*%
D29*
%TO.C,C10*%
X79571160Y-130789997D03*
X79571160Y-129239997D03*
%TD*%
D14*
%TO.C,R22*%
X84502146Y-92805173D03*
X86152146Y-92805173D03*
%TD*%
D30*
%TO.C,D3*%
X80838483Y-141257673D03*
X79263483Y-141257673D03*
%TD*%
D31*
%TO.C,U6*%
X119562323Y-72492675D03*
X124562323Y-72492675D03*
%TD*%
D32*
%TO.C,H3*%
X229900983Y-141932678D03*
D33*
X229900983Y-141932678D03*
%TD*%
D34*
%TO.C,C1*%
X111887325Y-48492675D03*
X111887325Y-51442675D03*
%TD*%
D35*
%TO.C,L1*%
X120937321Y-87555175D03*
X120937321Y-91155175D03*
%TD*%
D24*
%TO.C,R16*%
X97580980Y-113082673D03*
X95930980Y-113082673D03*
%TD*%
D25*
%TO.C,TH1*%
X92325985Y-116082673D03*
D26*
X93625985Y-116082673D03*
%TD*%
D24*
%TO.C,R10*%
X89725985Y-109167674D03*
X88075985Y-109167674D03*
%TD*%
D36*
%TO.C,D2*%
X114327146Y-95330171D03*
X115902146Y-95330171D03*
%TD*%
D31*
%TO.C,U4*%
X124562323Y-58064996D03*
X124562323Y-63064996D03*
%TD*%
D37*
%TO.C,Q1*%
X86800985Y-68207673D03*
X86150985Y-68207673D03*
X87450985Y-68207673D03*
X88100985Y-68207673D03*
X86150985Y-65027673D03*
X88100985Y-65027673D03*
X86800985Y-65027673D03*
D38*
X87125985Y-66492673D03*
D37*
X87450985Y-65027673D03*
%TD*%
D24*
%TO.C,R8*%
X115919645Y-93555173D03*
X114269645Y-93555173D03*
%TD*%
D29*
%TO.C,C9*%
X90392326Y-130740329D03*
X90392326Y-129190329D03*
%TD*%
D24*
%TO.C,R14*%
X97580979Y-119082674D03*
X95930979Y-119082674D03*
%TD*%
D39*
%TO.C,H7*%
X201937321Y-124492677D03*
D40*
X201937321Y-124492677D03*
%TD*%
D41*
%TO.C,C6*%
X115937321Y-89605175D03*
X115937321Y-91155175D03*
%TD*%
D24*
%TO.C,R6*%
X164575987Y-140317675D03*
X162925987Y-140317675D03*
%TD*%
D42*
%TO.C,Q2*%
X100900983Y-89195173D03*
X102800983Y-89195173D03*
X101850983Y-87320173D03*
%TD*%
D24*
%TO.C,R18*%
X80875983Y-139657673D03*
X79225983Y-139657673D03*
%TD*%
D43*
%TO.C,J2*%
X100980980Y-97829995D03*
D44*
X100980980Y-100369995D03*
X100980980Y-102909995D03*
X100980980Y-105449995D03*
X100980980Y-107989995D03*
%TD*%
D45*
%TO.C,D4*%
X86202321Y-89332676D03*
D46*
X84502321Y-89332676D03*
X84502321Y-91332676D03*
X86402321Y-91332676D03*
%TD*%
D41*
%TO.C,C5*%
X114269645Y-89605177D03*
X114269645Y-91155177D03*
%TD*%
D27*
%TO.C,SW4*%
X161425985Y-142987494D03*
X165925985Y-142987494D03*
D28*
X167180985Y-140497494D03*
X160170985Y-140497494D03*
%TD*%
D23*
%TO.C,C11*%
X95525983Y-84082676D03*
X93975983Y-84082676D03*
%TD*%
D47*
%TO.C,R4*%
X79571160Y-133839997D03*
X79571160Y-132189997D03*
%TD*%
D48*
%TO.C,U3*%
X90575983Y-85887676D03*
X90575983Y-87157676D03*
X90575983Y-88427676D03*
X90575983Y-89697676D03*
X90575983Y-90967676D03*
X90575983Y-92237676D03*
X90575983Y-93507676D03*
X90575983Y-94777676D03*
X95525983Y-94777676D03*
X95525983Y-93507676D03*
X95525983Y-92237676D03*
X95525983Y-90967676D03*
X95525983Y-89697676D03*
X95525983Y-88427676D03*
X95525983Y-87157676D03*
X95525983Y-85887676D03*
%TD*%
D23*
%TO.C,C3*%
X125787321Y-83855175D03*
X124237321Y-83855175D03*
%TD*%
D49*
%TO.C,D1*%
X92737325Y-48492675D03*
X88437325Y-48492675D03*
%TD*%
D25*
%TO.C,TH2*%
X92325985Y-119082674D03*
D26*
X93625985Y-119082674D03*
%TD*%
D50*
%TO.C,Q3*%
X102800983Y-91720173D03*
X100900983Y-91720173D03*
X101850983Y-93595173D03*
%TD*%
D16*
%TO.C,SW2*%
X88550985Y-129432825D03*
X88550985Y-133582825D03*
X86400985Y-129432825D03*
X86400985Y-133582825D03*
%TD*%
D24*
%TO.C,R13*%
X97580979Y-116082674D03*
X95930979Y-116082674D03*
%TD*%
D25*
%TO.C,TH4*%
X92325985Y-113082673D03*
D26*
X93625985Y-113082673D03*
%TD*%
D47*
%TO.C,R19*%
X99450983Y-91482673D03*
X99450983Y-89832673D03*
%TD*%
D51*
%TO.C,R20*%
X104250983Y-89632673D03*
X104250983Y-91282673D03*
%TD*%
D24*
%TO.C,R7*%
X177575989Y-140317675D03*
X175925989Y-140317675D03*
%TD*%
D39*
%TO.C,H6*%
X217937321Y-124492677D03*
D40*
X217937321Y-124492677D03*
%TD*%
D52*
%TO.C,J4*%
X79992321Y-93322676D03*
X79992321Y-87542676D03*
D53*
X81437321Y-87182676D03*
X81437321Y-87982676D03*
D54*
X81437321Y-89182676D03*
X81437321Y-90182676D03*
X81437321Y-90682676D03*
X81437321Y-91682676D03*
D53*
X81437321Y-92882676D03*
X81437321Y-93682676D03*
X81437321Y-93682676D03*
X81437321Y-92882676D03*
D54*
X81437321Y-92182676D03*
X81437321Y-91182676D03*
X81437321Y-89682676D03*
X81437321Y-88682676D03*
D53*
X81437321Y-87982676D03*
X81437321Y-87182676D03*
D55*
X76342321Y-86112676D03*
D56*
X80522321Y-86112676D03*
X80522321Y-94752676D03*
D55*
X76342321Y-94752676D03*
%TD*%
D57*
%TO.C,U2*%
X122399821Y-84655173D03*
X122399821Y-84155173D03*
X122399821Y-83655173D03*
X122399821Y-83155173D03*
D58*
X121687321Y-82442673D03*
X121187321Y-82442673D03*
X120687321Y-82442673D03*
X120187321Y-82442673D03*
D57*
X119474821Y-83155173D03*
X119474821Y-83655173D03*
X119474821Y-84155173D03*
X119474821Y-84655173D03*
D58*
X120187321Y-85367673D03*
X120687321Y-85367673D03*
X121187321Y-85367673D03*
X121687321Y-85367673D03*
D59*
X120937321Y-83905173D03*
%TD*%
D60*
%TO.C,F1*%
X217687321Y-115492677D03*
X202187321Y-115492677D03*
%TD*%
D61*
%TO.C,C7*%
X74849824Y-129582673D03*
X76399824Y-129582673D03*
%TD*%
D31*
%TO.C,U5*%
X119562323Y-48492675D03*
X124562323Y-48492675D03*
%TD*%
D24*
%TO.C,R15*%
X97580979Y-122082673D03*
X95930979Y-122082673D03*
%TD*%
D62*
%TO.C,R1*%
X92763482Y-60832676D03*
X97388482Y-60832676D03*
%TD*%
D51*
%TO.C,R17*%
X90450983Y-68207673D03*
X90450983Y-69857673D03*
%TD*%
D14*
%TO.C,R2*%
X117737323Y-80805173D03*
X119387323Y-80805173D03*
%TD*%
D47*
%TO.C,R9*%
X90392326Y-133790329D03*
X90392326Y-132140329D03*
%TD*%
D32*
%TO.C,H2*%
X76300982Y-48332675D03*
D33*
X76300982Y-48332675D03*
%TD*%
D41*
%TO.C,C4*%
X117187321Y-83130175D03*
X117187321Y-84680175D03*
%TD*%
D47*
%TO.C,R12*%
X91950983Y-69857673D03*
X91950983Y-68207673D03*
%TD*%
D63*
%TO.C,J5*%
X102100983Y-140264994D03*
X105100983Y-140264994D03*
X108100983Y-140264994D03*
%TD*%
D27*
%TO.C,SW1*%
X148425985Y-142987494D03*
X152925985Y-142987494D03*
D28*
X154180985Y-140497494D03*
X147170985Y-140497494D03*
%TD*%
D23*
%TO.C,C12*%
X125787321Y-82205175D03*
X124237321Y-82205175D03*
%TD*%
M02*
