%TF.GenerationSoftware,KiCad,Pcbnew,(6.0.9)*%
%TF.CreationDate,2022-11-24T17:37:49+02:00*%
%TF.ProjectId,pcb_heater_driver,7063625f-6865-4617-9465-725f64726976,rev?*%
%TF.SameCoordinates,Original*%
%TF.FileFunction,Profile,NP*%
%FSLAX46Y46*%
G04 Gerber Fmt 4.6, Leading zero omitted, Abs format (unit mm)*
G04 Created by KiCad (PCBNEW (6.0.9)) date 2022-11-24 17:37:49*
%MOMM*%
%LPD*%
G01*
G04 APERTURE LIST*
%TA.AperFunction,Profile*%
%ADD10C,0.100000*%
%TD*%
G04 APERTURE END LIST*
D10*
X225700984Y-98857684D02*
G75*
G03*
X226100984Y-98457672I16J399984D01*
G01*
X232700988Y-63457673D02*
X231500988Y-63457673D01*
X189688485Y-101882674D02*
X189688485Y-141557673D01*
X150125985Y-50182674D02*
X150125986Y-94532672D01*
X194963527Y-101882673D02*
G75*
G03*
X193963485Y-100882673I-1000027J-27D01*
G01*
X200051026Y-50182674D02*
G75*
G03*
X199050984Y-49182674I-1000026J-26D01*
G01*
X233100988Y-60057673D02*
X233100982Y-48332676D01*
X200050983Y-50182674D02*
X200050984Y-94532672D01*
X189688527Y-141557673D02*
G75*
G03*
X190688485Y-142557673I999973J-27D01*
G01*
X190688486Y-100882686D02*
G75*
G03*
X189688486Y-101882674I14J-1000014D01*
G01*
X231500989Y-60457689D02*
G75*
G03*
X231100989Y-60857674I11J-400011D01*
G01*
X76300982Y-45132682D02*
G75*
G03*
X73100982Y-48332370I18J-3200018D01*
G01*
X73100982Y-141932675D02*
X73100982Y-48332370D01*
X231101027Y-63057673D02*
G75*
G03*
X231500988Y-63457673I399973J-27D01*
G01*
X232700985Y-98857673D02*
X231500985Y-98857673D01*
X151125986Y-49182674D02*
X199050984Y-49182674D01*
X224462325Y-60492676D02*
X225662324Y-60492675D01*
X225700984Y-98857672D02*
X224500984Y-98857672D01*
X226100984Y-96257672D02*
X226100984Y-98457672D01*
X151125986Y-95532672D02*
X199050984Y-95532672D01*
X226101028Y-96257672D02*
G75*
G03*
X225700984Y-95857672I-400028J-28D01*
G01*
X193963484Y-142557684D02*
G75*
G03*
X194963484Y-141557672I16J999984D01*
G01*
X231500986Y-95857686D02*
G75*
G03*
X231100986Y-96257674I14J-400014D01*
G01*
X233101027Y-99257673D02*
G75*
G03*
X232700985Y-98857673I-400027J-27D01*
G01*
X233101027Y-63857673D02*
G75*
G03*
X232700988Y-63457673I-400027J-27D01*
G01*
X76300982Y-45132675D02*
X229900982Y-45132676D01*
X199050984Y-95532684D02*
G75*
G03*
X200050984Y-94532672I16J999984D01*
G01*
X226062324Y-60892675D02*
X226062324Y-63092675D01*
X115600985Y-62357673D02*
G75*
G03*
X115600985Y-62357673I-4100000J0D01*
G01*
X231500986Y-95857674D02*
X232700985Y-95857673D01*
X151125986Y-49182686D02*
G75*
G03*
X150125986Y-50182674I14J-1000014D01*
G01*
X224100984Y-98457672D02*
X224100985Y-96257673D01*
X179639769Y-117757673D02*
G75*
G03*
X179639769Y-117757673I-4100000J0D01*
G01*
X194963484Y-101882673D02*
X194963484Y-141557672D01*
X231101027Y-98457673D02*
G75*
G03*
X231500985Y-98857673I399973J-27D01*
G01*
X229900982Y-145132682D02*
G75*
G03*
X233100982Y-141932675I18J3199982D01*
G01*
X224500985Y-95857673D02*
X225700984Y-95857672D01*
X224062324Y-63092675D02*
X224062325Y-60892676D01*
X224500985Y-95857685D02*
G75*
G03*
X224100985Y-96257673I15J-400015D01*
G01*
X232700985Y-95857685D02*
G75*
G03*
X233100985Y-95457673I15J399985D01*
G01*
X73101025Y-141932675D02*
G75*
G03*
X76300982Y-145132675I3199975J-25D01*
G01*
X190688485Y-142557673D02*
X193963484Y-142557672D01*
X150126028Y-94532672D02*
G75*
G03*
X151125986Y-95532672I999972J-28D01*
G01*
X190688486Y-100882674D02*
X193963485Y-100882673D01*
X233100988Y-63857673D02*
X233100985Y-95457673D01*
X233100985Y-99257673D02*
X233100982Y-141932675D01*
X226062325Y-60892675D02*
G75*
G03*
X225662324Y-60492675I-400025J-25D01*
G01*
X229900982Y-145132675D02*
X76300982Y-145132675D01*
X224101028Y-98457672D02*
G75*
G03*
X224500984Y-98857672I399972J-28D01*
G01*
X232700988Y-60457688D02*
G75*
G03*
X233100988Y-60057673I12J399988D01*
G01*
X231100985Y-98457673D02*
X231100986Y-96257674D01*
X231100988Y-63057673D02*
X231100989Y-60857674D01*
X224062325Y-63092675D02*
G75*
G03*
X224462324Y-63492675I399975J-25D01*
G01*
X224462325Y-60492725D02*
G75*
G03*
X224062325Y-60892676I-25J-399975D01*
G01*
X225662324Y-63492675D02*
X224462324Y-63492675D01*
X233101024Y-48332676D02*
G75*
G03*
X229900982Y-45132676I-3200024J-24D01*
G01*
X231500989Y-60457674D02*
X232700988Y-60457673D01*
X225662324Y-63492724D02*
G75*
G03*
X226062324Y-63092675I-24J400024D01*
G01*
M02*
