%TF.GenerationSoftware,KiCad,Pcbnew,(6.0.4)*%
%TF.CreationDate,2022-11-13T14:24:48+02:00*%
%TF.ProjectId,pcb_heater_driver,7063625f-6865-4617-9465-725f64726976,rev?*%
%TF.SameCoordinates,Original*%
%TF.FileFunction,Soldermask,Top*%
%TF.FilePolarity,Negative*%
%FSLAX46Y46*%
G04 Gerber Fmt 4.6, Leading zero omitted, Abs format (unit mm)*
G04 Created by KiCad (PCBNEW (6.0.4)) date 2022-11-13 14:24:48*
%MOMM*%
%LPD*%
G01*
G04 APERTURE LIST*
G04 Aperture macros list*
%AMRoundRect*
0 Rectangle with rounded corners*
0 $1 Rounding radius*
0 $2 $3 $4 $5 $6 $7 $8 $9 X,Y pos of 4 corners*
0 Add a 4 corners polygon primitive as box body*
4,1,4,$2,$3,$4,$5,$6,$7,$8,$9,$2,$3,0*
0 Add four circle primitives for the rounded corners*
1,1,$1+$1,$2,$3*
1,1,$1+$1,$4,$5*
1,1,$1+$1,$6,$7*
1,1,$1+$1,$8,$9*
0 Add four rect primitives between the rounded corners*
20,1,$1+$1,$2,$3,$4,$5,0*
20,1,$1+$1,$4,$5,$6,$7,0*
20,1,$1+$1,$6,$7,$8,$9,0*
20,1,$1+$1,$8,$9,$2,$3,0*%
%AMFreePoly0*
4,1,6,0.600000,-0.600000,-0.600000,-0.600000,-0.600000,0.000000,0.000000,0.600000,0.600000,0.600000,0.600000,-0.600000,0.600000,-0.600000,$1*%
%AMFreePoly1*
4,1,43,1.580355,1.210355,1.595000,1.175000,1.595000,0.775000,1.580355,0.739645,1.545000,0.725000,0.975000,0.725000,0.975000,0.575000,1.545000,0.575000,1.580355,0.560355,1.595000,0.525000,1.595000,0.125000,1.580355,0.089645,1.545000,0.075000,0.975000,0.075000,0.975000,-0.075000,1.545000,-0.075000,1.580355,-0.089645,1.595000,-0.125000,1.595000,-0.525000,1.580355,-0.560355,
1.545000,-0.575000,0.975000,-0.575000,0.975000,-0.725000,1.545000,-0.725000,1.580355,-0.739645,1.595000,-0.775000,1.595000,-1.175000,1.580355,-1.210355,1.545000,-1.225000,0.925000,-1.225000,0.889645,-1.210355,0.875000,-1.175000,-0.925000,-1.175000,-0.960355,-1.160355,-0.975000,-1.125000,-0.975000,1.125000,-0.960355,1.160355,-0.925000,1.175000,0.875000,1.175000,0.889645,1.210355,
0.925000,1.225000,1.545000,1.225000,1.580355,1.210355,1.580355,1.210355,$1*%
G04 Aperture macros list end*
%ADD10C,3.600000*%
%ADD11C,6.400000*%
%ADD12C,4.400000*%
%ADD13C,2.600000*%
%ADD14R,0.800000X0.800000*%
%ADD15R,1.200000X1.200000*%
%ADD16FreePoly0,270.000000*%
%ADD17R,0.800000X0.400000*%
%ADD18R,0.400000X0.800000*%
%ADD19RoundRect,0.075000X-0.650000X-0.075000X0.650000X-0.075000X0.650000X0.075000X-0.650000X0.075000X0*%
%ADD20RoundRect,0.050000X-0.415000X-0.200000X0.415000X-0.200000X0.415000X0.200000X-0.415000X0.200000X0*%
%ADD21FreePoly1,0.000000*%
%ADD22R,2.500000X2.500000*%
%ADD23C,2.500000*%
%ADD24C,4.000000*%
G04 APERTURE END LIST*
D10*
%TO.C,H8*%
X157500000Y-27250000D03*
D11*
X157500000Y-27250000D03*
%TD*%
D10*
%TO.C,H7*%
X158750000Y-112750000D03*
D11*
X158750000Y-112750000D03*
%TD*%
D10*
%TO.C,H5*%
X45750000Y-112750000D03*
D11*
X45750000Y-112750000D03*
%TD*%
D10*
%TO.C,H4*%
X47500000Y-54500000D03*
D11*
X47500000Y-54500000D03*
%TD*%
D10*
%TO.C,H3*%
X47500000Y-44500000D03*
D11*
X47500000Y-44500000D03*
%TD*%
D12*
%TO.C,H2*%
X53750000Y-35000000D03*
D13*
X53750000Y-35000000D03*
%TD*%
D12*
%TO.C,H1*%
X47800000Y-35000000D03*
D13*
X47800000Y-35000000D03*
%TD*%
D14*
%TO.C,U1*%
X103250000Y-110500000D03*
X89250000Y-110500000D03*
X89250000Y-96500000D03*
X103250000Y-96500000D03*
D15*
X97900000Y-103500000D03*
X96250000Y-103500000D03*
X94600000Y-105150000D03*
X94600000Y-103500000D03*
D16*
X97900000Y-101850000D03*
D15*
X97900000Y-105150000D03*
X96250000Y-105150000D03*
X96250000Y-101850000D03*
X94600000Y-101850000D03*
D17*
X103250000Y-97550000D03*
X103250000Y-98400000D03*
X103250000Y-99250000D03*
X103250000Y-100100000D03*
X103250000Y-100950000D03*
X103250000Y-101800000D03*
X103250000Y-102650000D03*
X103250000Y-103500000D03*
X103250000Y-104350000D03*
X103250000Y-105200000D03*
X103250000Y-106050000D03*
X103250000Y-106900000D03*
X103250000Y-107750000D03*
X103250000Y-108600000D03*
X103250000Y-109450000D03*
D18*
X102200000Y-110500000D03*
X101350000Y-110500000D03*
X100500000Y-110500000D03*
X99650000Y-110500000D03*
X98800000Y-110500000D03*
X97950000Y-110500000D03*
X97100000Y-110500000D03*
X96250000Y-110500000D03*
X95400000Y-110500000D03*
X94550000Y-110500000D03*
X93700000Y-110500000D03*
X92850000Y-110500000D03*
X92000000Y-110500000D03*
X91150000Y-110500000D03*
X90300000Y-110500000D03*
D17*
X89250000Y-109450000D03*
X89250000Y-108600000D03*
X89250000Y-107750000D03*
X89250000Y-106900000D03*
X89250000Y-106050000D03*
X89250000Y-105200000D03*
X89250000Y-104350000D03*
X89250000Y-103500000D03*
X89250000Y-102650000D03*
X89250000Y-101800000D03*
X89250000Y-100950000D03*
X89250000Y-100100000D03*
X89250000Y-99250000D03*
X89250000Y-98400000D03*
X89250000Y-97550000D03*
D18*
X90300000Y-96500000D03*
X91150000Y-96500000D03*
X92000000Y-96500000D03*
X92850000Y-96500000D03*
X93700000Y-96500000D03*
X94550000Y-96500000D03*
X95400000Y-96500000D03*
X96250000Y-96500000D03*
X97100000Y-96500000D03*
X97950000Y-96500000D03*
X98800000Y-96500000D03*
X99650000Y-96500000D03*
X100500000Y-96500000D03*
X101350000Y-96500000D03*
X102200000Y-96500000D03*
%TD*%
D19*
%TO.C,U2*%
X50800001Y-103500000D03*
X50800001Y-104000000D03*
X50800001Y-104500000D03*
X50800001Y-105000000D03*
X50800001Y-105500000D03*
X55200001Y-105500000D03*
X55200001Y-105000000D03*
X55200001Y-104500000D03*
X55200001Y-104000000D03*
X55200001Y-103500000D03*
%TD*%
D20*
%TO.C,Q1*%
X70965001Y-101025000D03*
X70965001Y-101675000D03*
X70965001Y-102325000D03*
X70965001Y-102975000D03*
D21*
X72905001Y-102000000D03*
%TD*%
D22*
%TO.C,PS1*%
X64550000Y-26992500D03*
D23*
X64550000Y-33742500D03*
D24*
X140550000Y-68242500D03*
X140550000Y-62742500D03*
%TD*%
M02*
