M48
; DRILL file {KiCad (6.0.9)} date Thu Nov 24 17:37:41 2022
; FORMAT={-:-/ absolute / metric / decimal}
; #@! TF.CreationDate,2022-11-24T17:37:41+02:00
; #@! TF.GenerationSoftware,Kicad,Pcbnew,(6.0.9)
; #@! TF.FileFunction,Plated,1,2,PTH
FMAT,2
METRIC
; #@! TA.AperFunction,Plated,PTH,ComponentDrill
T1C0.200
; #@! TA.AperFunction,Plated,PTH,ViaDrill
T2C0.400
; #@! TA.AperFunction,Plated,PTH,ComponentDrill
T3C0.600
; #@! TA.AperFunction,Plated,PTH,ComponentDrill
T4C0.990
; #@! TA.AperFunction,Plated,PTH,ComponentDrill
T5C1.000
; #@! TA.AperFunction,Plated,PTH,ComponentDrill
T6C1.300
; #@! TA.AperFunction,Plated,PTH,ComponentDrill
T7C1.600
; #@! TA.AperFunction,Plated,PTH,ComponentDrill
T8C2.200
; #@! TA.AperFunction,Plated,PTH,ComponentDrill
T9C2.500
; #@! TA.AperFunction,Plated,PTH,ComponentDrill
T10C3.200
%
G90
G05
T1
X120.312Y-83.28
X120.312Y-84.53
X121.562Y-83.28
X121.562Y-84.53
T2
X73.6Y-127.833
X73.6Y-129.583
X73.792Y-110.416
X73.792Y-126.716
X76.005Y-123.657
X76.292Y-112.833
X77.542Y-112.833
X77.792Y-118.583
X78.292Y-127.033
X78.581Y-109.683
X78.601Y-107.608
X78.781Y-113.883
X79.576Y-128.233
X79.915Y-105.148
X80.161Y-112.67
X80.792Y-115.583
X80.792Y-121.583
X80.851Y-124.458
X80.851Y-137.858
X81.101Y-108.358
X81.851Y-113.055
X82.051Y-141.258
X82.887Y-86.92
X82.887Y-93.92
X83.792Y-118.583
X83.887Y-48.493
X83.951Y-112.983
X84.101Y-102.858
X84.707Y-86.664
X84.707Y-94.058
X84.851Y-134.508
X84.887Y-47.493
X84.887Y-48.493
X84.887Y-49.493
X85.887Y-47.493
X85.887Y-48.493
X85.887Y-49.493
X85.901Y-85.258
X86.051Y-110.058
X86.051Y-113.058
X86.076Y-65.983
X86.076Y-66.883
X86.251Y-117.458
X86.365Y-69.345
X86.365Y-70.258
X86.365Y-71.183
X86.507Y-94.008
X87.076Y-65.983
X87.076Y-66.883
X87.265Y-69.345
X87.265Y-70.258
X87.265Y-71.183
X87.327Y-92.805
X87.707Y-87.805
X88.076Y-65.983
X88.076Y-66.883
X88.137Y-89.67
X88.137Y-91.67
X89.101Y-106.358
X89.125Y-111.583
X89.181Y-125.583
X89.451Y-117.458
X90.501Y-108.058
X90.876Y-113.083
X90.976Y-116.083
X90.976Y-119.083
X90.976Y-122.083
X91.326Y-128.558
X91.951Y-66.858
X92.326Y-85.888
X92.907Y-84.083
X97.901Y-127.258
X97.901Y-130.458
X99.051Y-60.815
X99.051Y-59.815
X99.051Y-61.815
X99.501Y-127.258
X99.501Y-130.458
X100.051Y-60.815
X100.051Y-59.815
X100.051Y-61.815
X101.051Y-60.815
X101.851Y-90.458
X101.851Y-95.458
X102.101Y-135.426
X108.076Y-129.383
X111.387Y-52.743
X111.387Y-53.743
X112.387Y-52.743
X112.387Y-53.743
X113.087Y-95.33
X114.27Y-88.405
X115.937Y-88.405
X118.337Y-83.955
X118.351Y-79.483
X127.187Y-83.855
X127.187Y-82.205
X148.676Y-139.568
X161.926Y-139.568
X174.926Y-139.568
T4
X148.426Y-142.987
X152.926Y-142.987
X161.426Y-142.987
X165.926Y-142.987
X174.426Y-142.987
X178.926Y-142.987
T5
X100.981Y-97.83
X100.981Y-100.37
X100.981Y-102.91
X100.981Y-105.45
X100.981Y-107.99
X103.237Y-48.493
X103.237Y-53.493
X205.962Y-104.893
X213.462Y-107.093
T6
X77.301Y-60.833
X77.301Y-65.833
X147.171Y-140.497
X154.181Y-140.497
X160.171Y-140.497
X167.181Y-140.497
X173.171Y-140.497
X180.181Y-140.497
T7
X216.051Y-87.065
X216.051Y-93.815
T8
X201.937Y-124.493
X217.937Y-124.493
T9
X140.051Y-52.565
X140.051Y-58.065
T10
X76.301Y-48.333
X229.901Y-141.933
T3
G00X76.642Y-86.113
M15
G01X76.042Y-86.113
M16
G05
G00X76.642Y-94.753
M15
G01X76.042Y-94.753
M16
G05
G00X81.072Y-86.113
M15
G01X79.972Y-86.113
M16
G05
G00X81.072Y-94.753
M15
G01X79.972Y-94.753
M16
G05
T6
G00X119.812Y-48.493
M15
G01X119.312Y-48.493
M16
G05
G00X119.812Y-72.493
M15
G01X119.312Y-72.493
M16
G05
G00X124.812Y-48.493
M15
G01X124.312Y-48.493
M16
G05
G00X124.562Y-58.315
M15
G01X124.562Y-57.815
M16
G05
G00X124.562Y-63.315
M15
G01X124.562Y-62.815
M16
G05
G00X124.812Y-72.493
M15
G01X124.312Y-72.493
M16
G05
T0
M30
