%TF.GenerationSoftware,KiCad,Pcbnew,(6.0.4)*%
%TF.CreationDate,2022-11-13T14:24:48+02:00*%
%TF.ProjectId,pcb_heater_driver,7063625f-6865-4617-9465-725f64726976,rev?*%
%TF.SameCoordinates,Original*%
%TF.FileFunction,Paste,Top*%
%TF.FilePolarity,Positive*%
%FSLAX46Y46*%
G04 Gerber Fmt 4.6, Leading zero omitted, Abs format (unit mm)*
G04 Created by KiCad (PCBNEW (6.0.4)) date 2022-11-13 14:24:48*
%MOMM*%
%LPD*%
G01*
G04 APERTURE LIST*
G04 Aperture macros list*
%AMRoundRect*
0 Rectangle with rounded corners*
0 $1 Rounding radius*
0 $2 $3 $4 $5 $6 $7 $8 $9 X,Y pos of 4 corners*
0 Add a 4 corners polygon primitive as box body*
4,1,4,$2,$3,$4,$5,$6,$7,$8,$9,$2,$3,0*
0 Add four circle primitives for the rounded corners*
1,1,$1+$1,$2,$3*
1,1,$1+$1,$4,$5*
1,1,$1+$1,$6,$7*
1,1,$1+$1,$8,$9*
0 Add four rect primitives between the rounded corners*
20,1,$1+$1,$2,$3,$4,$5,0*
20,1,$1+$1,$4,$5,$6,$7,0*
20,1,$1+$1,$6,$7,$8,$9,0*
20,1,$1+$1,$8,$9,$2,$3,0*%
%AMFreePoly0*
4,1,6,0.600000,-0.600000,-0.600000,-0.600000,-0.600000,0.000000,0.000000,0.600000,0.600000,0.600000,0.600000,-0.600000,0.600000,-0.600000,$1*%
G04 Aperture macros list end*
%ADD10R,0.800000X0.800000*%
%ADD11R,1.200000X1.200000*%
%ADD12FreePoly0,270.000000*%
%ADD13R,0.800000X0.400000*%
%ADD14R,0.400000X0.800000*%
%ADD15RoundRect,0.075000X-0.650000X-0.075000X0.650000X-0.075000X0.650000X0.075000X-0.650000X0.075000X0*%
%ADD16R,0.510000X0.635000*%
%ADD17R,0.750000X0.300000*%
%ADD18R,0.830000X0.300000*%
G04 APERTURE END LIST*
D10*
%TO.C,U1*%
X103250000Y-110500000D03*
X89250000Y-110500000D03*
X89250000Y-96500000D03*
X103250000Y-96500000D03*
D11*
X97900000Y-103500000D03*
X96250000Y-103500000D03*
X94600000Y-105150000D03*
X94600000Y-103500000D03*
D12*
X97900000Y-101850000D03*
D11*
X97900000Y-105150000D03*
X96250000Y-105150000D03*
X96250000Y-101850000D03*
X94600000Y-101850000D03*
D13*
X103250000Y-97550000D03*
X103250000Y-98400000D03*
X103250000Y-99250000D03*
X103250000Y-100100000D03*
X103250000Y-100950000D03*
X103250000Y-101800000D03*
X103250000Y-102650000D03*
X103250000Y-103500000D03*
X103250000Y-104350000D03*
X103250000Y-105200000D03*
X103250000Y-106050000D03*
X103250000Y-106900000D03*
X103250000Y-107750000D03*
X103250000Y-108600000D03*
X103250000Y-109450000D03*
D14*
X102200000Y-110500000D03*
X101350000Y-110500000D03*
X100500000Y-110500000D03*
X99650000Y-110500000D03*
X98800000Y-110500000D03*
X97950000Y-110500000D03*
X97100000Y-110500000D03*
X96250000Y-110500000D03*
X95400000Y-110500000D03*
X94550000Y-110500000D03*
X93700000Y-110500000D03*
X92850000Y-110500000D03*
X92000000Y-110500000D03*
X91150000Y-110500000D03*
X90300000Y-110500000D03*
D13*
X89250000Y-109450000D03*
X89250000Y-108600000D03*
X89250000Y-107750000D03*
X89250000Y-106900000D03*
X89250000Y-106050000D03*
X89250000Y-105200000D03*
X89250000Y-104350000D03*
X89250000Y-103500000D03*
X89250000Y-102650000D03*
X89250000Y-101800000D03*
X89250000Y-100950000D03*
X89250000Y-100100000D03*
X89250000Y-99250000D03*
X89250000Y-98400000D03*
X89250000Y-97550000D03*
D14*
X90300000Y-96500000D03*
X91150000Y-96500000D03*
X92000000Y-96500000D03*
X92850000Y-96500000D03*
X93700000Y-96500000D03*
X94550000Y-96500000D03*
X95400000Y-96500000D03*
X96250000Y-96500000D03*
X97100000Y-96500000D03*
X97950000Y-96500000D03*
X98800000Y-96500000D03*
X99650000Y-96500000D03*
X100500000Y-96500000D03*
X101350000Y-96500000D03*
X102200000Y-96500000D03*
%TD*%
D15*
%TO.C,U2*%
X50800001Y-103500000D03*
X50800001Y-104000000D03*
X50800001Y-104500000D03*
X50800001Y-105000000D03*
X50800001Y-105500000D03*
X55200001Y-105500000D03*
X55200001Y-105000000D03*
X55200001Y-104500000D03*
X55200001Y-104000000D03*
X55200001Y-103500000D03*
%TD*%
D16*
%TO.C,Q1*%
X73145001Y-101374000D03*
X73145001Y-102626000D03*
D17*
X74075001Y-102975000D03*
D18*
X70965001Y-102975000D03*
D17*
X74075001Y-101025000D03*
X74075001Y-102325000D03*
D18*
X70965001Y-102325000D03*
D17*
X74075001Y-101675000D03*
D16*
X72285001Y-101374000D03*
D18*
X70965001Y-101025000D03*
X70965001Y-101675000D03*
D16*
X72285001Y-102626000D03*
%TD*%
M02*
