%TF.GenerationSoftware,KiCad,Pcbnew,(6.0.9)*%
%TF.CreationDate,2022-11-24T17:37:49+02:00*%
%TF.ProjectId,pcb_heater_driver,7063625f-6865-4617-9465-725f64726976,rev?*%
%TF.SameCoordinates,Original*%
%TF.FileFunction,Copper,L2,Bot*%
%TF.FilePolarity,Positive*%
%FSLAX46Y46*%
G04 Gerber Fmt 4.6, Leading zero omitted, Abs format (unit mm)*
G04 Created by KiCad (PCBNEW (6.0.9)) date 2022-11-24 17:37:49*
%MOMM*%
%LPD*%
G01*
G04 APERTURE LIST*
G04 Aperture macros list*
%AMRoundRect*
0 Rectangle with rounded corners*
0 $1 Rounding radius*
0 $2 $3 $4 $5 $6 $7 $8 $9 X,Y pos of 4 corners*
0 Add a 4 corners polygon primitive as box body*
4,1,4,$2,$3,$4,$5,$6,$7,$8,$9,$2,$3,0*
0 Add four circle primitives for the rounded corners*
1,1,$1+$1,$2,$3*
1,1,$1+$1,$4,$5*
1,1,$1+$1,$6,$7*
1,1,$1+$1,$8,$9*
0 Add four rect primitives between the rounded corners*
20,1,$1+$1,$2,$3,$4,$5,0*
20,1,$1+$1,$4,$5,$6,$7,0*
20,1,$1+$1,$6,$7,$8,$9,0*
20,1,$1+$1,$8,$9,$2,$3,0*%
G04 Aperture macros list end*
%TA.AperFunction,ComponentPad*%
%ADD10C,2.300000*%
%TD*%
%TA.AperFunction,ComponentPad*%
%ADD11C,3.000000*%
%TD*%
%TA.AperFunction,ComponentPad*%
%ADD12C,4.500000*%
%TD*%
%TA.AperFunction,ComponentPad*%
%ADD13C,2.000000*%
%TD*%
%TA.AperFunction,ComponentPad*%
%ADD14R,2.000000X2.000000*%
%TD*%
%TA.AperFunction,ComponentPad*%
%ADD15C,1.498000*%
%TD*%
%TA.AperFunction,ComponentPad*%
%ADD16C,1.950000*%
%TD*%
%TA.AperFunction,ComponentPad*%
%ADD17O,2.600000X2.600000*%
%TD*%
%TA.AperFunction,ConnectorPad*%
%ADD18C,6.400000*%
%TD*%
%TA.AperFunction,ComponentPad*%
%ADD19C,3.600000*%
%TD*%
%TA.AperFunction,ConnectorPad*%
%ADD20C,4.400000*%
%TD*%
%TA.AperFunction,ComponentPad*%
%ADD21C,2.600000*%
%TD*%
%TA.AperFunction,ComponentPad*%
%ADD22R,1.700000X1.700000*%
%TD*%
%TA.AperFunction,ComponentPad*%
%ADD23O,1.700000X1.700000*%
%TD*%
%TA.AperFunction,ComponentPad*%
%ADD24O,1.600000X1.000000*%
%TD*%
%TA.AperFunction,ComponentPad*%
%ADD25O,2.100000X1.000000*%
%TD*%
%TA.AperFunction,ComponentPad*%
%ADD26C,0.500000*%
%TD*%
%TA.AperFunction,SMDPad,CuDef*%
%ADD27R,1.750000X1.750000*%
%TD*%
%TA.AperFunction,SMDPad,CuDef*%
%ADD28RoundRect,0.381000X-0.381000X3.119000X-0.381000X-3.119000X0.381000X-3.119000X0.381000X3.119000X0*%
%TD*%
%TA.AperFunction,ViaPad*%
%ADD29C,0.800000*%
%TD*%
%TA.AperFunction,Conductor*%
%ADD30C,4.500000*%
%TD*%
%TA.AperFunction,Conductor*%
%ADD31C,0.200000*%
%TD*%
%TA.AperFunction,Conductor*%
%ADD32C,0.700000*%
%TD*%
%TA.AperFunction,Conductor*%
%ADD33C,0.250000*%
%TD*%
%TA.AperFunction,Conductor*%
%ADD34C,0.300000*%
%TD*%
G04 APERTURE END LIST*
D10*
%TO.P,J1,1,Pin_1*%
%TO.N,+12V*%
X77300983Y-60832676D03*
%TO.P,J1,2,Pin_2*%
%TO.N,/Heater/heater_LOW*%
X77300983Y-65832676D03*
%TD*%
D11*
%TO.P,PS1,1,AC/N*%
%TO.N,Net-(H7-Pad1)*%
X216050987Y-93814996D03*
%TO.P,PS1,2,AC/L*%
%TO.N,Net-(F1-Pad2)*%
X216050987Y-87064996D03*
D12*
%TO.P,PS1,3,+Vo*%
%TO.N,Net-(PS1-Pad3)*%
X140050987Y-52564996D03*
%TO.P,PS1,4,-Vo*%
%TO.N,GND*%
X140050987Y-58064996D03*
%TD*%
D13*
%TO.P,RV1,1*%
%TO.N,Net-(F1-Pad2)*%
X205962322Y-104892677D03*
%TO.P,RV1,2*%
%TO.N,Net-(H7-Pad1)*%
X213462322Y-107092677D03*
%TD*%
D14*
%TO.P,C2,1*%
%TO.N,+12V*%
X103236692Y-48492675D03*
D13*
%TO.P,C2,2*%
%TO.N,GND*%
X103236692Y-53492675D03*
%TD*%
D15*
%TO.P,SW5,1,A*%
%TO.N,start_stop*%
X174425985Y-142987494D03*
%TO.P,SW5,2,B*%
%TO.N,Net-(R7-Pad1)*%
X178925985Y-142987494D03*
D16*
%TO.P,SW5,~*%
%TO.N,N/C*%
X180180985Y-140497494D03*
X173170985Y-140497494D03*
%TD*%
D17*
%TO.P,U6,1,|*%
%TO.N,GND*%
X119562323Y-72492675D03*
X124562323Y-72492675D03*
%TD*%
D18*
%TO.P,H3,1,1*%
%TO.N,unconnected-(H3-Pad1)*%
X229900983Y-141932678D03*
D19*
X229900983Y-141932678D03*
%TD*%
D17*
%TO.P,U4,1,|*%
%TO.N,Net-(PS1-Pad3)*%
X124562323Y-58064996D03*
X124562323Y-63064996D03*
%TD*%
D20*
%TO.P,H7,1,1*%
%TO.N,Net-(H7-Pad1)*%
X201937321Y-124492677D03*
D21*
X201937321Y-124492677D03*
%TD*%
D22*
%TO.P,J2,1,Pin_1*%
%TO.N,/MCU/TMS*%
X100980980Y-97829995D03*
D23*
%TO.P,J2,2,Pin_2*%
%TO.N,/MCU/TDI*%
X100980980Y-100369995D03*
%TO.P,J2,3,Pin_3*%
%TO.N,/MCU/TDO*%
X100980980Y-102909995D03*
%TO.P,J2,4,Pin_4*%
%TO.N,/MCU/TCK*%
X100980980Y-105449995D03*
%TO.P,J2,5,Pin_5*%
%TO.N,GND*%
X100980980Y-107989995D03*
%TD*%
D15*
%TO.P,SW4,1,A*%
%TO.N,temperature_minus*%
X161425985Y-142987494D03*
%TO.P,SW4,2,B*%
%TO.N,Net-(R6-Pad1)*%
X165925985Y-142987494D03*
D16*
%TO.P,SW4,~*%
%TO.N,N/C*%
X167180985Y-140497494D03*
X160170985Y-140497494D03*
%TD*%
D20*
%TO.P,H6,1,1*%
%TO.N,Net-(F1-Pad1)*%
X217937321Y-124492677D03*
D21*
X217937321Y-124492677D03*
%TD*%
D24*
%TO.P,J4,S1,SHIELD*%
%TO.N,unconnected-(J4-PadS1)*%
X76342321Y-86112676D03*
D25*
X80522321Y-86112676D03*
X80522321Y-94752676D03*
D24*
X76342321Y-94752676D03*
%TD*%
D26*
%TO.P,U2,17,PAD*%
%TO.N,GND*%
X121562321Y-84530173D03*
X120312321Y-84530173D03*
X120312321Y-83280173D03*
X121562321Y-83280173D03*
D27*
X120937321Y-83905173D03*
%TD*%
D17*
%TO.P,U5,1,|*%
%TO.N,+12V*%
X119562323Y-48492675D03*
X124562323Y-48492675D03*
%TD*%
D18*
%TO.P,H2,1,1*%
%TO.N,unconnected-(H2-Pad1)*%
X76300982Y-48332675D03*
D19*
X76300982Y-48332675D03*
%TD*%
D28*
%TO.P,J5,1,Pin_1*%
%TO.N,GND*%
X102100983Y-140264994D03*
%TD*%
D15*
%TO.P,SW1,1,A*%
%TO.N,temperature_plus*%
X148425985Y-142987494D03*
%TO.P,SW1,2,B*%
%TO.N,Net-(R5-Pad1)*%
X152925985Y-142987494D03*
D16*
%TO.P,SW1,~*%
%TO.N,N/C*%
X154180985Y-140497494D03*
X147170985Y-140497494D03*
%TD*%
D29*
%TO.N,GND*%
X73792322Y-126716336D03*
X174925985Y-139567675D03*
X91950983Y-66857673D03*
X112387325Y-52742675D03*
X77792322Y-118582676D03*
X80792322Y-121582676D03*
X73792322Y-110416336D03*
X111387325Y-52742675D03*
X82887321Y-93920357D03*
X100050986Y-60814996D03*
X85887325Y-49492675D03*
X73599824Y-129582673D03*
X101050987Y-60814996D03*
X90875985Y-113082673D03*
X99050987Y-61814997D03*
X100050987Y-59814996D03*
X84850985Y-134507673D03*
X84887325Y-48492675D03*
X127187325Y-82205175D03*
X79575985Y-128232673D03*
X90975985Y-116082673D03*
X89181162Y-125582676D03*
X90975985Y-122082673D03*
X83792322Y-118582676D03*
X89124824Y-111582676D03*
X99050986Y-60814996D03*
X84887325Y-49492675D03*
X82887321Y-86920357D03*
X92907323Y-84082676D03*
X87707323Y-87805173D03*
X80792322Y-115582676D03*
X100050987Y-61814996D03*
X90500985Y-108057673D03*
X113087323Y-95330171D03*
X99050987Y-59814996D03*
X112387325Y-53742675D03*
X76292322Y-112832676D03*
X77542322Y-112832676D03*
X127187321Y-83855175D03*
X87264647Y-71182673D03*
X148675985Y-139567675D03*
X115937321Y-88405175D03*
X87327146Y-92805173D03*
X87264647Y-70257673D03*
X92325983Y-85887676D03*
X73599824Y-127832673D03*
X91325985Y-128557673D03*
X114269645Y-88405177D03*
X84887325Y-47492675D03*
X90975985Y-119082673D03*
X85887325Y-48492675D03*
X85887325Y-47492675D03*
X111387325Y-53742675D03*
X86364647Y-71182673D03*
X82050983Y-141257673D03*
X83887325Y-48492675D03*
X161925985Y-139567675D03*
X87264647Y-69344989D03*
X86364647Y-70257673D03*
X86364647Y-69344989D03*
%TO.N,+3V3*%
X102100983Y-135426336D03*
X108075985Y-129382673D03*
%TO.N,mosfet_gate*%
X84707323Y-86664013D03*
X83950983Y-112982676D03*
X84707323Y-94057673D03*
X79915494Y-105148343D03*
%TO.N,current_sense_LOW*%
X86050983Y-113057673D03*
X86050983Y-110057673D03*
%TO.N,temp_mosfet*%
X89450983Y-117457673D03*
X86250983Y-117457673D03*
%TO.N,+12V*%
X118337321Y-83955175D03*
X118350985Y-79482673D03*
%TO.N,/Peripherals/UART_USB_D-*%
X88137321Y-91670357D03*
X88137321Y-89670357D03*
%TO.N,SDA*%
X99500985Y-130457673D03*
X99500985Y-127257673D03*
%TO.N,SCL*%
X97900985Y-127257673D03*
X97900985Y-130457673D03*
%TO.N,RESET*%
X101850983Y-95457673D03*
X78292322Y-127032673D03*
X76004819Y-123657494D03*
X101850983Y-90457673D03*
%TO.N,GPIO0*%
X81100985Y-108357673D03*
X81850985Y-113055173D03*
%TO.N,TX*%
X78600985Y-107607673D03*
X80161160Y-112670357D03*
%TO.N,RX*%
X78781162Y-113882676D03*
X78581162Y-109682676D03*
%TO.N,/Heater/heater_LOW*%
X89100985Y-106357673D03*
X88075985Y-65982673D03*
X86507323Y-94007673D03*
X88075985Y-66882673D03*
X86075985Y-66882673D03*
X85900983Y-85257673D03*
X84100985Y-102857673D03*
X87075985Y-66882673D03*
X86075985Y-65982673D03*
X87075985Y-65982673D03*
%TO.N,/MCU/activity_led*%
X80850983Y-137857673D03*
X80850983Y-124457673D03*
%TD*%
D30*
%TO.N,GND*%
X140050987Y-58064996D02*
X130550987Y-58064996D01*
D31*
%TO.N,/Heater/heater_LOW*%
X86507323Y-85864013D02*
X85900983Y-85257673D01*
X86507323Y-94007673D02*
X86507323Y-85864013D01*
%TO.N,mosfet_gate*%
X84707323Y-86664013D02*
X84707323Y-94057673D01*
D32*
%TO.N,+3V3*%
X102100983Y-135426336D02*
X102100983Y-135357675D01*
X102100983Y-135357675D02*
X108075985Y-129382673D01*
D31*
%TO.N,mosfet_gate*%
X83431162Y-112462855D02*
X83431162Y-108664011D01*
X83950983Y-112982676D02*
X83431162Y-112462855D01*
X83431162Y-108664011D02*
X79915494Y-105148343D01*
D33*
%TO.N,current_sense_LOW*%
X86050983Y-113057673D02*
X86050983Y-110057673D01*
%TO.N,temp_mosfet*%
X89450983Y-117457673D02*
X86250983Y-117457673D01*
D34*
%TO.N,+12V*%
X118337321Y-79496337D02*
X118337321Y-83955175D01*
X118350985Y-79482673D02*
X118337321Y-79496337D01*
D31*
%TO.N,/Peripherals/UART_USB_D-*%
X88137321Y-89670357D02*
X88137321Y-91670357D01*
%TO.N,SDA*%
X99500985Y-130457673D02*
X99500985Y-127257673D01*
%TO.N,SCL*%
X97900985Y-130457673D02*
X97900985Y-127257673D01*
%TO.N,RESET*%
X78292322Y-125944997D02*
X76004819Y-123657494D01*
X78292322Y-127032673D02*
X78292322Y-125944997D01*
X101850983Y-95457673D02*
X101850983Y-90457673D01*
%TO.N,GPIO0*%
X81850985Y-109107673D02*
X81850985Y-113055173D01*
X81100985Y-108357673D02*
X81850985Y-109107673D01*
%TO.N,TX*%
X78600985Y-107607673D02*
X80161160Y-109167848D01*
X80161160Y-109167848D02*
X80161160Y-112670357D01*
%TO.N,RX*%
X78981162Y-110082676D02*
X78581162Y-109682676D01*
X78981162Y-113682676D02*
X78981162Y-110082676D01*
X78781162Y-113882676D02*
X78981162Y-113682676D01*
%TO.N,/Heater/heater_LOW*%
X89100985Y-106357673D02*
X87600985Y-106357673D01*
X87600985Y-106357673D02*
X84100985Y-102857673D01*
%TO.N,/MCU/activity_led*%
X80850983Y-124457673D02*
X80850983Y-137857673D01*
%TD*%
%TA.AperFunction,Conductor*%
%TO.N,GND*%
G36*
X131787040Y-45452082D02*
G01*
X131805377Y-45469370D01*
X131887608Y-45569569D01*
X131898390Y-45585706D01*
X131981606Y-45741392D01*
X131989033Y-45759322D01*
X132040278Y-45928255D01*
X132044064Y-45947287D01*
X132052448Y-46032413D01*
X132061846Y-46127832D01*
X132062323Y-46137536D01*
X132062323Y-99992675D01*
X186967462Y-99992675D01*
X186977166Y-99993152D01*
X187157711Y-100010934D01*
X187176741Y-100014720D01*
X187261209Y-100040342D01*
X187345676Y-100065965D01*
X187363606Y-100073392D01*
X187519292Y-100156608D01*
X187535429Y-100167390D01*
X187671896Y-100279385D01*
X187685613Y-100293102D01*
X187720199Y-100335245D01*
X187797608Y-100429569D01*
X187808390Y-100445706D01*
X187891606Y-100601392D01*
X187899033Y-100619322D01*
X187950278Y-100788255D01*
X187954064Y-100807289D01*
X187971846Y-100987832D01*
X187972323Y-100997536D01*
X187972323Y-144127814D01*
X187971846Y-144137518D01*
X187959315Y-144264751D01*
X187954064Y-144318061D01*
X187950278Y-144337095D01*
X187899033Y-144506028D01*
X187891606Y-144523958D01*
X187808390Y-144679644D01*
X187797608Y-144695781D01*
X187715377Y-144795980D01*
X187663846Y-144828967D01*
X187638849Y-144832175D01*
X76335938Y-144832175D01*
X76318746Y-144830671D01*
X76309513Y-144829043D01*
X76300984Y-144827539D01*
X76292454Y-144829043D01*
X76292335Y-144829064D01*
X76269594Y-144830412D01*
X75981896Y-144814254D01*
X75970867Y-144813011D01*
X75661270Y-144760406D01*
X75650453Y-144757938D01*
X75348684Y-144670998D01*
X75338213Y-144667333D01*
X75048083Y-144547156D01*
X75038089Y-144542343D01*
X74763230Y-144390432D01*
X74753834Y-144384527D01*
X74596430Y-144272841D01*
X74497725Y-144202805D01*
X74489047Y-144195885D01*
X74254894Y-143986630D01*
X74247044Y-143978780D01*
X74043660Y-143751190D01*
X74037792Y-143744624D01*
X74030870Y-143735944D01*
X73849150Y-143479828D01*
X73843244Y-143470428D01*
X73828786Y-143444268D01*
X100830983Y-143444268D01*
X100831136Y-143448160D01*
X100836735Y-143519310D01*
X100838264Y-143528208D01*
X100884117Y-143699335D01*
X100887810Y-143708953D01*
X100967943Y-143866223D01*
X100973563Y-143874877D01*
X101084633Y-144012038D01*
X101091939Y-144019344D01*
X101229100Y-144130414D01*
X101237754Y-144136034D01*
X101395024Y-144216167D01*
X101404642Y-144219860D01*
X101575769Y-144265713D01*
X101584667Y-144267242D01*
X101655817Y-144272841D01*
X101659709Y-144272994D01*
X101831303Y-144272994D01*
X101843988Y-144268872D01*
X101846983Y-144264751D01*
X101846983Y-144257314D01*
X102354983Y-144257314D01*
X102359105Y-144269999D01*
X102363226Y-144272994D01*
X102542257Y-144272994D01*
X102546149Y-144272841D01*
X102617299Y-144267242D01*
X102626197Y-144265713D01*
X102797324Y-144219860D01*
X102806942Y-144216167D01*
X102964212Y-144136034D01*
X102972866Y-144130414D01*
X103110027Y-144019344D01*
X103117333Y-144012038D01*
X103228403Y-143874877D01*
X103234023Y-143866223D01*
X103314156Y-143708953D01*
X103317849Y-143699335D01*
X103363702Y-143528208D01*
X103365231Y-143519310D01*
X103370830Y-143448160D01*
X103370983Y-143444268D01*
X103370983Y-142972770D01*
X147371510Y-142972770D01*
X147388732Y-143177866D01*
X147390065Y-143182514D01*
X147390065Y-143182515D01*
X147416260Y-143273866D01*
X147445463Y-143375710D01*
X147539542Y-143558768D01*
X147667385Y-143720065D01*
X147671065Y-143723197D01*
X147671067Y-143723199D01*
X147707460Y-143754172D01*
X147824123Y-143853460D01*
X147828345Y-143855820D01*
X147828350Y-143855823D01*
X147944448Y-143920707D01*
X148003786Y-143953870D01*
X148008384Y-143955364D01*
X148194925Y-144015975D01*
X148194927Y-144015976D01*
X148199530Y-144017471D01*
X148403900Y-144041841D01*
X148408722Y-144041470D01*
X148408725Y-144041470D01*
X148476487Y-144036256D01*
X148609111Y-144026051D01*
X148807346Y-143970702D01*
X148811659Y-143968523D01*
X148811665Y-143968521D01*
X148986735Y-143880087D01*
X148986737Y-143880085D01*
X148991056Y-143877904D01*
X148994873Y-143874922D01*
X149149427Y-143754172D01*
X149149431Y-143754169D01*
X149153243Y-143751190D01*
X149162490Y-143740478D01*
X149284564Y-143599053D01*
X149284566Y-143599051D01*
X149287728Y-143595387D01*
X149353375Y-143479828D01*
X149387001Y-143420636D01*
X149387002Y-143420633D01*
X149389390Y-143416430D01*
X149435435Y-143278012D01*
X149452829Y-143225725D01*
X149452829Y-143225723D01*
X149454356Y-143221134D01*
X149480152Y-143016940D01*
X149480563Y-142987494D01*
X149479119Y-142972770D01*
X151871510Y-142972770D01*
X151888732Y-143177866D01*
X151890065Y-143182514D01*
X151890065Y-143182515D01*
X151916260Y-143273866D01*
X151945463Y-143375710D01*
X152039542Y-143558768D01*
X152167385Y-143720065D01*
X152171065Y-143723197D01*
X152171067Y-143723199D01*
X152207460Y-143754172D01*
X152324123Y-143853460D01*
X152328345Y-143855820D01*
X152328350Y-143855823D01*
X152444448Y-143920707D01*
X152503786Y-143953870D01*
X152508384Y-143955364D01*
X152694925Y-144015975D01*
X152694927Y-144015976D01*
X152699530Y-144017471D01*
X152903900Y-144041841D01*
X152908722Y-144041470D01*
X152908725Y-144041470D01*
X152976487Y-144036256D01*
X153109111Y-144026051D01*
X153307346Y-143970702D01*
X153311659Y-143968523D01*
X153311665Y-143968521D01*
X153486735Y-143880087D01*
X153486737Y-143880085D01*
X153491056Y-143877904D01*
X153494873Y-143874922D01*
X153649427Y-143754172D01*
X153649431Y-143754169D01*
X153653243Y-143751190D01*
X153662490Y-143740478D01*
X153784564Y-143599053D01*
X153784566Y-143599051D01*
X153787728Y-143595387D01*
X153853375Y-143479828D01*
X153887001Y-143420636D01*
X153887002Y-143420633D01*
X153889390Y-143416430D01*
X153935435Y-143278012D01*
X153952829Y-143225725D01*
X153952829Y-143225723D01*
X153954356Y-143221134D01*
X153980152Y-143016940D01*
X153980563Y-142987494D01*
X153979119Y-142972770D01*
X160371510Y-142972770D01*
X160388732Y-143177866D01*
X160390065Y-143182514D01*
X160390065Y-143182515D01*
X160416260Y-143273866D01*
X160445463Y-143375710D01*
X160539542Y-143558768D01*
X160667385Y-143720065D01*
X160671065Y-143723197D01*
X160671067Y-143723199D01*
X160707460Y-143754172D01*
X160824123Y-143853460D01*
X160828345Y-143855820D01*
X160828350Y-143855823D01*
X160944448Y-143920707D01*
X161003786Y-143953870D01*
X161008384Y-143955364D01*
X161194925Y-144015975D01*
X161194927Y-144015976D01*
X161199530Y-144017471D01*
X161403900Y-144041841D01*
X161408722Y-144041470D01*
X161408725Y-144041470D01*
X161476487Y-144036256D01*
X161609111Y-144026051D01*
X161807346Y-143970702D01*
X161811659Y-143968523D01*
X161811665Y-143968521D01*
X161986735Y-143880087D01*
X161986737Y-143880085D01*
X161991056Y-143877904D01*
X161994873Y-143874922D01*
X162149427Y-143754172D01*
X162149431Y-143754169D01*
X162153243Y-143751190D01*
X162162490Y-143740478D01*
X162284564Y-143599053D01*
X162284566Y-143599051D01*
X162287728Y-143595387D01*
X162353375Y-143479828D01*
X162387001Y-143420636D01*
X162387002Y-143420633D01*
X162389390Y-143416430D01*
X162435435Y-143278012D01*
X162452829Y-143225725D01*
X162452829Y-143225723D01*
X162454356Y-143221134D01*
X162480152Y-143016940D01*
X162480563Y-142987494D01*
X162479119Y-142972770D01*
X164871510Y-142972770D01*
X164888732Y-143177866D01*
X164890065Y-143182514D01*
X164890065Y-143182515D01*
X164916260Y-143273866D01*
X164945463Y-143375710D01*
X165039542Y-143558768D01*
X165167385Y-143720065D01*
X165171065Y-143723197D01*
X165171067Y-143723199D01*
X165207460Y-143754172D01*
X165324123Y-143853460D01*
X165328345Y-143855820D01*
X165328350Y-143855823D01*
X165444448Y-143920707D01*
X165503786Y-143953870D01*
X165508384Y-143955364D01*
X165694925Y-144015975D01*
X165694927Y-144015976D01*
X165699530Y-144017471D01*
X165903900Y-144041841D01*
X165908722Y-144041470D01*
X165908725Y-144041470D01*
X165976487Y-144036256D01*
X166109111Y-144026051D01*
X166307346Y-143970702D01*
X166311659Y-143968523D01*
X166311665Y-143968521D01*
X166486735Y-143880087D01*
X166486737Y-143880085D01*
X166491056Y-143877904D01*
X166494873Y-143874922D01*
X166649427Y-143754172D01*
X166649431Y-143754169D01*
X166653243Y-143751190D01*
X166662490Y-143740478D01*
X166784564Y-143599053D01*
X166784566Y-143599051D01*
X166787728Y-143595387D01*
X166853375Y-143479828D01*
X166887001Y-143420636D01*
X166887002Y-143420633D01*
X166889390Y-143416430D01*
X166935435Y-143278012D01*
X166952829Y-143225725D01*
X166952829Y-143225723D01*
X166954356Y-143221134D01*
X166980152Y-143016940D01*
X166980563Y-142987494D01*
X166979119Y-142972770D01*
X173371510Y-142972770D01*
X173388732Y-143177866D01*
X173390065Y-143182514D01*
X173390065Y-143182515D01*
X173416260Y-143273866D01*
X173445463Y-143375710D01*
X173539542Y-143558768D01*
X173667385Y-143720065D01*
X173671065Y-143723197D01*
X173671067Y-143723199D01*
X173707460Y-143754172D01*
X173824123Y-143853460D01*
X173828345Y-143855820D01*
X173828350Y-143855823D01*
X173944448Y-143920707D01*
X174003786Y-143953870D01*
X174008384Y-143955364D01*
X174194925Y-144015975D01*
X174194927Y-144015976D01*
X174199530Y-144017471D01*
X174403900Y-144041841D01*
X174408722Y-144041470D01*
X174408725Y-144041470D01*
X174476487Y-144036256D01*
X174609111Y-144026051D01*
X174807346Y-143970702D01*
X174811659Y-143968523D01*
X174811665Y-143968521D01*
X174986735Y-143880087D01*
X174986737Y-143880085D01*
X174991056Y-143877904D01*
X174994873Y-143874922D01*
X175149427Y-143754172D01*
X175149431Y-143754169D01*
X175153243Y-143751190D01*
X175162490Y-143740478D01*
X175284564Y-143599053D01*
X175284566Y-143599051D01*
X175287728Y-143595387D01*
X175353375Y-143479828D01*
X175387001Y-143420636D01*
X175387002Y-143420633D01*
X175389390Y-143416430D01*
X175435435Y-143278012D01*
X175452829Y-143225725D01*
X175452829Y-143225723D01*
X175454356Y-143221134D01*
X175480152Y-143016940D01*
X175480563Y-142987494D01*
X175479119Y-142972770D01*
X177871510Y-142972770D01*
X177888732Y-143177866D01*
X177890065Y-143182514D01*
X177890065Y-143182515D01*
X177916260Y-143273866D01*
X177945463Y-143375710D01*
X178039542Y-143558768D01*
X178167385Y-143720065D01*
X178171065Y-143723197D01*
X178171067Y-143723199D01*
X178207460Y-143754172D01*
X178324123Y-143853460D01*
X178328345Y-143855820D01*
X178328350Y-143855823D01*
X178444448Y-143920707D01*
X178503786Y-143953870D01*
X178508384Y-143955364D01*
X178694925Y-144015975D01*
X178694927Y-144015976D01*
X178699530Y-144017471D01*
X178903900Y-144041841D01*
X178908722Y-144041470D01*
X178908725Y-144041470D01*
X178976487Y-144036256D01*
X179109111Y-144026051D01*
X179307346Y-143970702D01*
X179311659Y-143968523D01*
X179311665Y-143968521D01*
X179486735Y-143880087D01*
X179486737Y-143880085D01*
X179491056Y-143877904D01*
X179494873Y-143874922D01*
X179649427Y-143754172D01*
X179649431Y-143754169D01*
X179653243Y-143751190D01*
X179662490Y-143740478D01*
X179784564Y-143599053D01*
X179784566Y-143599051D01*
X179787728Y-143595387D01*
X179853375Y-143479828D01*
X179887001Y-143420636D01*
X179887002Y-143420633D01*
X179889390Y-143416430D01*
X179935435Y-143278012D01*
X179952829Y-143225725D01*
X179952829Y-143225723D01*
X179954356Y-143221134D01*
X179980152Y-143016940D01*
X179980563Y-142987494D01*
X179960479Y-142782659D01*
X179959082Y-142778031D01*
X179902390Y-142590258D01*
X179902388Y-142590253D01*
X179900991Y-142585626D01*
X179804365Y-142403899D01*
X179797872Y-142395937D01*
X179677344Y-142248155D01*
X179677343Y-142248154D01*
X179674283Y-142244402D01*
X179515698Y-142113209D01*
X179334650Y-142015317D01*
X179271008Y-141995616D01*
X179142658Y-141955885D01*
X179142654Y-141955884D01*
X179138037Y-141954455D01*
X179133230Y-141953950D01*
X179133226Y-141953949D01*
X178938163Y-141933448D01*
X178938161Y-141933448D01*
X178933347Y-141932942D01*
X178872872Y-141938445D01*
X178733196Y-141951156D01*
X178733191Y-141951157D01*
X178728377Y-141951595D01*
X178530933Y-142009706D01*
X178526649Y-142011945D01*
X178526648Y-142011946D01*
X178520200Y-142015317D01*
X178348537Y-142105061D01*
X178344766Y-142108093D01*
X178191908Y-142230993D01*
X178191905Y-142230995D01*
X178188135Y-142234027D01*
X178185021Y-142237738D01*
X178185020Y-142237739D01*
X178058953Y-142387979D01*
X178058950Y-142387983D01*
X178055838Y-142391692D01*
X178053506Y-142395935D01*
X178053504Y-142395937D01*
X177959018Y-142567808D01*
X177956685Y-142572052D01*
X177955222Y-142576665D01*
X177955220Y-142576669D01*
X177900535Y-142749058D01*
X177894452Y-142768235D01*
X177893912Y-142773047D01*
X177893912Y-142773048D01*
X177880759Y-142890316D01*
X177871510Y-142972770D01*
X175479119Y-142972770D01*
X175460479Y-142782659D01*
X175459082Y-142778031D01*
X175402390Y-142590258D01*
X175402388Y-142590253D01*
X175400991Y-142585626D01*
X175304365Y-142403899D01*
X175297872Y-142395937D01*
X175177344Y-142248155D01*
X175177343Y-142248154D01*
X175174283Y-142244402D01*
X175015698Y-142113209D01*
X174834650Y-142015317D01*
X174771008Y-141995616D01*
X174642658Y-141955885D01*
X174642654Y-141955884D01*
X174638037Y-141954455D01*
X174633230Y-141953950D01*
X174633226Y-141953949D01*
X174438163Y-141933448D01*
X174438161Y-141933448D01*
X174433347Y-141932942D01*
X174372872Y-141938445D01*
X174233196Y-141951156D01*
X174233191Y-141951157D01*
X174228377Y-141951595D01*
X174030933Y-142009706D01*
X174026649Y-142011945D01*
X174026648Y-142011946D01*
X174020200Y-142015317D01*
X173848537Y-142105061D01*
X173844766Y-142108093D01*
X173691908Y-142230993D01*
X173691905Y-142230995D01*
X173688135Y-142234027D01*
X173685021Y-142237738D01*
X173685020Y-142237739D01*
X173558953Y-142387979D01*
X173558950Y-142387983D01*
X173555838Y-142391692D01*
X173553506Y-142395935D01*
X173553504Y-142395937D01*
X173459018Y-142567808D01*
X173456685Y-142572052D01*
X173455222Y-142576665D01*
X173455220Y-142576669D01*
X173400535Y-142749058D01*
X173394452Y-142768235D01*
X173393912Y-142773047D01*
X173393912Y-142773048D01*
X173380759Y-142890316D01*
X173371510Y-142972770D01*
X166979119Y-142972770D01*
X166960479Y-142782659D01*
X166959082Y-142778031D01*
X166902390Y-142590258D01*
X166902388Y-142590253D01*
X166900991Y-142585626D01*
X166804365Y-142403899D01*
X166797872Y-142395937D01*
X166677344Y-142248155D01*
X166677343Y-142248154D01*
X166674283Y-142244402D01*
X166515698Y-142113209D01*
X166334650Y-142015317D01*
X166271008Y-141995616D01*
X166142658Y-141955885D01*
X166142654Y-141955884D01*
X166138037Y-141954455D01*
X166133230Y-141953950D01*
X166133226Y-141953949D01*
X165938163Y-141933448D01*
X165938161Y-141933448D01*
X165933347Y-141932942D01*
X165872872Y-141938445D01*
X165733196Y-141951156D01*
X165733191Y-141951157D01*
X165728377Y-141951595D01*
X165530933Y-142009706D01*
X165526649Y-142011945D01*
X165526648Y-142011946D01*
X165520200Y-142015317D01*
X165348537Y-142105061D01*
X165344766Y-142108093D01*
X165191908Y-142230993D01*
X165191905Y-142230995D01*
X165188135Y-142234027D01*
X165185021Y-142237738D01*
X165185020Y-142237739D01*
X165058953Y-142387979D01*
X165058950Y-142387983D01*
X165055838Y-142391692D01*
X165053506Y-142395935D01*
X165053504Y-142395937D01*
X164959018Y-142567808D01*
X164956685Y-142572052D01*
X164955222Y-142576665D01*
X164955220Y-142576669D01*
X164900535Y-142749058D01*
X164894452Y-142768235D01*
X164893912Y-142773047D01*
X164893912Y-142773048D01*
X164880759Y-142890316D01*
X164871510Y-142972770D01*
X162479119Y-142972770D01*
X162460479Y-142782659D01*
X162459082Y-142778031D01*
X162402390Y-142590258D01*
X162402388Y-142590253D01*
X162400991Y-142585626D01*
X162304365Y-142403899D01*
X162297872Y-142395937D01*
X162177344Y-142248155D01*
X162177343Y-142248154D01*
X162174283Y-142244402D01*
X162015698Y-142113209D01*
X161834650Y-142015317D01*
X161771008Y-141995616D01*
X161642658Y-141955885D01*
X161642654Y-141955884D01*
X161638037Y-141954455D01*
X161633230Y-141953950D01*
X161633226Y-141953949D01*
X161438163Y-141933448D01*
X161438161Y-141933448D01*
X161433347Y-141932942D01*
X161372872Y-141938445D01*
X161233196Y-141951156D01*
X161233191Y-141951157D01*
X161228377Y-141951595D01*
X161030933Y-142009706D01*
X161026649Y-142011945D01*
X161026648Y-142011946D01*
X161020200Y-142015317D01*
X160848537Y-142105061D01*
X160844766Y-142108093D01*
X160691908Y-142230993D01*
X160691905Y-142230995D01*
X160688135Y-142234027D01*
X160685021Y-142237738D01*
X160685020Y-142237739D01*
X160558953Y-142387979D01*
X160558950Y-142387983D01*
X160555838Y-142391692D01*
X160553506Y-142395935D01*
X160553504Y-142395937D01*
X160459018Y-142567808D01*
X160456685Y-142572052D01*
X160455222Y-142576665D01*
X160455220Y-142576669D01*
X160400535Y-142749058D01*
X160394452Y-142768235D01*
X160393912Y-142773047D01*
X160393912Y-142773048D01*
X160380759Y-142890316D01*
X160371510Y-142972770D01*
X153979119Y-142972770D01*
X153960479Y-142782659D01*
X153959082Y-142778031D01*
X153902390Y-142590258D01*
X153902388Y-142590253D01*
X153900991Y-142585626D01*
X153804365Y-142403899D01*
X153797872Y-142395937D01*
X153677344Y-142248155D01*
X153677343Y-142248154D01*
X153674283Y-142244402D01*
X153515698Y-142113209D01*
X153334650Y-142015317D01*
X153271008Y-141995616D01*
X153142658Y-141955885D01*
X153142654Y-141955884D01*
X153138037Y-141954455D01*
X153133230Y-141953950D01*
X153133226Y-141953949D01*
X152938163Y-141933448D01*
X152938161Y-141933448D01*
X152933347Y-141932942D01*
X152872872Y-141938445D01*
X152733196Y-141951156D01*
X152733191Y-141951157D01*
X152728377Y-141951595D01*
X152530933Y-142009706D01*
X152526649Y-142011945D01*
X152526648Y-142011946D01*
X152520200Y-142015317D01*
X152348537Y-142105061D01*
X152344766Y-142108093D01*
X152191908Y-142230993D01*
X152191905Y-142230995D01*
X152188135Y-142234027D01*
X152185021Y-142237738D01*
X152185020Y-142237739D01*
X152058953Y-142387979D01*
X152058950Y-142387983D01*
X152055838Y-142391692D01*
X152053506Y-142395935D01*
X152053504Y-142395937D01*
X151959018Y-142567808D01*
X151956685Y-142572052D01*
X151955222Y-142576665D01*
X151955220Y-142576669D01*
X151900535Y-142749058D01*
X151894452Y-142768235D01*
X151893912Y-142773047D01*
X151893912Y-142773048D01*
X151880759Y-142890316D01*
X151871510Y-142972770D01*
X149479119Y-142972770D01*
X149460479Y-142782659D01*
X149459082Y-142778031D01*
X149402390Y-142590258D01*
X149402388Y-142590253D01*
X149400991Y-142585626D01*
X149304365Y-142403899D01*
X149297872Y-142395937D01*
X149177344Y-142248155D01*
X149177343Y-142248154D01*
X149174283Y-142244402D01*
X149015698Y-142113209D01*
X148834650Y-142015317D01*
X148771008Y-141995616D01*
X148642658Y-141955885D01*
X148642654Y-141955884D01*
X148638037Y-141954455D01*
X148633230Y-141953950D01*
X148633226Y-141953949D01*
X148438163Y-141933448D01*
X148438161Y-141933448D01*
X148433347Y-141932942D01*
X148372872Y-141938445D01*
X148233196Y-141951156D01*
X148233191Y-141951157D01*
X148228377Y-141951595D01*
X148030933Y-142009706D01*
X148026649Y-142011945D01*
X148026648Y-142011946D01*
X148020200Y-142015317D01*
X147848537Y-142105061D01*
X147844766Y-142108093D01*
X147691908Y-142230993D01*
X147691905Y-142230995D01*
X147688135Y-142234027D01*
X147685021Y-142237738D01*
X147685020Y-142237739D01*
X147558953Y-142387979D01*
X147558950Y-142387983D01*
X147555838Y-142391692D01*
X147553506Y-142395935D01*
X147553504Y-142395937D01*
X147459018Y-142567808D01*
X147456685Y-142572052D01*
X147455222Y-142576665D01*
X147455220Y-142576669D01*
X147400535Y-142749058D01*
X147394452Y-142768235D01*
X147393912Y-142773047D01*
X147393912Y-142773048D01*
X147380759Y-142890316D01*
X147371510Y-142972770D01*
X103370983Y-142972770D01*
X103370983Y-140534674D01*
X103366861Y-140521989D01*
X103362740Y-140518994D01*
X102370663Y-140518994D01*
X102357978Y-140523116D01*
X102354983Y-140527237D01*
X102354983Y-144257314D01*
X101846983Y-144257314D01*
X101846983Y-140534674D01*
X101842861Y-140521989D01*
X101838740Y-140518994D01*
X100846663Y-140518994D01*
X100833978Y-140523116D01*
X100830983Y-140527237D01*
X100830983Y-143444268D01*
X73828786Y-143444268D01*
X73691343Y-143195581D01*
X73686526Y-143185578D01*
X73566356Y-142895455D01*
X73562689Y-142884976D01*
X73477784Y-142590258D01*
X73475754Y-142583210D01*
X73473284Y-142572388D01*
X73420685Y-142262798D01*
X73419442Y-142251766D01*
X73419240Y-142248155D01*
X73403277Y-141963885D01*
X73404614Y-141941328D01*
X73404614Y-141941205D01*
X73406118Y-141932677D01*
X73402986Y-141914913D01*
X73401482Y-141897723D01*
X73401482Y-140497494D01*
X145890613Y-140497494D01*
X145910065Y-140719828D01*
X145967829Y-140935407D01*
X146062150Y-141137680D01*
X146190163Y-141320501D01*
X146347978Y-141478316D01*
X146530799Y-141606329D01*
X146733072Y-141700650D01*
X146948651Y-141758414D01*
X147170985Y-141777866D01*
X147393319Y-141758414D01*
X147608898Y-141700650D01*
X147811171Y-141606329D01*
X147993992Y-141478316D01*
X148151807Y-141320501D01*
X148279820Y-141137680D01*
X148374141Y-140935407D01*
X148431905Y-140719828D01*
X148451357Y-140497494D01*
X152900613Y-140497494D01*
X152920065Y-140719828D01*
X152977829Y-140935407D01*
X153072150Y-141137680D01*
X153200163Y-141320501D01*
X153357978Y-141478316D01*
X153540799Y-141606329D01*
X153743072Y-141700650D01*
X153958651Y-141758414D01*
X154180985Y-141777866D01*
X154403319Y-141758414D01*
X154618898Y-141700650D01*
X154821171Y-141606329D01*
X155003992Y-141478316D01*
X155161807Y-141320501D01*
X155289820Y-141137680D01*
X155384141Y-140935407D01*
X155441905Y-140719828D01*
X155461357Y-140497494D01*
X158890613Y-140497494D01*
X158910065Y-140719828D01*
X158967829Y-140935407D01*
X159062150Y-141137680D01*
X159190163Y-141320501D01*
X159347978Y-141478316D01*
X159530799Y-141606329D01*
X159733072Y-141700650D01*
X159948651Y-141758414D01*
X160170985Y-141777866D01*
X160393319Y-141758414D01*
X160608898Y-141700650D01*
X160811171Y-141606329D01*
X160993992Y-141478316D01*
X161151807Y-141320501D01*
X161279820Y-141137680D01*
X161374141Y-140935407D01*
X161431905Y-140719828D01*
X161451357Y-140497494D01*
X165900613Y-140497494D01*
X165920065Y-140719828D01*
X165977829Y-140935407D01*
X166072150Y-141137680D01*
X166200163Y-141320501D01*
X166357978Y-141478316D01*
X166540799Y-141606329D01*
X166743072Y-141700650D01*
X166958651Y-141758414D01*
X167180985Y-141777866D01*
X167403319Y-141758414D01*
X167618898Y-141700650D01*
X167821171Y-141606329D01*
X168003992Y-141478316D01*
X168161807Y-141320501D01*
X168289820Y-141137680D01*
X168384141Y-140935407D01*
X168441905Y-140719828D01*
X168461357Y-140497494D01*
X171890613Y-140497494D01*
X171910065Y-140719828D01*
X171967829Y-140935407D01*
X172062150Y-141137680D01*
X172190163Y-141320501D01*
X172347978Y-141478316D01*
X172530799Y-141606329D01*
X172733072Y-141700650D01*
X172948651Y-141758414D01*
X173170985Y-141777866D01*
X173393319Y-141758414D01*
X173608898Y-141700650D01*
X173811171Y-141606329D01*
X173993992Y-141478316D01*
X174151807Y-141320501D01*
X174279820Y-141137680D01*
X174374141Y-140935407D01*
X174431905Y-140719828D01*
X174451357Y-140497494D01*
X178900613Y-140497494D01*
X178920065Y-140719828D01*
X178977829Y-140935407D01*
X179072150Y-141137680D01*
X179200163Y-141320501D01*
X179357978Y-141478316D01*
X179540799Y-141606329D01*
X179743072Y-141700650D01*
X179958651Y-141758414D01*
X180180985Y-141777866D01*
X180403319Y-141758414D01*
X180618898Y-141700650D01*
X180821171Y-141606329D01*
X181003992Y-141478316D01*
X181161807Y-141320501D01*
X181289820Y-141137680D01*
X181384141Y-140935407D01*
X181441905Y-140719828D01*
X181461357Y-140497494D01*
X181441905Y-140275160D01*
X181384141Y-140059581D01*
X181289820Y-139857308D01*
X181161807Y-139674487D01*
X181003992Y-139516672D01*
X180821171Y-139388659D01*
X180618898Y-139294338D01*
X180403319Y-139236574D01*
X180180985Y-139217122D01*
X179958651Y-139236574D01*
X179743072Y-139294338D01*
X179540799Y-139388659D01*
X179357978Y-139516672D01*
X179200163Y-139674487D01*
X179072150Y-139857308D01*
X178977829Y-140059581D01*
X178920065Y-140275160D01*
X178900613Y-140497494D01*
X174451357Y-140497494D01*
X174431905Y-140275160D01*
X174374141Y-140059581D01*
X174279820Y-139857308D01*
X174151807Y-139674487D01*
X173993992Y-139516672D01*
X173811171Y-139388659D01*
X173608898Y-139294338D01*
X173393319Y-139236574D01*
X173170985Y-139217122D01*
X172948651Y-139236574D01*
X172733072Y-139294338D01*
X172530799Y-139388659D01*
X172347978Y-139516672D01*
X172190163Y-139674487D01*
X172062150Y-139857308D01*
X171967829Y-140059581D01*
X171910065Y-140275160D01*
X171890613Y-140497494D01*
X168461357Y-140497494D01*
X168441905Y-140275160D01*
X168384141Y-140059581D01*
X168289820Y-139857308D01*
X168161807Y-139674487D01*
X168003992Y-139516672D01*
X167821171Y-139388659D01*
X167618898Y-139294338D01*
X167403319Y-139236574D01*
X167180985Y-139217122D01*
X166958651Y-139236574D01*
X166743072Y-139294338D01*
X166540799Y-139388659D01*
X166357978Y-139516672D01*
X166200163Y-139674487D01*
X166072150Y-139857308D01*
X165977829Y-140059581D01*
X165920065Y-140275160D01*
X165900613Y-140497494D01*
X161451357Y-140497494D01*
X161431905Y-140275160D01*
X161374141Y-140059581D01*
X161279820Y-139857308D01*
X161151807Y-139674487D01*
X160993992Y-139516672D01*
X160811171Y-139388659D01*
X160608898Y-139294338D01*
X160393319Y-139236574D01*
X160170985Y-139217122D01*
X159948651Y-139236574D01*
X159733072Y-139294338D01*
X159530799Y-139388659D01*
X159347978Y-139516672D01*
X159190163Y-139674487D01*
X159062150Y-139857308D01*
X158967829Y-140059581D01*
X158910065Y-140275160D01*
X158890613Y-140497494D01*
X155461357Y-140497494D01*
X155441905Y-140275160D01*
X155384141Y-140059581D01*
X155289820Y-139857308D01*
X155161807Y-139674487D01*
X155003992Y-139516672D01*
X154821171Y-139388659D01*
X154618898Y-139294338D01*
X154403319Y-139236574D01*
X154180985Y-139217122D01*
X153958651Y-139236574D01*
X153743072Y-139294338D01*
X153540799Y-139388659D01*
X153357978Y-139516672D01*
X153200163Y-139674487D01*
X153072150Y-139857308D01*
X152977829Y-140059581D01*
X152920065Y-140275160D01*
X152900613Y-140497494D01*
X148451357Y-140497494D01*
X148431905Y-140275160D01*
X148374141Y-140059581D01*
X148279820Y-139857308D01*
X148151807Y-139674487D01*
X147993992Y-139516672D01*
X147811171Y-139388659D01*
X147608898Y-139294338D01*
X147393319Y-139236574D01*
X147170985Y-139217122D01*
X146948651Y-139236574D01*
X146733072Y-139294338D01*
X146530799Y-139388659D01*
X146347978Y-139516672D01*
X146190163Y-139674487D01*
X146062150Y-139857308D01*
X145967829Y-140059581D01*
X145910065Y-140275160D01*
X145890613Y-140497494D01*
X73401482Y-140497494D01*
X73401482Y-139995314D01*
X100830983Y-139995314D01*
X100835105Y-140007999D01*
X100839226Y-140010994D01*
X103355303Y-140010994D01*
X103367988Y-140006872D01*
X103370983Y-140002751D01*
X103370983Y-137085720D01*
X103370830Y-137081828D01*
X103365231Y-137010678D01*
X103363702Y-137001780D01*
X103317849Y-136830653D01*
X103314156Y-136821035D01*
X103234023Y-136663765D01*
X103228403Y-136655111D01*
X103117333Y-136517950D01*
X103110027Y-136510644D01*
X102972866Y-136399574D01*
X102964212Y-136393954D01*
X102806942Y-136313821D01*
X102797324Y-136310128D01*
X102626197Y-136264275D01*
X102617299Y-136262746D01*
X102546149Y-136257147D01*
X102542257Y-136256994D01*
X102425680Y-136256994D01*
X102367489Y-136238087D01*
X102331525Y-136188587D01*
X102331525Y-136127401D01*
X102367489Y-136077901D01*
X102381197Y-136069550D01*
X102486148Y-136016765D01*
X102491481Y-136014083D01*
X102496018Y-136010208D01*
X102496021Y-136010206D01*
X102615871Y-135907844D01*
X102615874Y-135907841D01*
X102620406Y-135903970D01*
X102719344Y-135766283D01*
X102782584Y-135608970D01*
X102784229Y-135609631D01*
X102805067Y-135573537D01*
X108337920Y-130040684D01*
X108363442Y-130022244D01*
X108461149Y-129973103D01*
X108461151Y-129973102D01*
X108466483Y-129970420D01*
X108542163Y-129905783D01*
X108590873Y-129864181D01*
X108590876Y-129864178D01*
X108595408Y-129860307D01*
X108694346Y-129722620D01*
X108757586Y-129565307D01*
X108781475Y-129397451D01*
X108781630Y-129382673D01*
X108761261Y-129214353D01*
X108701330Y-129055750D01*
X108605297Y-128916022D01*
X108478706Y-128803233D01*
X108328866Y-128723897D01*
X108246646Y-128703245D01*
X108170216Y-128684046D01*
X108170213Y-128684046D01*
X108164426Y-128682592D01*
X108078826Y-128682144D01*
X108000846Y-128681735D01*
X108000844Y-128681735D01*
X107994880Y-128681704D01*
X107989084Y-128683096D01*
X107989080Y-128683096D01*
X107881688Y-128708880D01*
X107830017Y-128721285D01*
X107754685Y-128760167D01*
X107684660Y-128796309D01*
X107684658Y-128796311D01*
X107679354Y-128799048D01*
X107551589Y-128910504D01*
X107454098Y-129049220D01*
X107451930Y-129054781D01*
X107439026Y-129087877D01*
X107416793Y-129121919D01*
X101698981Y-134839731D01*
X101692084Y-134846006D01*
X101688298Y-134849138D01*
X101683043Y-134852473D01*
X101678783Y-134857010D01*
X101678780Y-134857012D01*
X101640574Y-134897698D01*
X101633486Y-134904531D01*
X101576587Y-134954167D01*
X101479096Y-135092883D01*
X101417507Y-135250849D01*
X101395377Y-135418947D01*
X101396032Y-135424880D01*
X101396032Y-135424884D01*
X101413327Y-135581540D01*
X101413982Y-135587471D01*
X101472249Y-135746692D01*
X101475574Y-135751641D01*
X101475575Y-135751642D01*
X101488672Y-135771132D01*
X101566813Y-135887419D01*
X101692216Y-136001527D01*
X101697465Y-136004377D01*
X101820154Y-136070991D01*
X101862272Y-136115373D01*
X101870258Y-136176035D01*
X101841063Y-136229806D01*
X101785838Y-136256147D01*
X101772916Y-136256994D01*
X101659709Y-136256994D01*
X101655817Y-136257147D01*
X101584667Y-136262746D01*
X101575769Y-136264275D01*
X101404642Y-136310128D01*
X101395024Y-136313821D01*
X101237754Y-136393954D01*
X101229100Y-136399574D01*
X101091939Y-136510644D01*
X101084633Y-136517950D01*
X100973563Y-136655111D01*
X100967943Y-136663765D01*
X100887810Y-136821035D01*
X100884117Y-136830653D01*
X100838264Y-137001780D01*
X100836735Y-137010678D01*
X100831136Y-137081828D01*
X100830983Y-137085720D01*
X100830983Y-139995314D01*
X73401482Y-139995314D01*
X73401482Y-137850284D01*
X80145377Y-137850284D01*
X80146032Y-137856217D01*
X80146032Y-137856221D01*
X80146549Y-137860904D01*
X80163982Y-138018808D01*
X80222249Y-138178029D01*
X80225574Y-138182978D01*
X80225575Y-138182979D01*
X80238672Y-138202469D01*
X80316813Y-138318756D01*
X80442216Y-138432864D01*
X80591218Y-138513765D01*
X80626172Y-138522935D01*
X80749447Y-138555276D01*
X80749451Y-138555277D01*
X80755216Y-138556789D01*
X80761177Y-138556883D01*
X80761180Y-138556883D01*
X80839948Y-138558120D01*
X80924743Y-138559452D01*
X80930558Y-138558120D01*
X80930560Y-138558120D01*
X81084189Y-138522935D01*
X81084192Y-138522934D01*
X81090012Y-138521601D01*
X81105593Y-138513765D01*
X81236148Y-138448102D01*
X81241481Y-138445420D01*
X81246018Y-138441545D01*
X81246021Y-138441543D01*
X81365871Y-138339181D01*
X81365874Y-138339178D01*
X81370406Y-138335307D01*
X81469344Y-138197620D01*
X81532584Y-138040307D01*
X81556473Y-137872451D01*
X81556628Y-137857673D01*
X81536259Y-137689353D01*
X81476328Y-137530750D01*
X81380295Y-137391022D01*
X81284625Y-137305782D01*
X81253755Y-137252956D01*
X81251483Y-137231866D01*
X81251483Y-130450284D01*
X97195379Y-130450284D01*
X97196034Y-130456217D01*
X97196034Y-130456221D01*
X97213329Y-130612876D01*
X97213984Y-130618808D01*
X97272251Y-130778029D01*
X97275576Y-130782978D01*
X97275577Y-130782979D01*
X97288674Y-130802469D01*
X97366815Y-130918756D01*
X97492218Y-131032864D01*
X97641220Y-131113765D01*
X97676174Y-131122935D01*
X97799449Y-131155276D01*
X97799453Y-131155277D01*
X97805218Y-131156789D01*
X97811179Y-131156883D01*
X97811182Y-131156883D01*
X97889950Y-131158120D01*
X97974745Y-131159452D01*
X97980560Y-131158120D01*
X97980562Y-131158120D01*
X98134191Y-131122935D01*
X98134194Y-131122934D01*
X98140014Y-131121601D01*
X98155595Y-131113765D01*
X98286150Y-131048102D01*
X98291483Y-131045420D01*
X98296020Y-131041545D01*
X98296023Y-131041543D01*
X98415873Y-130939181D01*
X98415876Y-130939178D01*
X98420408Y-130935307D01*
X98519346Y-130797620D01*
X98582586Y-130640307D01*
X98586490Y-130612876D01*
X98603816Y-130491137D01*
X98617964Y-130462256D01*
X98613698Y-130458208D01*
X98612373Y-130454056D01*
X98784466Y-130454056D01*
X98789321Y-130458761D01*
X98800230Y-130494222D01*
X98813984Y-130618808D01*
X98872251Y-130778029D01*
X98875576Y-130782978D01*
X98875577Y-130782979D01*
X98888674Y-130802469D01*
X98966815Y-130918756D01*
X99092218Y-131032864D01*
X99241220Y-131113765D01*
X99276174Y-131122935D01*
X99399449Y-131155276D01*
X99399453Y-131155277D01*
X99405218Y-131156789D01*
X99411179Y-131156883D01*
X99411182Y-131156883D01*
X99489950Y-131158120D01*
X99574745Y-131159452D01*
X99580560Y-131158120D01*
X99580562Y-131158120D01*
X99734191Y-131122935D01*
X99734194Y-131122934D01*
X99740014Y-131121601D01*
X99755595Y-131113765D01*
X99886150Y-131048102D01*
X99891483Y-131045420D01*
X99896020Y-131041545D01*
X99896023Y-131041543D01*
X100015873Y-130939181D01*
X100015876Y-130939178D01*
X100020408Y-130935307D01*
X100119346Y-130797620D01*
X100182586Y-130640307D01*
X100186490Y-130612876D01*
X100206019Y-130475658D01*
X100206019Y-130475652D01*
X100206475Y-130472451D01*
X100206630Y-130457673D01*
X100186261Y-130289353D01*
X100126330Y-130130750D01*
X100030297Y-129991022D01*
X99934627Y-129905782D01*
X99903757Y-129852956D01*
X99901485Y-129831866D01*
X99901485Y-127882516D01*
X99920392Y-127824325D01*
X99936190Y-127807236D01*
X100015870Y-127739183D01*
X100015871Y-127739182D01*
X100020408Y-127735307D01*
X100076796Y-127656835D01*
X100115862Y-127602469D01*
X100115863Y-127602467D01*
X100119346Y-127597620D01*
X100156394Y-127505463D01*
X100180362Y-127445840D01*
X100180363Y-127445838D01*
X100182586Y-127440307D01*
X100192219Y-127372620D01*
X100206019Y-127275658D01*
X100206019Y-127275652D01*
X100206475Y-127272451D01*
X100206630Y-127257673D01*
X100186261Y-127089353D01*
X100126330Y-126930750D01*
X100084767Y-126870275D01*
X100033677Y-126795940D01*
X100030297Y-126791022D01*
X99903706Y-126678233D01*
X99753866Y-126598897D01*
X99642566Y-126570940D01*
X99595216Y-126559046D01*
X99595213Y-126559046D01*
X99589426Y-126557592D01*
X99503826Y-126557144D01*
X99425846Y-126556735D01*
X99425844Y-126556735D01*
X99419880Y-126556704D01*
X99414084Y-126558096D01*
X99414080Y-126558096D01*
X99306688Y-126583880D01*
X99255017Y-126596285D01*
X99179685Y-126635167D01*
X99109660Y-126671309D01*
X99109658Y-126671311D01*
X99104354Y-126674048D01*
X98976589Y-126785504D01*
X98973158Y-126790386D01*
X98973157Y-126790387D01*
X98922052Y-126863102D01*
X98879098Y-126924220D01*
X98876930Y-126929781D01*
X98836814Y-127032673D01*
X98817509Y-127082186D01*
X98799256Y-127220840D01*
X98798854Y-127223891D01*
X98784466Y-127254056D01*
X98789321Y-127258761D01*
X98800230Y-127294222D01*
X98813984Y-127418808D01*
X98872251Y-127578029D01*
X98875576Y-127582978D01*
X98875577Y-127582979D01*
X98888674Y-127602469D01*
X98966815Y-127718756D01*
X99068114Y-127810931D01*
X99098428Y-127864077D01*
X99100485Y-127884153D01*
X99100485Y-129832410D01*
X99081578Y-129890601D01*
X99066565Y-129907013D01*
X98976589Y-129985504D01*
X98879098Y-130124220D01*
X98817509Y-130282186D01*
X98816730Y-130288101D01*
X98816730Y-130288102D01*
X98798854Y-130423891D01*
X98784466Y-130454056D01*
X98612373Y-130454056D01*
X98602418Y-130422863D01*
X98586978Y-130295275D01*
X98586977Y-130295272D01*
X98586261Y-130289353D01*
X98526330Y-130130750D01*
X98430297Y-129991022D01*
X98334627Y-129905782D01*
X98303757Y-129852956D01*
X98301485Y-129831866D01*
X98301485Y-127882516D01*
X98320392Y-127824325D01*
X98336190Y-127807236D01*
X98415870Y-127739183D01*
X98415871Y-127739182D01*
X98420408Y-127735307D01*
X98476796Y-127656835D01*
X98515862Y-127602469D01*
X98515863Y-127602467D01*
X98519346Y-127597620D01*
X98556394Y-127505463D01*
X98580362Y-127445840D01*
X98580363Y-127445838D01*
X98582586Y-127440307D01*
X98592219Y-127372620D01*
X98603816Y-127291137D01*
X98617964Y-127262256D01*
X98613698Y-127258208D01*
X98602418Y-127222863D01*
X98586978Y-127095275D01*
X98586977Y-127095272D01*
X98586261Y-127089353D01*
X98526330Y-126930750D01*
X98484767Y-126870275D01*
X98433677Y-126795940D01*
X98430297Y-126791022D01*
X98303706Y-126678233D01*
X98153866Y-126598897D01*
X98042566Y-126570940D01*
X97995216Y-126559046D01*
X97995213Y-126559046D01*
X97989426Y-126557592D01*
X97903826Y-126557144D01*
X97825846Y-126556735D01*
X97825844Y-126556735D01*
X97819880Y-126556704D01*
X97814084Y-126558096D01*
X97814080Y-126558096D01*
X97706688Y-126583880D01*
X97655017Y-126596285D01*
X97579685Y-126635167D01*
X97509660Y-126671309D01*
X97509658Y-126671311D01*
X97504354Y-126674048D01*
X97376589Y-126785504D01*
X97373158Y-126790386D01*
X97373157Y-126790387D01*
X97322052Y-126863102D01*
X97279098Y-126924220D01*
X97276930Y-126929781D01*
X97236814Y-127032673D01*
X97217509Y-127082186D01*
X97195379Y-127250284D01*
X97196034Y-127256217D01*
X97196034Y-127256221D01*
X97206722Y-127353029D01*
X97213984Y-127418808D01*
X97272251Y-127578029D01*
X97275576Y-127582978D01*
X97275577Y-127582979D01*
X97288674Y-127602469D01*
X97366815Y-127718756D01*
X97468114Y-127810931D01*
X97498428Y-127864077D01*
X97500485Y-127884153D01*
X97500485Y-129832410D01*
X97481578Y-129890601D01*
X97466565Y-129907013D01*
X97376589Y-129985504D01*
X97279098Y-130124220D01*
X97217509Y-130282186D01*
X97195379Y-130450284D01*
X81251483Y-130450284D01*
X81251483Y-125082516D01*
X81270390Y-125024325D01*
X81286188Y-125007236D01*
X81365868Y-124939183D01*
X81365869Y-124939182D01*
X81370406Y-124935307D01*
X81469344Y-124797620D01*
X81532584Y-124640307D01*
X81556473Y-124472451D01*
X81556628Y-124457673D01*
X81536259Y-124289353D01*
X81476328Y-124130750D01*
X81380295Y-123991022D01*
X81253704Y-123878233D01*
X81103864Y-123798897D01*
X81021644Y-123778245D01*
X80945214Y-123759046D01*
X80945211Y-123759046D01*
X80939424Y-123757592D01*
X80853824Y-123757144D01*
X80775844Y-123756735D01*
X80775842Y-123756735D01*
X80769878Y-123756704D01*
X80764082Y-123758096D01*
X80764078Y-123758096D01*
X80668255Y-123781102D01*
X80605015Y-123796285D01*
X80550867Y-123824233D01*
X80459658Y-123871309D01*
X80459656Y-123871311D01*
X80454352Y-123874048D01*
X80326587Y-123985504D01*
X80229096Y-124124220D01*
X80167507Y-124282186D01*
X80145377Y-124450284D01*
X80146032Y-124456217D01*
X80146032Y-124456221D01*
X80146549Y-124460904D01*
X80163982Y-124618808D01*
X80222249Y-124778029D01*
X80225574Y-124782978D01*
X80225575Y-124782979D01*
X80238672Y-124802469D01*
X80316813Y-124918756D01*
X80418112Y-125010931D01*
X80448426Y-125064077D01*
X80450483Y-125084153D01*
X80450483Y-137232410D01*
X80431576Y-137290601D01*
X80416563Y-137307013D01*
X80326587Y-137385504D01*
X80229096Y-137524220D01*
X80167507Y-137682186D01*
X80145377Y-137850284D01*
X73401482Y-137850284D01*
X73401482Y-123650105D01*
X75299213Y-123650105D01*
X75299868Y-123656038D01*
X75299868Y-123656042D01*
X75315948Y-123801690D01*
X75317818Y-123818629D01*
X75376085Y-123977850D01*
X75470649Y-124118577D01*
X75596052Y-124232685D01*
X75745054Y-124313586D01*
X75804499Y-124329181D01*
X75903283Y-124355097D01*
X75903287Y-124355098D01*
X75909052Y-124356610D01*
X75915013Y-124356704D01*
X75915016Y-124356704D01*
X75991899Y-124357911D01*
X76078579Y-124359273D01*
X76084394Y-124357941D01*
X76086727Y-124357696D01*
X76146576Y-124370416D01*
X76167081Y-124386149D01*
X77862826Y-126081894D01*
X77890603Y-126136411D01*
X77891822Y-126151898D01*
X77891822Y-126407410D01*
X77872915Y-126465601D01*
X77857902Y-126482013D01*
X77767926Y-126560504D01*
X77670435Y-126699220D01*
X77608846Y-126857186D01*
X77586716Y-127025284D01*
X77587371Y-127031217D01*
X77587371Y-127031221D01*
X77587888Y-127035904D01*
X77605321Y-127193808D01*
X77663588Y-127353029D01*
X77666913Y-127357978D01*
X77666914Y-127357979D01*
X77680011Y-127377469D01*
X77758152Y-127493756D01*
X77883555Y-127607864D01*
X78032557Y-127688765D01*
X78067511Y-127697935D01*
X78190786Y-127730276D01*
X78190790Y-127730277D01*
X78196555Y-127731789D01*
X78202516Y-127731883D01*
X78202519Y-127731883D01*
X78281318Y-127733120D01*
X78366082Y-127734452D01*
X78371897Y-127733120D01*
X78371899Y-127733120D01*
X78525528Y-127697935D01*
X78525531Y-127697934D01*
X78531351Y-127696601D01*
X78546932Y-127688765D01*
X78677487Y-127623102D01*
X78682820Y-127620420D01*
X78687357Y-127616545D01*
X78687360Y-127616543D01*
X78807210Y-127514181D01*
X78807213Y-127514178D01*
X78811745Y-127510307D01*
X78877494Y-127418808D01*
X78907199Y-127377469D01*
X78907200Y-127377467D01*
X78910683Y-127372620D01*
X78943440Y-127291137D01*
X78971699Y-127220840D01*
X78971700Y-127220838D01*
X78973923Y-127215307D01*
X78997812Y-127047451D01*
X78997967Y-127032673D01*
X78977598Y-126864353D01*
X78917667Y-126705750D01*
X78893997Y-126671309D01*
X78825014Y-126570940D01*
X78821634Y-126566022D01*
X78725964Y-126480782D01*
X78695094Y-126427956D01*
X78692822Y-126406866D01*
X78692822Y-125881564D01*
X78685366Y-125858617D01*
X78681741Y-125843516D01*
X78679187Y-125827388D01*
X78679186Y-125827386D01*
X78677968Y-125819693D01*
X78667016Y-125798198D01*
X78661073Y-125783852D01*
X78656026Y-125768317D01*
X78656024Y-125768313D01*
X78653618Y-125760908D01*
X78639435Y-125741387D01*
X78631323Y-125728148D01*
X78623908Y-125713594D01*
X78623906Y-125713592D01*
X78620372Y-125706655D01*
X78597809Y-125684092D01*
X78597806Y-125684088D01*
X76729798Y-123816080D01*
X76702021Y-123761563D01*
X76701790Y-123732126D01*
X76709853Y-123675476D01*
X76710309Y-123672272D01*
X76710464Y-123657494D01*
X76690095Y-123489174D01*
X76630164Y-123330571D01*
X76534131Y-123190843D01*
X76407540Y-123078054D01*
X76257700Y-122998718D01*
X76175480Y-122978066D01*
X76099050Y-122958867D01*
X76099047Y-122958867D01*
X76093260Y-122957413D01*
X76007660Y-122956965D01*
X75929680Y-122956556D01*
X75929678Y-122956556D01*
X75923714Y-122956525D01*
X75917918Y-122957917D01*
X75917914Y-122957917D01*
X75810522Y-122983701D01*
X75758851Y-122996106D01*
X75683520Y-123034987D01*
X75613494Y-123071130D01*
X75613492Y-123071132D01*
X75608188Y-123073869D01*
X75480423Y-123185325D01*
X75382932Y-123324041D01*
X75321343Y-123482007D01*
X75299213Y-123650105D01*
X73401482Y-123650105D01*
X73401482Y-117450284D01*
X85545377Y-117450284D01*
X85546032Y-117456217D01*
X85546032Y-117456221D01*
X85546549Y-117460904D01*
X85563982Y-117618808D01*
X85622249Y-117778029D01*
X85625574Y-117782978D01*
X85625575Y-117782979D01*
X85638672Y-117802469D01*
X85716813Y-117918756D01*
X85842216Y-118032864D01*
X85991218Y-118113765D01*
X86026172Y-118122935D01*
X86149447Y-118155276D01*
X86149451Y-118155277D01*
X86155216Y-118156789D01*
X86161177Y-118156883D01*
X86161180Y-118156883D01*
X86239979Y-118158120D01*
X86324743Y-118159452D01*
X86330558Y-118158120D01*
X86330560Y-118158120D01*
X86484189Y-118122935D01*
X86484192Y-118122934D01*
X86490012Y-118121601D01*
X86505593Y-118113765D01*
X86636148Y-118048102D01*
X86641481Y-118045420D01*
X86646018Y-118041545D01*
X86646021Y-118041543D01*
X86765869Y-117939182D01*
X86765870Y-117939181D01*
X86770406Y-117935307D01*
X86778241Y-117924403D01*
X86827550Y-117888180D01*
X86858637Y-117883173D01*
X88841720Y-117883173D01*
X88899911Y-117902080D01*
X88914818Y-117915787D01*
X88916813Y-117918756D01*
X89042216Y-118032864D01*
X89191218Y-118113765D01*
X89226172Y-118122935D01*
X89349447Y-118155276D01*
X89349451Y-118155277D01*
X89355216Y-118156789D01*
X89361177Y-118156883D01*
X89361180Y-118156883D01*
X89439979Y-118158120D01*
X89524743Y-118159452D01*
X89530558Y-118158120D01*
X89530560Y-118158120D01*
X89684189Y-118122935D01*
X89684192Y-118122934D01*
X89690012Y-118121601D01*
X89705593Y-118113765D01*
X89836148Y-118048102D01*
X89841481Y-118045420D01*
X89846018Y-118041545D01*
X89846021Y-118041543D01*
X89965871Y-117939181D01*
X89965874Y-117939178D01*
X89970406Y-117935307D01*
X89978241Y-117924404D01*
X90065860Y-117802469D01*
X90065861Y-117802467D01*
X90069344Y-117797620D01*
X90090735Y-117744410D01*
X90130360Y-117645840D01*
X90130361Y-117645838D01*
X90132584Y-117640307D01*
X90135575Y-117619293D01*
X171136453Y-117619293D01*
X171138418Y-117744410D01*
X171142972Y-118034296D01*
X171143227Y-118036604D01*
X171143227Y-118036607D01*
X171156328Y-118155276D01*
X171188518Y-118446843D01*
X171272686Y-118853274D01*
X171273368Y-118855490D01*
X171273369Y-118855495D01*
X171358471Y-119132125D01*
X171394728Y-119249980D01*
X171553562Y-119633439D01*
X171747779Y-120000250D01*
X171975653Y-120347155D01*
X171977105Y-120348967D01*
X172233701Y-120669253D01*
X172233707Y-120669259D01*
X172235162Y-120671076D01*
X172524004Y-120969137D01*
X172525776Y-120970651D01*
X172525783Y-120970657D01*
X172837833Y-121237173D01*
X172839613Y-121238693D01*
X173179189Y-121477351D01*
X173539718Y-121682993D01*
X173918000Y-121853794D01*
X174310676Y-121988237D01*
X174312931Y-121988778D01*
X174312940Y-121988781D01*
X174711995Y-122084586D01*
X174712000Y-122084587D01*
X174714262Y-122085130D01*
X174716570Y-122085458D01*
X174716578Y-122085460D01*
X174920712Y-122114512D01*
X175125176Y-122143611D01*
X175127496Y-122143720D01*
X175127502Y-122143721D01*
X175537436Y-122163053D01*
X175539769Y-122163163D01*
X175542102Y-122163053D01*
X175952036Y-122143721D01*
X175952042Y-122143720D01*
X175954362Y-122143611D01*
X176158826Y-122114512D01*
X176362960Y-122085460D01*
X176362968Y-122085458D01*
X176365276Y-122085130D01*
X176367538Y-122084587D01*
X176367543Y-122084586D01*
X176766598Y-121988781D01*
X176766607Y-121988778D01*
X176768862Y-121988237D01*
X177161538Y-121853794D01*
X177539820Y-121682993D01*
X177900349Y-121477351D01*
X178239925Y-121238693D01*
X178241705Y-121237173D01*
X178553755Y-120970657D01*
X178553762Y-120970651D01*
X178555534Y-120969137D01*
X178844376Y-120671076D01*
X178845831Y-120669259D01*
X178845837Y-120669253D01*
X179102433Y-120348967D01*
X179103885Y-120347155D01*
X179331759Y-120000250D01*
X179525976Y-119633439D01*
X179684810Y-119249980D01*
X179721067Y-119132125D01*
X179806169Y-118855495D01*
X179806170Y-118855490D01*
X179806852Y-118853274D01*
X179891020Y-118446843D01*
X179923210Y-118155276D01*
X179936352Y-118036237D01*
X179936353Y-118036230D01*
X179936566Y-118034296D01*
X179944178Y-117792081D01*
X179945198Y-117759621D01*
X179945198Y-117759615D01*
X179945259Y-117757673D01*
X179930763Y-117450284D01*
X179925817Y-117345406D01*
X179925816Y-117345400D01*
X179925707Y-117343080D01*
X179876687Y-116998643D01*
X179867556Y-116934482D01*
X179867554Y-116934474D01*
X179867226Y-116932166D01*
X179866682Y-116929899D01*
X179770877Y-116530844D01*
X179770874Y-116530835D01*
X179770333Y-116528580D01*
X179635890Y-116135904D01*
X179465089Y-115757622D01*
X179395325Y-115635312D01*
X179260604Y-115399121D01*
X179260602Y-115399117D01*
X179259447Y-115397093D01*
X179020789Y-115057517D01*
X178930129Y-114951368D01*
X178752753Y-114743687D01*
X178752747Y-114743680D01*
X178751233Y-114741908D01*
X178453172Y-114453066D01*
X178451355Y-114451611D01*
X178451349Y-114451605D01*
X178165531Y-114222623D01*
X178129251Y-114193557D01*
X177782346Y-113965683D01*
X177415535Y-113771466D01*
X177380102Y-113756789D01*
X177034233Y-113613525D01*
X177034225Y-113613522D01*
X177032076Y-113612632D01*
X176844037Y-113554784D01*
X176637591Y-113491273D01*
X176637586Y-113491272D01*
X176635370Y-113490590D01*
X176228939Y-113406422D01*
X176226623Y-113406166D01*
X176226621Y-113406166D01*
X175818703Y-113361131D01*
X175818700Y-113361131D01*
X175816392Y-113360876D01*
X175401389Y-113354357D01*
X175399081Y-113354539D01*
X175399070Y-113354539D01*
X175133014Y-113375479D01*
X174987615Y-113386922D01*
X174578741Y-113458281D01*
X174576493Y-113458896D01*
X174180652Y-113567186D01*
X174180645Y-113567188D01*
X174178398Y-113567803D01*
X173972509Y-113645602D01*
X173794730Y-113712779D01*
X173790138Y-113714514D01*
X173673885Y-113771466D01*
X173419514Y-113896081D01*
X173419509Y-113896084D01*
X173417408Y-113897113D01*
X173415406Y-113898340D01*
X173415402Y-113898342D01*
X173187697Y-114037880D01*
X173063516Y-114113978D01*
X173061672Y-114115363D01*
X173061661Y-114115370D01*
X172912356Y-114227472D01*
X172731604Y-114363185D01*
X172729893Y-114364742D01*
X172729882Y-114364751D01*
X172488534Y-114584361D01*
X172424617Y-114642521D01*
X172146847Y-114947786D01*
X172146838Y-114947797D01*
X172145281Y-114949508D01*
X172062753Y-115059425D01*
X171897466Y-115279565D01*
X171897459Y-115279576D01*
X171896074Y-115281420D01*
X171894857Y-115283406D01*
X171707438Y-115589247D01*
X171679209Y-115635312D01*
X171496610Y-116008042D01*
X171349899Y-116396302D01*
X171349284Y-116398549D01*
X171349282Y-116398556D01*
X171288300Y-116621468D01*
X171240377Y-116796645D01*
X171169018Y-117205519D01*
X171168836Y-117207835D01*
X171136635Y-117616974D01*
X171136635Y-117616985D01*
X171136453Y-117619293D01*
X90135575Y-117619293D01*
X90156473Y-117472451D01*
X90156628Y-117457673D01*
X90136259Y-117289353D01*
X90076328Y-117130750D01*
X90008578Y-117032173D01*
X89983675Y-116995940D01*
X89980295Y-116991022D01*
X89853704Y-116878233D01*
X89703864Y-116798897D01*
X89621644Y-116778245D01*
X89545214Y-116759046D01*
X89545211Y-116759046D01*
X89539424Y-116757592D01*
X89453824Y-116757144D01*
X89375844Y-116756735D01*
X89375842Y-116756735D01*
X89369878Y-116756704D01*
X89364082Y-116758096D01*
X89364078Y-116758096D01*
X89256686Y-116783880D01*
X89205015Y-116796285D01*
X89129683Y-116835167D01*
X89059658Y-116871309D01*
X89059656Y-116871311D01*
X89054352Y-116874048D01*
X88926587Y-116985504D01*
X88923155Y-116990387D01*
X88919162Y-116994822D01*
X88918210Y-116993965D01*
X88874425Y-117026837D01*
X88842361Y-117032173D01*
X86860319Y-117032173D01*
X86802128Y-117013266D01*
X86786058Y-116998643D01*
X86783675Y-116995939D01*
X86780295Y-116991022D01*
X86775842Y-116987055D01*
X86775839Y-116987051D01*
X86702560Y-116921762D01*
X86653704Y-116878233D01*
X86503864Y-116798897D01*
X86421644Y-116778245D01*
X86345214Y-116759046D01*
X86345211Y-116759046D01*
X86339424Y-116757592D01*
X86253824Y-116757144D01*
X86175844Y-116756735D01*
X86175842Y-116756735D01*
X86169878Y-116756704D01*
X86164082Y-116758096D01*
X86164078Y-116758096D01*
X86056686Y-116783880D01*
X86005015Y-116796285D01*
X85929683Y-116835167D01*
X85859658Y-116871309D01*
X85859656Y-116871311D01*
X85854352Y-116874048D01*
X85726587Y-116985504D01*
X85723156Y-116990386D01*
X85723155Y-116990387D01*
X85632527Y-117119338D01*
X85629096Y-117124220D01*
X85567507Y-117282186D01*
X85545377Y-117450284D01*
X73401482Y-117450284D01*
X73401482Y-109675287D01*
X77875556Y-109675287D01*
X77876211Y-109681220D01*
X77876211Y-109681224D01*
X77876728Y-109685907D01*
X77894161Y-109843811D01*
X77952428Y-110003032D01*
X77955753Y-110007981D01*
X77955754Y-110007982D01*
X77986987Y-110054462D01*
X78046992Y-110143759D01*
X78051407Y-110147776D01*
X78159178Y-110245840D01*
X78172395Y-110257867D01*
X78321397Y-110338768D01*
X78380842Y-110354363D01*
X78479626Y-110380279D01*
X78479630Y-110380280D01*
X78485395Y-110381792D01*
X78491357Y-110381886D01*
X78495098Y-110382398D01*
X78550184Y-110409028D01*
X78579097Y-110462951D01*
X78580662Y-110480482D01*
X78580662Y-113137509D01*
X78561755Y-113195700D01*
X78527068Y-113225482D01*
X78389837Y-113296312D01*
X78389835Y-113296314D01*
X78384531Y-113299051D01*
X78256766Y-113410507D01*
X78253335Y-113415389D01*
X78253334Y-113415390D01*
X78162706Y-113544341D01*
X78159275Y-113549223D01*
X78149964Y-113573105D01*
X78124363Y-113638768D01*
X78097686Y-113707189D01*
X78096907Y-113713104D01*
X78096907Y-113713105D01*
X78096471Y-113716419D01*
X78075556Y-113875287D01*
X78076211Y-113881220D01*
X78076211Y-113881224D01*
X78089423Y-114000893D01*
X78094161Y-114043811D01*
X78152428Y-114203032D01*
X78155753Y-114207981D01*
X78155754Y-114207982D01*
X78168851Y-114227472D01*
X78246992Y-114343759D01*
X78372395Y-114457867D01*
X78521397Y-114538768D01*
X78556351Y-114547938D01*
X78679626Y-114580279D01*
X78679630Y-114580280D01*
X78685395Y-114581792D01*
X78691356Y-114581886D01*
X78691359Y-114581886D01*
X78770158Y-114583123D01*
X78854922Y-114584455D01*
X78860737Y-114583123D01*
X78860739Y-114583123D01*
X79014368Y-114547938D01*
X79014371Y-114547937D01*
X79020191Y-114546604D01*
X79035772Y-114538768D01*
X79166327Y-114473105D01*
X79171660Y-114470423D01*
X79176197Y-114466548D01*
X79176200Y-114466546D01*
X79296050Y-114364184D01*
X79296053Y-114364181D01*
X79300585Y-114360310D01*
X79312478Y-114343759D01*
X79396039Y-114227472D01*
X79396040Y-114227470D01*
X79399523Y-114222623D01*
X79443199Y-114113978D01*
X79460539Y-114070843D01*
X79460540Y-114070841D01*
X79462763Y-114065310D01*
X79466667Y-114037880D01*
X79486196Y-113900661D01*
X79486196Y-113900655D01*
X79486652Y-113897454D01*
X79486807Y-113882676D01*
X79471593Y-113756952D01*
X79467155Y-113720278D01*
X79467154Y-113720275D01*
X79466438Y-113714356D01*
X79406507Y-113555753D01*
X79399074Y-113544938D01*
X79381662Y-113488863D01*
X79381662Y-113091181D01*
X79400569Y-113032990D01*
X79450069Y-112997026D01*
X79511255Y-112997026D01*
X79562833Y-113035964D01*
X79626990Y-113131440D01*
X79697611Y-113195700D01*
X79740142Y-113234400D01*
X79752393Y-113245548D01*
X79901395Y-113326449D01*
X79936349Y-113335619D01*
X80059624Y-113367960D01*
X80059628Y-113367961D01*
X80065393Y-113369473D01*
X80071354Y-113369567D01*
X80071357Y-113369567D01*
X80150125Y-113370804D01*
X80234920Y-113372136D01*
X80240735Y-113370804D01*
X80240737Y-113370804D01*
X80394366Y-113335619D01*
X80394369Y-113335618D01*
X80400189Y-113334285D01*
X80413736Y-113327472D01*
X80546325Y-113260786D01*
X80551658Y-113258104D01*
X80556195Y-113254229D01*
X80556198Y-113254227D01*
X80676048Y-113151865D01*
X80676051Y-113151862D01*
X80680583Y-113147991D01*
X80684064Y-113143147D01*
X80776037Y-113015153D01*
X80776038Y-113015151D01*
X80779521Y-113010304D01*
X80783398Y-113000661D01*
X80840537Y-112858524D01*
X80840538Y-112858522D01*
X80842761Y-112852991D01*
X80847417Y-112820278D01*
X80866194Y-112688342D01*
X80866194Y-112688336D01*
X80866650Y-112685135D01*
X80866805Y-112670357D01*
X80850267Y-112533696D01*
X80847153Y-112507959D01*
X80847152Y-112507956D01*
X80846436Y-112502037D01*
X80786505Y-112343434D01*
X80775000Y-112326693D01*
X80693852Y-112208624D01*
X80690472Y-112203706D01*
X80594802Y-112118466D01*
X80563932Y-112065640D01*
X80561660Y-112044550D01*
X80561660Y-109104415D01*
X80554204Y-109081468D01*
X80550579Y-109066367D01*
X80548025Y-109050239D01*
X80548024Y-109050237D01*
X80546806Y-109042545D01*
X80547277Y-109042470D01*
X80547276Y-108986753D01*
X80583240Y-108937253D01*
X80641430Y-108918345D01*
X80691437Y-108934303D01*
X80692218Y-108932864D01*
X80841220Y-109013765D01*
X80890499Y-109026693D01*
X80999449Y-109055276D01*
X80999453Y-109055277D01*
X81005218Y-109056789D01*
X81011179Y-109056883D01*
X81011182Y-109056883D01*
X81103839Y-109058338D01*
X81174745Y-109059452D01*
X81180567Y-109058119D01*
X81182895Y-109057874D01*
X81242743Y-109070595D01*
X81263248Y-109086328D01*
X81421489Y-109244569D01*
X81449266Y-109299086D01*
X81450485Y-109314573D01*
X81450485Y-112429910D01*
X81431578Y-112488101D01*
X81416565Y-112504513D01*
X81403369Y-112516025D01*
X81326589Y-112583004D01*
X81323158Y-112587886D01*
X81323157Y-112587887D01*
X81278918Y-112650833D01*
X81229098Y-112721720D01*
X81226930Y-112727281D01*
X81175653Y-112858799D01*
X81167509Y-112879686D01*
X81166730Y-112885601D01*
X81166730Y-112885602D01*
X81161722Y-112923647D01*
X81145379Y-113047784D01*
X81146034Y-113053717D01*
X81146034Y-113053721D01*
X81163329Y-113210377D01*
X81163984Y-113216308D01*
X81222251Y-113375529D01*
X81225576Y-113380478D01*
X81225577Y-113380479D01*
X81237095Y-113397620D01*
X81316815Y-113516256D01*
X81442218Y-113630364D01*
X81447467Y-113633214D01*
X81452449Y-113635919D01*
X81591220Y-113711265D01*
X81650665Y-113726860D01*
X81749449Y-113752776D01*
X81749453Y-113752777D01*
X81755218Y-113754289D01*
X81761179Y-113754383D01*
X81761182Y-113754383D01*
X81839981Y-113755620D01*
X81924745Y-113756952D01*
X81930560Y-113755620D01*
X81930562Y-113755620D01*
X82084191Y-113720435D01*
X82084194Y-113720434D01*
X82090014Y-113719101D01*
X82097095Y-113715540D01*
X82167203Y-113680279D01*
X82241483Y-113642920D01*
X82246020Y-113639045D01*
X82246023Y-113639043D01*
X82365873Y-113536681D01*
X82365876Y-113536678D01*
X82370408Y-113532807D01*
X82379415Y-113520273D01*
X82465862Y-113399969D01*
X82465863Y-113399967D01*
X82469346Y-113395120D01*
X82478624Y-113372042D01*
X82530362Y-113243340D01*
X82530363Y-113243338D01*
X82532586Y-113237807D01*
X82534340Y-113225482D01*
X82556019Y-113073158D01*
X82556019Y-113073152D01*
X82556475Y-113069951D01*
X82556630Y-113055173D01*
X82538724Y-112907202D01*
X82536978Y-112892775D01*
X82536977Y-112892772D01*
X82536261Y-112886853D01*
X82476330Y-112728250D01*
X82461521Y-112706702D01*
X82383677Y-112593440D01*
X82380297Y-112588522D01*
X82284627Y-112503282D01*
X82253757Y-112450456D01*
X82251485Y-112429366D01*
X82251485Y-109044240D01*
X82244029Y-109021293D01*
X82240404Y-109006192D01*
X82237850Y-108990064D01*
X82237849Y-108990062D01*
X82236631Y-108982369D01*
X82225680Y-108960876D01*
X82219737Y-108946530D01*
X82214689Y-108930992D01*
X82214687Y-108930988D01*
X82212281Y-108923583D01*
X82198096Y-108904059D01*
X82189989Y-108890829D01*
X82179035Y-108869331D01*
X81825964Y-108516260D01*
X81798187Y-108461743D01*
X81797956Y-108432306D01*
X81803477Y-108393519D01*
X81806475Y-108372451D01*
X81806630Y-108357673D01*
X81793018Y-108245190D01*
X81786978Y-108195275D01*
X81786977Y-108195272D01*
X81786261Y-108189353D01*
X81726330Y-108030750D01*
X81659134Y-107932979D01*
X81633677Y-107895940D01*
X81630297Y-107891022D01*
X81503706Y-107778233D01*
X81496490Y-107774412D01*
X81423932Y-107735995D01*
X81353866Y-107698897D01*
X81271646Y-107678245D01*
X81195216Y-107659046D01*
X81195213Y-107659046D01*
X81189426Y-107657592D01*
X81103826Y-107657144D01*
X81025846Y-107656735D01*
X81025844Y-107656735D01*
X81019880Y-107656704D01*
X81014084Y-107658096D01*
X81014080Y-107658096D01*
X80906688Y-107683880D01*
X80855017Y-107696285D01*
X80782998Y-107733457D01*
X80709660Y-107771309D01*
X80709658Y-107771311D01*
X80704354Y-107774048D01*
X80576589Y-107885504D01*
X80479098Y-108024220D01*
X80417509Y-108182186D01*
X80395379Y-108350284D01*
X80396034Y-108356217D01*
X80396034Y-108356221D01*
X80413329Y-108512877D01*
X80413984Y-108518808D01*
X80416033Y-108524408D01*
X80416035Y-108524415D01*
X80453502Y-108626797D01*
X80455744Y-108687941D01*
X80421619Y-108738726D01*
X80364160Y-108759753D01*
X80305315Y-108742990D01*
X80290528Y-108730823D01*
X79325964Y-107766259D01*
X79298187Y-107711742D01*
X79297956Y-107682305D01*
X79301267Y-107659046D01*
X79306475Y-107622451D01*
X79306630Y-107607673D01*
X79286261Y-107439353D01*
X79226330Y-107280750D01*
X79130297Y-107141022D01*
X79003706Y-107028233D01*
X78991181Y-107021601D01*
X78943623Y-106996421D01*
X78853866Y-106948897D01*
X78771646Y-106928244D01*
X78695216Y-106909046D01*
X78695213Y-106909046D01*
X78689426Y-106907592D01*
X78603826Y-106907144D01*
X78525846Y-106906735D01*
X78525844Y-106906735D01*
X78519880Y-106906704D01*
X78514084Y-106908096D01*
X78514080Y-106908096D01*
X78427662Y-106928844D01*
X78355017Y-106946285D01*
X78301433Y-106973942D01*
X78209660Y-107021309D01*
X78209658Y-107021311D01*
X78204354Y-107024048D01*
X78076589Y-107135504D01*
X77979098Y-107274220D01*
X77917509Y-107432186D01*
X77895379Y-107600284D01*
X77896034Y-107606217D01*
X77896034Y-107606221D01*
X77905977Y-107696285D01*
X77913984Y-107768808D01*
X77972251Y-107928029D01*
X78066815Y-108068756D01*
X78192218Y-108182864D01*
X78341220Y-108263765D01*
X78400665Y-108279360D01*
X78499449Y-108305276D01*
X78499453Y-108305277D01*
X78505218Y-108306789D01*
X78511179Y-108306883D01*
X78511182Y-108306883D01*
X78588065Y-108308090D01*
X78674745Y-108309452D01*
X78680560Y-108308120D01*
X78682893Y-108307875D01*
X78742742Y-108320595D01*
X78763247Y-108336328D01*
X79731664Y-109304745D01*
X79759441Y-109359262D01*
X79760660Y-109374749D01*
X79760660Y-112045094D01*
X79741753Y-112103285D01*
X79726740Y-112119697D01*
X79636764Y-112198188D01*
X79633333Y-112203070D01*
X79633332Y-112203071D01*
X79561659Y-112305052D01*
X79512730Y-112341789D01*
X79451552Y-112342751D01*
X79401493Y-112307569D01*
X79381662Y-112248127D01*
X79381662Y-110051157D01*
X79381661Y-110051151D01*
X79381661Y-110019243D01*
X79379255Y-110011836D01*
X79379254Y-110011833D01*
X79374208Y-109996303D01*
X79370582Y-109981200D01*
X79368027Y-109965068D01*
X79366808Y-109957372D01*
X79355857Y-109935880D01*
X79349913Y-109921531D01*
X79344866Y-109905997D01*
X79344866Y-109905996D01*
X79342458Y-109898586D01*
X79328273Y-109879062D01*
X79320166Y-109865832D01*
X79309212Y-109844334D01*
X79303703Y-109838825D01*
X79299121Y-109832518D01*
X79300993Y-109831158D01*
X79278364Y-109786746D01*
X79278133Y-109757309D01*
X79282843Y-109724220D01*
X79286652Y-109697454D01*
X79286807Y-109682676D01*
X79266438Y-109514356D01*
X79206507Y-109355753D01*
X79191379Y-109333741D01*
X79113854Y-109220943D01*
X79110474Y-109216025D01*
X78983883Y-109103236D01*
X78972119Y-109097007D01*
X78942780Y-109081473D01*
X78834043Y-109023900D01*
X78751823Y-109003247D01*
X78675393Y-108984049D01*
X78675390Y-108984049D01*
X78669603Y-108982595D01*
X78584003Y-108982147D01*
X78506023Y-108981738D01*
X78506021Y-108981738D01*
X78500057Y-108981707D01*
X78494261Y-108983099D01*
X78494257Y-108983099D01*
X78398072Y-109006192D01*
X78335194Y-109021288D01*
X78266412Y-109056789D01*
X78189837Y-109096312D01*
X78189835Y-109096314D01*
X78184531Y-109099051D01*
X78056766Y-109210507D01*
X78053335Y-109215389D01*
X78053334Y-109215390D01*
X77976480Y-109324743D01*
X77959275Y-109349223D01*
X77957107Y-109354784D01*
X77907429Y-109482201D01*
X77897686Y-109507189D01*
X77875556Y-109675287D01*
X73401482Y-109675287D01*
X73401482Y-105140954D01*
X79209888Y-105140954D01*
X79210543Y-105146887D01*
X79210543Y-105146891D01*
X79220760Y-105239435D01*
X79228493Y-105309478D01*
X79286760Y-105468699D01*
X79381324Y-105609426D01*
X79506727Y-105723534D01*
X79655729Y-105804435D01*
X79715174Y-105820030D01*
X79813958Y-105845946D01*
X79813962Y-105845947D01*
X79819727Y-105847459D01*
X79825688Y-105847553D01*
X79825691Y-105847553D01*
X79902574Y-105848760D01*
X79989254Y-105850122D01*
X79995069Y-105848790D01*
X79997402Y-105848545D01*
X80057251Y-105861265D01*
X80077756Y-105876998D01*
X83001666Y-108800907D01*
X83029443Y-108855424D01*
X83030662Y-108870911D01*
X83030662Y-112526288D01*
X83038117Y-112549230D01*
X83041743Y-112564336D01*
X83045516Y-112588159D01*
X83056467Y-112609652D01*
X83062410Y-112623998D01*
X83069866Y-112646945D01*
X83074447Y-112653250D01*
X83084045Y-112666460D01*
X83092160Y-112679701D01*
X83103112Y-112701197D01*
X83125675Y-112723760D01*
X83125678Y-112723764D01*
X83226191Y-112824277D01*
X83253968Y-112878794D01*
X83254340Y-112907202D01*
X83248352Y-112952693D01*
X83245377Y-112975287D01*
X83246032Y-112981220D01*
X83246032Y-112981224D01*
X83263286Y-113137509D01*
X83263982Y-113143811D01*
X83322249Y-113303032D01*
X83325574Y-113307981D01*
X83325575Y-113307982D01*
X83336070Y-113323600D01*
X83416813Y-113443759D01*
X83542216Y-113557867D01*
X83691218Y-113638768D01*
X83750663Y-113654363D01*
X83849447Y-113680279D01*
X83849451Y-113680280D01*
X83855216Y-113681792D01*
X83861177Y-113681886D01*
X83861180Y-113681886D01*
X83939979Y-113683123D01*
X84024743Y-113684455D01*
X84030558Y-113683123D01*
X84030560Y-113683123D01*
X84184189Y-113647938D01*
X84184192Y-113647937D01*
X84190012Y-113646604D01*
X84205046Y-113639043D01*
X84336148Y-113573105D01*
X84341481Y-113570423D01*
X84346018Y-113566548D01*
X84346021Y-113566546D01*
X84465871Y-113464184D01*
X84465874Y-113464181D01*
X84470406Y-113460310D01*
X84485858Y-113438806D01*
X84565860Y-113327472D01*
X84565861Y-113327470D01*
X84569344Y-113322623D01*
X84596840Y-113254227D01*
X84630360Y-113170843D01*
X84630361Y-113170841D01*
X84632584Y-113165310D01*
X84633425Y-113159403D01*
X84648955Y-113050284D01*
X85345377Y-113050284D01*
X85346032Y-113056217D01*
X85346032Y-113056221D01*
X85363051Y-113210377D01*
X85363982Y-113218808D01*
X85422249Y-113378029D01*
X85425574Y-113382978D01*
X85425575Y-113382979D01*
X85436992Y-113399969D01*
X85516813Y-113518756D01*
X85642216Y-113632864D01*
X85791218Y-113713765D01*
X85826172Y-113722935D01*
X85949447Y-113755276D01*
X85949451Y-113755277D01*
X85955216Y-113756789D01*
X85961177Y-113756883D01*
X85961180Y-113756883D01*
X86039979Y-113758120D01*
X86124743Y-113759452D01*
X86130558Y-113758120D01*
X86130560Y-113758120D01*
X86284189Y-113722935D01*
X86284192Y-113722934D01*
X86290012Y-113721601D01*
X86300316Y-113716419D01*
X86436148Y-113648102D01*
X86441481Y-113645420D01*
X86446018Y-113641545D01*
X86446021Y-113641543D01*
X86565871Y-113539181D01*
X86565874Y-113539178D01*
X86570406Y-113535307D01*
X86602048Y-113491273D01*
X86665860Y-113402469D01*
X86665861Y-113402467D01*
X86669344Y-113397620D01*
X86679627Y-113372042D01*
X86730360Y-113245840D01*
X86730361Y-113245838D01*
X86732584Y-113240307D01*
X86733425Y-113234400D01*
X86756017Y-113075658D01*
X86756017Y-113075652D01*
X86756473Y-113072451D01*
X86756628Y-113057673D01*
X86736259Y-112889353D01*
X86676328Y-112730750D01*
X86671229Y-112723330D01*
X86583675Y-112595940D01*
X86580295Y-112591022D01*
X86509625Y-112528056D01*
X86478755Y-112475230D01*
X86476483Y-112454140D01*
X86476483Y-110661164D01*
X86495390Y-110602973D01*
X86511188Y-110585884D01*
X86565868Y-110539183D01*
X86565869Y-110539182D01*
X86570406Y-110535307D01*
X86669344Y-110397620D01*
X86675106Y-110383288D01*
X86730360Y-110245840D01*
X86730361Y-110245838D01*
X86732584Y-110240307D01*
X86746325Y-110143759D01*
X86756017Y-110075658D01*
X86756017Y-110075652D01*
X86756473Y-110072451D01*
X86756628Y-110057673D01*
X86738273Y-109905997D01*
X86736976Y-109895275D01*
X86736975Y-109895272D01*
X86736259Y-109889353D01*
X86676328Y-109730750D01*
X86655647Y-109700658D01*
X86583675Y-109595940D01*
X86580295Y-109591022D01*
X86453704Y-109478233D01*
X86303864Y-109398897D01*
X86207728Y-109374749D01*
X86145214Y-109359046D01*
X86145211Y-109359046D01*
X86139424Y-109357592D01*
X86053824Y-109357144D01*
X85975844Y-109356735D01*
X85975842Y-109356735D01*
X85969878Y-109356704D01*
X85964082Y-109358096D01*
X85964078Y-109358096D01*
X85856686Y-109383880D01*
X85805015Y-109396285D01*
X85729684Y-109435166D01*
X85659658Y-109471309D01*
X85659656Y-109471311D01*
X85654352Y-109474048D01*
X85526587Y-109585504D01*
X85523156Y-109590386D01*
X85523155Y-109590387D01*
X85432527Y-109719338D01*
X85429096Y-109724220D01*
X85367507Y-109882186D01*
X85345377Y-110050284D01*
X85346032Y-110056217D01*
X85346032Y-110056221D01*
X85356140Y-110147776D01*
X85363982Y-110218808D01*
X85422249Y-110378029D01*
X85425574Y-110382978D01*
X85425575Y-110382979D01*
X85438672Y-110402469D01*
X85516813Y-110518756D01*
X85521223Y-110522768D01*
X85521230Y-110522777D01*
X85593111Y-110588183D01*
X85623426Y-110641330D01*
X85625483Y-110661406D01*
X85625483Y-112454219D01*
X85606576Y-112512410D01*
X85591563Y-112528822D01*
X85526587Y-112585504D01*
X85523156Y-112590386D01*
X85523155Y-112590387D01*
X85456565Y-112685135D01*
X85429096Y-112724220D01*
X85424374Y-112736332D01*
X85376733Y-112858524D01*
X85367507Y-112882186D01*
X85345377Y-113050284D01*
X84648955Y-113050284D01*
X84656017Y-113000661D01*
X84656017Y-113000655D01*
X84656473Y-112997454D01*
X84656628Y-112982676D01*
X84641604Y-112858524D01*
X84636976Y-112820278D01*
X84636975Y-112820275D01*
X84636259Y-112814356D01*
X84576328Y-112655753D01*
X84570275Y-112646945D01*
X84483675Y-112520943D01*
X84480295Y-112516025D01*
X84353704Y-112403236D01*
X84203864Y-112323900D01*
X84072416Y-112290882D01*
X84045214Y-112284049D01*
X84045211Y-112284049D01*
X84039424Y-112282595D01*
X83930143Y-112282023D01*
X83872053Y-112262811D01*
X83836349Y-112213123D01*
X83831662Y-112183024D01*
X83831662Y-108632492D01*
X83831661Y-108632486D01*
X83831661Y-108600578D01*
X83829255Y-108593171D01*
X83829254Y-108593168D01*
X83824208Y-108577638D01*
X83820582Y-108562535D01*
X83818027Y-108546403D01*
X83816808Y-108538707D01*
X83805857Y-108517215D01*
X83799913Y-108502866D01*
X83794866Y-108487332D01*
X83794866Y-108487331D01*
X83792458Y-108479921D01*
X83778273Y-108460397D01*
X83770166Y-108447167D01*
X83759212Y-108425669D01*
X83590552Y-108257009D01*
X99649023Y-108257009D01*
X99679787Y-108393519D01*
X99682211Y-108401253D01*
X99763163Y-108600615D01*
X99766820Y-108607855D01*
X99879246Y-108791317D01*
X99884036Y-108797862D01*
X100024915Y-108960497D01*
X100030709Y-108966171D01*
X100196272Y-109103624D01*
X100202901Y-109108265D01*
X100388693Y-109216833D01*
X100395988Y-109220329D01*
X100597018Y-109297094D01*
X100604788Y-109299352D01*
X100711617Y-109321086D01*
X100724826Y-109319581D01*
X100726980Y-109311400D01*
X100726980Y-109310947D01*
X101234980Y-109310947D01*
X101239102Y-109323632D01*
X101240630Y-109324743D01*
X101245864Y-109325233D01*
X101260271Y-109323387D01*
X101268180Y-109321705D01*
X101474284Y-109259871D01*
X101481832Y-109256913D01*
X101675067Y-109162248D01*
X101682026Y-109158099D01*
X101857211Y-109033143D01*
X101863392Y-109027919D01*
X102015811Y-108876030D01*
X102021068Y-108869853D01*
X102146631Y-108695114D01*
X102150803Y-108688171D01*
X102246144Y-108495263D01*
X102249124Y-108487739D01*
X102311681Y-108281838D01*
X102313390Y-108273933D01*
X102315284Y-108259542D01*
X102312853Y-108246426D01*
X102311551Y-108245190D01*
X102306270Y-108243995D01*
X101250660Y-108243995D01*
X101237975Y-108248117D01*
X101234980Y-108252238D01*
X101234980Y-109310947D01*
X100726980Y-109310947D01*
X100726980Y-108259675D01*
X100722858Y-108246990D01*
X100718737Y-108243995D01*
X99661770Y-108243995D01*
X99649440Y-108248001D01*
X99649023Y-108257009D01*
X83590552Y-108257009D01*
X83058922Y-107725379D01*
X99645036Y-107725379D01*
X99646736Y-107733457D01*
X99648546Y-107735093D01*
X99652772Y-107735995D01*
X102301759Y-107735995D01*
X102313710Y-107732112D01*
X102314038Y-107722457D01*
X102271926Y-107554804D01*
X102269313Y-107547128D01*
X102183514Y-107349802D01*
X102179681Y-107342655D01*
X102062806Y-107161992D01*
X102057860Y-107155570D01*
X101913045Y-106996421D01*
X101907119Y-106990894D01*
X101738249Y-106857529D01*
X101731505Y-106853049D01*
X101543121Y-106749055D01*
X101535729Y-106745733D01*
X101417020Y-106703696D01*
X101368478Y-106666449D01*
X101351101Y-106607783D01*
X101371525Y-106550107D01*
X101418244Y-106516629D01*
X101446637Y-106506991D01*
X101450935Y-106505532D01*
X101635422Y-106402214D01*
X101797992Y-106267007D01*
X101933199Y-106104437D01*
X102036517Y-105919950D01*
X102060756Y-105848545D01*
X102103024Y-105724027D01*
X102103025Y-105724024D01*
X102104484Y-105719725D01*
X102134826Y-105510465D01*
X102135920Y-105468699D01*
X102136333Y-105452909D01*
X102136333Y-105452904D01*
X102136409Y-105449995D01*
X102117061Y-105239435D01*
X102059666Y-105035926D01*
X101966145Y-104846285D01*
X101839631Y-104676862D01*
X101684361Y-104533332D01*
X101615200Y-104489694D01*
X101509371Y-104422921D01*
X101505534Y-104420500D01*
X101309140Y-104342147D01*
X101101755Y-104300896D01*
X100997579Y-104299532D01*
X100894866Y-104298187D01*
X100894861Y-104298187D01*
X100890326Y-104298128D01*
X100885853Y-104298897D01*
X100885848Y-104298897D01*
X100782581Y-104316642D01*
X100681933Y-104333936D01*
X100483555Y-104407122D01*
X100479656Y-104409441D01*
X100479651Y-104409444D01*
X100344763Y-104489694D01*
X100301836Y-104515233D01*
X100298421Y-104518228D01*
X100298418Y-104518230D01*
X100240637Y-104568903D01*
X100142861Y-104654650D01*
X100140053Y-104658212D01*
X100016539Y-104814890D01*
X100011956Y-104820703D01*
X100009842Y-104824721D01*
X99928134Y-104980023D01*
X99913503Y-105007831D01*
X99850800Y-105209768D01*
X99825947Y-105419749D01*
X99828788Y-105463099D01*
X99838379Y-105609426D01*
X99839776Y-105630744D01*
X99840892Y-105635137D01*
X99840892Y-105635139D01*
X99863342Y-105723534D01*
X99891825Y-105835685D01*
X99893727Y-105839810D01*
X99893727Y-105839811D01*
X99947832Y-105957173D01*
X99980349Y-106027709D01*
X100102385Y-106200386D01*
X100253845Y-106347932D01*
X100257618Y-106350453D01*
X100425879Y-106462882D01*
X100425882Y-106462884D01*
X100429657Y-106465406D01*
X100548883Y-106516629D01*
X100553487Y-106518607D01*
X100599488Y-106558949D01*
X100612992Y-106618626D01*
X100588839Y-106674842D01*
X100545163Y-106703668D01*
X100456791Y-106732552D01*
X100449330Y-106735688D01*
X100258459Y-106835049D01*
X100251607Y-106839364D01*
X100079524Y-106968568D01*
X100073471Y-106973942D01*
X99924810Y-107129508D01*
X99919707Y-107135809D01*
X99798446Y-107313570D01*
X99794448Y-107320608D01*
X99703851Y-107515785D01*
X99701053Y-107523389D01*
X99645036Y-107725379D01*
X83058922Y-107725379D01*
X80640473Y-105306930D01*
X80612696Y-105252413D01*
X80612465Y-105222976D01*
X80614963Y-105205429D01*
X80620984Y-105163121D01*
X80621139Y-105148343D01*
X80610286Y-105058657D01*
X80601487Y-104985945D01*
X80601486Y-104985942D01*
X80600770Y-104980023D01*
X80540839Y-104821420D01*
X80444806Y-104681692D01*
X80318215Y-104568903D01*
X80168375Y-104489567D01*
X80086155Y-104468914D01*
X80009725Y-104449716D01*
X80009722Y-104449716D01*
X80003935Y-104448262D01*
X79918335Y-104447814D01*
X79840355Y-104447405D01*
X79840353Y-104447405D01*
X79834389Y-104447374D01*
X79828593Y-104448766D01*
X79828589Y-104448766D01*
X79721197Y-104474550D01*
X79669526Y-104486955D01*
X79608932Y-104518230D01*
X79524169Y-104561979D01*
X79524167Y-104561981D01*
X79518863Y-104564718D01*
X79391098Y-104676174D01*
X79293607Y-104814890D01*
X79232018Y-104972856D01*
X79209888Y-105140954D01*
X73401482Y-105140954D01*
X73401482Y-102850284D01*
X83395379Y-102850284D01*
X83396034Y-102856217D01*
X83396034Y-102856221D01*
X83404434Y-102932306D01*
X83413984Y-103018808D01*
X83472251Y-103178029D01*
X83566815Y-103318756D01*
X83692218Y-103432864D01*
X83841220Y-103513765D01*
X83900665Y-103529360D01*
X83999449Y-103555276D01*
X83999453Y-103555277D01*
X84005218Y-103556789D01*
X84011179Y-103556883D01*
X84011182Y-103556883D01*
X84088065Y-103558090D01*
X84174745Y-103559452D01*
X84180560Y-103558120D01*
X84182893Y-103557875D01*
X84242742Y-103570595D01*
X84263247Y-103586328D01*
X87272935Y-106596015D01*
X87362643Y-106685723D01*
X87384141Y-106696677D01*
X87397371Y-106704784D01*
X87416895Y-106718969D01*
X87424305Y-106721377D01*
X87424306Y-106721377D01*
X87439840Y-106726424D01*
X87454189Y-106732368D01*
X87475681Y-106743319D01*
X87483377Y-106744538D01*
X87499509Y-106747093D01*
X87514612Y-106750719D01*
X87530142Y-106755765D01*
X87530145Y-106755766D01*
X87537552Y-106758172D01*
X87569462Y-106758172D01*
X87569466Y-106758173D01*
X88473355Y-106758173D01*
X88531546Y-106777080D01*
X88555526Y-106801956D01*
X88566815Y-106818756D01*
X88692218Y-106932864D01*
X88841220Y-107013765D01*
X88876174Y-107022935D01*
X88999449Y-107055276D01*
X88999453Y-107055277D01*
X89005218Y-107056789D01*
X89011179Y-107056883D01*
X89011182Y-107056883D01*
X89089981Y-107058120D01*
X89174745Y-107059452D01*
X89180560Y-107058120D01*
X89180562Y-107058120D01*
X89334191Y-107022935D01*
X89334194Y-107022934D01*
X89340014Y-107021601D01*
X89355595Y-107013765D01*
X89484317Y-106949024D01*
X89491483Y-106945420D01*
X89496020Y-106941545D01*
X89496023Y-106941543D01*
X89615873Y-106839181D01*
X89615876Y-106839178D01*
X89620408Y-106835307D01*
X89635859Y-106813805D01*
X89715862Y-106702469D01*
X89715863Y-106702467D01*
X89719346Y-106697620D01*
X89726344Y-106680214D01*
X89780362Y-106545840D01*
X89780363Y-106545838D01*
X89782586Y-106540307D01*
X89783427Y-106534400D01*
X89806019Y-106375658D01*
X89806019Y-106375652D01*
X89806475Y-106372451D01*
X89806630Y-106357673D01*
X89795658Y-106267007D01*
X89786978Y-106195275D01*
X89786977Y-106195272D01*
X89786261Y-106189353D01*
X89726330Y-106030750D01*
X89630297Y-105891022D01*
X89503706Y-105778233D01*
X89353866Y-105698897D01*
X89271646Y-105678244D01*
X89195216Y-105659046D01*
X89195213Y-105659046D01*
X89189426Y-105657592D01*
X89103826Y-105657144D01*
X89025846Y-105656735D01*
X89025844Y-105656735D01*
X89019880Y-105656704D01*
X89014084Y-105658096D01*
X89014080Y-105658096D01*
X88906688Y-105683880D01*
X88855017Y-105696285D01*
X88818316Y-105715228D01*
X88709660Y-105771309D01*
X88709658Y-105771311D01*
X88704354Y-105774048D01*
X88576589Y-105885504D01*
X88573162Y-105890381D01*
X88573155Y-105890388D01*
X88555788Y-105915099D01*
X88506859Y-105951836D01*
X88474792Y-105957173D01*
X87807885Y-105957173D01*
X87749694Y-105938266D01*
X87737881Y-105928177D01*
X84825964Y-103016260D01*
X84798187Y-102961743D01*
X84797956Y-102932306D01*
X84801132Y-102909995D01*
X84805436Y-102879749D01*
X99825947Y-102879749D01*
X99839776Y-103090744D01*
X99840892Y-103095137D01*
X99840892Y-103095139D01*
X99863201Y-103182979D01*
X99891825Y-103295685D01*
X99893727Y-103299810D01*
X99893727Y-103299811D01*
X99932498Y-103383911D01*
X99980349Y-103487709D01*
X100102385Y-103660386D01*
X100253845Y-103807932D01*
X100257618Y-103810453D01*
X100425879Y-103922882D01*
X100425882Y-103922884D01*
X100429657Y-103925406D01*
X100526452Y-103966992D01*
X100619754Y-104007078D01*
X100619758Y-104007079D01*
X100623933Y-104008873D01*
X100628367Y-104009876D01*
X100628366Y-104009876D01*
X100825740Y-104054538D01*
X100825745Y-104054539D01*
X100830166Y-104055539D01*
X100935808Y-104059690D01*
X101036917Y-104063663D01*
X101036918Y-104063663D01*
X101041450Y-104063841D01*
X101250710Y-104033499D01*
X101255009Y-104032040D01*
X101255012Y-104032039D01*
X101446634Y-103966992D01*
X101450935Y-103965532D01*
X101635422Y-103862214D01*
X101797992Y-103727007D01*
X101933199Y-103564437D01*
X102036517Y-103379950D01*
X102055926Y-103322773D01*
X102103024Y-103184027D01*
X102103025Y-103184024D01*
X102104484Y-103179725D01*
X102127004Y-103024412D01*
X102134406Y-102973364D01*
X102134406Y-102973358D01*
X102134826Y-102970465D01*
X102135055Y-102961743D01*
X102136333Y-102912909D01*
X102136333Y-102912904D01*
X102136409Y-102909995D01*
X102117061Y-102699435D01*
X102059666Y-102495926D01*
X101966145Y-102306285D01*
X101839631Y-102136862D01*
X101684361Y-101993332D01*
X101505534Y-101880500D01*
X101309140Y-101802147D01*
X101101755Y-101760896D01*
X100997579Y-101759532D01*
X100894866Y-101758187D01*
X100894861Y-101758187D01*
X100890326Y-101758128D01*
X100885853Y-101758897D01*
X100885848Y-101758897D01*
X100782581Y-101776642D01*
X100681933Y-101793936D01*
X100483555Y-101867122D01*
X100479656Y-101869441D01*
X100479651Y-101869444D01*
X100305742Y-101972909D01*
X100301836Y-101975233D01*
X100298421Y-101978228D01*
X100298418Y-101978230D01*
X100283957Y-101990912D01*
X100142861Y-102114650D01*
X100140053Y-102118212D01*
X100019362Y-102271309D01*
X100011956Y-102280703D01*
X99913503Y-102467831D01*
X99850800Y-102669768D01*
X99850266Y-102674278D01*
X99850266Y-102674279D01*
X99849143Y-102683772D01*
X99825947Y-102879749D01*
X84805436Y-102879749D01*
X84806475Y-102872451D01*
X84806630Y-102857673D01*
X84786261Y-102689353D01*
X84726330Y-102530750D01*
X84630297Y-102391022D01*
X84503706Y-102278233D01*
X84353866Y-102198897D01*
X84271646Y-102178244D01*
X84195216Y-102159046D01*
X84195213Y-102159046D01*
X84189426Y-102157592D01*
X84103826Y-102157144D01*
X84025846Y-102156735D01*
X84025844Y-102156735D01*
X84019880Y-102156704D01*
X84014084Y-102158096D01*
X84014080Y-102158096D01*
X83906688Y-102183880D01*
X83855017Y-102196285D01*
X83779685Y-102235167D01*
X83709660Y-102271309D01*
X83709658Y-102271311D01*
X83704354Y-102274048D01*
X83576589Y-102385504D01*
X83573158Y-102390386D01*
X83573157Y-102390387D01*
X83482529Y-102519338D01*
X83479098Y-102524220D01*
X83476930Y-102529781D01*
X83422351Y-102669768D01*
X83417509Y-102682186D01*
X83395379Y-102850284D01*
X73401482Y-102850284D01*
X73401482Y-100339749D01*
X99825947Y-100339749D01*
X99839776Y-100550744D01*
X99840892Y-100555137D01*
X99840892Y-100555139D01*
X99863467Y-100644027D01*
X99891825Y-100755685D01*
X99893727Y-100759810D01*
X99893727Y-100759811D01*
X99932498Y-100843911D01*
X99980349Y-100947709D01*
X100102385Y-101120386D01*
X100253845Y-101267932D01*
X100257618Y-101270453D01*
X100425879Y-101382882D01*
X100425882Y-101382884D01*
X100429657Y-101385406D01*
X100526452Y-101426992D01*
X100619754Y-101467078D01*
X100619758Y-101467079D01*
X100623933Y-101468873D01*
X100628367Y-101469876D01*
X100628366Y-101469876D01*
X100825740Y-101514538D01*
X100825745Y-101514539D01*
X100830166Y-101515539D01*
X100935808Y-101519690D01*
X101036917Y-101523663D01*
X101036918Y-101523663D01*
X101041450Y-101523841D01*
X101250710Y-101493499D01*
X101255009Y-101492040D01*
X101255012Y-101492039D01*
X101446634Y-101426992D01*
X101450935Y-101425532D01*
X101635422Y-101322214D01*
X101797992Y-101187007D01*
X101933199Y-101024437D01*
X102036517Y-100839950D01*
X102054065Y-100788255D01*
X102103024Y-100644027D01*
X102103025Y-100644024D01*
X102104484Y-100639725D01*
X102134826Y-100430465D01*
X102136409Y-100369995D01*
X102129344Y-100293102D01*
X102117476Y-100163955D01*
X102117061Y-100159435D01*
X102083474Y-100040342D01*
X102060900Y-99960301D01*
X102060900Y-99960300D01*
X102059666Y-99955926D01*
X101966145Y-99766285D01*
X101839631Y-99596862D01*
X101684361Y-99453332D01*
X101505534Y-99340500D01*
X101309140Y-99262147D01*
X101101755Y-99220896D01*
X100997579Y-99219532D01*
X100894866Y-99218187D01*
X100894861Y-99218187D01*
X100890326Y-99218128D01*
X100885853Y-99218897D01*
X100885848Y-99218897D01*
X100782581Y-99236642D01*
X100681933Y-99253936D01*
X100483555Y-99327122D01*
X100479656Y-99329441D01*
X100479651Y-99329444D01*
X100305742Y-99432909D01*
X100301836Y-99435233D01*
X100298421Y-99438228D01*
X100298418Y-99438230D01*
X100283957Y-99450912D01*
X100142861Y-99574650D01*
X100011956Y-99740703D01*
X99913503Y-99927831D01*
X99850800Y-100129768D01*
X99850266Y-100134278D01*
X99850266Y-100134279D01*
X99833092Y-100279385D01*
X99825947Y-100339749D01*
X73401482Y-100339749D01*
X73401482Y-98724641D01*
X99830480Y-98724641D01*
X99833598Y-98750841D01*
X99879041Y-98853148D01*
X99958267Y-98932236D01*
X99966625Y-98935931D01*
X100053844Y-98974491D01*
X100053846Y-98974491D01*
X100060653Y-98977501D01*
X100068047Y-98978363D01*
X100083358Y-98980148D01*
X100086334Y-98980495D01*
X101875626Y-98980495D01*
X101893541Y-98978363D01*
X101894449Y-98978255D01*
X101894450Y-98978255D01*
X101901826Y-98977377D01*
X102004133Y-98931934D01*
X102083221Y-98852708D01*
X102128486Y-98750322D01*
X102131480Y-98724641D01*
X102131480Y-96935349D01*
X102128362Y-96909149D01*
X102082919Y-96806842D01*
X102003693Y-96727754D01*
X101974571Y-96714879D01*
X101908116Y-96685499D01*
X101908114Y-96685499D01*
X101901307Y-96682489D01*
X101887302Y-96680856D01*
X101878474Y-96679827D01*
X101878473Y-96679827D01*
X101875626Y-96679495D01*
X100086334Y-96679495D01*
X100069931Y-96681447D01*
X100067511Y-96681735D01*
X100067510Y-96681735D01*
X100060134Y-96682613D01*
X99957827Y-96728056D01*
X99878739Y-96807282D01*
X99833474Y-96909668D01*
X99830480Y-96935349D01*
X99830480Y-98724641D01*
X73401482Y-98724641D01*
X73401482Y-94747052D01*
X75236776Y-94747052D01*
X75255548Y-94925659D01*
X75257332Y-94930899D01*
X75257332Y-94930900D01*
X75279474Y-94995940D01*
X75313424Y-95095669D01*
X75316322Y-95100379D01*
X75316324Y-95100384D01*
X75338440Y-95136332D01*
X75407527Y-95248631D01*
X75411395Y-95252580D01*
X75411395Y-95252581D01*
X75446180Y-95288102D01*
X75533180Y-95376944D01*
X75684138Y-95474230D01*
X75852899Y-95535654D01*
X75991604Y-95553176D01*
X76687476Y-95553176D01*
X76690230Y-95552867D01*
X76690232Y-95552867D01*
X76717612Y-95549796D01*
X76820793Y-95538222D01*
X76990394Y-95479161D01*
X77046082Y-95444363D01*
X77138006Y-95386923D01*
X77138008Y-95386921D01*
X77142696Y-95383992D01*
X77237998Y-95289353D01*
X77266200Y-95261347D01*
X77266201Y-95261345D01*
X77270128Y-95257446D01*
X77273095Y-95252771D01*
X77363392Y-95110486D01*
X77363393Y-95110485D01*
X77366358Y-95105812D01*
X77426602Y-94936627D01*
X77428431Y-94921293D01*
X77447211Y-94763796D01*
X77447211Y-94763793D01*
X77447866Y-94758300D01*
X77446684Y-94747052D01*
X79166776Y-94747052D01*
X79185548Y-94925659D01*
X79187332Y-94930899D01*
X79187332Y-94930900D01*
X79209474Y-94995940D01*
X79243424Y-95095669D01*
X79246322Y-95100379D01*
X79246324Y-95100384D01*
X79268440Y-95136332D01*
X79337527Y-95248631D01*
X79341395Y-95252580D01*
X79341395Y-95252581D01*
X79376180Y-95288102D01*
X79463180Y-95376944D01*
X79614138Y-95474230D01*
X79782899Y-95535654D01*
X79921604Y-95553176D01*
X81117476Y-95553176D01*
X81120230Y-95552867D01*
X81120232Y-95552867D01*
X81147612Y-95549796D01*
X81250793Y-95538222D01*
X81420394Y-95479161D01*
X81466606Y-95450284D01*
X101145377Y-95450284D01*
X101146032Y-95456217D01*
X101146032Y-95456221D01*
X101154878Y-95536348D01*
X101163982Y-95618808D01*
X101222249Y-95778029D01*
X101225574Y-95782978D01*
X101225575Y-95782979D01*
X101238672Y-95802469D01*
X101316813Y-95918756D01*
X101442216Y-96032864D01*
X101591218Y-96113765D01*
X101626172Y-96122935D01*
X101749447Y-96155276D01*
X101749451Y-96155277D01*
X101755216Y-96156789D01*
X101761177Y-96156883D01*
X101761180Y-96156883D01*
X101839948Y-96158120D01*
X101924743Y-96159452D01*
X101930558Y-96158120D01*
X101930560Y-96158120D01*
X102084189Y-96122935D01*
X102084192Y-96122934D01*
X102090012Y-96121601D01*
X102105593Y-96113765D01*
X102236148Y-96048102D01*
X102241481Y-96045420D01*
X102246018Y-96041545D01*
X102246021Y-96041543D01*
X102365871Y-95939181D01*
X102365874Y-95939178D01*
X102370406Y-95935307D01*
X102440466Y-95837808D01*
X102465860Y-95802469D01*
X102465861Y-95802467D01*
X102469344Y-95797620D01*
X102532584Y-95640307D01*
X102536488Y-95612877D01*
X102556017Y-95475658D01*
X102556017Y-95475652D01*
X102556473Y-95472451D01*
X102556628Y-95457673D01*
X102543647Y-95350403D01*
X102536976Y-95295275D01*
X102536975Y-95295272D01*
X102536259Y-95289353D01*
X102476328Y-95130750D01*
X102472308Y-95124900D01*
X102383675Y-94995940D01*
X102380295Y-94991022D01*
X102284625Y-94905782D01*
X102253755Y-94852956D01*
X102251483Y-94831866D01*
X102251483Y-91082516D01*
X102270390Y-91024325D01*
X102286188Y-91007236D01*
X102365868Y-90939183D01*
X102365869Y-90939182D01*
X102370406Y-90935307D01*
X102469344Y-90797620D01*
X102532584Y-90640307D01*
X102556473Y-90472451D01*
X102556628Y-90457673D01*
X102536259Y-90289353D01*
X102476328Y-90130750D01*
X102380295Y-89991022D01*
X102253704Y-89878233D01*
X102103864Y-89798897D01*
X102021644Y-89778245D01*
X101945214Y-89759046D01*
X101945211Y-89759046D01*
X101939424Y-89757592D01*
X101853824Y-89757144D01*
X101775844Y-89756735D01*
X101775842Y-89756735D01*
X101769878Y-89756704D01*
X101764082Y-89758096D01*
X101764078Y-89758096D01*
X101656686Y-89783880D01*
X101605015Y-89796285D01*
X101548294Y-89825561D01*
X101459658Y-89871309D01*
X101459656Y-89871311D01*
X101454352Y-89874048D01*
X101326587Y-89985504D01*
X101229096Y-90124220D01*
X101167507Y-90282186D01*
X101145377Y-90450284D01*
X101146032Y-90456217D01*
X101146032Y-90456221D01*
X101146549Y-90460904D01*
X101163982Y-90618808D01*
X101222249Y-90778029D01*
X101225574Y-90782978D01*
X101225575Y-90782979D01*
X101238672Y-90802469D01*
X101316813Y-90918756D01*
X101418112Y-91010931D01*
X101448426Y-91064077D01*
X101450483Y-91084153D01*
X101450483Y-94832410D01*
X101431576Y-94890601D01*
X101416563Y-94907013D01*
X101326587Y-94985504D01*
X101323156Y-94990386D01*
X101323155Y-94990387D01*
X101232527Y-95119338D01*
X101229096Y-95124220D01*
X101226928Y-95129781D01*
X101178976Y-95252771D01*
X101167507Y-95282186D01*
X101145377Y-95450284D01*
X81466606Y-95450284D01*
X81476082Y-95444363D01*
X81568006Y-95386923D01*
X81568008Y-95386921D01*
X81572696Y-95383992D01*
X81667998Y-95289353D01*
X81696200Y-95261347D01*
X81696201Y-95261345D01*
X81700128Y-95257446D01*
X81703095Y-95252771D01*
X81793392Y-95110486D01*
X81793393Y-95110485D01*
X81796358Y-95105812D01*
X81856602Y-94936627D01*
X81858431Y-94921293D01*
X81877211Y-94763796D01*
X81877211Y-94763793D01*
X81877866Y-94758300D01*
X81859094Y-94579693D01*
X81853587Y-94563516D01*
X81803003Y-94414925D01*
X81803001Y-94414921D01*
X81801218Y-94409683D01*
X81798320Y-94404973D01*
X81798318Y-94404968D01*
X81710012Y-94261430D01*
X81707115Y-94256721D01*
X81581462Y-94128408D01*
X81460238Y-94050284D01*
X84001717Y-94050284D01*
X84002372Y-94056217D01*
X84002372Y-94056221D01*
X84016523Y-94184400D01*
X84020322Y-94218808D01*
X84078589Y-94378029D01*
X84081914Y-94382978D01*
X84081915Y-94382979D01*
X84093044Y-94399540D01*
X84173153Y-94518756D01*
X84298556Y-94632864D01*
X84447558Y-94713765D01*
X84482512Y-94722935D01*
X84605787Y-94755276D01*
X84605791Y-94755277D01*
X84611556Y-94756789D01*
X84617517Y-94756883D01*
X84617520Y-94756883D01*
X84696319Y-94758120D01*
X84781083Y-94759452D01*
X84786898Y-94758120D01*
X84786900Y-94758120D01*
X84940529Y-94722935D01*
X84940532Y-94722934D01*
X84946352Y-94721601D01*
X84961933Y-94713765D01*
X85022086Y-94683511D01*
X85097821Y-94645420D01*
X85102358Y-94641545D01*
X85102361Y-94641543D01*
X85222211Y-94539181D01*
X85222214Y-94539178D01*
X85226746Y-94535307D01*
X85242198Y-94513803D01*
X85322200Y-94402469D01*
X85322201Y-94402467D01*
X85325684Y-94397620D01*
X85383914Y-94252771D01*
X85386700Y-94245840D01*
X85386701Y-94245838D01*
X85388924Y-94240307D01*
X85392828Y-94212877D01*
X85412357Y-94075658D01*
X85412357Y-94075652D01*
X85412813Y-94072451D01*
X85412968Y-94057673D01*
X85400239Y-93952485D01*
X85393316Y-93895275D01*
X85393315Y-93895272D01*
X85392599Y-93889353D01*
X85332668Y-93730750D01*
X85324796Y-93719295D01*
X85240015Y-93595940D01*
X85236635Y-93591022D01*
X85140965Y-93505782D01*
X85110095Y-93452956D01*
X85107823Y-93431866D01*
X85107823Y-87288856D01*
X85126730Y-87230665D01*
X85142528Y-87213576D01*
X85222208Y-87145523D01*
X85222209Y-87145522D01*
X85226746Y-87141647D01*
X85325684Y-87003960D01*
X85339327Y-86970024D01*
X85386700Y-86852180D01*
X85386701Y-86852178D01*
X85388924Y-86846647D01*
X85389777Y-86840655D01*
X85412357Y-86681998D01*
X85412357Y-86681992D01*
X85412813Y-86678791D01*
X85412968Y-86664013D01*
X85392599Y-86495693D01*
X85332668Y-86337090D01*
X85308439Y-86301836D01*
X85240015Y-86202280D01*
X85236635Y-86197362D01*
X85110044Y-86084573D01*
X84960204Y-86005237D01*
X84877984Y-85984585D01*
X84801554Y-85965386D01*
X84801551Y-85965386D01*
X84795764Y-85963932D01*
X84710164Y-85963484D01*
X84632184Y-85963075D01*
X84632182Y-85963075D01*
X84626218Y-85963044D01*
X84620422Y-85964436D01*
X84620418Y-85964436D01*
X84529235Y-85986328D01*
X84461355Y-86002625D01*
X84408501Y-86029905D01*
X84315998Y-86077649D01*
X84315996Y-86077651D01*
X84310692Y-86080388D01*
X84182927Y-86191844D01*
X84179496Y-86196726D01*
X84179495Y-86196727D01*
X84088867Y-86325678D01*
X84085436Y-86330560D01*
X84083268Y-86336121D01*
X84030881Y-86470486D01*
X84023847Y-86488526D01*
X84001717Y-86656624D01*
X84002372Y-86662557D01*
X84002372Y-86662561D01*
X84002889Y-86667244D01*
X84020322Y-86825148D01*
X84078589Y-86984369D01*
X84081914Y-86989318D01*
X84081915Y-86989319D01*
X84095012Y-87008809D01*
X84173153Y-87125096D01*
X84274452Y-87217271D01*
X84304766Y-87270417D01*
X84306823Y-87290493D01*
X84306823Y-93432410D01*
X84287916Y-93490601D01*
X84272903Y-93507013D01*
X84182927Y-93585504D01*
X84179496Y-93590386D01*
X84179495Y-93590387D01*
X84119445Y-93675830D01*
X84085436Y-93724220D01*
X84083268Y-93729781D01*
X84026586Y-93875162D01*
X84023847Y-93882186D01*
X84001717Y-94050284D01*
X81460238Y-94050284D01*
X81430504Y-94031122D01*
X81261743Y-93969698D01*
X81123038Y-93952176D01*
X80491882Y-93952176D01*
X80433691Y-93933269D01*
X80397727Y-93883769D01*
X80397727Y-93822583D01*
X80422800Y-93783075D01*
X80423908Y-93782270D01*
X80427874Y-93777476D01*
X80427877Y-93777473D01*
X80520675Y-93665298D01*
X80524645Y-93660499D01*
X80591935Y-93517502D01*
X80599581Y-93477423D01*
X80609188Y-93427057D01*
X80621548Y-93362264D01*
X80611625Y-93204538D01*
X80562788Y-93054235D01*
X80522333Y-92990487D01*
X80481444Y-92926057D01*
X80481443Y-92926056D01*
X80478107Y-92920799D01*
X80362903Y-92812614D01*
X80357439Y-92809610D01*
X80229871Y-92739479D01*
X80229867Y-92739478D01*
X80224413Y-92736479D01*
X80218387Y-92734932D01*
X80218385Y-92734931D01*
X80077375Y-92698725D01*
X80077371Y-92698724D01*
X80071340Y-92697176D01*
X79952971Y-92697176D01*
X79835529Y-92712012D01*
X79688589Y-92770190D01*
X79560734Y-92863082D01*
X79556768Y-92867876D01*
X79556765Y-92867879D01*
X79508637Y-92926057D01*
X79459997Y-92984853D01*
X79392707Y-93127850D01*
X79363094Y-93283088D01*
X79373017Y-93440814D01*
X79384793Y-93477057D01*
X79418756Y-93581581D01*
X79421854Y-93591117D01*
X79425192Y-93596377D01*
X79425193Y-93596379D01*
X79475614Y-93675830D01*
X79506535Y-93724553D01*
X79621739Y-93832738D01*
X79643289Y-93844585D01*
X79685172Y-93889184D01*
X79692842Y-93949886D01*
X79663367Y-94003504D01*
X79634104Y-94021227D01*
X79634465Y-94021980D01*
X79629475Y-94024371D01*
X79624248Y-94026191D01*
X79619555Y-94029123D01*
X79619556Y-94029123D01*
X79476636Y-94118429D01*
X79476634Y-94118431D01*
X79471946Y-94121360D01*
X79468021Y-94125258D01*
X79358115Y-94234400D01*
X79344514Y-94247906D01*
X79341548Y-94252580D01*
X79341547Y-94252581D01*
X79253018Y-94392081D01*
X79248284Y-94399540D01*
X79188040Y-94568725D01*
X79187386Y-94574212D01*
X79187385Y-94574215D01*
X79168006Y-94736733D01*
X79166776Y-94747052D01*
X77446684Y-94747052D01*
X77429094Y-94579693D01*
X77423587Y-94563516D01*
X77373003Y-94414925D01*
X77373001Y-94414921D01*
X77371218Y-94409683D01*
X77368320Y-94404973D01*
X77368318Y-94404968D01*
X77280012Y-94261430D01*
X77277115Y-94256721D01*
X77151462Y-94128408D01*
X77000504Y-94031122D01*
X76831743Y-93969698D01*
X76693038Y-93952176D01*
X75997166Y-93952176D01*
X75994412Y-93952485D01*
X75994410Y-93952485D01*
X75967030Y-93955556D01*
X75863849Y-93967130D01*
X75858617Y-93968952D01*
X75708503Y-94021227D01*
X75694248Y-94026191D01*
X75689555Y-94029123D01*
X75689556Y-94029123D01*
X75546636Y-94118429D01*
X75546634Y-94118431D01*
X75541946Y-94121360D01*
X75538021Y-94125258D01*
X75428115Y-94234400D01*
X75414514Y-94247906D01*
X75411548Y-94252580D01*
X75411547Y-94252581D01*
X75323018Y-94392081D01*
X75318284Y-94399540D01*
X75258040Y-94568725D01*
X75257386Y-94574212D01*
X75257385Y-94574215D01*
X75238006Y-94736733D01*
X75236776Y-94747052D01*
X73401482Y-94747052D01*
X73401482Y-86107052D01*
X75236776Y-86107052D01*
X75255548Y-86285659D01*
X75257332Y-86290899D01*
X75257332Y-86290900D01*
X75274957Y-86342672D01*
X75313424Y-86455669D01*
X75316322Y-86460379D01*
X75316324Y-86460384D01*
X75341690Y-86501615D01*
X75407527Y-86608631D01*
X75533180Y-86736944D01*
X75684138Y-86834230D01*
X75852899Y-86895654D01*
X75991604Y-86913176D01*
X76687476Y-86913176D01*
X76690230Y-86912867D01*
X76690232Y-86912867D01*
X76717612Y-86909796D01*
X76820793Y-86898222D01*
X76877933Y-86878324D01*
X76985168Y-86840981D01*
X76985169Y-86840981D01*
X76990394Y-86839161D01*
X77028300Y-86815475D01*
X77138006Y-86746923D01*
X77138008Y-86746921D01*
X77142696Y-86743992D01*
X77205124Y-86681998D01*
X77266200Y-86621347D01*
X77266201Y-86621345D01*
X77270128Y-86617446D01*
X77273095Y-86612771D01*
X77363392Y-86470486D01*
X77363393Y-86470485D01*
X77366358Y-86465812D01*
X77426602Y-86296627D01*
X77438515Y-86196727D01*
X77447211Y-86123796D01*
X77447211Y-86123793D01*
X77447866Y-86118300D01*
X77446684Y-86107052D01*
X79166776Y-86107052D01*
X79185548Y-86285659D01*
X79187332Y-86290899D01*
X79187332Y-86290900D01*
X79204957Y-86342672D01*
X79243424Y-86455669D01*
X79246322Y-86460379D01*
X79246324Y-86460384D01*
X79271690Y-86501615D01*
X79337527Y-86608631D01*
X79463180Y-86736944D01*
X79614138Y-86834230D01*
X79619335Y-86836122D01*
X79619336Y-86836122D01*
X79631790Y-86840655D01*
X79680005Y-86878324D01*
X79696871Y-86937139D01*
X79675945Y-86994635D01*
X79656122Y-87013777D01*
X79565775Y-87079418D01*
X79565768Y-87079425D01*
X79560734Y-87083082D01*
X79556768Y-87087876D01*
X79556765Y-87087879D01*
X79508637Y-87146057D01*
X79459997Y-87204853D01*
X79392707Y-87347850D01*
X79363094Y-87503088D01*
X79373017Y-87660814D01*
X79421854Y-87811117D01*
X79425192Y-87816377D01*
X79425193Y-87816379D01*
X79503198Y-87939295D01*
X79506535Y-87944553D01*
X79621739Y-88052738D01*
X79627202Y-88055741D01*
X79627203Y-88055742D01*
X79754771Y-88125873D01*
X79754775Y-88125874D01*
X79760229Y-88128873D01*
X79766255Y-88130420D01*
X79766257Y-88130421D01*
X79907267Y-88166627D01*
X79907271Y-88166628D01*
X79913302Y-88168176D01*
X80031671Y-88168176D01*
X80149113Y-88153340D01*
X80296053Y-88095162D01*
X80423908Y-88002270D01*
X80427874Y-87997476D01*
X80427877Y-87997473D01*
X80520675Y-87885298D01*
X80524645Y-87880499D01*
X80591935Y-87737502D01*
X80621548Y-87582264D01*
X80611625Y-87424538D01*
X80562788Y-87274235D01*
X80543406Y-87243693D01*
X80481444Y-87146057D01*
X80481443Y-87146056D01*
X80478107Y-87140799D01*
X80473569Y-87136538D01*
X80473567Y-87136535D01*
X80417990Y-87084344D01*
X80388513Y-87030726D01*
X80396182Y-86970024D01*
X80438067Y-86925421D01*
X80485760Y-86913176D01*
X81117476Y-86913176D01*
X81120230Y-86912867D01*
X81120232Y-86912867D01*
X81147612Y-86909796D01*
X81250793Y-86898222D01*
X81307933Y-86878324D01*
X81415168Y-86840981D01*
X81415169Y-86840981D01*
X81420394Y-86839161D01*
X81458300Y-86815475D01*
X81568006Y-86746923D01*
X81568008Y-86746921D01*
X81572696Y-86743992D01*
X81635124Y-86681998D01*
X81696200Y-86621347D01*
X81696201Y-86621345D01*
X81700128Y-86617446D01*
X81703095Y-86612771D01*
X81793392Y-86470486D01*
X81793393Y-86470485D01*
X81796358Y-86465812D01*
X81856602Y-86296627D01*
X81868515Y-86196727D01*
X81877211Y-86123796D01*
X81877211Y-86123793D01*
X81877866Y-86118300D01*
X81859094Y-85939693D01*
X81850783Y-85915279D01*
X81803003Y-85774925D01*
X81803001Y-85774921D01*
X81801218Y-85769683D01*
X81798320Y-85764973D01*
X81798318Y-85764968D01*
X81710012Y-85621430D01*
X81707115Y-85616721D01*
X81674073Y-85582979D01*
X81585333Y-85492361D01*
X81581462Y-85488408D01*
X81430504Y-85391122D01*
X81261743Y-85329698D01*
X81123038Y-85312176D01*
X79927166Y-85312176D01*
X79924412Y-85312485D01*
X79924410Y-85312485D01*
X79897030Y-85315556D01*
X79793849Y-85327130D01*
X79753895Y-85341043D01*
X79638345Y-85381282D01*
X79624248Y-85386191D01*
X79619555Y-85389123D01*
X79619556Y-85389123D01*
X79476636Y-85478429D01*
X79476634Y-85478431D01*
X79471946Y-85481360D01*
X79468021Y-85485258D01*
X79369616Y-85582979D01*
X79344514Y-85607906D01*
X79341548Y-85612580D01*
X79341547Y-85612581D01*
X79277310Y-85713803D01*
X79248284Y-85759540D01*
X79188040Y-85928725D01*
X79187386Y-85934212D01*
X79187385Y-85934215D01*
X79169456Y-86084573D01*
X79166776Y-86107052D01*
X77446684Y-86107052D01*
X77429094Y-85939693D01*
X77420783Y-85915279D01*
X77373003Y-85774925D01*
X77373001Y-85774921D01*
X77371218Y-85769683D01*
X77368320Y-85764973D01*
X77368318Y-85764968D01*
X77280012Y-85621430D01*
X77277115Y-85616721D01*
X77244073Y-85582979D01*
X77155333Y-85492361D01*
X77151462Y-85488408D01*
X77000504Y-85391122D01*
X76831743Y-85329698D01*
X76693038Y-85312176D01*
X75997166Y-85312176D01*
X75994412Y-85312485D01*
X75994410Y-85312485D01*
X75967030Y-85315556D01*
X75863849Y-85327130D01*
X75823895Y-85341043D01*
X75708345Y-85381282D01*
X75694248Y-85386191D01*
X75689555Y-85389123D01*
X75689556Y-85389123D01*
X75546636Y-85478429D01*
X75546634Y-85478431D01*
X75541946Y-85481360D01*
X75538021Y-85485258D01*
X75439616Y-85582979D01*
X75414514Y-85607906D01*
X75411548Y-85612580D01*
X75411547Y-85612581D01*
X75347310Y-85713803D01*
X75318284Y-85759540D01*
X75258040Y-85928725D01*
X75257386Y-85934212D01*
X75257385Y-85934215D01*
X75239456Y-86084573D01*
X75236776Y-86107052D01*
X73401482Y-86107052D01*
X73401482Y-85250284D01*
X85195377Y-85250284D01*
X85196032Y-85256217D01*
X85196032Y-85256221D01*
X85210925Y-85391122D01*
X85213982Y-85418808D01*
X85272249Y-85578029D01*
X85275574Y-85582978D01*
X85275575Y-85582979D01*
X85298249Y-85616721D01*
X85366813Y-85718756D01*
X85492216Y-85832864D01*
X85641218Y-85913765D01*
X85678387Y-85923516D01*
X85799447Y-85955276D01*
X85799451Y-85955277D01*
X85805216Y-85956789D01*
X85811177Y-85956883D01*
X85811180Y-85956883D01*
X85903837Y-85958338D01*
X85974743Y-85959452D01*
X85980565Y-85958119D01*
X85982893Y-85957874D01*
X86042741Y-85970595D01*
X86063246Y-85986328D01*
X86077827Y-86000909D01*
X86105604Y-86055426D01*
X86106823Y-86070913D01*
X86106823Y-93382410D01*
X86087916Y-93440601D01*
X86072903Y-93457013D01*
X85982927Y-93535504D01*
X85979496Y-93540386D01*
X85979495Y-93540387D01*
X85940452Y-93595940D01*
X85885436Y-93674220D01*
X85823847Y-93832186D01*
X85801717Y-94000284D01*
X85802372Y-94006217D01*
X85802372Y-94006221D01*
X85815514Y-94125258D01*
X85820322Y-94168808D01*
X85878589Y-94328029D01*
X85881914Y-94332978D01*
X85881915Y-94332979D01*
X85895012Y-94352469D01*
X85973153Y-94468756D01*
X86098556Y-94582864D01*
X86247558Y-94663765D01*
X86282512Y-94672935D01*
X86405787Y-94705276D01*
X86405791Y-94705277D01*
X86411556Y-94706789D01*
X86417517Y-94706883D01*
X86417520Y-94706883D01*
X86496319Y-94708120D01*
X86581083Y-94709452D01*
X86586898Y-94708120D01*
X86586900Y-94708120D01*
X86740529Y-94672935D01*
X86740532Y-94672934D01*
X86746352Y-94671601D01*
X86761933Y-94663765D01*
X86892488Y-94598102D01*
X86897821Y-94595420D01*
X86902358Y-94591545D01*
X86902361Y-94591543D01*
X87022211Y-94489181D01*
X87022214Y-94489178D01*
X87026746Y-94485307D01*
X87077321Y-94414925D01*
X87122200Y-94352469D01*
X87122201Y-94352467D01*
X87125684Y-94347620D01*
X87160333Y-94261430D01*
X87186700Y-94195840D01*
X87186701Y-94195838D01*
X87188924Y-94190307D01*
X87197171Y-94132361D01*
X87212357Y-94025658D01*
X87212357Y-94025652D01*
X87212813Y-94022451D01*
X87212968Y-94007673D01*
X87197974Y-93883769D01*
X87193316Y-93845275D01*
X87193315Y-93845272D01*
X87192599Y-93839353D01*
X87132668Y-93680750D01*
X87036635Y-93541022D01*
X86940965Y-93455782D01*
X86910095Y-93402956D01*
X86907823Y-93381866D01*
X86907823Y-91662968D01*
X87431715Y-91662968D01*
X87432370Y-91668901D01*
X87432370Y-91668905D01*
X87432887Y-91673588D01*
X87450320Y-91831492D01*
X87508587Y-91990713D01*
X87511912Y-91995662D01*
X87511913Y-91995663D01*
X87525010Y-92015153D01*
X87603151Y-92131440D01*
X87728554Y-92245548D01*
X87877556Y-92326449D01*
X87912510Y-92335619D01*
X88035785Y-92367960D01*
X88035789Y-92367961D01*
X88041554Y-92369473D01*
X88047515Y-92369567D01*
X88047518Y-92369567D01*
X88126286Y-92370804D01*
X88211081Y-92372136D01*
X88216896Y-92370804D01*
X88216898Y-92370804D01*
X88370527Y-92335619D01*
X88370530Y-92335618D01*
X88376350Y-92334285D01*
X88391931Y-92326449D01*
X88522486Y-92260786D01*
X88527819Y-92258104D01*
X88532356Y-92254229D01*
X88532359Y-92254227D01*
X88652209Y-92151865D01*
X88652212Y-92151862D01*
X88656744Y-92147991D01*
X88755682Y-92010304D01*
X88818922Y-91852991D01*
X88842811Y-91685135D01*
X88842966Y-91670357D01*
X88822597Y-91502037D01*
X88762666Y-91343434D01*
X88666633Y-91203706D01*
X88570963Y-91118466D01*
X88540093Y-91065640D01*
X88537821Y-91044550D01*
X88537821Y-90295200D01*
X88556728Y-90237009D01*
X88572526Y-90219920D01*
X88652206Y-90151867D01*
X88652207Y-90151866D01*
X88656744Y-90147991D01*
X88755682Y-90010304D01*
X88761457Y-89995940D01*
X88816698Y-89858524D01*
X88816699Y-89858522D01*
X88818922Y-89852991D01*
X88826223Y-89801690D01*
X88842355Y-89688342D01*
X88842355Y-89688336D01*
X88842811Y-89685135D01*
X88842966Y-89670357D01*
X88822597Y-89502037D01*
X88762666Y-89343434D01*
X88666633Y-89203706D01*
X88540042Y-89090917D01*
X88390202Y-89011581D01*
X88307982Y-88990929D01*
X88231552Y-88971730D01*
X88231549Y-88971730D01*
X88225762Y-88970276D01*
X88140162Y-88969828D01*
X88062182Y-88969419D01*
X88062180Y-88969419D01*
X88056216Y-88969388D01*
X88050420Y-88970780D01*
X88050416Y-88970780D01*
X87943024Y-88996564D01*
X87891353Y-89008969D01*
X87816021Y-89047851D01*
X87745996Y-89083993D01*
X87745994Y-89083995D01*
X87740690Y-89086732D01*
X87612925Y-89198188D01*
X87515434Y-89336904D01*
X87453845Y-89494870D01*
X87431715Y-89662968D01*
X87432370Y-89668901D01*
X87432370Y-89668905D01*
X87447030Y-89801690D01*
X87450320Y-89831492D01*
X87508587Y-89990713D01*
X87511912Y-89995662D01*
X87511913Y-89995663D01*
X87525010Y-90015153D01*
X87603151Y-90131440D01*
X87704450Y-90223615D01*
X87734764Y-90276761D01*
X87736821Y-90296837D01*
X87736821Y-91045094D01*
X87717914Y-91103285D01*
X87702901Y-91119697D01*
X87612925Y-91198188D01*
X87515434Y-91336904D01*
X87453845Y-91494870D01*
X87431715Y-91662968D01*
X86907823Y-91662968D01*
X86907823Y-85832494D01*
X86907822Y-85832488D01*
X86907822Y-85800580D01*
X86905416Y-85793173D01*
X86905415Y-85793170D01*
X86900369Y-85777640D01*
X86896743Y-85762537D01*
X86894188Y-85746405D01*
X86892969Y-85738709D01*
X86882018Y-85717217D01*
X86876074Y-85702868D01*
X86871027Y-85687334D01*
X86871027Y-85687333D01*
X86868619Y-85679923D01*
X86854434Y-85660399D01*
X86846327Y-85647169D01*
X86835373Y-85625671D01*
X86625962Y-85416260D01*
X86598185Y-85361743D01*
X86597954Y-85332306D01*
X86598326Y-85329698D01*
X86606473Y-85272451D01*
X86606628Y-85257673D01*
X86586259Y-85089353D01*
X86526328Y-84930750D01*
X86502578Y-84896193D01*
X86433675Y-84795940D01*
X86430295Y-84791022D01*
X86303704Y-84678233D01*
X86153864Y-84598897D01*
X86071644Y-84578245D01*
X85995214Y-84559046D01*
X85995211Y-84559046D01*
X85989424Y-84557592D01*
X85903824Y-84557144D01*
X85825844Y-84556735D01*
X85825842Y-84556735D01*
X85819878Y-84556704D01*
X85814082Y-84558096D01*
X85814078Y-84558096D01*
X85706686Y-84583880D01*
X85655015Y-84596285D01*
X85579683Y-84635167D01*
X85509658Y-84671309D01*
X85509656Y-84671311D01*
X85504352Y-84674048D01*
X85376587Y-84785504D01*
X85279096Y-84924220D01*
X85217507Y-85082186D01*
X85195377Y-85250284D01*
X73401482Y-85250284D01*
X73401482Y-83947786D01*
X117631715Y-83947786D01*
X117632370Y-83953719D01*
X117632370Y-83953723D01*
X117632887Y-83958406D01*
X117650320Y-84116310D01*
X117708587Y-84275531D01*
X117711912Y-84280480D01*
X117711913Y-84280481D01*
X117725010Y-84299971D01*
X117803151Y-84416258D01*
X117928554Y-84530366D01*
X118077556Y-84611267D01*
X118112510Y-84620437D01*
X118235785Y-84652778D01*
X118235789Y-84652779D01*
X118241554Y-84654291D01*
X118247515Y-84654385D01*
X118247518Y-84654385D01*
X118326317Y-84655622D01*
X118411081Y-84656954D01*
X118416896Y-84655622D01*
X118416898Y-84655622D01*
X118570527Y-84620437D01*
X118570530Y-84620436D01*
X118576350Y-84619103D01*
X118591931Y-84611267D01*
X118698651Y-84557592D01*
X118727819Y-84542922D01*
X118732356Y-84539047D01*
X118732359Y-84539045D01*
X118748766Y-84525032D01*
X119550139Y-84525032D01*
X119553849Y-84562865D01*
X119554322Y-84572526D01*
X119554322Y-84825584D01*
X119554611Y-84830924D01*
X119560399Y-84884208D01*
X119563248Y-84896193D01*
X119609672Y-85020028D01*
X119616380Y-85032281D01*
X119695184Y-85137429D01*
X119705065Y-85147310D01*
X119810213Y-85226114D01*
X119822466Y-85232822D01*
X119946299Y-85279245D01*
X119958288Y-85282096D01*
X120011573Y-85287884D01*
X120016907Y-85288173D01*
X120255080Y-85288173D01*
X120268173Y-85289043D01*
X120290860Y-85292070D01*
X120301854Y-85292301D01*
X120342739Y-85288580D01*
X120351711Y-85288173D01*
X120667641Y-85288173D01*
X120680326Y-85284051D01*
X120683321Y-85279930D01*
X120683321Y-85272492D01*
X121191321Y-85272492D01*
X121195443Y-85285177D01*
X121199564Y-85288172D01*
X121505073Y-85288172D01*
X121518167Y-85289042D01*
X121540861Y-85292070D01*
X121551854Y-85292301D01*
X121592746Y-85288579D01*
X121601719Y-85288172D01*
X121857732Y-85288172D01*
X121863072Y-85287883D01*
X121916356Y-85282095D01*
X121928341Y-85279246D01*
X122052176Y-85232822D01*
X122064429Y-85226114D01*
X122169577Y-85147310D01*
X122179458Y-85137429D01*
X122258262Y-85032281D01*
X122264970Y-85020028D01*
X122311393Y-84896195D01*
X122314244Y-84884206D01*
X122320032Y-84830921D01*
X122320321Y-84825587D01*
X122320321Y-84590410D01*
X122321284Y-84576632D01*
X122324387Y-84554552D01*
X122324863Y-84548355D01*
X122325074Y-84533290D01*
X122324770Y-84527077D01*
X122320938Y-84492915D01*
X122320321Y-84481880D01*
X122320321Y-84174853D01*
X122316199Y-84162168D01*
X122312078Y-84159173D01*
X122302554Y-84159173D01*
X122279327Y-84166720D01*
X121202407Y-85243640D01*
X121191321Y-85265398D01*
X121191321Y-85272492D01*
X120683321Y-85272492D01*
X120683321Y-85270406D01*
X120675774Y-85247179D01*
X119959565Y-84530970D01*
X120670906Y-84530970D01*
X120671702Y-84536001D01*
X120672235Y-84536534D01*
X120681978Y-84541498D01*
X120683321Y-84535902D01*
X120683321Y-84531940D01*
X121191321Y-84531940D01*
X121194701Y-84542342D01*
X121198233Y-84540177D01*
X121203736Y-84529376D01*
X121202940Y-84524345D01*
X121202407Y-84523812D01*
X121192664Y-84518848D01*
X121191321Y-84524444D01*
X121191321Y-84531940D01*
X120683321Y-84531940D01*
X120683321Y-84528406D01*
X120679941Y-84518004D01*
X120676409Y-84520169D01*
X120670906Y-84530970D01*
X119959565Y-84530970D01*
X119598854Y-84170259D01*
X119583730Y-84162553D01*
X120300152Y-84162553D01*
X120302317Y-84166085D01*
X120313118Y-84171588D01*
X120318149Y-84170792D01*
X120318682Y-84170259D01*
X120322608Y-84162553D01*
X121550152Y-84162553D01*
X121552317Y-84166085D01*
X121563118Y-84171588D01*
X121568149Y-84170792D01*
X121568682Y-84170259D01*
X121573646Y-84160516D01*
X121568050Y-84159173D01*
X121560554Y-84159173D01*
X121550152Y-84162553D01*
X120322608Y-84162553D01*
X120323646Y-84160516D01*
X120318050Y-84159173D01*
X120310554Y-84159173D01*
X120300152Y-84162553D01*
X119583730Y-84162553D01*
X119577096Y-84159173D01*
X119570002Y-84159173D01*
X119557317Y-84163295D01*
X119554322Y-84167416D01*
X119554322Y-84475912D01*
X119553541Y-84488321D01*
X119550293Y-84514032D01*
X119550139Y-84525032D01*
X118748766Y-84525032D01*
X118852209Y-84436683D01*
X118852212Y-84436680D01*
X118856744Y-84432809D01*
X118955682Y-84295122D01*
X119004031Y-84174853D01*
X119016698Y-84143342D01*
X119016699Y-84143340D01*
X119018922Y-84137809D01*
X119042811Y-83969953D01*
X119042966Y-83955175D01*
X119022597Y-83786855D01*
X118962666Y-83628252D01*
X118866633Y-83488524D01*
X118844025Y-83468381D01*
X118820963Y-83447833D01*
X118790093Y-83395005D01*
X118787821Y-83373916D01*
X118787821Y-83275026D01*
X119550139Y-83275026D01*
X119553849Y-83312868D01*
X119554321Y-83322529D01*
X119554321Y-83635493D01*
X119558443Y-83648178D01*
X119562564Y-83651173D01*
X119572088Y-83651173D01*
X119576221Y-83649830D01*
X120300996Y-83649830D01*
X120306592Y-83651173D01*
X120314088Y-83651173D01*
X120318221Y-83649830D01*
X121550996Y-83649830D01*
X121556592Y-83651173D01*
X121564088Y-83651173D01*
X121574490Y-83647793D01*
X121572325Y-83644261D01*
X121561524Y-83638758D01*
X121556493Y-83639554D01*
X121555960Y-83640087D01*
X121550996Y-83649830D01*
X120318221Y-83649830D01*
X120324490Y-83647793D01*
X120322325Y-83644261D01*
X120311524Y-83638758D01*
X120306493Y-83639554D01*
X120305960Y-83640087D01*
X120300996Y-83649830D01*
X119576221Y-83649830D01*
X119595315Y-83643626D01*
X119957971Y-83280970D01*
X120670906Y-83280970D01*
X120671702Y-83286001D01*
X120672235Y-83286534D01*
X120681978Y-83291498D01*
X120683321Y-83285902D01*
X120683321Y-83281940D01*
X121191321Y-83281940D01*
X121194701Y-83292342D01*
X121198233Y-83290177D01*
X121203736Y-83279376D01*
X121202940Y-83274345D01*
X121202407Y-83273812D01*
X121192664Y-83268848D01*
X121191321Y-83274444D01*
X121191321Y-83281940D01*
X120683321Y-83281940D01*
X120683321Y-83278406D01*
X120679941Y-83268004D01*
X120676409Y-83270169D01*
X120670906Y-83280970D01*
X119957971Y-83280970D01*
X120672235Y-82566706D01*
X120683321Y-82544948D01*
X120683321Y-82539940D01*
X121191321Y-82539940D01*
X121198868Y-82563167D01*
X122275788Y-83640087D01*
X122297546Y-83651173D01*
X122304640Y-83651173D01*
X122317325Y-83647051D01*
X122320320Y-83642930D01*
X122320320Y-83340409D01*
X122321284Y-83326630D01*
X122324386Y-83304556D01*
X122324863Y-83298358D01*
X122325074Y-83283289D01*
X122324770Y-83277079D01*
X122320937Y-83242909D01*
X122320320Y-83231873D01*
X122320320Y-82984762D01*
X122320031Y-82979422D01*
X122314243Y-82926138D01*
X122311394Y-82914153D01*
X122264970Y-82790318D01*
X122258262Y-82778065D01*
X122179458Y-82672917D01*
X122169577Y-82663036D01*
X122064429Y-82584232D01*
X122052176Y-82577524D01*
X121928343Y-82531101D01*
X121916354Y-82528250D01*
X121863069Y-82522462D01*
X121857735Y-82522173D01*
X121613593Y-82522173D01*
X121601872Y-82521477D01*
X121573142Y-82518051D01*
X121562140Y-82517975D01*
X121527349Y-82521631D01*
X121517002Y-82522173D01*
X121207001Y-82522173D01*
X121194316Y-82526295D01*
X121191321Y-82530416D01*
X121191321Y-82539940D01*
X120683321Y-82539940D01*
X120683321Y-82537854D01*
X120679199Y-82525169D01*
X120675078Y-82522174D01*
X120363600Y-82522174D01*
X120351878Y-82521478D01*
X120323142Y-82518051D01*
X120312141Y-82517975D01*
X120277343Y-82521632D01*
X120266995Y-82522174D01*
X120016910Y-82522174D01*
X120011570Y-82522463D01*
X119958286Y-82528251D01*
X119946301Y-82531100D01*
X119822466Y-82577524D01*
X119810213Y-82584232D01*
X119705065Y-82663036D01*
X119695184Y-82672917D01*
X119616380Y-82778065D01*
X119609672Y-82790318D01*
X119563249Y-82914151D01*
X119560398Y-82926140D01*
X119554610Y-82979425D01*
X119554321Y-82984759D01*
X119554321Y-83225918D01*
X119553540Y-83238326D01*
X119550293Y-83264033D01*
X119550139Y-83275026D01*
X118787821Y-83275026D01*
X118787821Y-80076482D01*
X118806728Y-80018291D01*
X118822526Y-80001202D01*
X118865870Y-79964183D01*
X118865871Y-79964182D01*
X118870408Y-79960307D01*
X118969346Y-79822620D01*
X119032586Y-79665307D01*
X119056475Y-79497451D01*
X119056630Y-79482673D01*
X119036261Y-79314353D01*
X118976330Y-79155750D01*
X118880297Y-79016022D01*
X118753706Y-78903233D01*
X118603866Y-78823897D01*
X118521646Y-78803244D01*
X118445216Y-78784046D01*
X118445213Y-78784046D01*
X118439426Y-78782592D01*
X118353826Y-78782144D01*
X118275846Y-78781735D01*
X118275844Y-78781735D01*
X118269880Y-78781704D01*
X118264084Y-78783096D01*
X118264080Y-78783096D01*
X118156688Y-78808880D01*
X118105017Y-78821285D01*
X118029686Y-78860166D01*
X117959660Y-78896309D01*
X117959658Y-78896311D01*
X117954354Y-78899048D01*
X117826589Y-79010504D01*
X117729098Y-79149220D01*
X117667509Y-79307186D01*
X117645379Y-79475284D01*
X117646034Y-79481217D01*
X117646034Y-79481221D01*
X117646551Y-79485904D01*
X117663984Y-79643808D01*
X117722251Y-79803029D01*
X117725576Y-79807978D01*
X117725577Y-79807979D01*
X117738674Y-79827469D01*
X117816815Y-79943756D01*
X117839264Y-79964183D01*
X117854450Y-79978001D01*
X117884764Y-80031149D01*
X117886821Y-80051224D01*
X117886821Y-83373530D01*
X117867914Y-83431721D01*
X117852901Y-83448133D01*
X117812925Y-83483006D01*
X117715434Y-83621722D01*
X117653845Y-83779688D01*
X117631715Y-83947786D01*
X73401482Y-83947786D01*
X73401482Y-72759133D01*
X117771818Y-72759133D01*
X117814478Y-72973598D01*
X117816435Y-72980654D01*
X117904758Y-73226655D01*
X117907741Y-73233356D01*
X118031456Y-73463600D01*
X118035395Y-73469783D01*
X118191778Y-73679204D01*
X118196600Y-73684751D01*
X118382216Y-73868755D01*
X118387790Y-73873516D01*
X118598583Y-74028076D01*
X118604788Y-74031954D01*
X118836108Y-74153657D01*
X118842836Y-74156582D01*
X119089602Y-74242756D01*
X119096669Y-74244650D01*
X119292920Y-74281910D01*
X119306149Y-74280227D01*
X119306353Y-74280035D01*
X119308323Y-74272348D01*
X119308323Y-74268073D01*
X119816323Y-74268073D01*
X119820445Y-74280758D01*
X119822367Y-74282155D01*
X119826773Y-74282609D01*
X119889087Y-74275784D01*
X119896271Y-74274452D01*
X120149053Y-74207900D01*
X120155979Y-74205515D01*
X120396128Y-74102339D01*
X120402629Y-74098956D01*
X120624893Y-73961414D01*
X120630826Y-73957103D01*
X120830321Y-73788218D01*
X120835540Y-73783090D01*
X121007879Y-73586575D01*
X121012295Y-73580713D01*
X121153694Y-73360885D01*
X121157187Y-73354452D01*
X121264548Y-73116118D01*
X121267045Y-73109256D01*
X121337998Y-72857679D01*
X121339459Y-72850495D01*
X121350688Y-72762232D01*
X121350100Y-72759133D01*
X122771818Y-72759133D01*
X122814478Y-72973598D01*
X122816435Y-72980654D01*
X122904758Y-73226655D01*
X122907741Y-73233356D01*
X123031456Y-73463600D01*
X123035395Y-73469783D01*
X123191778Y-73679204D01*
X123196600Y-73684751D01*
X123382216Y-73868755D01*
X123387790Y-73873516D01*
X123598583Y-74028076D01*
X123604788Y-74031954D01*
X123836108Y-74153657D01*
X123842836Y-74156582D01*
X124089602Y-74242756D01*
X124096669Y-74244650D01*
X124292920Y-74281910D01*
X124306149Y-74280227D01*
X124306353Y-74280035D01*
X124308323Y-74272348D01*
X124308323Y-74268073D01*
X124816323Y-74268073D01*
X124820445Y-74280758D01*
X124822367Y-74282155D01*
X124826773Y-74282609D01*
X124889087Y-74275784D01*
X124896271Y-74274452D01*
X125149053Y-74207900D01*
X125155979Y-74205515D01*
X125396128Y-74102339D01*
X125402629Y-74098956D01*
X125624893Y-73961414D01*
X125630826Y-73957103D01*
X125830321Y-73788218D01*
X125835540Y-73783090D01*
X126007879Y-73586575D01*
X126012295Y-73580713D01*
X126153694Y-73360885D01*
X126157187Y-73354452D01*
X126264548Y-73116118D01*
X126267045Y-73109256D01*
X126337998Y-72857679D01*
X126339459Y-72850495D01*
X126350688Y-72762232D01*
X126348199Y-72749123D01*
X126346809Y-72747815D01*
X126341717Y-72746675D01*
X124832003Y-72746675D01*
X124819318Y-72750797D01*
X124816323Y-72754918D01*
X124816323Y-74268073D01*
X124308323Y-74268073D01*
X124308323Y-72762355D01*
X124304201Y-72749670D01*
X124300080Y-72746675D01*
X122785020Y-72746675D01*
X122772335Y-72750797D01*
X122772307Y-72750834D01*
X122771818Y-72759133D01*
X121350100Y-72759133D01*
X121348199Y-72749123D01*
X121346809Y-72747815D01*
X121341717Y-72746675D01*
X119832003Y-72746675D01*
X119819318Y-72750797D01*
X119816323Y-72754918D01*
X119816323Y-74268073D01*
X119308323Y-74268073D01*
X119308323Y-72762355D01*
X119304201Y-72749670D01*
X119300080Y-72746675D01*
X117785020Y-72746675D01*
X117772335Y-72750797D01*
X117772307Y-72750834D01*
X117771818Y-72759133D01*
X73401482Y-72759133D01*
X73401482Y-72223074D01*
X117772243Y-72223074D01*
X117775073Y-72236108D01*
X117777019Y-72237845D01*
X117780967Y-72238675D01*
X119292643Y-72238675D01*
X119305328Y-72234553D01*
X119308323Y-72230432D01*
X119308323Y-72222995D01*
X119816323Y-72222995D01*
X119820445Y-72235680D01*
X119824566Y-72238675D01*
X121340838Y-72238675D01*
X121353523Y-72234553D01*
X121355463Y-72231883D01*
X121355803Y-72229063D01*
X121355750Y-72228343D01*
X121354962Y-72223074D01*
X122772243Y-72223074D01*
X122775073Y-72236108D01*
X122777019Y-72237845D01*
X122780967Y-72238675D01*
X124292643Y-72238675D01*
X124305328Y-72234553D01*
X124308323Y-72230432D01*
X124308323Y-72222995D01*
X124816323Y-72222995D01*
X124820445Y-72235680D01*
X124824566Y-72238675D01*
X126340838Y-72238675D01*
X126353523Y-72234553D01*
X126355463Y-72231883D01*
X126355803Y-72229063D01*
X126355750Y-72228343D01*
X126354668Y-72221107D01*
X126296980Y-71966165D01*
X126294840Y-71959164D01*
X126200103Y-71715548D01*
X126196952Y-71708942D01*
X126067251Y-71482012D01*
X126063147Y-71475928D01*
X125901337Y-71270674D01*
X125896380Y-71265263D01*
X125705997Y-71086169D01*
X125700310Y-71081564D01*
X125485547Y-70932577D01*
X125479224Y-70928853D01*
X125244815Y-70813256D01*
X125238006Y-70810504D01*
X124989078Y-70730821D01*
X124981951Y-70729110D01*
X124831799Y-70704655D01*
X124818616Y-70706685D01*
X124817919Y-70707375D01*
X124816323Y-70713961D01*
X124816323Y-72222995D01*
X124308323Y-72222995D01*
X124308323Y-70718171D01*
X124304201Y-70705486D01*
X124302842Y-70704498D01*
X124297257Y-70703997D01*
X124188997Y-70718731D01*
X124181845Y-70720251D01*
X123930900Y-70793395D01*
X123924034Y-70795962D01*
X123686664Y-70905391D01*
X123680258Y-70908941D01*
X123461663Y-71052259D01*
X123455862Y-71056710D01*
X123260847Y-71230768D01*
X123255762Y-71236034D01*
X123088627Y-71436992D01*
X123084369Y-71442962D01*
X122948774Y-71666414D01*
X122945444Y-71672950D01*
X122844368Y-71913989D01*
X122842041Y-71920942D01*
X122777702Y-72174278D01*
X122776430Y-72181494D01*
X122772243Y-72223074D01*
X121354962Y-72223074D01*
X121354668Y-72221107D01*
X121296980Y-71966165D01*
X121294840Y-71959164D01*
X121200103Y-71715548D01*
X121196952Y-71708942D01*
X121067251Y-71482012D01*
X121063147Y-71475928D01*
X120901337Y-71270674D01*
X120896380Y-71265263D01*
X120705997Y-71086169D01*
X120700310Y-71081564D01*
X120485547Y-70932577D01*
X120479224Y-70928853D01*
X120244815Y-70813256D01*
X120238006Y-70810504D01*
X119989078Y-70730821D01*
X119981951Y-70729110D01*
X119831799Y-70704655D01*
X119818616Y-70706685D01*
X119817919Y-70707375D01*
X119816323Y-70713961D01*
X119816323Y-72222995D01*
X119308323Y-72222995D01*
X119308323Y-70718171D01*
X119304201Y-70705486D01*
X119302842Y-70704498D01*
X119297257Y-70703997D01*
X119188997Y-70718731D01*
X119181845Y-70720251D01*
X118930900Y-70793395D01*
X118924034Y-70795962D01*
X118686664Y-70905391D01*
X118680258Y-70908941D01*
X118461663Y-71052259D01*
X118455862Y-71056710D01*
X118260847Y-71230768D01*
X118255762Y-71236034D01*
X118088627Y-71436992D01*
X118084369Y-71442962D01*
X117948774Y-71666414D01*
X117945444Y-71672950D01*
X117844368Y-71913989D01*
X117842041Y-71920942D01*
X117777702Y-72174278D01*
X117776430Y-72181494D01*
X117772243Y-72223074D01*
X73401482Y-72223074D01*
X73401482Y-65797116D01*
X75845946Y-65797116D01*
X75859677Y-66035238D01*
X75912114Y-66267921D01*
X75913643Y-66271685D01*
X75913644Y-66271690D01*
X75996427Y-66475560D01*
X76001850Y-66488915D01*
X76126476Y-66692285D01*
X76282643Y-66872570D01*
X76466159Y-67024928D01*
X76672095Y-67145267D01*
X76894920Y-67230356D01*
X77128649Y-67277909D01*
X77132706Y-67278058D01*
X77132708Y-67278058D01*
X77202131Y-67280603D01*
X77367008Y-67286649D01*
X77371026Y-67286134D01*
X77371031Y-67286134D01*
X77446343Y-67276486D01*
X79670485Y-67276486D01*
X79670499Y-67277044D01*
X79670499Y-67277069D01*
X79670731Y-67286500D01*
X79670853Y-67291483D01*
X79671460Y-67303833D01*
X79672563Y-67318780D01*
X79689954Y-67495354D01*
X79694352Y-67525002D01*
X79699169Y-67549222D01*
X79706454Y-67578310D01*
X79756157Y-67742162D01*
X79766261Y-67770399D01*
X79775714Y-67793219D01*
X79788529Y-67820313D01*
X79869239Y-67971312D01*
X79884654Y-67997030D01*
X79898372Y-68017560D01*
X79916229Y-68041638D01*
X80024856Y-68174001D01*
X80044990Y-68196215D01*
X80062443Y-68213668D01*
X80084657Y-68233802D01*
X80217020Y-68342429D01*
X80241098Y-68360286D01*
X80261625Y-68374002D01*
X80287343Y-68389417D01*
X80367834Y-68432440D01*
X80437248Y-68469543D01*
X80437259Y-68469549D01*
X80438345Y-68470129D01*
X80465435Y-68482943D01*
X80466546Y-68483403D01*
X80466559Y-68483409D01*
X80487164Y-68491945D01*
X80487183Y-68491952D01*
X80488254Y-68492396D01*
X80516495Y-68502501D01*
X80680348Y-68552204D01*
X80681523Y-68552498D01*
X80681522Y-68552498D01*
X80708262Y-68559195D01*
X80708272Y-68559197D01*
X80709441Y-68559490D01*
X80710617Y-68559724D01*
X80710622Y-68559725D01*
X80732489Y-68564074D01*
X80732508Y-68564077D01*
X80733658Y-68564306D01*
X80734844Y-68564482D01*
X80734856Y-68564484D01*
X80762073Y-68568521D01*
X80763300Y-68568703D01*
X80816282Y-68573921D01*
X80939226Y-68586031D01*
X80939236Y-68586032D01*
X80939877Y-68586095D01*
X80944644Y-68586447D01*
X80954225Y-68587154D01*
X80954247Y-68587155D01*
X80954825Y-68587198D01*
X80955399Y-68587226D01*
X80955428Y-68587228D01*
X80966563Y-68587775D01*
X80966569Y-68587775D01*
X80967175Y-68587805D01*
X80967779Y-68587820D01*
X80967811Y-68587821D01*
X80981589Y-68588159D01*
X80981614Y-68588159D01*
X80982172Y-68588173D01*
X88969798Y-68588173D01*
X88970356Y-68588159D01*
X88970381Y-68588159D01*
X88984159Y-68587821D01*
X88984191Y-68587820D01*
X88984795Y-68587805D01*
X88985401Y-68587775D01*
X88985407Y-68587775D01*
X88996542Y-68587228D01*
X88996571Y-68587226D01*
X88997145Y-68587198D01*
X88997723Y-68587155D01*
X88997745Y-68587154D01*
X89007326Y-68586447D01*
X89012093Y-68586095D01*
X89012734Y-68586032D01*
X89012744Y-68586031D01*
X89135688Y-68573921D01*
X89188670Y-68568703D01*
X89189897Y-68568521D01*
X89217114Y-68564484D01*
X89217126Y-68564482D01*
X89218312Y-68564306D01*
X89219462Y-68564077D01*
X89219481Y-68564074D01*
X89241348Y-68559725D01*
X89241353Y-68559724D01*
X89242529Y-68559490D01*
X89243698Y-68559197D01*
X89243708Y-68559195D01*
X89270448Y-68552498D01*
X89270447Y-68552498D01*
X89271622Y-68552204D01*
X89435475Y-68502501D01*
X89463716Y-68492396D01*
X89464787Y-68491952D01*
X89464806Y-68491945D01*
X89485411Y-68483409D01*
X89485424Y-68483403D01*
X89486535Y-68482943D01*
X89513625Y-68470129D01*
X89514711Y-68469549D01*
X89514722Y-68469543D01*
X89584136Y-68432440D01*
X89664627Y-68389417D01*
X89690345Y-68374002D01*
X89710872Y-68360286D01*
X89734950Y-68342429D01*
X89867313Y-68233802D01*
X89889527Y-68213668D01*
X89906980Y-68196215D01*
X89927114Y-68174001D01*
X90035741Y-68041638D01*
X90053598Y-68017560D01*
X90067316Y-67997030D01*
X90082731Y-67971312D01*
X90163441Y-67820313D01*
X90176256Y-67793219D01*
X90185709Y-67770399D01*
X90195813Y-67742162D01*
X90245516Y-67578310D01*
X90252801Y-67549222D01*
X90257618Y-67525002D01*
X90262016Y-67495354D01*
X90279407Y-67318780D01*
X90280510Y-67303833D01*
X90281117Y-67291483D01*
X90281240Y-67286500D01*
X90281471Y-67277069D01*
X90281471Y-67277044D01*
X90281485Y-67276486D01*
X90281485Y-62219293D01*
X107097669Y-62219293D01*
X107099634Y-62344410D01*
X107104188Y-62634296D01*
X107104443Y-62636604D01*
X107104443Y-62636607D01*
X107118951Y-62768017D01*
X107149734Y-63046843D01*
X107233902Y-63453274D01*
X107234584Y-63455490D01*
X107234585Y-63455495D01*
X107268180Y-63564698D01*
X107355944Y-63849980D01*
X107514778Y-64233439D01*
X107708995Y-64600250D01*
X107936869Y-64947155D01*
X107938321Y-64948967D01*
X108194917Y-65269253D01*
X108194923Y-65269259D01*
X108196378Y-65271076D01*
X108485220Y-65569137D01*
X108486992Y-65570651D01*
X108486999Y-65570657D01*
X108756893Y-65801168D01*
X108800829Y-65838693D01*
X109140405Y-66077351D01*
X109142429Y-66078506D01*
X109142433Y-66078508D01*
X109498914Y-66281841D01*
X109500934Y-66282993D01*
X109879216Y-66453794D01*
X110271892Y-66588237D01*
X110274147Y-66588778D01*
X110274156Y-66588781D01*
X110673211Y-66684586D01*
X110673216Y-66684587D01*
X110675478Y-66685130D01*
X110677786Y-66685458D01*
X110677794Y-66685460D01*
X110881928Y-66714512D01*
X111086392Y-66743611D01*
X111088712Y-66743720D01*
X111088718Y-66743721D01*
X111498652Y-66763053D01*
X111500985Y-66763163D01*
X111503318Y-66763053D01*
X111913252Y-66743721D01*
X111913258Y-66743720D01*
X111915578Y-66743611D01*
X112120042Y-66714512D01*
X112324176Y-66685460D01*
X112324184Y-66685458D01*
X112326492Y-66685130D01*
X112328754Y-66684587D01*
X112328759Y-66684586D01*
X112727814Y-66588781D01*
X112727823Y-66588778D01*
X112730078Y-66588237D01*
X113122754Y-66453794D01*
X113501036Y-66282993D01*
X113503056Y-66281841D01*
X113859537Y-66078508D01*
X113859541Y-66078506D01*
X113861565Y-66077351D01*
X114201141Y-65838693D01*
X114245077Y-65801168D01*
X114514971Y-65570657D01*
X114514978Y-65570651D01*
X114516750Y-65569137D01*
X114805592Y-65271076D01*
X114807047Y-65269259D01*
X114807053Y-65269253D01*
X115063649Y-64948967D01*
X115065101Y-64947155D01*
X115292975Y-64600250D01*
X115487192Y-64233439D01*
X115646026Y-63849980D01*
X115733790Y-63564698D01*
X115767385Y-63455495D01*
X115767386Y-63455490D01*
X115768068Y-63453274D01*
X115848477Y-63064996D01*
X122956874Y-63064996D01*
X122976640Y-63316144D01*
X123035450Y-63561107D01*
X123131857Y-63793855D01*
X123263487Y-64008655D01*
X123427099Y-64200220D01*
X123618664Y-64363832D01*
X123833464Y-64495462D01*
X123861503Y-64507076D01*
X124062621Y-64590382D01*
X124062626Y-64590384D01*
X124066212Y-64591869D01*
X124069986Y-64592775D01*
X124069989Y-64592776D01*
X124184982Y-64620383D01*
X124311175Y-64650679D01*
X124315040Y-64650983D01*
X124315045Y-64650984D01*
X124558448Y-64670140D01*
X124562323Y-64670445D01*
X124566198Y-64670140D01*
X124809601Y-64650984D01*
X124809606Y-64650983D01*
X124813471Y-64650679D01*
X124939664Y-64620383D01*
X125054657Y-64592776D01*
X125054660Y-64592775D01*
X125058434Y-64591869D01*
X125062020Y-64590384D01*
X125062025Y-64590382D01*
X125263143Y-64507076D01*
X125291182Y-64495462D01*
X125505982Y-64363832D01*
X125697547Y-64200220D01*
X125861159Y-64008655D01*
X125992789Y-63793855D01*
X126089196Y-63561107D01*
X126148006Y-63316144D01*
X126167772Y-63064996D01*
X126148006Y-62813848D01*
X126127501Y-62728439D01*
X126090103Y-62572662D01*
X126090102Y-62572659D01*
X126089196Y-62568885D01*
X125992789Y-62336137D01*
X125861159Y-62121337D01*
X125697547Y-61929772D01*
X125554777Y-61807835D01*
X125508942Y-61768688D01*
X125508941Y-61768688D01*
X125505982Y-61766160D01*
X125291182Y-61634530D01*
X125192554Y-61593677D01*
X125062025Y-61539610D01*
X125062020Y-61539608D01*
X125058434Y-61538123D01*
X125054660Y-61537217D01*
X125054657Y-61537216D01*
X124817245Y-61480219D01*
X124817244Y-61480219D01*
X124813471Y-61479313D01*
X124809606Y-61479009D01*
X124809601Y-61479008D01*
X124566198Y-61459852D01*
X124562323Y-61459547D01*
X124558448Y-61459852D01*
X124315045Y-61479008D01*
X124315040Y-61479009D01*
X124311175Y-61479313D01*
X124307402Y-61480219D01*
X124307401Y-61480219D01*
X124069989Y-61537216D01*
X124069986Y-61537217D01*
X124066212Y-61538123D01*
X124062626Y-61539608D01*
X124062621Y-61539610D01*
X123932092Y-61593677D01*
X123833464Y-61634530D01*
X123618664Y-61766160D01*
X123615705Y-61768688D01*
X123615704Y-61768688D01*
X123569869Y-61807835D01*
X123427099Y-61929772D01*
X123263487Y-62121337D01*
X123131857Y-62336137D01*
X123035450Y-62568885D01*
X123034544Y-62572659D01*
X123034543Y-62572662D01*
X122997145Y-62728439D01*
X122976640Y-62813848D01*
X122956874Y-63064996D01*
X115848477Y-63064996D01*
X115852236Y-63046843D01*
X115883019Y-62768017D01*
X115897568Y-62636237D01*
X115897569Y-62636230D01*
X115897782Y-62634296D01*
X115903092Y-62465331D01*
X115906414Y-62359621D01*
X115906414Y-62359615D01*
X115906475Y-62357673D01*
X115896458Y-62145267D01*
X115887033Y-61945406D01*
X115887032Y-61945400D01*
X115886923Y-61943080D01*
X115843300Y-61636564D01*
X115828772Y-61534482D01*
X115828770Y-61534474D01*
X115828442Y-61532166D01*
X115827898Y-61529899D01*
X115732093Y-61130844D01*
X115732090Y-61130835D01*
X115731549Y-61128580D01*
X115597106Y-60735904D01*
X115426305Y-60357622D01*
X115356541Y-60235312D01*
X115221820Y-59999121D01*
X115221818Y-59999117D01*
X115220663Y-59997093D01*
X114982005Y-59657517D01*
X114980485Y-59655737D01*
X114713969Y-59343687D01*
X114713963Y-59343680D01*
X114712449Y-59341908D01*
X114414388Y-59053066D01*
X114412571Y-59051611D01*
X114412565Y-59051605D01*
X114215974Y-58894107D01*
X114090467Y-58793557D01*
X113743562Y-58565683D01*
X113376751Y-58371466D01*
X113374605Y-58370577D01*
X112995449Y-58213525D01*
X112995441Y-58213522D01*
X112993292Y-58212632D01*
X112845567Y-58167186D01*
X112598807Y-58091273D01*
X112598802Y-58091272D01*
X112596586Y-58090590D01*
X112472998Y-58064996D01*
X122956874Y-58064996D01*
X122957179Y-58068871D01*
X122968564Y-58213525D01*
X122976640Y-58316144D01*
X122977546Y-58319917D01*
X122977546Y-58319918D01*
X123020382Y-58498342D01*
X123035450Y-58561107D01*
X123036935Y-58564693D01*
X123036937Y-58564698D01*
X123083678Y-58677541D01*
X123131857Y-58793855D01*
X123263487Y-59008655D01*
X123427099Y-59200220D01*
X123618664Y-59363832D01*
X123833464Y-59495462D01*
X123861503Y-59507076D01*
X124062621Y-59590382D01*
X124062626Y-59590384D01*
X124066212Y-59591869D01*
X124069986Y-59592775D01*
X124069989Y-59592776D01*
X124184982Y-59620383D01*
X124311175Y-59650679D01*
X124315040Y-59650983D01*
X124315045Y-59650984D01*
X124558448Y-59670140D01*
X124562323Y-59670445D01*
X124566198Y-59670140D01*
X124809601Y-59650984D01*
X124809606Y-59650983D01*
X124813471Y-59650679D01*
X124939664Y-59620383D01*
X125054657Y-59592776D01*
X125054660Y-59592775D01*
X125058434Y-59591869D01*
X125062020Y-59590384D01*
X125062025Y-59590382D01*
X125263143Y-59507076D01*
X125291182Y-59495462D01*
X125505982Y-59363832D01*
X125697547Y-59200220D01*
X125861159Y-59008655D01*
X125992789Y-58793855D01*
X126040968Y-58677541D01*
X126087709Y-58564698D01*
X126087711Y-58564693D01*
X126089196Y-58561107D01*
X126104265Y-58498342D01*
X126147100Y-58319918D01*
X126147100Y-58319917D01*
X126148006Y-58316144D01*
X126156083Y-58213525D01*
X126167467Y-58068871D01*
X126167772Y-58064996D01*
X126159598Y-57961131D01*
X126148311Y-57817718D01*
X126148310Y-57817713D01*
X126148006Y-57813848D01*
X126089196Y-57568885D01*
X125992789Y-57336137D01*
X125861159Y-57121337D01*
X125697547Y-56929772D01*
X125505982Y-56766160D01*
X125291182Y-56634530D01*
X125202508Y-56597800D01*
X125062025Y-56539610D01*
X125062020Y-56539608D01*
X125058434Y-56538123D01*
X125054660Y-56537217D01*
X125054657Y-56537216D01*
X124817245Y-56480219D01*
X124817244Y-56480219D01*
X124813471Y-56479313D01*
X124809606Y-56479009D01*
X124809601Y-56479008D01*
X124566198Y-56459852D01*
X124562323Y-56459547D01*
X124558448Y-56459852D01*
X124315045Y-56479008D01*
X124315040Y-56479009D01*
X124311175Y-56479313D01*
X124307402Y-56480219D01*
X124307401Y-56480219D01*
X124069989Y-56537216D01*
X124069986Y-56537217D01*
X124066212Y-56538123D01*
X124062626Y-56539608D01*
X124062621Y-56539610D01*
X123922138Y-56597800D01*
X123833464Y-56634530D01*
X123618664Y-56766160D01*
X123427099Y-56929772D01*
X123263487Y-57121337D01*
X123131857Y-57336137D01*
X123035450Y-57568885D01*
X122976640Y-57813848D01*
X122976336Y-57817713D01*
X122976335Y-57817718D01*
X122965048Y-57961131D01*
X122956874Y-58064996D01*
X112472998Y-58064996D01*
X112190155Y-58006422D01*
X112187839Y-58006166D01*
X112187837Y-58006166D01*
X111779919Y-57961131D01*
X111779916Y-57961131D01*
X111777608Y-57960876D01*
X111362605Y-57954357D01*
X111360297Y-57954539D01*
X111360286Y-57954539D01*
X111094230Y-57975479D01*
X110948831Y-57986922D01*
X110539957Y-58058281D01*
X110537709Y-58058896D01*
X110141868Y-58167186D01*
X110141861Y-58167188D01*
X110139614Y-58167803D01*
X109751354Y-58314514D01*
X109635101Y-58371466D01*
X109380730Y-58496081D01*
X109380725Y-58496084D01*
X109378624Y-58497113D01*
X109376622Y-58498340D01*
X109376618Y-58498342D01*
X109084192Y-58677541D01*
X109024732Y-58713978D01*
X109022888Y-58715363D01*
X109022877Y-58715370D01*
X108827874Y-58861784D01*
X108692820Y-58963185D01*
X108691109Y-58964742D01*
X108691098Y-58964751D01*
X108592247Y-59054699D01*
X108385833Y-59242521D01*
X108108063Y-59547786D01*
X108108054Y-59547797D01*
X108106497Y-59549508D01*
X108023969Y-59659425D01*
X107858682Y-59879565D01*
X107858675Y-59879576D01*
X107857290Y-59881420D01*
X107856073Y-59883406D01*
X107668654Y-60189247D01*
X107640425Y-60235312D01*
X107457826Y-60608042D01*
X107311115Y-60996302D01*
X107310500Y-60998549D01*
X107310498Y-60998556D01*
X107249516Y-61221468D01*
X107201593Y-61396645D01*
X107130234Y-61805519D01*
X107119589Y-61940771D01*
X107097851Y-62216974D01*
X107097851Y-62216985D01*
X107097669Y-62219293D01*
X90281485Y-62219293D01*
X90281485Y-54726040D01*
X102368104Y-54726040D01*
X102374475Y-54732931D01*
X102546642Y-54838437D01*
X102553548Y-54841956D01*
X102765662Y-54929816D01*
X102773030Y-54932210D01*
X102996286Y-54985809D01*
X103003929Y-54987020D01*
X103232817Y-55005033D01*
X103240567Y-55005033D01*
X103469455Y-54987020D01*
X103477098Y-54985809D01*
X103700354Y-54932210D01*
X103707722Y-54929816D01*
X103919836Y-54841956D01*
X103926742Y-54838437D01*
X104097215Y-54733969D01*
X104105488Y-54724283D01*
X104100904Y-54716097D01*
X103247778Y-53862971D01*
X103235895Y-53856917D01*
X103230864Y-53857713D01*
X102373886Y-54714691D01*
X102368104Y-54726040D01*
X90281485Y-54726040D01*
X90281485Y-54688860D01*
X90281117Y-54673863D01*
X90280510Y-54661513D01*
X90279407Y-54646566D01*
X90262016Y-54469992D01*
X90257618Y-54440344D01*
X90252801Y-54416124D01*
X90245516Y-54387036D01*
X90195813Y-54223183D01*
X90185708Y-54194942D01*
X90185264Y-54193871D01*
X90185257Y-54193852D01*
X90176721Y-54173247D01*
X90176715Y-54173234D01*
X90176255Y-54172123D01*
X90163441Y-54145033D01*
X90082731Y-53994034D01*
X90067316Y-53968316D01*
X90053598Y-53947786D01*
X90035741Y-53923708D01*
X89927114Y-53791345D01*
X89906980Y-53769131D01*
X89889527Y-53751678D01*
X89867313Y-53731544D01*
X89734950Y-53622917D01*
X89710872Y-53605060D01*
X89690345Y-53591344D01*
X89664627Y-53575929D01*
X89589126Y-53535573D01*
X89516120Y-53496550D01*
X101724334Y-53496550D01*
X101742347Y-53725438D01*
X101743558Y-53733081D01*
X101797157Y-53956337D01*
X101799551Y-53963705D01*
X101887411Y-54175819D01*
X101890930Y-54182725D01*
X101995398Y-54353198D01*
X102005084Y-54361471D01*
X102013270Y-54356887D01*
X102866396Y-53503761D01*
X102871638Y-53493472D01*
X103600934Y-53493472D01*
X103601730Y-53498503D01*
X104458708Y-54355481D01*
X104470057Y-54361263D01*
X104476948Y-54354892D01*
X104582454Y-54182725D01*
X104585973Y-54175819D01*
X104673833Y-53963705D01*
X104676227Y-53956337D01*
X104729826Y-53733081D01*
X104731037Y-53725438D01*
X104749050Y-53496550D01*
X104749050Y-53488800D01*
X104731037Y-53259912D01*
X104729826Y-53252269D01*
X104676227Y-53029013D01*
X104673833Y-53021645D01*
X104585973Y-52809531D01*
X104582454Y-52802625D01*
X104477986Y-52632152D01*
X104468300Y-52623879D01*
X104460114Y-52628463D01*
X103606988Y-53481589D01*
X103600934Y-53493472D01*
X102871638Y-53493472D01*
X102872450Y-53491878D01*
X102871654Y-53486847D01*
X102014676Y-52629869D01*
X102003327Y-52624087D01*
X101996436Y-52630458D01*
X101890930Y-52802625D01*
X101887411Y-52809531D01*
X101799551Y-53021645D01*
X101797157Y-53029013D01*
X101743558Y-53252269D01*
X101742347Y-53259912D01*
X101724334Y-53488800D01*
X101724334Y-53496550D01*
X89516120Y-53496550D01*
X89514709Y-53495796D01*
X89514696Y-53495789D01*
X89513625Y-53495217D01*
X89486531Y-53482402D01*
X89463711Y-53472949D01*
X89462576Y-53472543D01*
X89462566Y-53472539D01*
X89436632Y-53463259D01*
X89436619Y-53463255D01*
X89435474Y-53462845D01*
X89271622Y-53413142D01*
X89269069Y-53412503D01*
X89243708Y-53406151D01*
X89243698Y-53406149D01*
X89242529Y-53405856D01*
X89241353Y-53405622D01*
X89241348Y-53405621D01*
X89219481Y-53401272D01*
X89219462Y-53401269D01*
X89218312Y-53401040D01*
X89217126Y-53400864D01*
X89217114Y-53400862D01*
X89189897Y-53396825D01*
X89188670Y-53396643D01*
X89135688Y-53391425D01*
X89012744Y-53379315D01*
X89012734Y-53379314D01*
X89012093Y-53379251D01*
X89007326Y-53378899D01*
X88997745Y-53378192D01*
X88997723Y-53378191D01*
X88997145Y-53378148D01*
X88996571Y-53378120D01*
X88996542Y-53378118D01*
X88985407Y-53377571D01*
X88985401Y-53377571D01*
X88984795Y-53377541D01*
X88984191Y-53377526D01*
X88984159Y-53377525D01*
X88970381Y-53377187D01*
X88970356Y-53377187D01*
X88969798Y-53377173D01*
X80982172Y-53377173D01*
X80981614Y-53377187D01*
X80981589Y-53377187D01*
X80967811Y-53377525D01*
X80967779Y-53377526D01*
X80967175Y-53377541D01*
X80966569Y-53377571D01*
X80966563Y-53377571D01*
X80955428Y-53378118D01*
X80955399Y-53378120D01*
X80954825Y-53378148D01*
X80954247Y-53378191D01*
X80954225Y-53378192D01*
X80944644Y-53378899D01*
X80939877Y-53379251D01*
X80939236Y-53379314D01*
X80939226Y-53379315D01*
X80816282Y-53391425D01*
X80763300Y-53396643D01*
X80762073Y-53396825D01*
X80734856Y-53400862D01*
X80734844Y-53400864D01*
X80733658Y-53401040D01*
X80732508Y-53401269D01*
X80732489Y-53401272D01*
X80710622Y-53405621D01*
X80710617Y-53405622D01*
X80709441Y-53405856D01*
X80708272Y-53406149D01*
X80708262Y-53406151D01*
X80682901Y-53412503D01*
X80680348Y-53413142D01*
X80516496Y-53462845D01*
X80515351Y-53463255D01*
X80515338Y-53463259D01*
X80489404Y-53472539D01*
X80489394Y-53472543D01*
X80488259Y-53472949D01*
X80465439Y-53482402D01*
X80438345Y-53495217D01*
X80437274Y-53495789D01*
X80437261Y-53495796D01*
X80362844Y-53535573D01*
X80287343Y-53575929D01*
X80261625Y-53591344D01*
X80241098Y-53605060D01*
X80217020Y-53622917D01*
X80084657Y-53731544D01*
X80062443Y-53751678D01*
X80044990Y-53769131D01*
X80024856Y-53791345D01*
X79916229Y-53923708D01*
X79898372Y-53947786D01*
X79884654Y-53968316D01*
X79869239Y-53994034D01*
X79788529Y-54145033D01*
X79775715Y-54172123D01*
X79775255Y-54173234D01*
X79775249Y-54173247D01*
X79766713Y-54193852D01*
X79766706Y-54193871D01*
X79766262Y-54194942D01*
X79756157Y-54223183D01*
X79706454Y-54387036D01*
X79699169Y-54416124D01*
X79694352Y-54440344D01*
X79689954Y-54469992D01*
X79672563Y-54646566D01*
X79671460Y-54661513D01*
X79670853Y-54673863D01*
X79670485Y-54688860D01*
X79670485Y-67276486D01*
X77446343Y-67276486D01*
X77599574Y-67256856D01*
X77599577Y-67256855D01*
X77603592Y-67256341D01*
X77607469Y-67255178D01*
X77607473Y-67255177D01*
X77828168Y-67188966D01*
X77828169Y-67188966D01*
X77832051Y-67187801D01*
X77929190Y-67140213D01*
X78042600Y-67084654D01*
X78042603Y-67084652D01*
X78046247Y-67082867D01*
X78240428Y-66944359D01*
X78409380Y-66775996D01*
X78548565Y-66582299D01*
X78611701Y-66454554D01*
X78652445Y-66372116D01*
X78652447Y-66372111D01*
X78654246Y-66368471D01*
X78723583Y-66140253D01*
X78754716Y-65903775D01*
X78756454Y-65832676D01*
X78753864Y-65801168D01*
X78737243Y-65599007D01*
X78737242Y-65599004D01*
X78736910Y-65594960D01*
X78730002Y-65567455D01*
X78679795Y-65367574D01*
X78678804Y-65363628D01*
X78583695Y-65144892D01*
X78454138Y-64944627D01*
X78431796Y-64920073D01*
X78296349Y-64771220D01*
X78293612Y-64768212D01*
X78290426Y-64765696D01*
X78290423Y-64765693D01*
X78109616Y-64622900D01*
X78109610Y-64622896D01*
X78106428Y-64620383D01*
X77974994Y-64547828D01*
X77901172Y-64507076D01*
X77901171Y-64507076D01*
X77897614Y-64505112D01*
X77893791Y-64503758D01*
X77893786Y-64503756D01*
X77676603Y-64426848D01*
X77676605Y-64426848D01*
X77672777Y-64425493D01*
X77437955Y-64383664D01*
X77433896Y-64383614D01*
X77433892Y-64383614D01*
X77320635Y-64382231D01*
X77199454Y-64380750D01*
X76963681Y-64416829D01*
X76841704Y-64456697D01*
X76740822Y-64489670D01*
X76740818Y-64489672D01*
X76736965Y-64490931D01*
X76733365Y-64492805D01*
X76529002Y-64599189D01*
X76528999Y-64599191D01*
X76525397Y-64601066D01*
X76334658Y-64744278D01*
X76169870Y-64916718D01*
X76167583Y-64920070D01*
X76167581Y-64920073D01*
X76147871Y-64948967D01*
X76035458Y-65113758D01*
X76033750Y-65117438D01*
X76033747Y-65117443D01*
X75988563Y-65214785D01*
X75935034Y-65330104D01*
X75871292Y-65559948D01*
X75870859Y-65563996D01*
X75870859Y-65563998D01*
X75869920Y-65572784D01*
X75845946Y-65797116D01*
X73401482Y-65797116D01*
X73401482Y-60797116D01*
X75845946Y-60797116D01*
X75859677Y-61035238D01*
X75912114Y-61267921D01*
X76001850Y-61488915D01*
X76126476Y-61692285D01*
X76282643Y-61872570D01*
X76466159Y-62024928D01*
X76672095Y-62145267D01*
X76894920Y-62230356D01*
X77128649Y-62277909D01*
X77132706Y-62278058D01*
X77132708Y-62278058D01*
X77202131Y-62280603D01*
X77367008Y-62286649D01*
X77371026Y-62286134D01*
X77371031Y-62286134D01*
X77599574Y-62256856D01*
X77599577Y-62256855D01*
X77603592Y-62256341D01*
X77607469Y-62255178D01*
X77607473Y-62255177D01*
X77828168Y-62188966D01*
X77828169Y-62188966D01*
X77832051Y-62187801D01*
X77929190Y-62140213D01*
X78042600Y-62084654D01*
X78042603Y-62084652D01*
X78046247Y-62082867D01*
X78240428Y-61944359D01*
X78409380Y-61775996D01*
X78548565Y-61582299D01*
X78609233Y-61459547D01*
X78652445Y-61372116D01*
X78652447Y-61372111D01*
X78654246Y-61368471D01*
X78723583Y-61140253D01*
X78754716Y-60903775D01*
X78756454Y-60832676D01*
X78753864Y-60801168D01*
X78737243Y-60599007D01*
X78737242Y-60599004D01*
X78736910Y-60594960D01*
X78678804Y-60363628D01*
X78583695Y-60144892D01*
X78488080Y-59997093D01*
X78456347Y-59948041D01*
X78456345Y-59948038D01*
X78454138Y-59944627D01*
X78431796Y-59920073D01*
X78296349Y-59771220D01*
X78293612Y-59768212D01*
X78290426Y-59765696D01*
X78290423Y-59765693D01*
X78109616Y-59622900D01*
X78109610Y-59622896D01*
X78106428Y-59620383D01*
X77897614Y-59505112D01*
X77893791Y-59503758D01*
X77893786Y-59503756D01*
X77676603Y-59426848D01*
X77676605Y-59426848D01*
X77672777Y-59425493D01*
X77437955Y-59383664D01*
X77433896Y-59383614D01*
X77433892Y-59383614D01*
X77320635Y-59382231D01*
X77199454Y-59380750D01*
X76963681Y-59416829D01*
X76841704Y-59456697D01*
X76740822Y-59489670D01*
X76740818Y-59489672D01*
X76736965Y-59490931D01*
X76733365Y-59492805D01*
X76529002Y-59599189D01*
X76528999Y-59599191D01*
X76525397Y-59601066D01*
X76334658Y-59744278D01*
X76169870Y-59916718D01*
X76167583Y-59920070D01*
X76167581Y-59920073D01*
X76113658Y-59999121D01*
X76035458Y-60113758D01*
X76033750Y-60117438D01*
X76033747Y-60117443D01*
X76005467Y-60178369D01*
X75935034Y-60330104D01*
X75933948Y-60334020D01*
X75927403Y-60357622D01*
X75871292Y-60559948D01*
X75845946Y-60797116D01*
X73401482Y-60797116D01*
X73401482Y-52261067D01*
X102367896Y-52261067D01*
X102372480Y-52269253D01*
X103225606Y-53122379D01*
X103237489Y-53128433D01*
X103242520Y-53127637D01*
X104099498Y-52270659D01*
X104105280Y-52259310D01*
X104098909Y-52252419D01*
X103926742Y-52146913D01*
X103919836Y-52143394D01*
X103707722Y-52055534D01*
X103700354Y-52053140D01*
X103477098Y-51999541D01*
X103469455Y-51998330D01*
X103240567Y-51980317D01*
X103232817Y-51980317D01*
X103003929Y-51998330D01*
X102996286Y-51999541D01*
X102773030Y-52053140D01*
X102765662Y-52055534D01*
X102553548Y-52143394D01*
X102546642Y-52146913D01*
X102376169Y-52251381D01*
X102367896Y-52261067D01*
X73401482Y-52261067D01*
X73401482Y-50594008D01*
X73420389Y-50535817D01*
X73469889Y-50499853D01*
X73531075Y-50499853D01*
X73577419Y-50531705D01*
X73696033Y-50678181D01*
X73955476Y-50937624D01*
X74240616Y-51168526D01*
X74384088Y-51261698D01*
X74546152Y-51366943D01*
X74546158Y-51366946D01*
X74548330Y-51368357D01*
X74550638Y-51369533D01*
X74872941Y-51533756D01*
X74872948Y-51533759D01*
X74875246Y-51534930D01*
X75217783Y-51666417D01*
X75336916Y-51698339D01*
X75569679Y-51760708D01*
X75569684Y-51760709D01*
X75572188Y-51761380D01*
X75574759Y-51761787D01*
X75574758Y-51761787D01*
X75932012Y-51818371D01*
X75932020Y-51818372D01*
X75934578Y-51818777D01*
X76300982Y-51837979D01*
X76667386Y-51818777D01*
X76669944Y-51818372D01*
X76669952Y-51818371D01*
X77027206Y-51761787D01*
X77027205Y-51761787D01*
X77029776Y-51761380D01*
X77032280Y-51760709D01*
X77032285Y-51760708D01*
X77265048Y-51698339D01*
X77384181Y-51666417D01*
X77726718Y-51534930D01*
X77729016Y-51533759D01*
X77729023Y-51533756D01*
X78051326Y-51369533D01*
X78053634Y-51368357D01*
X78055806Y-51366946D01*
X78055812Y-51366943D01*
X78217876Y-51261698D01*
X78361348Y-51168526D01*
X78646488Y-50937624D01*
X78905931Y-50678181D01*
X79136833Y-50393041D01*
X79284397Y-50165812D01*
X79335250Y-50087505D01*
X79335253Y-50087499D01*
X79336664Y-50085327D01*
X79337840Y-50083019D01*
X79502063Y-49760716D01*
X79502066Y-49760709D01*
X79503237Y-49758411D01*
X79588105Y-49537321D01*
X101936192Y-49537321D01*
X101939310Y-49563521D01*
X101984753Y-49665828D01*
X102063979Y-49744916D01*
X102072337Y-49748611D01*
X102159556Y-49787171D01*
X102159558Y-49787171D01*
X102166365Y-49790181D01*
X102173759Y-49791043D01*
X102189070Y-49792828D01*
X102192046Y-49793175D01*
X104281338Y-49793175D01*
X104299253Y-49791043D01*
X104300161Y-49790935D01*
X104300162Y-49790935D01*
X104307538Y-49790057D01*
X104409845Y-49744614D01*
X104488933Y-49665388D01*
X104534198Y-49563002D01*
X104537192Y-49537321D01*
X104537192Y-48492675D01*
X117956874Y-48492675D01*
X117957179Y-48496550D01*
X117973119Y-48699079D01*
X117976640Y-48743823D01*
X117977546Y-48747596D01*
X117977546Y-48747597D01*
X118024222Y-48942016D01*
X118035450Y-48988786D01*
X118036935Y-48992372D01*
X118036937Y-48992377D01*
X118065556Y-49061469D01*
X118131857Y-49221534D01*
X118263487Y-49436334D01*
X118427099Y-49627899D01*
X118508391Y-49697329D01*
X118613583Y-49787171D01*
X118618664Y-49791511D01*
X118833464Y-49923141D01*
X118922138Y-49959871D01*
X119062621Y-50018061D01*
X119062626Y-50018063D01*
X119066212Y-50019548D01*
X119069986Y-50020454D01*
X119069989Y-50020455D01*
X119307401Y-50077452D01*
X119311175Y-50078358D01*
X119315040Y-50078662D01*
X119315045Y-50078663D01*
X119558448Y-50097819D01*
X119562323Y-50098124D01*
X119566198Y-50097819D01*
X119809601Y-50078663D01*
X119809606Y-50078662D01*
X119813471Y-50078358D01*
X119817245Y-50077452D01*
X120054657Y-50020455D01*
X120054660Y-50020454D01*
X120058434Y-50019548D01*
X120062020Y-50018063D01*
X120062025Y-50018061D01*
X120202508Y-49959871D01*
X120291182Y-49923141D01*
X120505982Y-49791511D01*
X120511064Y-49787171D01*
X120616255Y-49697329D01*
X120697547Y-49627899D01*
X120861159Y-49436334D01*
X120992789Y-49221534D01*
X121059090Y-49061469D01*
X121087709Y-48992377D01*
X121087711Y-48992372D01*
X121089196Y-48988786D01*
X121100425Y-48942016D01*
X121147100Y-48747597D01*
X121147100Y-48747596D01*
X121148006Y-48743823D01*
X121151528Y-48699079D01*
X121167467Y-48496550D01*
X121167772Y-48492675D01*
X122956874Y-48492675D01*
X122957179Y-48496550D01*
X122973119Y-48699079D01*
X122976640Y-48743823D01*
X122977546Y-48747596D01*
X122977546Y-48747597D01*
X123024222Y-48942016D01*
X123035450Y-48988786D01*
X123036935Y-48992372D01*
X123036937Y-48992377D01*
X123065556Y-49061469D01*
X123131857Y-49221534D01*
X123263487Y-49436334D01*
X123427099Y-49627899D01*
X123508391Y-49697329D01*
X123613583Y-49787171D01*
X123618664Y-49791511D01*
X123833464Y-49923141D01*
X123922138Y-49959871D01*
X124062621Y-50018061D01*
X124062626Y-50018063D01*
X124066212Y-50019548D01*
X124069986Y-50020454D01*
X124069989Y-50020455D01*
X124307401Y-50077452D01*
X124311175Y-50078358D01*
X124315040Y-50078662D01*
X124315045Y-50078663D01*
X124558448Y-50097819D01*
X124562323Y-50098124D01*
X124566198Y-50097819D01*
X124809601Y-50078663D01*
X124809606Y-50078662D01*
X124813471Y-50078358D01*
X124817245Y-50077452D01*
X125054657Y-50020455D01*
X125054660Y-50020454D01*
X125058434Y-50019548D01*
X125062020Y-50018063D01*
X125062025Y-50018061D01*
X125202508Y-49959871D01*
X125291182Y-49923141D01*
X125505982Y-49791511D01*
X125511064Y-49787171D01*
X125616255Y-49697329D01*
X125697547Y-49627899D01*
X125861159Y-49436334D01*
X125992789Y-49221534D01*
X126059090Y-49061469D01*
X126087709Y-48992377D01*
X126087711Y-48992372D01*
X126089196Y-48988786D01*
X126100425Y-48942016D01*
X126147100Y-48747597D01*
X126147100Y-48747596D01*
X126148006Y-48743823D01*
X126151528Y-48699079D01*
X126167467Y-48496550D01*
X126167772Y-48492675D01*
X126155180Y-48332675D01*
X126148311Y-48245397D01*
X126148310Y-48245392D01*
X126148006Y-48241527D01*
X126089196Y-47996564D01*
X126085997Y-47988839D01*
X125994277Y-47767409D01*
X125992789Y-47763816D01*
X125861159Y-47549016D01*
X125779933Y-47453912D01*
X125700081Y-47360418D01*
X125697547Y-47357451D01*
X125511216Y-47198309D01*
X125508942Y-47196367D01*
X125508941Y-47196367D01*
X125505982Y-47193839D01*
X125291182Y-47062209D01*
X125202508Y-47025479D01*
X125062025Y-46967289D01*
X125062020Y-46967287D01*
X125058434Y-46965802D01*
X125054660Y-46964896D01*
X125054657Y-46964895D01*
X124817245Y-46907898D01*
X124817244Y-46907898D01*
X124813471Y-46906992D01*
X124809606Y-46906688D01*
X124809601Y-46906687D01*
X124566198Y-46887531D01*
X124562323Y-46887226D01*
X124558448Y-46887531D01*
X124315045Y-46906687D01*
X124315040Y-46906688D01*
X124311175Y-46906992D01*
X124307402Y-46907898D01*
X124307401Y-46907898D01*
X124069989Y-46964895D01*
X124069986Y-46964896D01*
X124066212Y-46965802D01*
X124062626Y-46967287D01*
X124062621Y-46967289D01*
X123922138Y-47025479D01*
X123833464Y-47062209D01*
X123618664Y-47193839D01*
X123615705Y-47196367D01*
X123615704Y-47196367D01*
X123613430Y-47198309D01*
X123427099Y-47357451D01*
X123424565Y-47360418D01*
X123344714Y-47453912D01*
X123263487Y-47549016D01*
X123131857Y-47763816D01*
X123130369Y-47767409D01*
X123038650Y-47988839D01*
X123035450Y-47996564D01*
X122976640Y-48241527D01*
X122976336Y-48245392D01*
X122976335Y-48245397D01*
X122969466Y-48332675D01*
X122956874Y-48492675D01*
X121167772Y-48492675D01*
X121155180Y-48332675D01*
X121148311Y-48245397D01*
X121148310Y-48245392D01*
X121148006Y-48241527D01*
X121089196Y-47996564D01*
X121085997Y-47988839D01*
X120994277Y-47767409D01*
X120992789Y-47763816D01*
X120861159Y-47549016D01*
X120779933Y-47453912D01*
X120700081Y-47360418D01*
X120697547Y-47357451D01*
X120511216Y-47198309D01*
X120508942Y-47196367D01*
X120508941Y-47196367D01*
X120505982Y-47193839D01*
X120291182Y-47062209D01*
X120202508Y-47025479D01*
X120062025Y-46967289D01*
X120062020Y-46967287D01*
X120058434Y-46965802D01*
X120054660Y-46964896D01*
X120054657Y-46964895D01*
X119817245Y-46907898D01*
X119817244Y-46907898D01*
X119813471Y-46906992D01*
X119809606Y-46906688D01*
X119809601Y-46906687D01*
X119566198Y-46887531D01*
X119562323Y-46887226D01*
X119558448Y-46887531D01*
X119315045Y-46906687D01*
X119315040Y-46906688D01*
X119311175Y-46906992D01*
X119307402Y-46907898D01*
X119307401Y-46907898D01*
X119069989Y-46964895D01*
X119069986Y-46964896D01*
X119066212Y-46965802D01*
X119062626Y-46967287D01*
X119062621Y-46967289D01*
X118922138Y-47025479D01*
X118833464Y-47062209D01*
X118618664Y-47193839D01*
X118615705Y-47196367D01*
X118615704Y-47196367D01*
X118613430Y-47198309D01*
X118427099Y-47357451D01*
X118424565Y-47360418D01*
X118344714Y-47453912D01*
X118263487Y-47549016D01*
X118131857Y-47763816D01*
X118130369Y-47767409D01*
X118038650Y-47988839D01*
X118035450Y-47996564D01*
X117976640Y-48241527D01*
X117976336Y-48245392D01*
X117976335Y-48245397D01*
X117969466Y-48332675D01*
X117956874Y-48492675D01*
X104537192Y-48492675D01*
X104537192Y-47448029D01*
X104534074Y-47421829D01*
X104488631Y-47319522D01*
X104409405Y-47240434D01*
X104380283Y-47227559D01*
X104313828Y-47198179D01*
X104313826Y-47198179D01*
X104307019Y-47195169D01*
X104293014Y-47193536D01*
X104284186Y-47192507D01*
X104284185Y-47192507D01*
X104281338Y-47192175D01*
X102192046Y-47192175D01*
X102178064Y-47193839D01*
X102173223Y-47194415D01*
X102173222Y-47194415D01*
X102165846Y-47195293D01*
X102063539Y-47240736D01*
X102057082Y-47247204D01*
X102057081Y-47247205D01*
X102023668Y-47280677D01*
X101984451Y-47319962D01*
X101939186Y-47422348D01*
X101936192Y-47448029D01*
X101936192Y-49537321D01*
X79588105Y-49537321D01*
X79634724Y-49415874D01*
X79729687Y-49061469D01*
X79751417Y-48924273D01*
X79786678Y-48701645D01*
X79786679Y-48701637D01*
X79787084Y-48699079D01*
X79806286Y-48332675D01*
X79787084Y-47966271D01*
X79761003Y-47801598D01*
X79730094Y-47606451D01*
X79729687Y-47603881D01*
X79715876Y-47552336D01*
X79635394Y-47251977D01*
X79634724Y-47249476D01*
X79503237Y-46906939D01*
X79493349Y-46887531D01*
X79337840Y-46582331D01*
X79336664Y-46580023D01*
X79136833Y-46272309D01*
X78905931Y-45987169D01*
X78646488Y-45727726D01*
X78500012Y-45609112D01*
X78466688Y-45557798D01*
X78469891Y-45496697D01*
X78508396Y-45449147D01*
X78562315Y-45433175D01*
X131728850Y-45433175D01*
X131787040Y-45452082D01*
G37*
%TD.AperFunction*%
%TD*%
%TA.AperFunction,Conductor*%
%TO.N,/Heater/heater_LOW*%
G36*
X88982148Y-53683280D02*
G01*
X89158725Y-53700672D01*
X89182942Y-53705488D01*
X89346794Y-53755191D01*
X89369614Y-53764644D01*
X89520616Y-53845356D01*
X89541143Y-53859072D01*
X89673506Y-53967699D01*
X89690959Y-53985152D01*
X89799586Y-54117515D01*
X89813304Y-54138045D01*
X89894014Y-54289044D01*
X89903467Y-54311863D01*
X89953170Y-54475716D01*
X89957987Y-54499936D01*
X89975378Y-54676510D01*
X89975985Y-54688860D01*
X89975985Y-67276486D01*
X89975378Y-67288836D01*
X89957987Y-67465410D01*
X89953170Y-67489630D01*
X89903467Y-67653482D01*
X89894014Y-67676302D01*
X89813304Y-67827301D01*
X89799586Y-67847831D01*
X89690959Y-67980194D01*
X89673506Y-67997647D01*
X89541143Y-68106274D01*
X89520616Y-68119990D01*
X89428402Y-68169280D01*
X89369614Y-68200702D01*
X89346795Y-68210155D01*
X89182942Y-68259858D01*
X89158725Y-68264674D01*
X88982148Y-68282066D01*
X88969798Y-68282673D01*
X80982172Y-68282673D01*
X80969822Y-68282066D01*
X80793245Y-68264674D01*
X80769028Y-68259858D01*
X80605175Y-68210155D01*
X80582356Y-68200702D01*
X80523568Y-68169280D01*
X80431354Y-68119990D01*
X80410827Y-68106274D01*
X80278464Y-67997647D01*
X80261011Y-67980194D01*
X80152384Y-67847831D01*
X80138666Y-67827301D01*
X80057956Y-67676302D01*
X80048503Y-67653482D01*
X79998800Y-67489630D01*
X79993983Y-67465410D01*
X79976592Y-67288836D01*
X79975985Y-67276486D01*
X79975985Y-54688860D01*
X79976592Y-54676510D01*
X79993983Y-54499936D01*
X79998800Y-54475716D01*
X80048503Y-54311863D01*
X80057956Y-54289044D01*
X80138666Y-54138045D01*
X80152384Y-54117515D01*
X80261011Y-53985152D01*
X80278464Y-53967699D01*
X80410827Y-53859072D01*
X80431354Y-53845356D01*
X80582356Y-53764644D01*
X80605176Y-53755191D01*
X80769028Y-53705488D01*
X80793245Y-53700672D01*
X80969822Y-53683280D01*
X80982172Y-53682673D01*
X88969798Y-53682673D01*
X88982148Y-53683280D01*
G37*
%TD.AperFunction*%
%TD*%
M02*
