%TF.GenerationSoftware,KiCad,Pcbnew,(6.0.9)*%
%TF.CreationDate,2022-11-24T17:37:49+02:00*%
%TF.ProjectId,pcb_heater_driver,7063625f-6865-4617-9465-725f64726976,rev?*%
%TF.SameCoordinates,Original*%
%TF.FileFunction,Paste,Top*%
%TF.FilePolarity,Positive*%
%FSLAX46Y46*%
G04 Gerber Fmt 4.6, Leading zero omitted, Abs format (unit mm)*
G04 Created by KiCad (PCBNEW (6.0.9)) date 2022-11-24 17:37:49*
%MOMM*%
%LPD*%
G01*
G04 APERTURE LIST*
G04 Aperture macros list*
%AMRoundRect*
0 Rectangle with rounded corners*
0 $1 Rounding radius*
0 $2 $3 $4 $5 $6 $7 $8 $9 X,Y pos of 4 corners*
0 Add a 4 corners polygon primitive as box body*
4,1,4,$2,$3,$4,$5,$6,$7,$8,$9,$2,$3,0*
0 Add four circle primitives for the rounded corners*
1,1,$1+$1,$2,$3*
1,1,$1+$1,$4,$5*
1,1,$1+$1,$6,$7*
1,1,$1+$1,$8,$9*
0 Add four rect primitives between the rounded corners*
20,1,$1+$1,$2,$3,$4,$5,0*
20,1,$1+$1,$4,$5,$6,$7,0*
20,1,$1+$1,$6,$7,$8,$9,0*
20,1,$1+$1,$8,$9,$2,$3,0*%
%AMFreePoly0*
4,1,6,0.600000,-0.600000,-0.600000,-0.600000,-0.600000,0.000000,0.000000,0.600000,0.600000,0.600000,0.600000,-0.600000,0.600000,-0.600000,$1*%
G04 Aperture macros list end*
%ADD10RoundRect,0.200000X-0.200000X-0.275000X0.200000X-0.275000X0.200000X0.275000X-0.200000X0.275000X0*%
%ADD11R,0.650000X1.050000*%
%ADD12R,0.400000X0.800000*%
%ADD13R,0.800000X0.400000*%
%ADD14R,1.200000X1.200000*%
%ADD15FreePoly0,90.000000*%
%ADD16R,0.800000X0.800000*%
%ADD17RoundRect,0.225000X0.225000X0.250000X-0.225000X0.250000X-0.225000X-0.250000X0.225000X-0.250000X0*%
%ADD18RoundRect,0.200000X0.200000X0.275000X-0.200000X0.275000X-0.200000X-0.275000X0.200000X-0.275000X0*%
%ADD19RoundRect,0.225000X0.250000X-0.225000X0.250000X0.225000X-0.250000X0.225000X-0.250000X-0.225000X0*%
%ADD20RoundRect,0.218750X0.218750X0.256250X-0.218750X0.256250X-0.218750X-0.256250X0.218750X-0.256250X0*%
%ADD21RoundRect,0.250000X-0.650000X0.325000X-0.650000X-0.325000X0.650000X-0.325000X0.650000X0.325000X0*%
%ADD22R,4.000000X1.500000*%
%ADD23RoundRect,0.218750X-0.218750X-0.256250X0.218750X-0.256250X0.218750X0.256250X-0.218750X0.256250X0*%
%ADD24R,0.440000X0.670000*%
%ADD25R,3.500000X1.750000*%
%ADD26RoundRect,0.225000X-0.250000X0.225000X-0.250000X-0.225000X0.250000X-0.225000X0.250000X0.225000X0*%
%ADD27RoundRect,0.150000X0.150000X-0.587500X0.150000X0.587500X-0.150000X0.587500X-0.150000X-0.587500X0*%
%ADD28R,1.000000X0.700000*%
%ADD29R,0.600000X0.700000*%
%ADD30RoundRect,0.200000X0.275000X-0.200000X0.275000X0.200000X-0.275000X0.200000X-0.275000X-0.200000X0*%
%ADD31RoundRect,0.150000X-0.825000X-0.150000X0.825000X-0.150000X0.825000X0.150000X-0.825000X0.150000X0*%
%ADD32R,2.500000X2.300000*%
%ADD33RoundRect,0.150000X-0.150000X0.587500X-0.150000X-0.587500X0.150000X-0.587500X0.150000X0.587500X0*%
%ADD34RoundRect,0.200000X-0.275000X0.200000X-0.275000X-0.200000X0.275000X-0.200000X0.275000X0.200000X0*%
%ADD35R,1.450000X0.600000*%
%ADD36R,1.450000X0.300000*%
%ADD37RoundRect,0.190000X0.190000X0.190000X-0.190000X0.190000X-0.190000X-0.190000X0.190000X-0.190000X0*%
%ADD38RoundRect,0.062500X0.325000X0.062500X-0.325000X0.062500X-0.325000X-0.062500X0.325000X-0.062500X0*%
%ADD39RoundRect,0.062500X0.062500X0.325000X-0.062500X0.325000X-0.062500X-0.325000X0.062500X-0.325000X0*%
%ADD40RoundRect,1.125000X1.625000X1.125000X-1.625000X1.125000X-1.625000X-1.125000X1.625000X-1.125000X0*%
%ADD41RoundRect,0.225000X-0.225000X-0.250000X0.225000X-0.250000X0.225000X0.250000X-0.225000X0.250000X0*%
%ADD42RoundRect,0.250000X-0.362500X-1.075000X0.362500X-1.075000X0.362500X1.075000X-0.362500X1.075000X0*%
%ADD43RoundRect,0.381000X0.381000X-3.119000X0.381000X3.119000X-0.381000X3.119000X-0.381000X-3.119000X0*%
G04 APERTURE END LIST*
D10*
%TO.C,R11*%
X88075985Y-107457673D03*
X89725985Y-107457673D03*
%TD*%
D11*
%TO.C,SW3*%
X83646159Y-129439997D03*
X83646159Y-133589997D03*
X81496159Y-129439997D03*
X81496159Y-133589997D03*
%TD*%
D10*
%TO.C,R21*%
X84502146Y-87805173D03*
X86152146Y-87805173D03*
%TD*%
D12*
%TO.C,U1*%
X74842322Y-125582676D03*
X75692322Y-125582676D03*
X76542322Y-125582676D03*
X77392322Y-125582676D03*
X78242322Y-125582676D03*
X79092322Y-125582676D03*
X79942322Y-125582676D03*
X80792322Y-125582676D03*
X81642322Y-125582676D03*
X82492322Y-125582676D03*
X83342322Y-125582676D03*
X84192322Y-125582676D03*
X85042322Y-125582676D03*
X85892322Y-125582676D03*
X86742322Y-125582676D03*
D13*
X87792322Y-124532676D03*
X87792322Y-123682676D03*
X87792322Y-122832676D03*
X87792322Y-121982676D03*
X87792322Y-121132676D03*
X87792322Y-120282676D03*
X87792322Y-119432676D03*
X87792322Y-118582676D03*
X87792322Y-117732676D03*
X87792322Y-116882676D03*
X87792322Y-116032676D03*
X87792322Y-115182676D03*
X87792322Y-114332676D03*
X87792322Y-113482676D03*
X87792322Y-112632676D03*
D12*
X86742322Y-111582676D03*
X85892322Y-111582676D03*
X85042322Y-111582676D03*
X84192322Y-111582676D03*
X83342322Y-111582676D03*
X82492322Y-111582676D03*
X81642322Y-111582676D03*
X80792322Y-111582676D03*
X79942322Y-111582676D03*
X79092322Y-111582676D03*
X78242322Y-111582676D03*
X77392322Y-111582676D03*
X76542322Y-111582676D03*
X75692322Y-111582676D03*
X74842322Y-111582676D03*
D13*
X73792322Y-112632676D03*
X73792322Y-113482676D03*
X73792322Y-114332676D03*
X73792322Y-115182676D03*
X73792322Y-116032676D03*
X73792322Y-116882676D03*
X73792322Y-117732676D03*
X73792322Y-118582676D03*
X73792322Y-119432676D03*
X73792322Y-120282676D03*
X73792322Y-121132676D03*
X73792322Y-121982676D03*
X73792322Y-122832676D03*
X73792322Y-123682676D03*
X73792322Y-124532676D03*
D14*
X82442322Y-120232676D03*
X80792322Y-120232676D03*
X80792322Y-116932676D03*
X79142322Y-116932676D03*
D15*
X79142322Y-120232676D03*
D14*
X82442322Y-118582676D03*
X82442322Y-116932676D03*
X80792322Y-118582676D03*
X79142322Y-118582676D03*
D16*
X73792322Y-125582676D03*
X87792322Y-125582676D03*
X87792322Y-111582676D03*
X73792322Y-111582676D03*
%TD*%
D17*
%TO.C,C8*%
X76399824Y-127832673D03*
X74849824Y-127832673D03*
%TD*%
D10*
%TO.C,R3*%
X120737325Y-80805173D03*
X122387325Y-80805173D03*
%TD*%
D18*
%TO.C,R5*%
X151575987Y-140317675D03*
X149925987Y-140317675D03*
%TD*%
D19*
%TO.C,C10*%
X79571160Y-130789997D03*
X79571160Y-129239997D03*
%TD*%
D10*
%TO.C,R22*%
X84502146Y-92805173D03*
X86152146Y-92805173D03*
%TD*%
D20*
%TO.C,D3*%
X80838483Y-141257673D03*
X79263483Y-141257673D03*
%TD*%
D21*
%TO.C,C1*%
X111887325Y-48492675D03*
X111887325Y-51442675D03*
%TD*%
D22*
%TO.C,L1*%
X120937321Y-87555175D03*
X120937321Y-91155175D03*
%TD*%
D18*
%TO.C,R16*%
X97580980Y-113082673D03*
X95930980Y-113082673D03*
%TD*%
%TO.C,R10*%
X89725985Y-109167674D03*
X88075985Y-109167674D03*
%TD*%
D23*
%TO.C,D2*%
X114327146Y-95330171D03*
X115902146Y-95330171D03*
%TD*%
D24*
%TO.C,Q1*%
X86800985Y-68207673D03*
X86150985Y-68207673D03*
X87450985Y-68207673D03*
X88100985Y-68207673D03*
X86150985Y-65027673D03*
X88100985Y-65027673D03*
X86800985Y-65027673D03*
D25*
X87125985Y-66492673D03*
D24*
X87450985Y-65027673D03*
%TD*%
D18*
%TO.C,R8*%
X115919645Y-93555173D03*
X114269645Y-93555173D03*
%TD*%
D19*
%TO.C,C9*%
X90392326Y-130740329D03*
X90392326Y-129190329D03*
%TD*%
D18*
%TO.C,R14*%
X97580979Y-119082674D03*
X95930979Y-119082674D03*
%TD*%
D26*
%TO.C,C6*%
X115937321Y-89605175D03*
X115937321Y-91155175D03*
%TD*%
D18*
%TO.C,R6*%
X164575987Y-140317675D03*
X162925987Y-140317675D03*
%TD*%
D27*
%TO.C,Q2*%
X100900983Y-89195173D03*
X102800983Y-89195173D03*
X101850983Y-87320173D03*
%TD*%
D18*
%TO.C,R18*%
X80875983Y-139657673D03*
X79225983Y-139657673D03*
%TD*%
D28*
%TO.C,D4*%
X86202321Y-89332676D03*
D29*
X84502321Y-89332676D03*
X84502321Y-91332676D03*
X86402321Y-91332676D03*
%TD*%
D26*
%TO.C,C5*%
X114269645Y-89605177D03*
X114269645Y-91155177D03*
%TD*%
D17*
%TO.C,C11*%
X95525983Y-84082676D03*
X93975983Y-84082676D03*
%TD*%
D30*
%TO.C,R4*%
X79571160Y-133839997D03*
X79571160Y-132189997D03*
%TD*%
D31*
%TO.C,U3*%
X90575983Y-85887676D03*
X90575983Y-87157676D03*
X90575983Y-88427676D03*
X90575983Y-89697676D03*
X90575983Y-90967676D03*
X90575983Y-92237676D03*
X90575983Y-93507676D03*
X90575983Y-94777676D03*
X95525983Y-94777676D03*
X95525983Y-93507676D03*
X95525983Y-92237676D03*
X95525983Y-90967676D03*
X95525983Y-89697676D03*
X95525983Y-88427676D03*
X95525983Y-87157676D03*
X95525983Y-85887676D03*
%TD*%
D17*
%TO.C,C3*%
X125787321Y-83855175D03*
X124237321Y-83855175D03*
%TD*%
D32*
%TO.C,D1*%
X92737325Y-48492675D03*
X88437325Y-48492675D03*
%TD*%
D33*
%TO.C,Q3*%
X102800983Y-91720173D03*
X100900983Y-91720173D03*
X101850983Y-93595173D03*
%TD*%
D11*
%TO.C,SW2*%
X88550985Y-129432825D03*
X88550985Y-133582825D03*
X86400985Y-129432825D03*
X86400985Y-133582825D03*
%TD*%
D18*
%TO.C,R13*%
X97580979Y-116082674D03*
X95930979Y-116082674D03*
%TD*%
D30*
%TO.C,R19*%
X99450983Y-91482673D03*
X99450983Y-89832673D03*
%TD*%
D34*
%TO.C,R20*%
X104250983Y-89632673D03*
X104250983Y-91282673D03*
%TD*%
D18*
%TO.C,R7*%
X177575989Y-140317675D03*
X175925989Y-140317675D03*
%TD*%
D35*
%TO.C,J4*%
X81437321Y-87182676D03*
X81437321Y-87982676D03*
D36*
X81437321Y-89182676D03*
X81437321Y-90182676D03*
X81437321Y-90682676D03*
X81437321Y-91682676D03*
D35*
X81437321Y-92882676D03*
X81437321Y-93682676D03*
X81437321Y-93682676D03*
X81437321Y-92882676D03*
D36*
X81437321Y-92182676D03*
X81437321Y-91182676D03*
X81437321Y-89682676D03*
X81437321Y-88682676D03*
D35*
X81437321Y-87982676D03*
X81437321Y-87182676D03*
%TD*%
D37*
%TO.C,U2*%
X120497321Y-83465173D03*
X121377321Y-84345173D03*
X120497321Y-84345173D03*
X121377321Y-83465173D03*
D38*
X122399821Y-84655173D03*
X122399821Y-84155173D03*
X122399821Y-83655173D03*
X122399821Y-83155173D03*
D39*
X121687321Y-82442673D03*
X121187321Y-82442673D03*
X120687321Y-82442673D03*
X120187321Y-82442673D03*
D38*
X119474821Y-83155173D03*
X119474821Y-83655173D03*
X119474821Y-84155173D03*
X119474821Y-84655173D03*
D39*
X120187321Y-85367673D03*
X120687321Y-85367673D03*
X121187321Y-85367673D03*
X121687321Y-85367673D03*
%TD*%
D40*
%TO.C,F1*%
X217687321Y-115492677D03*
X202187321Y-115492677D03*
%TD*%
D41*
%TO.C,C7*%
X74849824Y-129582673D03*
X76399824Y-129582673D03*
%TD*%
D18*
%TO.C,R15*%
X97580979Y-122082673D03*
X95930979Y-122082673D03*
%TD*%
D42*
%TO.C,R1*%
X92763482Y-60832676D03*
X97388482Y-60832676D03*
%TD*%
D34*
%TO.C,R17*%
X90450983Y-68207673D03*
X90450983Y-69857673D03*
%TD*%
D10*
%TO.C,R2*%
X117737323Y-80805173D03*
X119387323Y-80805173D03*
%TD*%
D30*
%TO.C,R9*%
X90392326Y-133790329D03*
X90392326Y-132140329D03*
%TD*%
D26*
%TO.C,C4*%
X117187321Y-83130175D03*
X117187321Y-84680175D03*
%TD*%
D30*
%TO.C,R12*%
X91950983Y-69857673D03*
X91950983Y-68207673D03*
%TD*%
D43*
%TO.C,J5*%
X102100983Y-140264994D03*
X105100983Y-140264994D03*
X108100983Y-140264994D03*
%TD*%
D17*
%TO.C,C12*%
X125787321Y-82205175D03*
X124237321Y-82205175D03*
%TD*%
M02*
