%TF.GenerationSoftware,KiCad,Pcbnew,(6.0.9)*%
%TF.CreationDate,2022-11-24T17:37:49+02:00*%
%TF.ProjectId,pcb_heater_driver,7063625f-6865-4617-9465-725f64726976,rev?*%
%TF.SameCoordinates,Original*%
%TF.FileFunction,Legend,Top*%
%TF.FilePolarity,Positive*%
%FSLAX46Y46*%
G04 Gerber Fmt 4.6, Leading zero omitted, Abs format (unit mm)*
G04 Created by KiCad (PCBNEW (6.0.9)) date 2022-11-24 17:37:49*
%MOMM*%
%LPD*%
G01*
G04 APERTURE LIST*
%ADD10C,0.400000*%
%ADD11C,0.150000*%
%ADD12C,0.300000*%
%ADD13C,0.200000*%
%ADD14C,0.500000*%
%ADD15C,0.120000*%
%ADD16C,0.100000*%
%ADD17C,0.127000*%
%ADD18C,0.406400*%
G04 APERTURE END LIST*
D10*
X73300987Y-76492675D02*
X132077412Y-76492675D01*
D11*
X122800985Y-108457673D02*
X168200985Y-108457673D01*
X168200985Y-108457673D02*
X168200985Y-126457673D01*
X168200985Y-126457673D02*
X122800985Y-126457673D01*
X122800985Y-126457673D02*
X122800985Y-108457673D01*
X103242320Y-109382676D02*
X103242320Y-96382676D01*
X103242320Y-96382676D02*
X109492319Y-96382676D01*
X103242320Y-109382676D02*
X109492319Y-109382676D01*
X73492321Y-95132676D02*
X73492321Y-100132676D01*
X73492321Y-100132676D02*
X79292321Y-100132676D01*
X109492319Y-109382676D02*
X109492319Y-96382676D01*
X79292321Y-95132676D02*
X79292321Y-100132676D01*
D12*
X83136697Y-141607673D02*
X83850983Y-141607673D01*
X82993840Y-142036244D02*
X83493840Y-140536244D01*
X83993840Y-142036244D01*
X85136697Y-141964815D02*
X84993840Y-142036244D01*
X84708125Y-142036244D01*
X84565268Y-141964815D01*
X84493840Y-141893387D01*
X84422411Y-141750530D01*
X84422411Y-141321958D01*
X84493840Y-141179101D01*
X84565268Y-141107673D01*
X84708125Y-141036244D01*
X84993840Y-141036244D01*
X85136697Y-141107673D01*
X85565268Y-141036244D02*
X86136697Y-141036244D01*
X85779554Y-140536244D02*
X85779554Y-141821958D01*
X85850983Y-141964815D01*
X85993840Y-142036244D01*
X86136697Y-142036244D01*
X86636697Y-142036244D02*
X86636697Y-141036244D01*
X86636697Y-140536244D02*
X86565268Y-140607673D01*
X86636697Y-140679101D01*
X86708125Y-140607673D01*
X86636697Y-140536244D01*
X86636697Y-140679101D01*
X87208125Y-141036244D02*
X87565268Y-142036244D01*
X87922411Y-141036244D01*
X88493840Y-142036244D02*
X88493840Y-141036244D01*
X88493840Y-140536244D02*
X88422411Y-140607673D01*
X88493840Y-140679101D01*
X88565268Y-140607673D01*
X88493840Y-140536244D01*
X88493840Y-140679101D01*
X88993840Y-141036244D02*
X89565268Y-141036244D01*
X89208125Y-140536244D02*
X89208125Y-141821958D01*
X89279554Y-141964815D01*
X89422411Y-142036244D01*
X89565268Y-142036244D01*
X89922411Y-141036244D02*
X90279554Y-142036244D01*
X90636697Y-141036244D02*
X90279554Y-142036244D01*
X90136697Y-142393387D01*
X90065268Y-142464815D01*
X89922411Y-142536244D01*
D11*
X140881937Y-124010053D02*
X140881937Y-124724339D01*
X140834318Y-124867196D01*
X140739080Y-124962434D01*
X140596223Y-125010053D01*
X140500985Y-125010053D01*
X141834318Y-125010053D02*
X141358127Y-125010053D01*
X141358127Y-124010053D01*
X142739080Y-124914815D02*
X142691461Y-124962434D01*
X142548604Y-125010053D01*
X142453365Y-125010053D01*
X142310508Y-124962434D01*
X142215270Y-124867196D01*
X142167651Y-124771958D01*
X142120032Y-124581482D01*
X142120032Y-124438625D01*
X142167651Y-124248149D01*
X142215270Y-124152911D01*
X142310508Y-124057673D01*
X142453365Y-124010053D01*
X142548604Y-124010053D01*
X142691461Y-124057673D01*
X142739080Y-124105292D01*
X143453365Y-124010053D02*
X143453365Y-124724339D01*
X143405746Y-124867196D01*
X143310508Y-124962434D01*
X143167651Y-125010053D01*
X143072413Y-125010053D01*
X144405746Y-125010053D02*
X143929556Y-125010053D01*
X143929556Y-124010053D01*
X145310508Y-124914815D02*
X145262889Y-124962434D01*
X145120032Y-125010053D01*
X145024794Y-125010053D01*
X144881937Y-124962434D01*
X144786699Y-124867196D01*
X144739080Y-124771958D01*
X144691461Y-124581482D01*
X144691461Y-124438625D01*
X144739080Y-124248149D01*
X144786699Y-124152911D01*
X144881937Y-124057673D01*
X145024794Y-124010053D01*
X145120032Y-124010053D01*
X145262889Y-124057673D01*
X145310508Y-124105292D01*
X146024794Y-124010053D02*
X146024794Y-124724339D01*
X145977175Y-124867196D01*
X145881937Y-124962434D01*
X145739080Y-125010053D01*
X145643842Y-125010053D01*
X146977175Y-125010053D02*
X146500985Y-125010053D01*
X146500985Y-124010053D01*
X147881937Y-124914815D02*
X147834318Y-124962434D01*
X147691461Y-125010053D01*
X147596223Y-125010053D01*
X147453365Y-124962434D01*
X147358127Y-124867196D01*
X147310508Y-124771958D01*
X147262889Y-124581482D01*
X147262889Y-124438625D01*
X147310508Y-124248149D01*
X147358127Y-124152911D01*
X147453365Y-124057673D01*
X147596223Y-124010053D01*
X147691461Y-124010053D01*
X147834318Y-124057673D01*
X147881937Y-124105292D01*
X148596223Y-124010053D02*
X148596223Y-124724339D01*
X148548604Y-124867196D01*
X148453365Y-124962434D01*
X148310508Y-125010053D01*
X148215270Y-125010053D01*
X149548604Y-125010053D02*
X149072413Y-125010053D01*
X149072413Y-124010053D01*
X150453365Y-124914815D02*
X150405746Y-124962434D01*
X150262889Y-125010053D01*
X150167651Y-125010053D01*
X150024794Y-124962434D01*
X149929556Y-124867196D01*
X149881937Y-124771958D01*
X149834318Y-124581482D01*
X149834318Y-124438625D01*
X149881937Y-124248149D01*
X149929556Y-124152911D01*
X150024794Y-124057673D01*
X150167651Y-124010053D01*
X150262889Y-124010053D01*
X150405746Y-124057673D01*
X150453365Y-124105292D01*
X74749463Y-97209533D02*
X74749463Y-96009533D01*
X75035178Y-96009533D01*
X75206606Y-96066676D01*
X75320892Y-96180961D01*
X75378035Y-96295247D01*
X75435178Y-96523818D01*
X75435178Y-96695247D01*
X75378035Y-96923818D01*
X75320892Y-97038104D01*
X75206606Y-97152390D01*
X75035178Y-97209533D01*
X74749463Y-97209533D01*
X76463749Y-97209533D02*
X76463749Y-96580961D01*
X76406606Y-96466676D01*
X76292321Y-96409533D01*
X76063749Y-96409533D01*
X75949463Y-96466676D01*
X76463749Y-97152390D02*
X76349463Y-97209533D01*
X76063749Y-97209533D01*
X75949463Y-97152390D01*
X75892321Y-97038104D01*
X75892321Y-96923818D01*
X75949463Y-96809533D01*
X76063749Y-96752390D01*
X76349463Y-96752390D01*
X76463749Y-96695247D01*
X76863749Y-96409533D02*
X77320892Y-96409533D01*
X77035178Y-96009533D02*
X77035178Y-97038104D01*
X77092321Y-97152390D01*
X77206606Y-97209533D01*
X77320892Y-97209533D01*
X78235178Y-97209533D02*
X78235178Y-96580961D01*
X78178035Y-96466676D01*
X78063749Y-96409533D01*
X77835178Y-96409533D01*
X77720892Y-96466676D01*
X78235178Y-97152390D02*
X78120892Y-97209533D01*
X77835178Y-97209533D01*
X77720892Y-97152390D01*
X77663749Y-97038104D01*
X77663749Y-96923818D01*
X77720892Y-96809533D01*
X77835178Y-96752390D01*
X78120892Y-96752390D01*
X78235178Y-96695247D01*
X75092321Y-99141533D02*
X74978035Y-99084390D01*
X74920892Y-99027247D01*
X74863749Y-98912961D01*
X74863749Y-98570104D01*
X74920892Y-98455818D01*
X74978035Y-98398676D01*
X75092321Y-98341533D01*
X75263749Y-98341533D01*
X75378035Y-98398676D01*
X75435178Y-98455818D01*
X75492321Y-98570104D01*
X75492321Y-98912961D01*
X75435178Y-99027247D01*
X75378035Y-99084390D01*
X75263749Y-99141533D01*
X75092321Y-99141533D01*
X76006606Y-98341533D02*
X76006606Y-99141533D01*
X76006606Y-98455818D02*
X76063749Y-98398676D01*
X76178035Y-98341533D01*
X76349463Y-98341533D01*
X76463749Y-98398676D01*
X76520892Y-98512961D01*
X76520892Y-99141533D01*
X77263749Y-99141533D02*
X77149463Y-99084390D01*
X77092321Y-98970104D01*
X77092321Y-97941533D01*
X77606606Y-98341533D02*
X77892321Y-99141533D01*
X78178035Y-98341533D02*
X77892321Y-99141533D01*
X77778035Y-99427247D01*
X77720892Y-99484390D01*
X77606606Y-99541533D01*
X119395656Y-51897436D02*
X119538513Y-51945055D01*
X119776608Y-51945055D01*
X119871846Y-51897436D01*
X119919465Y-51849817D01*
X119967084Y-51754579D01*
X119967084Y-51659341D01*
X119919465Y-51564103D01*
X119871846Y-51516484D01*
X119776608Y-51468865D01*
X119586132Y-51421246D01*
X119490894Y-51373627D01*
X119443275Y-51326008D01*
X119395656Y-51230770D01*
X119395656Y-51135532D01*
X119443275Y-51040294D01*
X119490894Y-50992675D01*
X119586132Y-50945055D01*
X119824227Y-50945055D01*
X119967084Y-50992675D01*
X120300418Y-50945055D02*
X120538513Y-51945055D01*
X120728989Y-51230770D01*
X120919465Y-51945055D01*
X121157561Y-50945055D01*
X122490894Y-50945055D02*
X122681370Y-50945055D01*
X122776608Y-50992675D01*
X122871846Y-51087913D01*
X122919465Y-51278389D01*
X122919465Y-51611722D01*
X122871846Y-51802198D01*
X122776608Y-51897436D01*
X122681370Y-51945055D01*
X122490894Y-51945055D01*
X122395656Y-51897436D01*
X122300418Y-51802198D01*
X122252799Y-51611722D01*
X122252799Y-51278389D01*
X122300418Y-51087913D01*
X122395656Y-50992675D01*
X122490894Y-50945055D01*
X123348037Y-50945055D02*
X123348037Y-51754579D01*
X123395656Y-51849817D01*
X123443275Y-51897436D01*
X123538513Y-51945055D01*
X123728989Y-51945055D01*
X123824227Y-51897436D01*
X123871846Y-51849817D01*
X123919465Y-51754579D01*
X123919465Y-50945055D01*
X124252799Y-50945055D02*
X124824227Y-50945055D01*
X124538513Y-51945055D02*
X124538513Y-50945055D01*
D12*
X124691461Y-112032434D02*
X124691461Y-110032434D01*
X125453365Y-110032434D01*
X125643842Y-110127673D01*
X125739080Y-110222911D01*
X125834318Y-110413387D01*
X125834318Y-110699101D01*
X125739080Y-110889577D01*
X125643842Y-110984815D01*
X125453365Y-111080053D01*
X124691461Y-111080053D01*
X127834318Y-111841958D02*
X127739080Y-111937196D01*
X127453365Y-112032434D01*
X127262889Y-112032434D01*
X126977175Y-111937196D01*
X126786699Y-111746720D01*
X126691461Y-111556244D01*
X126596223Y-111175292D01*
X126596223Y-110889577D01*
X126691461Y-110508625D01*
X126786699Y-110318149D01*
X126977175Y-110127673D01*
X127262889Y-110032434D01*
X127453365Y-110032434D01*
X127739080Y-110127673D01*
X127834318Y-110222911D01*
X129358127Y-110984815D02*
X129643842Y-111080053D01*
X129739080Y-111175292D01*
X129834318Y-111365768D01*
X129834318Y-111651482D01*
X129739080Y-111841958D01*
X129643842Y-111937196D01*
X129453365Y-112032434D01*
X128691461Y-112032434D01*
X128691461Y-110032434D01*
X129358127Y-110032434D01*
X129548604Y-110127673D01*
X129643842Y-110222911D01*
X129739080Y-110413387D01*
X129739080Y-110603863D01*
X129643842Y-110794339D01*
X129548604Y-110889577D01*
X129358127Y-110984815D01*
X128691461Y-110984815D01*
X132215270Y-112032434D02*
X132215270Y-110032434D01*
X132215270Y-110984815D02*
X133358127Y-110984815D01*
X133358127Y-112032434D02*
X133358127Y-110032434D01*
X135072413Y-111937196D02*
X134881937Y-112032434D01*
X134500985Y-112032434D01*
X134310508Y-111937196D01*
X134215270Y-111746720D01*
X134215270Y-110984815D01*
X134310508Y-110794339D01*
X134500985Y-110699101D01*
X134881937Y-110699101D01*
X135072413Y-110794339D01*
X135167651Y-110984815D01*
X135167651Y-111175292D01*
X134215270Y-111365768D01*
X136881937Y-112032434D02*
X136881937Y-110984815D01*
X136786699Y-110794339D01*
X136596223Y-110699101D01*
X136215270Y-110699101D01*
X136024794Y-110794339D01*
X136881937Y-111937196D02*
X136691461Y-112032434D01*
X136215270Y-112032434D01*
X136024794Y-111937196D01*
X135929556Y-111746720D01*
X135929556Y-111556244D01*
X136024794Y-111365768D01*
X136215270Y-111270530D01*
X136691461Y-111270530D01*
X136881937Y-111175292D01*
X137548604Y-110699101D02*
X138310508Y-110699101D01*
X137834318Y-110032434D02*
X137834318Y-111746720D01*
X137929556Y-111937196D01*
X138120032Y-112032434D01*
X138310508Y-112032434D01*
X139739080Y-111937196D02*
X139548604Y-112032434D01*
X139167651Y-112032434D01*
X138977175Y-111937196D01*
X138881937Y-111746720D01*
X138881937Y-110984815D01*
X138977175Y-110794339D01*
X139167651Y-110699101D01*
X139548604Y-110699101D01*
X139739080Y-110794339D01*
X139834318Y-110984815D01*
X139834318Y-111175292D01*
X138881937Y-111365768D01*
X140691461Y-112032434D02*
X140691461Y-110699101D01*
X140691461Y-111080053D02*
X140786699Y-110889577D01*
X140881937Y-110794339D01*
X141072413Y-110699101D01*
X141262889Y-110699101D01*
X143453365Y-112032434D02*
X143453365Y-110032434D01*
X143929556Y-110032434D01*
X144215270Y-110127673D01*
X144405746Y-110318149D01*
X144500985Y-110508625D01*
X144596223Y-110889577D01*
X144596223Y-111175292D01*
X144500985Y-111556244D01*
X144405746Y-111746720D01*
X144215270Y-111937196D01*
X143929556Y-112032434D01*
X143453365Y-112032434D01*
X145453365Y-112032434D02*
X145453365Y-110699101D01*
X145453365Y-111080053D02*
X145548604Y-110889577D01*
X145643842Y-110794339D01*
X145834318Y-110699101D01*
X146024794Y-110699101D01*
X146691461Y-112032434D02*
X146691461Y-110699101D01*
X146691461Y-110032434D02*
X146596223Y-110127673D01*
X146691461Y-110222911D01*
X146786699Y-110127673D01*
X146691461Y-110032434D01*
X146691461Y-110222911D01*
X147453365Y-110699101D02*
X147929556Y-112032434D01*
X148405746Y-110699101D01*
X149929556Y-111937196D02*
X149739080Y-112032434D01*
X149358127Y-112032434D01*
X149167651Y-111937196D01*
X149072413Y-111746720D01*
X149072413Y-110984815D01*
X149167651Y-110794339D01*
X149358127Y-110699101D01*
X149739080Y-110699101D01*
X149929556Y-110794339D01*
X150024794Y-110984815D01*
X150024794Y-111175292D01*
X149072413Y-111365768D01*
X150881937Y-112032434D02*
X150881937Y-110699101D01*
X150881937Y-111080053D02*
X150977175Y-110889577D01*
X151072413Y-110794339D01*
X151262889Y-110699101D01*
X151453365Y-110699101D01*
X153643842Y-111270530D02*
X155167651Y-111270530D01*
X158786699Y-112032434D02*
X158120032Y-111080053D01*
X157643842Y-112032434D02*
X157643842Y-110032434D01*
X158405746Y-110032434D01*
X158596223Y-110127673D01*
X158691461Y-110222911D01*
X158786699Y-110413387D01*
X158786699Y-110699101D01*
X158691461Y-110889577D01*
X158596223Y-110984815D01*
X158405746Y-111080053D01*
X157643842Y-111080053D01*
X160405746Y-111937196D02*
X160215270Y-112032434D01*
X159834318Y-112032434D01*
X159643842Y-111937196D01*
X159548604Y-111746720D01*
X159548604Y-110984815D01*
X159643842Y-110794339D01*
X159834318Y-110699101D01*
X160215270Y-110699101D01*
X160405746Y-110794339D01*
X160500985Y-110984815D01*
X160500985Y-111175292D01*
X159548604Y-111365768D01*
X161167651Y-110699101D02*
X161643842Y-112032434D01*
X162120032Y-110699101D01*
X162881937Y-111841958D02*
X162977175Y-111937196D01*
X162881937Y-112032434D01*
X162786699Y-111937196D01*
X162881937Y-111841958D01*
X162881937Y-112032434D01*
X165739080Y-110032434D02*
X165929556Y-110032434D01*
X166120032Y-110127673D01*
X166215270Y-110222911D01*
X166310508Y-110413387D01*
X166405746Y-110794339D01*
X166405746Y-111270530D01*
X166310508Y-111651482D01*
X166215270Y-111841958D01*
X166120032Y-111937196D01*
X165929556Y-112032434D01*
X165739080Y-112032434D01*
X165548604Y-111937196D01*
X165453365Y-111841958D01*
X165358127Y-111651482D01*
X165262889Y-111270530D01*
X165262889Y-110794339D01*
X165358127Y-110413387D01*
X165453365Y-110222911D01*
X165548604Y-110127673D01*
X165739080Y-110032434D01*
X134120032Y-115252434D02*
X134120032Y-113252434D01*
X135262889Y-115252434D01*
X135262889Y-113252434D01*
X136500985Y-115252434D02*
X136310508Y-115157196D01*
X136215270Y-115061958D01*
X136120032Y-114871482D01*
X136120032Y-114300053D01*
X136215270Y-114109577D01*
X136310508Y-114014339D01*
X136500985Y-113919101D01*
X136786699Y-113919101D01*
X136977175Y-114014339D01*
X137072413Y-114109577D01*
X137167651Y-114300053D01*
X137167651Y-114871482D01*
X137072413Y-115061958D01*
X136977175Y-115157196D01*
X136786699Y-115252434D01*
X136500985Y-115252434D01*
X137834318Y-113919101D02*
X138310508Y-115252434D01*
X138786699Y-113919101D01*
X140310508Y-115157196D02*
X140120032Y-115252434D01*
X139739080Y-115252434D01*
X139548604Y-115157196D01*
X139453365Y-114966720D01*
X139453365Y-114204815D01*
X139548604Y-114014339D01*
X139739080Y-113919101D01*
X140120032Y-113919101D01*
X140310508Y-114014339D01*
X140405746Y-114204815D01*
X140405746Y-114395292D01*
X139453365Y-114585768D01*
X141262889Y-115252434D02*
X141262889Y-113919101D01*
X141262889Y-114109577D02*
X141358127Y-114014339D01*
X141548604Y-113919101D01*
X141834318Y-113919101D01*
X142024794Y-114014339D01*
X142120032Y-114204815D01*
X142120032Y-115252434D01*
X142120032Y-114204815D02*
X142215270Y-114014339D01*
X142405746Y-113919101D01*
X142691461Y-113919101D01*
X142881937Y-114014339D01*
X142977175Y-114204815D01*
X142977175Y-115252434D01*
X143929556Y-115252434D02*
X143929556Y-113252434D01*
X143929556Y-114014339D02*
X144120032Y-113919101D01*
X144500985Y-113919101D01*
X144691461Y-114014339D01*
X144786699Y-114109577D01*
X144881937Y-114300053D01*
X144881937Y-114871482D01*
X144786699Y-115061958D01*
X144691461Y-115157196D01*
X144500985Y-115252434D01*
X144120032Y-115252434D01*
X143929556Y-115157196D01*
X146500985Y-115157196D02*
X146310508Y-115252434D01*
X145929556Y-115252434D01*
X145739080Y-115157196D01*
X145643842Y-114966720D01*
X145643842Y-114204815D01*
X145739080Y-114014339D01*
X145929556Y-113919101D01*
X146310508Y-113919101D01*
X146500985Y-114014339D01*
X146596223Y-114204815D01*
X146596223Y-114395292D01*
X145643842Y-114585768D01*
X147453365Y-115252434D02*
X147453365Y-113919101D01*
X147453365Y-114300053D02*
X147548604Y-114109577D01*
X147643842Y-114014339D01*
X147834318Y-113919101D01*
X148024794Y-113919101D01*
X150120032Y-113442911D02*
X150215270Y-113347673D01*
X150405746Y-113252434D01*
X150881937Y-113252434D01*
X151072413Y-113347673D01*
X151167651Y-113442911D01*
X151262889Y-113633387D01*
X151262889Y-113823863D01*
X151167651Y-114109577D01*
X150024794Y-115252434D01*
X151262889Y-115252434D01*
X152500985Y-113252434D02*
X152691461Y-113252434D01*
X152881937Y-113347673D01*
X152977175Y-113442911D01*
X153072413Y-113633387D01*
X153167651Y-114014339D01*
X153167651Y-114490530D01*
X153072413Y-114871482D01*
X152977175Y-115061958D01*
X152881937Y-115157196D01*
X152691461Y-115252434D01*
X152500985Y-115252434D01*
X152310508Y-115157196D01*
X152215270Y-115061958D01*
X152120032Y-114871482D01*
X152024794Y-114490530D01*
X152024794Y-114014339D01*
X152120032Y-113633387D01*
X152215270Y-113442911D01*
X152310508Y-113347673D01*
X152500985Y-113252434D01*
X153929556Y-113442911D02*
X154024794Y-113347673D01*
X154215270Y-113252434D01*
X154691461Y-113252434D01*
X154881937Y-113347673D01*
X154977175Y-113442911D01*
X155072413Y-113633387D01*
X155072413Y-113823863D01*
X154977175Y-114109577D01*
X153834318Y-115252434D01*
X155072413Y-115252434D01*
X155834318Y-113442911D02*
X155929556Y-113347673D01*
X156120032Y-113252434D01*
X156596223Y-113252434D01*
X156786699Y-113347673D01*
X156881937Y-113442911D01*
X156977175Y-113633387D01*
X156977175Y-113823863D01*
X156881937Y-114109577D01*
X155739080Y-115252434D01*
X156977175Y-115252434D01*
X124548604Y-118472434D02*
X124548604Y-116472434D01*
X125024794Y-116472434D01*
X125310508Y-116567673D01*
X125500985Y-116758149D01*
X125596223Y-116948625D01*
X125691461Y-117329577D01*
X125691461Y-117615292D01*
X125596223Y-117996244D01*
X125500985Y-118186720D01*
X125310508Y-118377196D01*
X125024794Y-118472434D01*
X124548604Y-118472434D01*
X127310508Y-118377196D02*
X127120032Y-118472434D01*
X126739080Y-118472434D01*
X126548604Y-118377196D01*
X126453365Y-118186720D01*
X126453365Y-117424815D01*
X126548604Y-117234339D01*
X126739080Y-117139101D01*
X127120032Y-117139101D01*
X127310508Y-117234339D01*
X127405746Y-117424815D01*
X127405746Y-117615292D01*
X126453365Y-117805768D01*
X128167651Y-118377196D02*
X128358127Y-118472434D01*
X128739080Y-118472434D01*
X128929556Y-118377196D01*
X129024794Y-118186720D01*
X129024794Y-118091482D01*
X128929556Y-117901006D01*
X128739080Y-117805768D01*
X128453365Y-117805768D01*
X128262889Y-117710530D01*
X128167651Y-117520053D01*
X128167651Y-117424815D01*
X128262889Y-117234339D01*
X128453365Y-117139101D01*
X128739080Y-117139101D01*
X128929556Y-117234339D01*
X129881937Y-118472434D02*
X129881937Y-117139101D01*
X129881937Y-116472434D02*
X129786699Y-116567673D01*
X129881937Y-116662911D01*
X129977175Y-116567673D01*
X129881937Y-116472434D01*
X129881937Y-116662911D01*
X131691461Y-117139101D02*
X131691461Y-118758149D01*
X131596223Y-118948625D01*
X131500985Y-119043863D01*
X131310508Y-119139101D01*
X131024794Y-119139101D01*
X130834318Y-119043863D01*
X131691461Y-118377196D02*
X131500985Y-118472434D01*
X131120032Y-118472434D01*
X130929556Y-118377196D01*
X130834318Y-118281958D01*
X130739080Y-118091482D01*
X130739080Y-117520053D01*
X130834318Y-117329577D01*
X130929556Y-117234339D01*
X131120032Y-117139101D01*
X131500985Y-117139101D01*
X131691461Y-117234339D01*
X132643842Y-117139101D02*
X132643842Y-118472434D01*
X132643842Y-117329577D02*
X132739080Y-117234339D01*
X132929556Y-117139101D01*
X133215270Y-117139101D01*
X133405746Y-117234339D01*
X133500985Y-117424815D01*
X133500985Y-118472434D01*
X135215270Y-118377196D02*
X135024794Y-118472434D01*
X134643842Y-118472434D01*
X134453365Y-118377196D01*
X134358127Y-118186720D01*
X134358127Y-117424815D01*
X134453365Y-117234339D01*
X134643842Y-117139101D01*
X135024794Y-117139101D01*
X135215270Y-117234339D01*
X135310508Y-117424815D01*
X135310508Y-117615292D01*
X134358127Y-117805768D01*
X137024794Y-118472434D02*
X137024794Y-116472434D01*
X137024794Y-118377196D02*
X136834318Y-118472434D01*
X136453365Y-118472434D01*
X136262889Y-118377196D01*
X136167651Y-118281958D01*
X136072413Y-118091482D01*
X136072413Y-117520053D01*
X136167651Y-117329577D01*
X136262889Y-117234339D01*
X136453365Y-117139101D01*
X136834318Y-117139101D01*
X137024794Y-117234339D01*
X139500985Y-118472434D02*
X139500985Y-116472434D01*
X139500985Y-117234339D02*
X139691461Y-117139101D01*
X140072413Y-117139101D01*
X140262889Y-117234339D01*
X140358127Y-117329577D01*
X140453365Y-117520053D01*
X140453365Y-118091482D01*
X140358127Y-118281958D01*
X140262889Y-118377196D01*
X140072413Y-118472434D01*
X139691461Y-118472434D01*
X139500985Y-118377196D01*
X141120032Y-117139101D02*
X141596223Y-118472434D01*
X142072413Y-117139101D02*
X141596223Y-118472434D01*
X141405746Y-118948625D01*
X141310508Y-119043863D01*
X141120032Y-119139101D01*
X144262889Y-118377196D02*
X144548604Y-118472434D01*
X145024794Y-118472434D01*
X145215270Y-118377196D01*
X145310508Y-118281958D01*
X145405746Y-118091482D01*
X145405746Y-117901006D01*
X145310508Y-117710530D01*
X145215270Y-117615292D01*
X145024794Y-117520053D01*
X144643842Y-117424815D01*
X144453365Y-117329577D01*
X144358127Y-117234339D01*
X144262889Y-117043863D01*
X144262889Y-116853387D01*
X144358127Y-116662911D01*
X144453365Y-116567673D01*
X144643842Y-116472434D01*
X145120032Y-116472434D01*
X145405746Y-116567673D01*
X145977175Y-117139101D02*
X146739080Y-117139101D01*
X146262889Y-116472434D02*
X146262889Y-118186720D01*
X146358127Y-118377196D01*
X146548604Y-118472434D01*
X146739080Y-118472434D01*
X148167651Y-118377196D02*
X147977175Y-118472434D01*
X147596223Y-118472434D01*
X147405746Y-118377196D01*
X147310508Y-118186720D01*
X147310508Y-117424815D01*
X147405746Y-117234339D01*
X147596223Y-117139101D01*
X147977175Y-117139101D01*
X148167651Y-117234339D01*
X148262889Y-117424815D01*
X148262889Y-117615292D01*
X147310508Y-117805768D01*
X148834318Y-117139101D02*
X149596223Y-117139101D01*
X149120032Y-118472434D02*
X149120032Y-116758149D01*
X149215270Y-116567673D01*
X149405746Y-116472434D01*
X149596223Y-116472434D01*
X151120032Y-118472434D02*
X151120032Y-117424815D01*
X151024794Y-117234339D01*
X150834318Y-117139101D01*
X150453365Y-117139101D01*
X150262889Y-117234339D01*
X151120032Y-118377196D02*
X150929556Y-118472434D01*
X150453365Y-118472434D01*
X150262889Y-118377196D01*
X150167651Y-118186720D01*
X150167651Y-117996244D01*
X150262889Y-117805768D01*
X150453365Y-117710530D01*
X150929556Y-117710530D01*
X151120032Y-117615292D01*
X152072413Y-117139101D02*
X152072413Y-118472434D01*
X152072413Y-117329577D02*
X152167651Y-117234339D01*
X152358127Y-117139101D01*
X152643842Y-117139101D01*
X152834318Y-117234339D01*
X152929556Y-117424815D01*
X152929556Y-118472434D01*
X154167651Y-118472434D02*
X153977175Y-118377196D01*
X153881937Y-118281958D01*
X153786699Y-118091482D01*
X153786699Y-117520053D01*
X153881937Y-117329577D01*
X153977175Y-117234339D01*
X154167651Y-117139101D01*
X154453365Y-117139101D01*
X154643842Y-117234339D01*
X154739080Y-117329577D01*
X154834318Y-117520053D01*
X154834318Y-118091482D01*
X154739080Y-118281958D01*
X154643842Y-118377196D01*
X154453365Y-118472434D01*
X154167651Y-118472434D01*
X157215270Y-118472434D02*
X157215270Y-116472434D01*
X158358127Y-118472434D01*
X158358127Y-116472434D01*
X159310508Y-118472434D02*
X159310508Y-117139101D01*
X159310508Y-116472434D02*
X159215270Y-116567673D01*
X159310508Y-116662911D01*
X159405746Y-116567673D01*
X159310508Y-116472434D01*
X159310508Y-116662911D01*
X161120032Y-118377196D02*
X160929556Y-118472434D01*
X160548604Y-118472434D01*
X160358127Y-118377196D01*
X160262889Y-118281958D01*
X160167651Y-118091482D01*
X160167651Y-117520053D01*
X160262889Y-117329577D01*
X160358127Y-117234339D01*
X160548604Y-117139101D01*
X160929556Y-117139101D01*
X161120032Y-117234339D01*
X162262889Y-118472434D02*
X162072413Y-118377196D01*
X161977175Y-118281958D01*
X161881937Y-118091482D01*
X161881937Y-117520053D01*
X161977175Y-117329577D01*
X162072413Y-117234339D01*
X162262889Y-117139101D01*
X162548604Y-117139101D01*
X162739080Y-117234339D01*
X162834318Y-117329577D01*
X162929556Y-117520053D01*
X162929556Y-118091482D01*
X162834318Y-118281958D01*
X162739080Y-118377196D01*
X162548604Y-118472434D01*
X162262889Y-118472434D01*
X164072413Y-118472434D02*
X163881937Y-118377196D01*
X163786699Y-118186720D01*
X163786699Y-116472434D01*
X164834318Y-118472434D02*
X164834318Y-117139101D01*
X164834318Y-116472434D02*
X164739080Y-116567673D01*
X164834318Y-116662911D01*
X164929556Y-116567673D01*
X164834318Y-116472434D01*
X164834318Y-116662911D01*
X165691461Y-118377196D02*
X165881937Y-118472434D01*
X166262889Y-118472434D01*
X166453365Y-118377196D01*
X166548604Y-118186720D01*
X166548604Y-118091482D01*
X166453365Y-117901006D01*
X166262889Y-117805768D01*
X165977175Y-117805768D01*
X165786699Y-117710530D01*
X165691461Y-117520053D01*
X165691461Y-117424815D01*
X165786699Y-117234339D01*
X165977175Y-117139101D01*
X166262889Y-117139101D01*
X166453365Y-117234339D01*
X135596223Y-119692434D02*
X136739080Y-119692434D01*
X136167651Y-121692434D02*
X136167651Y-119692434D01*
X137405746Y-121692434D02*
X137405746Y-119692434D01*
X138262889Y-121692434D02*
X138262889Y-120644815D01*
X138167651Y-120454339D01*
X137977175Y-120359101D01*
X137691461Y-120359101D01*
X137500985Y-120454339D01*
X137405746Y-120549577D01*
X139215270Y-121692434D02*
X139215270Y-120359101D01*
X139215270Y-119692434D02*
X139120032Y-119787673D01*
X139215270Y-119882911D01*
X139310508Y-119787673D01*
X139215270Y-119692434D01*
X139215270Y-119882911D01*
X140167651Y-121692434D02*
X140167651Y-120359101D01*
X140167651Y-119692434D02*
X140072413Y-119787673D01*
X140167651Y-119882911D01*
X140262889Y-119787673D01*
X140167651Y-119692434D01*
X140167651Y-119882911D01*
X141120032Y-121692434D02*
X141120032Y-120359101D01*
X141120032Y-120740053D02*
X141215270Y-120549577D01*
X141310508Y-120454339D01*
X141500985Y-120359101D01*
X141691461Y-120359101D01*
X143215270Y-121692434D02*
X143215270Y-119692434D01*
X143215270Y-121597196D02*
X143024794Y-121692434D01*
X142643842Y-121692434D01*
X142453365Y-121597196D01*
X142358127Y-121501958D01*
X142262889Y-121311482D01*
X142262889Y-120740053D01*
X142358127Y-120549577D01*
X142453365Y-120454339D01*
X142643842Y-120359101D01*
X143024794Y-120359101D01*
X143215270Y-120454339D01*
X145405746Y-120740053D02*
X145310508Y-120644815D01*
X145120032Y-120549577D01*
X144929556Y-120549577D01*
X144739080Y-120644815D01*
X144643842Y-120740053D01*
X144548604Y-120930530D01*
X144548604Y-121121006D01*
X144643842Y-121311482D01*
X144739080Y-121406720D01*
X144929556Y-121501958D01*
X145120032Y-121501958D01*
X145310508Y-121406720D01*
X145405746Y-121311482D01*
X145405746Y-120549577D02*
X145405746Y-121311482D01*
X145500985Y-121406720D01*
X145596223Y-121406720D01*
X145786699Y-121311482D01*
X145881937Y-121121006D01*
X145881937Y-120644815D01*
X145691461Y-120359101D01*
X145405746Y-120168625D01*
X145024794Y-120073387D01*
X144643842Y-120168625D01*
X144358127Y-120359101D01*
X144167651Y-120644815D01*
X144072413Y-121025768D01*
X144167651Y-121406720D01*
X144358127Y-121692434D01*
X144643842Y-121882911D01*
X145024794Y-121978149D01*
X145405746Y-121882911D01*
X145691461Y-121692434D01*
X147596223Y-120359101D02*
X147596223Y-121978149D01*
X147500985Y-122168625D01*
X147405746Y-122263863D01*
X147215270Y-122359101D01*
X146929556Y-122359101D01*
X146739080Y-122263863D01*
X147596223Y-121597196D02*
X147405746Y-121692434D01*
X147024794Y-121692434D01*
X146834318Y-121597196D01*
X146739080Y-121501958D01*
X146643842Y-121311482D01*
X146643842Y-120740053D01*
X146739080Y-120549577D01*
X146834318Y-120454339D01*
X147024794Y-120359101D01*
X147405746Y-120359101D01*
X147596223Y-120454339D01*
X148548604Y-121692434D02*
X148548604Y-120359101D01*
X148548604Y-119692434D02*
X148453365Y-119787673D01*
X148548604Y-119882911D01*
X148643842Y-119787673D01*
X148548604Y-119692434D01*
X148548604Y-119882911D01*
X149215270Y-120359101D02*
X149977175Y-120359101D01*
X149500985Y-119692434D02*
X149500985Y-121406720D01*
X149596223Y-121597196D01*
X149786699Y-121692434D01*
X149977175Y-121692434D01*
X150643842Y-121692434D02*
X150643842Y-119692434D01*
X151500985Y-121692434D02*
X151500985Y-120644815D01*
X151405746Y-120454339D01*
X151215270Y-120359101D01*
X150929556Y-120359101D01*
X150739080Y-120454339D01*
X150643842Y-120549577D01*
X153310508Y-120359101D02*
X153310508Y-121692434D01*
X152453365Y-120359101D02*
X152453365Y-121406720D01*
X152548604Y-121597196D01*
X152739080Y-121692434D01*
X153024794Y-121692434D01*
X153215270Y-121597196D01*
X153310508Y-121501958D01*
X154262889Y-121692434D02*
X154262889Y-119692434D01*
X154262889Y-120454339D02*
X154453365Y-120359101D01*
X154834318Y-120359101D01*
X155024794Y-120454339D01*
X155120032Y-120549577D01*
X155215270Y-120740053D01*
X155215270Y-121311482D01*
X155120032Y-121501958D01*
X155024794Y-121597196D01*
X154834318Y-121692434D01*
X154453365Y-121692434D01*
X154262889Y-121597196D01*
D11*
X117562323Y-69897436D02*
X117705180Y-69945055D01*
X117943275Y-69945055D01*
X118038513Y-69897436D01*
X118086132Y-69849817D01*
X118133751Y-69754579D01*
X118133751Y-69659341D01*
X118086132Y-69564103D01*
X118038513Y-69516484D01*
X117943275Y-69468865D01*
X117752799Y-69421246D01*
X117657561Y-69373627D01*
X117609942Y-69326008D01*
X117562323Y-69230770D01*
X117562323Y-69135532D01*
X117609942Y-69040294D01*
X117657561Y-68992675D01*
X117752799Y-68945055D01*
X117990894Y-68945055D01*
X118133751Y-68992675D01*
X118467084Y-68945055D02*
X118705180Y-69945055D01*
X118895656Y-69230770D01*
X119086132Y-69945055D01*
X119324227Y-68945055D01*
X120943275Y-69945055D02*
X120467084Y-69945055D01*
X120467084Y-68945055D01*
X121276608Y-69421246D02*
X121609942Y-69421246D01*
X121752799Y-69945055D02*
X121276608Y-69945055D01*
X121276608Y-68945055D01*
X121752799Y-68945055D01*
X122181370Y-69945055D02*
X122181370Y-68945055D01*
X122419465Y-68945055D01*
X122562323Y-68992675D01*
X122657561Y-69087913D01*
X122705180Y-69183151D01*
X122752799Y-69373627D01*
X122752799Y-69516484D01*
X122705180Y-69706960D01*
X122657561Y-69802198D01*
X122562323Y-69897436D01*
X122419465Y-69945055D01*
X122181370Y-69945055D01*
X124467084Y-68992675D02*
X124371846Y-68945055D01*
X124228989Y-68945055D01*
X124086132Y-68992675D01*
X123990894Y-69087913D01*
X123943275Y-69183151D01*
X123895656Y-69373627D01*
X123895656Y-69516484D01*
X123943275Y-69706960D01*
X123990894Y-69802198D01*
X124086132Y-69897436D01*
X124228989Y-69945055D01*
X124324227Y-69945055D01*
X124467084Y-69897436D01*
X124514703Y-69849817D01*
X124514703Y-69516484D01*
X124324227Y-69516484D01*
X124943275Y-69945055D02*
X124943275Y-68945055D01*
X125514703Y-69945055D01*
X125514703Y-68945055D01*
X125990894Y-69945055D02*
X125990894Y-68945055D01*
X126228989Y-68945055D01*
X126371846Y-68992675D01*
X126467084Y-69087913D01*
X126514703Y-69183151D01*
X126562323Y-69373627D01*
X126562323Y-69516484D01*
X126514703Y-69706960D01*
X126467084Y-69802198D01*
X126371846Y-69897436D01*
X126228989Y-69945055D01*
X125990894Y-69945055D01*
D12*
X104089699Y-96854485D02*
X105003985Y-96854485D01*
X104546842Y-98454485D02*
X104546842Y-96854485D01*
X105537319Y-98454485D02*
X105537319Y-96854485D01*
X106070652Y-97997342D01*
X106603985Y-96854485D01*
X106603985Y-98454485D01*
X107289699Y-98378295D02*
X107518271Y-98454485D01*
X107899223Y-98454485D01*
X108051604Y-98378295D01*
X108127795Y-98302104D01*
X108203985Y-98149723D01*
X108203985Y-97997342D01*
X108127795Y-97844961D01*
X108051604Y-97768771D01*
X107899223Y-97692580D01*
X107594461Y-97616390D01*
X107442080Y-97540199D01*
X107365890Y-97464009D01*
X107289699Y-97311628D01*
X107289699Y-97159247D01*
X107365890Y-97006866D01*
X107442080Y-96930676D01*
X107594461Y-96854485D01*
X107975414Y-96854485D01*
X108203985Y-96930676D01*
X104089699Y-99430485D02*
X105003985Y-99430485D01*
X104546842Y-101030485D02*
X104546842Y-99430485D01*
X105537319Y-101030485D02*
X105537319Y-99430485D01*
X105918271Y-99430485D01*
X106146842Y-99506676D01*
X106299223Y-99659056D01*
X106375414Y-99811437D01*
X106451604Y-100116199D01*
X106451604Y-100344771D01*
X106375414Y-100649533D01*
X106299223Y-100801914D01*
X106146842Y-100954295D01*
X105918271Y-101030485D01*
X105537319Y-101030485D01*
X107137319Y-101030485D02*
X107137319Y-99430485D01*
X104089699Y-102006485D02*
X105003985Y-102006485D01*
X104546842Y-103606485D02*
X104546842Y-102006485D01*
X105537319Y-103606485D02*
X105537319Y-102006485D01*
X105918271Y-102006485D01*
X106146842Y-102082676D01*
X106299223Y-102235056D01*
X106375414Y-102387437D01*
X106451604Y-102692199D01*
X106451604Y-102920771D01*
X106375414Y-103225533D01*
X106299223Y-103377914D01*
X106146842Y-103530295D01*
X105918271Y-103606485D01*
X105537319Y-103606485D01*
X107442080Y-102006485D02*
X107746842Y-102006485D01*
X107899223Y-102082676D01*
X108051604Y-102235056D01*
X108127795Y-102539818D01*
X108127795Y-103073152D01*
X108051604Y-103377914D01*
X107899223Y-103530295D01*
X107746842Y-103606485D01*
X107442080Y-103606485D01*
X107289699Y-103530295D01*
X107137319Y-103377914D01*
X107061128Y-103073152D01*
X107061128Y-102539818D01*
X107137319Y-102235056D01*
X107289699Y-102082676D01*
X107442080Y-102006485D01*
X104089699Y-104582485D02*
X105003985Y-104582485D01*
X104546842Y-106182485D02*
X104546842Y-104582485D01*
X106451604Y-106030104D02*
X106375414Y-106106295D01*
X106146842Y-106182485D01*
X105994461Y-106182485D01*
X105765890Y-106106295D01*
X105613509Y-105953914D01*
X105537319Y-105801533D01*
X105461128Y-105496771D01*
X105461128Y-105268199D01*
X105537319Y-104963437D01*
X105613509Y-104811056D01*
X105765890Y-104658676D01*
X105994461Y-104582485D01*
X106146842Y-104582485D01*
X106375414Y-104658676D01*
X106451604Y-104734866D01*
X107137319Y-106182485D02*
X107137319Y-104582485D01*
X108051604Y-106182485D02*
X107365890Y-105268199D01*
X108051604Y-104582485D02*
X107137319Y-105496771D01*
X105156366Y-107234676D02*
X105003985Y-107158485D01*
X104775414Y-107158485D01*
X104546842Y-107234676D01*
X104394461Y-107387056D01*
X104318271Y-107539437D01*
X104242080Y-107844199D01*
X104242080Y-108072771D01*
X104318271Y-108377533D01*
X104394461Y-108529914D01*
X104546842Y-108682295D01*
X104775414Y-108758485D01*
X104927795Y-108758485D01*
X105156366Y-108682295D01*
X105232557Y-108606104D01*
X105232557Y-108072771D01*
X104927795Y-108072771D01*
X105918271Y-108758485D02*
X105918271Y-107158485D01*
X106832557Y-108758485D01*
X106832557Y-107158485D01*
X107594461Y-108758485D02*
X107594461Y-107158485D01*
X107975414Y-107158485D01*
X108203985Y-107234676D01*
X108356366Y-107387056D01*
X108432557Y-107539437D01*
X108508747Y-107844199D01*
X108508747Y-108072771D01*
X108432557Y-108377533D01*
X108356366Y-108529914D01*
X108203985Y-108682295D01*
X107975414Y-108758485D01*
X107594461Y-108758485D01*
D10*
X206868126Y-123123365D02*
X206868126Y-126123365D01*
X205153841Y-123123365D01*
X205153841Y-126123365D01*
X214865892Y-125849819D02*
X213437321Y-125849819D01*
X213437321Y-122849819D01*
D13*
X86548604Y-136285053D02*
X86215270Y-135808863D01*
X85977175Y-136285053D02*
X85977175Y-135285053D01*
X86358127Y-135285053D01*
X86453365Y-135332673D01*
X86500985Y-135380292D01*
X86548604Y-135475530D01*
X86548604Y-135618387D01*
X86500985Y-135713625D01*
X86453365Y-135761244D01*
X86358127Y-135808863D01*
X85977175Y-135808863D01*
X86977175Y-135761244D02*
X87310508Y-135761244D01*
X87453365Y-136285053D02*
X86977175Y-136285053D01*
X86977175Y-135285053D01*
X87453365Y-135285053D01*
X87834318Y-136237434D02*
X87977175Y-136285053D01*
X88215270Y-136285053D01*
X88310508Y-136237434D01*
X88358127Y-136189815D01*
X88405746Y-136094577D01*
X88405746Y-135999339D01*
X88358127Y-135904101D01*
X88310508Y-135856482D01*
X88215270Y-135808863D01*
X88024794Y-135761244D01*
X87929556Y-135713625D01*
X87881937Y-135666006D01*
X87834318Y-135570768D01*
X87834318Y-135475530D01*
X87881937Y-135380292D01*
X87929556Y-135332673D01*
X88024794Y-135285053D01*
X88262889Y-135285053D01*
X88405746Y-135332673D01*
X88834318Y-135761244D02*
X89167651Y-135761244D01*
X89310508Y-136285053D02*
X88834318Y-136285053D01*
X88834318Y-135285053D01*
X89310508Y-135285053D01*
X89596223Y-135285053D02*
X90167651Y-135285053D01*
X89881937Y-136285053D02*
X89881937Y-135285053D01*
D12*
X113064465Y-97437313D02*
X114207323Y-97437313D01*
X113635894Y-98008742D02*
X113635894Y-96865885D01*
X114778751Y-96508742D02*
X115707323Y-96508742D01*
X115207323Y-97080171D01*
X115421608Y-97080171D01*
X115564465Y-97151599D01*
X115635894Y-97223028D01*
X115707323Y-97365885D01*
X115707323Y-97723028D01*
X115635894Y-97865885D01*
X115564465Y-97937313D01*
X115421608Y-98008742D01*
X114993037Y-98008742D01*
X114850180Y-97937313D01*
X114778751Y-97865885D01*
X116135894Y-96508742D02*
X116635894Y-98008742D01*
X117135894Y-96508742D01*
X117493037Y-96508742D02*
X118421608Y-96508742D01*
X117921608Y-97080171D01*
X118135894Y-97080171D01*
X118278751Y-97151599D01*
X118350180Y-97223028D01*
X118421608Y-97365885D01*
X118421608Y-97723028D01*
X118350180Y-97865885D01*
X118278751Y-97937313D01*
X118135894Y-98008742D01*
X117707323Y-98008742D01*
X117564465Y-97937313D01*
X117493037Y-97865885D01*
D11*
X98752175Y-119635053D02*
X98752175Y-118635053D01*
X99180746Y-119635053D02*
X99180746Y-119111244D01*
X99133127Y-119016006D01*
X99037889Y-118968387D01*
X98895032Y-118968387D01*
X98799794Y-119016006D01*
X98752175Y-119063625D01*
X100037889Y-119587434D02*
X99942651Y-119635053D01*
X99752175Y-119635053D01*
X99656937Y-119587434D01*
X99609318Y-119492196D01*
X99609318Y-119111244D01*
X99656937Y-119016006D01*
X99752175Y-118968387D01*
X99942651Y-118968387D01*
X100037889Y-119016006D01*
X100085508Y-119111244D01*
X100085508Y-119206482D01*
X99609318Y-119301720D01*
X100942651Y-119635053D02*
X100942651Y-119111244D01*
X100895032Y-119016006D01*
X100799794Y-118968387D01*
X100609318Y-118968387D01*
X100514080Y-119016006D01*
X100942651Y-119587434D02*
X100847413Y-119635053D01*
X100609318Y-119635053D01*
X100514080Y-119587434D01*
X100466461Y-119492196D01*
X100466461Y-119396958D01*
X100514080Y-119301720D01*
X100609318Y-119254101D01*
X100847413Y-119254101D01*
X100942651Y-119206482D01*
X101275984Y-118968387D02*
X101656937Y-118968387D01*
X101418841Y-118635053D02*
X101418841Y-119492196D01*
X101466461Y-119587434D01*
X101561699Y-119635053D01*
X101656937Y-119635053D01*
X102371222Y-119587434D02*
X102275984Y-119635053D01*
X102085508Y-119635053D01*
X101990270Y-119587434D01*
X101942651Y-119492196D01*
X101942651Y-119111244D01*
X101990270Y-119016006D01*
X102085508Y-118968387D01*
X102275984Y-118968387D01*
X102371222Y-119016006D01*
X102418841Y-119111244D01*
X102418841Y-119206482D01*
X101942651Y-119301720D01*
X102847413Y-119635053D02*
X102847413Y-118968387D01*
X102847413Y-119158863D02*
X102895032Y-119063625D01*
X102942651Y-119016006D01*
X103037889Y-118968387D01*
X103133127Y-118968387D01*
X103466461Y-119254101D02*
X104228365Y-119254101D01*
X104656937Y-118730292D02*
X104704556Y-118682673D01*
X104799794Y-118635053D01*
X105037889Y-118635053D01*
X105133127Y-118682673D01*
X105180746Y-118730292D01*
X105228365Y-118825530D01*
X105228365Y-118920768D01*
X105180746Y-119063625D01*
X104609318Y-119635053D01*
X105228365Y-119635053D01*
X98752175Y-116601720D02*
X98752175Y-115601720D01*
X99180746Y-116601720D02*
X99180746Y-116077911D01*
X99133127Y-115982673D01*
X99037889Y-115935054D01*
X98895032Y-115935054D01*
X98799794Y-115982673D01*
X98752175Y-116030292D01*
X100037889Y-116554101D02*
X99942651Y-116601720D01*
X99752175Y-116601720D01*
X99656937Y-116554101D01*
X99609318Y-116458863D01*
X99609318Y-116077911D01*
X99656937Y-115982673D01*
X99752175Y-115935054D01*
X99942651Y-115935054D01*
X100037889Y-115982673D01*
X100085508Y-116077911D01*
X100085508Y-116173149D01*
X99609318Y-116268387D01*
X100942651Y-116601720D02*
X100942651Y-116077911D01*
X100895032Y-115982673D01*
X100799794Y-115935054D01*
X100609318Y-115935054D01*
X100514080Y-115982673D01*
X100942651Y-116554101D02*
X100847413Y-116601720D01*
X100609318Y-116601720D01*
X100514080Y-116554101D01*
X100466461Y-116458863D01*
X100466461Y-116363625D01*
X100514080Y-116268387D01*
X100609318Y-116220768D01*
X100847413Y-116220768D01*
X100942651Y-116173149D01*
X101275984Y-115935054D02*
X101656937Y-115935054D01*
X101418841Y-115601720D02*
X101418841Y-116458863D01*
X101466461Y-116554101D01*
X101561699Y-116601720D01*
X101656937Y-116601720D01*
X102371222Y-116554101D02*
X102275984Y-116601720D01*
X102085508Y-116601720D01*
X101990270Y-116554101D01*
X101942651Y-116458863D01*
X101942651Y-116077911D01*
X101990270Y-115982673D01*
X102085508Y-115935054D01*
X102275984Y-115935054D01*
X102371222Y-115982673D01*
X102418841Y-116077911D01*
X102418841Y-116173149D01*
X101942651Y-116268387D01*
X102847413Y-116601720D02*
X102847413Y-115935054D01*
X102847413Y-116125530D02*
X102895032Y-116030292D01*
X102942651Y-115982673D01*
X103037889Y-115935054D01*
X103133127Y-115935054D01*
X103466461Y-116220768D02*
X104228365Y-116220768D01*
X105228365Y-116601720D02*
X104656937Y-116601720D01*
X104942651Y-116601720D02*
X104942651Y-115601720D01*
X104847413Y-115744578D01*
X104752175Y-115839816D01*
X104656937Y-115887435D01*
X98735746Y-113635053D02*
X98735746Y-112635053D01*
X99069080Y-113349339D01*
X99402413Y-112635053D01*
X99402413Y-113635053D01*
X100069080Y-112635053D02*
X100259556Y-112635053D01*
X100354794Y-112682673D01*
X100450032Y-112777911D01*
X100497651Y-112968387D01*
X100497651Y-113301720D01*
X100450032Y-113492196D01*
X100354794Y-113587434D01*
X100259556Y-113635053D01*
X100069080Y-113635053D01*
X99973842Y-113587434D01*
X99878604Y-113492196D01*
X99830985Y-113301720D01*
X99830985Y-112968387D01*
X99878604Y-112777911D01*
X99973842Y-112682673D01*
X100069080Y-112635053D01*
X100878604Y-113587434D02*
X101021461Y-113635053D01*
X101259556Y-113635053D01*
X101354794Y-113587434D01*
X101402413Y-113539815D01*
X101450032Y-113444577D01*
X101450032Y-113349339D01*
X101402413Y-113254101D01*
X101354794Y-113206482D01*
X101259556Y-113158863D01*
X101069080Y-113111244D01*
X100973842Y-113063625D01*
X100926223Y-113016006D01*
X100878604Y-112920768D01*
X100878604Y-112825530D01*
X100926223Y-112730292D01*
X100973842Y-112682673D01*
X101069080Y-112635053D01*
X101307175Y-112635053D01*
X101450032Y-112682673D01*
X102211937Y-113111244D02*
X101878604Y-113111244D01*
X101878604Y-113635053D02*
X101878604Y-112635053D01*
X102354794Y-112635053D01*
X102735746Y-113111244D02*
X103069080Y-113111244D01*
X103211937Y-113635053D02*
X102735746Y-113635053D01*
X102735746Y-112635053D01*
X103211937Y-112635053D01*
X103497651Y-112635053D02*
X104069080Y-112635053D01*
X103783365Y-113635053D02*
X103783365Y-112635053D01*
D14*
X76655418Y-74624519D02*
X74369703Y-74624519D01*
X75512561Y-74624519D02*
X75512561Y-70624519D01*
X75131608Y-71195948D01*
X74750656Y-71576900D01*
X74369703Y-71767376D01*
X78179227Y-71005472D02*
X78369703Y-70814996D01*
X78750656Y-70624519D01*
X79703037Y-70624519D01*
X80083989Y-70814996D01*
X80274465Y-71005472D01*
X80464942Y-71386424D01*
X80464942Y-71767376D01*
X80274465Y-72338805D01*
X77988751Y-74624519D01*
X80464942Y-74624519D01*
X81607799Y-70624519D02*
X82941132Y-74624519D01*
X84274465Y-70624519D01*
X88464942Y-74434043D02*
X88845894Y-74624519D01*
X89607799Y-74624519D01*
X89988751Y-74434043D01*
X90179227Y-74053091D01*
X90179227Y-73862615D01*
X89988751Y-73481662D01*
X89607799Y-73291186D01*
X89036370Y-73291186D01*
X88655418Y-73100710D01*
X88464942Y-72719757D01*
X88464942Y-72529281D01*
X88655418Y-72148329D01*
X89036370Y-71957853D01*
X89607799Y-71957853D01*
X89988751Y-72148329D01*
X93417323Y-74434043D02*
X93036370Y-74624519D01*
X92274465Y-74624519D01*
X91893513Y-74434043D01*
X91703037Y-74053091D01*
X91703037Y-72529281D01*
X91893513Y-72148329D01*
X92274465Y-71957853D01*
X93036370Y-71957853D01*
X93417323Y-72148329D01*
X93607799Y-72529281D01*
X93607799Y-72910234D01*
X91703037Y-73291186D01*
X97036370Y-74434043D02*
X96655418Y-74624519D01*
X95893513Y-74624519D01*
X95512561Y-74434043D01*
X95322084Y-74243567D01*
X95131608Y-73862615D01*
X95131608Y-72719757D01*
X95322084Y-72338805D01*
X95512561Y-72148329D01*
X95893513Y-71957853D01*
X96655418Y-71957853D01*
X97036370Y-72148329D01*
X98179227Y-71957853D02*
X99703037Y-71957853D01*
X98750656Y-70624519D02*
X98750656Y-74053091D01*
X98941132Y-74434043D01*
X99322084Y-74624519D01*
X99703037Y-74624519D01*
X101036370Y-74624519D02*
X101036370Y-71957853D01*
X101036370Y-70624519D02*
X100845894Y-70814996D01*
X101036370Y-71005472D01*
X101226846Y-70814996D01*
X101036370Y-70624519D01*
X101036370Y-71005472D01*
X103512561Y-74624519D02*
X103131608Y-74434043D01*
X102941132Y-74243567D01*
X102750656Y-73862615D01*
X102750656Y-72719757D01*
X102941132Y-72338805D01*
X103131608Y-72148329D01*
X103512561Y-71957853D01*
X104083989Y-71957853D01*
X104464942Y-72148329D01*
X104655418Y-72338805D01*
X104845894Y-72719757D01*
X104845894Y-73862615D01*
X104655418Y-74243567D01*
X104464942Y-74434043D01*
X104083989Y-74624519D01*
X103512561Y-74624519D01*
X106560180Y-71957853D02*
X106560180Y-74624519D01*
X106560180Y-72338805D02*
X106750656Y-72148329D01*
X107131608Y-71957853D01*
X107703037Y-71957853D01*
X108083989Y-72148329D01*
X108274465Y-72529281D01*
X108274465Y-74624519D01*
D12*
X170961699Y-137489818D02*
X171175985Y-137561247D01*
X171533127Y-137561247D01*
X171675985Y-137489818D01*
X171747413Y-137418390D01*
X171818842Y-137275533D01*
X171818842Y-137132676D01*
X171747413Y-136989818D01*
X171675985Y-136918390D01*
X171533127Y-136846961D01*
X171247413Y-136775533D01*
X171104556Y-136704104D01*
X171033127Y-136632676D01*
X170961699Y-136489818D01*
X170961699Y-136346961D01*
X171033127Y-136204104D01*
X171104556Y-136132676D01*
X171247413Y-136061247D01*
X171604556Y-136061247D01*
X171818842Y-136132676D01*
X172247413Y-136561247D02*
X172818842Y-136561247D01*
X172461699Y-136061247D02*
X172461699Y-137346961D01*
X172533127Y-137489818D01*
X172675985Y-137561247D01*
X172818842Y-137561247D01*
X173961699Y-137561247D02*
X173961699Y-136775533D01*
X173890270Y-136632676D01*
X173747413Y-136561247D01*
X173461699Y-136561247D01*
X173318842Y-136632676D01*
X173961699Y-137489818D02*
X173818842Y-137561247D01*
X173461699Y-137561247D01*
X173318842Y-137489818D01*
X173247413Y-137346961D01*
X173247413Y-137204104D01*
X173318842Y-137061247D01*
X173461699Y-136989818D01*
X173818842Y-136989818D01*
X173961699Y-136918390D01*
X174675985Y-137561247D02*
X174675985Y-136561247D01*
X174675985Y-136846961D02*
X174747413Y-136704104D01*
X174818842Y-136632676D01*
X174961699Y-136561247D01*
X175104556Y-136561247D01*
X175390270Y-136561247D02*
X175961699Y-136561247D01*
X175604556Y-136061247D02*
X175604556Y-137346961D01*
X175675985Y-137489818D01*
X175818842Y-137561247D01*
X175961699Y-137561247D01*
X177533127Y-135989818D02*
X176247413Y-137918390D01*
X177961699Y-137489818D02*
X178175985Y-137561247D01*
X178533127Y-137561247D01*
X178675985Y-137489818D01*
X178747413Y-137418390D01*
X178818842Y-137275533D01*
X178818842Y-137132676D01*
X178747413Y-136989818D01*
X178675985Y-136918390D01*
X178533127Y-136846961D01*
X178247413Y-136775533D01*
X178104556Y-136704104D01*
X178033127Y-136632676D01*
X177961699Y-136489818D01*
X177961699Y-136346961D01*
X178033127Y-136204104D01*
X178104556Y-136132676D01*
X178247413Y-136061247D01*
X178604556Y-136061247D01*
X178818842Y-136132676D01*
X179247413Y-136561247D02*
X179818842Y-136561247D01*
X179461699Y-136061247D02*
X179461699Y-137346961D01*
X179533127Y-137489818D01*
X179675985Y-137561247D01*
X179818842Y-137561247D01*
X180533127Y-137561247D02*
X180390270Y-137489818D01*
X180318842Y-137418390D01*
X180247413Y-137275533D01*
X180247413Y-136846961D01*
X180318842Y-136704104D01*
X180390270Y-136632676D01*
X180533127Y-136561247D01*
X180747413Y-136561247D01*
X180890270Y-136632676D01*
X180961699Y-136704104D01*
X181033127Y-136846961D01*
X181033127Y-137275533D01*
X180961699Y-137418390D01*
X180890270Y-137489818D01*
X180747413Y-137561247D01*
X180533127Y-137561247D01*
X181675985Y-136561247D02*
X181675985Y-138061247D01*
X181675985Y-136632676D02*
X181818842Y-136561247D01*
X182104556Y-136561247D01*
X182247413Y-136632676D01*
X182318842Y-136704104D01*
X182390270Y-136846961D01*
X182390270Y-137275533D01*
X182318842Y-137418390D01*
X182247413Y-137489818D01*
X182104556Y-137561247D01*
X181818842Y-137561247D01*
X181675985Y-137489818D01*
D13*
X80964017Y-135761247D02*
X81106874Y-135808866D01*
X81154493Y-135856485D01*
X81202112Y-135951723D01*
X81202112Y-136094580D01*
X81154493Y-136189818D01*
X81106874Y-136237437D01*
X81011636Y-136285056D01*
X80630683Y-136285056D01*
X80630683Y-135285056D01*
X80964017Y-135285056D01*
X81059255Y-135332676D01*
X81106874Y-135380295D01*
X81154493Y-135475533D01*
X81154493Y-135570771D01*
X81106874Y-135666009D01*
X81059255Y-135713628D01*
X80964017Y-135761247D01*
X80630683Y-135761247D01*
X81821160Y-135285056D02*
X82011636Y-135285056D01*
X82106874Y-135332676D01*
X82202112Y-135427914D01*
X82249731Y-135618390D01*
X82249731Y-135951723D01*
X82202112Y-136142199D01*
X82106874Y-136237437D01*
X82011636Y-136285056D01*
X81821160Y-136285056D01*
X81725921Y-136237437D01*
X81630683Y-136142199D01*
X81583064Y-135951723D01*
X81583064Y-135618390D01*
X81630683Y-135427914D01*
X81725921Y-135332676D01*
X81821160Y-135285056D01*
X82868779Y-135285056D02*
X83059255Y-135285056D01*
X83154493Y-135332676D01*
X83249731Y-135427914D01*
X83297350Y-135618390D01*
X83297350Y-135951723D01*
X83249731Y-136142199D01*
X83154493Y-136237437D01*
X83059255Y-136285056D01*
X82868779Y-136285056D01*
X82773540Y-136237437D01*
X82678302Y-136142199D01*
X82630683Y-135951723D01*
X82630683Y-135618390D01*
X82678302Y-135427914D01*
X82773540Y-135332676D01*
X82868779Y-135285056D01*
X83583064Y-135285056D02*
X84154493Y-135285056D01*
X83868779Y-136285056D02*
X83868779Y-135285056D01*
D12*
X146425985Y-136061247D02*
X147283127Y-136061247D01*
X146854556Y-137561247D02*
X146854556Y-136061247D01*
X148354556Y-137489818D02*
X148211699Y-137561247D01*
X147925985Y-137561247D01*
X147783127Y-137489818D01*
X147711699Y-137346961D01*
X147711699Y-136775533D01*
X147783127Y-136632676D01*
X147925985Y-136561247D01*
X148211699Y-136561247D01*
X148354556Y-136632676D01*
X148425985Y-136775533D01*
X148425985Y-136918390D01*
X147711699Y-137061247D01*
X149068842Y-137561247D02*
X149068842Y-136561247D01*
X149068842Y-136704104D02*
X149140270Y-136632676D01*
X149283127Y-136561247D01*
X149497413Y-136561247D01*
X149640270Y-136632676D01*
X149711699Y-136775533D01*
X149711699Y-137561247D01*
X149711699Y-136775533D02*
X149783127Y-136632676D01*
X149925985Y-136561247D01*
X150140270Y-136561247D01*
X150283127Y-136632676D01*
X150354556Y-136775533D01*
X150354556Y-137561247D01*
X151068842Y-136561247D02*
X151068842Y-138061247D01*
X151068842Y-136632676D02*
X151211699Y-136561247D01*
X151497413Y-136561247D01*
X151640270Y-136632676D01*
X151711699Y-136704104D01*
X151783127Y-136846961D01*
X151783127Y-137275533D01*
X151711699Y-137418390D01*
X151640270Y-137489818D01*
X151497413Y-137561247D01*
X151211699Y-137561247D01*
X151068842Y-137489818D01*
X153568842Y-136989818D02*
X154711699Y-136989818D01*
X154140270Y-137561247D02*
X154140270Y-136418390D01*
D11*
X121157561Y-58564996D02*
X121109942Y-58707853D01*
X121109942Y-58945948D01*
X121157561Y-59041186D01*
X121205180Y-59088805D01*
X121300418Y-59136424D01*
X121395656Y-59136424D01*
X121490894Y-59088805D01*
X121538513Y-59041186D01*
X121586132Y-58945948D01*
X121633751Y-58755472D01*
X121681370Y-58660234D01*
X121728989Y-58612615D01*
X121824227Y-58564996D01*
X121919465Y-58564996D01*
X122014703Y-58612615D01*
X122062323Y-58660234D01*
X122109942Y-58755472D01*
X122109942Y-58993567D01*
X122062323Y-59136424D01*
X122109942Y-59469757D02*
X121109942Y-59707853D01*
X121824227Y-59898329D01*
X121109942Y-60088805D01*
X122109942Y-60326900D01*
X121109942Y-61469757D02*
X122109942Y-61469757D01*
X121109942Y-61945948D02*
X122109942Y-61945948D01*
X121109942Y-62517376D01*
X122109942Y-62517376D01*
X98752175Y-122668386D02*
X98752175Y-121668386D01*
X99180746Y-122668386D02*
X99180746Y-122144577D01*
X99133127Y-122049339D01*
X99037889Y-122001720D01*
X98895032Y-122001720D01*
X98799794Y-122049339D01*
X98752175Y-122096958D01*
X100037889Y-122620767D02*
X99942651Y-122668386D01*
X99752175Y-122668386D01*
X99656937Y-122620767D01*
X99609318Y-122525529D01*
X99609318Y-122144577D01*
X99656937Y-122049339D01*
X99752175Y-122001720D01*
X99942651Y-122001720D01*
X100037889Y-122049339D01*
X100085508Y-122144577D01*
X100085508Y-122239815D01*
X99609318Y-122335053D01*
X100942651Y-122668386D02*
X100942651Y-122144577D01*
X100895032Y-122049339D01*
X100799794Y-122001720D01*
X100609318Y-122001720D01*
X100514080Y-122049339D01*
X100942651Y-122620767D02*
X100847413Y-122668386D01*
X100609318Y-122668386D01*
X100514080Y-122620767D01*
X100466461Y-122525529D01*
X100466461Y-122430291D01*
X100514080Y-122335053D01*
X100609318Y-122287434D01*
X100847413Y-122287434D01*
X100942651Y-122239815D01*
X101275984Y-122001720D02*
X101656937Y-122001720D01*
X101418841Y-121668386D02*
X101418841Y-122525529D01*
X101466461Y-122620767D01*
X101561699Y-122668386D01*
X101656937Y-122668386D01*
X102371222Y-122620767D02*
X102275984Y-122668386D01*
X102085508Y-122668386D01*
X101990270Y-122620767D01*
X101942651Y-122525529D01*
X101942651Y-122144577D01*
X101990270Y-122049339D01*
X102085508Y-122001720D01*
X102275984Y-122001720D01*
X102371222Y-122049339D01*
X102418841Y-122144577D01*
X102418841Y-122239815D01*
X101942651Y-122335053D01*
X102847413Y-122668386D02*
X102847413Y-122001720D01*
X102847413Y-122192196D02*
X102895032Y-122096958D01*
X102942651Y-122049339D01*
X103037889Y-122001720D01*
X103133127Y-122001720D01*
X103466461Y-122287434D02*
X104228365Y-122287434D01*
X104609318Y-121668386D02*
X105228365Y-121668386D01*
X104895032Y-122049339D01*
X105037889Y-122049339D01*
X105133127Y-122096958D01*
X105180746Y-122144577D01*
X105228365Y-122239815D01*
X105228365Y-122477910D01*
X105180746Y-122573148D01*
X105133127Y-122620767D01*
X105037889Y-122668386D01*
X104752175Y-122668386D01*
X104656937Y-122620767D01*
X104609318Y-122573148D01*
D14*
X74324227Y-78302198D02*
X76800418Y-78302198D01*
X75467084Y-79826008D01*
X76038513Y-79826008D01*
X76419465Y-80016484D01*
X76609942Y-80206960D01*
X76800418Y-80587913D01*
X76800418Y-81540294D01*
X76609942Y-81921246D01*
X76419465Y-82111722D01*
X76038513Y-82302198D01*
X74895656Y-82302198D01*
X74514703Y-82111722D01*
X74324227Y-81921246D01*
X77943275Y-78302198D02*
X79276608Y-82302198D01*
X80609942Y-78302198D01*
X81562323Y-78302198D02*
X84038513Y-78302198D01*
X82705180Y-79826008D01*
X83276608Y-79826008D01*
X83657561Y-80016484D01*
X83848037Y-80206960D01*
X84038513Y-80587913D01*
X84038513Y-81540294D01*
X83848037Y-81921246D01*
X83657561Y-82111722D01*
X83276608Y-82302198D01*
X82133751Y-82302198D01*
X81752799Y-82111722D01*
X81562323Y-81921246D01*
X88609942Y-82111722D02*
X88990894Y-82302198D01*
X89752799Y-82302198D01*
X90133751Y-82111722D01*
X90324227Y-81730770D01*
X90324227Y-81540294D01*
X90133751Y-81159341D01*
X89752799Y-80968865D01*
X89181370Y-80968865D01*
X88800418Y-80778389D01*
X88609942Y-80397436D01*
X88609942Y-80206960D01*
X88800418Y-79826008D01*
X89181370Y-79635532D01*
X89752799Y-79635532D01*
X90133751Y-79826008D01*
X93562323Y-82111722D02*
X93181370Y-82302198D01*
X92419465Y-82302198D01*
X92038513Y-82111722D01*
X91848037Y-81730770D01*
X91848037Y-80206960D01*
X92038513Y-79826008D01*
X92419465Y-79635532D01*
X93181370Y-79635532D01*
X93562323Y-79826008D01*
X93752799Y-80206960D01*
X93752799Y-80587913D01*
X91848037Y-80968865D01*
X97181370Y-82111722D02*
X96800418Y-82302198D01*
X96038513Y-82302198D01*
X95657561Y-82111722D01*
X95467084Y-81921246D01*
X95276608Y-81540294D01*
X95276608Y-80397436D01*
X95467084Y-80016484D01*
X95657561Y-79826008D01*
X96038513Y-79635532D01*
X96800418Y-79635532D01*
X97181370Y-79826008D01*
X98324227Y-79635532D02*
X99848037Y-79635532D01*
X98895656Y-78302198D02*
X98895656Y-81730770D01*
X99086132Y-82111722D01*
X99467084Y-82302198D01*
X99848037Y-82302198D01*
X101181370Y-82302198D02*
X101181370Y-79635532D01*
X101181370Y-78302198D02*
X100990894Y-78492675D01*
X101181370Y-78683151D01*
X101371846Y-78492675D01*
X101181370Y-78302198D01*
X101181370Y-78683151D01*
X103657561Y-82302198D02*
X103276608Y-82111722D01*
X103086132Y-81921246D01*
X102895656Y-81540294D01*
X102895656Y-80397436D01*
X103086132Y-80016484D01*
X103276608Y-79826008D01*
X103657561Y-79635532D01*
X104228989Y-79635532D01*
X104609942Y-79826008D01*
X104800418Y-80016484D01*
X104990894Y-80397436D01*
X104990894Y-81540294D01*
X104800418Y-81921246D01*
X104609942Y-82111722D01*
X104228989Y-82302198D01*
X103657561Y-82302198D01*
X106705180Y-79635532D02*
X106705180Y-82302198D01*
X106705180Y-80016484D02*
X106895656Y-79826008D01*
X107276608Y-79635532D01*
X107848037Y-79635532D01*
X108228989Y-79826008D01*
X108419465Y-80206960D01*
X108419465Y-82302198D01*
D12*
X159425985Y-136061247D02*
X160283127Y-136061247D01*
X159854556Y-137561247D02*
X159854556Y-136061247D01*
X161354556Y-137489818D02*
X161211699Y-137561247D01*
X160925985Y-137561247D01*
X160783127Y-137489818D01*
X160711699Y-137346961D01*
X160711699Y-136775533D01*
X160783127Y-136632676D01*
X160925985Y-136561247D01*
X161211699Y-136561247D01*
X161354556Y-136632676D01*
X161425985Y-136775533D01*
X161425985Y-136918390D01*
X160711699Y-137061247D01*
X162068842Y-137561247D02*
X162068842Y-136561247D01*
X162068842Y-136704104D02*
X162140270Y-136632676D01*
X162283127Y-136561247D01*
X162497413Y-136561247D01*
X162640270Y-136632676D01*
X162711699Y-136775533D01*
X162711699Y-137561247D01*
X162711699Y-136775533D02*
X162783127Y-136632676D01*
X162925985Y-136561247D01*
X163140270Y-136561247D01*
X163283127Y-136632676D01*
X163354556Y-136775533D01*
X163354556Y-137561247D01*
X164068842Y-136561247D02*
X164068842Y-138061247D01*
X164068842Y-136632676D02*
X164211699Y-136561247D01*
X164497413Y-136561247D01*
X164640270Y-136632676D01*
X164711699Y-136704104D01*
X164783127Y-136846961D01*
X164783127Y-137275533D01*
X164711699Y-137418390D01*
X164640270Y-137489818D01*
X164497413Y-137561247D01*
X164211699Y-137561247D01*
X164068842Y-137489818D01*
X166568842Y-136989818D02*
X167711699Y-136989818D01*
D11*
%TO.C,J1*%
X77934940Y-63087023D02*
X77220654Y-63087023D01*
X77077797Y-63039404D01*
X76982559Y-62944166D01*
X76934940Y-62801309D01*
X76934940Y-62706071D01*
X76934940Y-64087023D02*
X76934940Y-63515595D01*
X76934940Y-63801309D02*
X77934940Y-63801309D01*
X77792082Y-63706071D01*
X77696844Y-63610833D01*
X77649225Y-63515595D01*
%TO.C,PS1*%
X179065272Y-103062615D02*
X179065272Y-104062615D01*
X178684320Y-104062615D01*
X178589082Y-104014996D01*
X178541463Y-103967376D01*
X178493844Y-103872138D01*
X178493844Y-103729281D01*
X178541463Y-103634043D01*
X178589082Y-103586424D01*
X178684320Y-103538805D01*
X179065272Y-103538805D01*
X178112891Y-103110234D02*
X177970034Y-103062615D01*
X177731939Y-103062615D01*
X177636701Y-103110234D01*
X177589082Y-103157853D01*
X177541463Y-103253091D01*
X177541463Y-103348329D01*
X177589082Y-103443567D01*
X177636701Y-103491186D01*
X177731939Y-103538805D01*
X177922415Y-103586424D01*
X178017653Y-103634043D01*
X178065272Y-103681662D01*
X178112891Y-103776900D01*
X178112891Y-103872138D01*
X178065272Y-103967376D01*
X178017653Y-104014996D01*
X177922415Y-104062615D01*
X177684320Y-104062615D01*
X177541463Y-104014996D01*
X176589082Y-103062615D02*
X177160510Y-103062615D01*
X176874796Y-103062615D02*
X176874796Y-104062615D01*
X176970034Y-103919757D01*
X177065272Y-103824519D01*
X177160510Y-103776900D01*
D10*
X218922415Y-85457853D02*
X220350987Y-85457853D01*
X220350987Y-88457853D01*
X137243844Y-57850710D02*
X134958129Y-57850710D01*
X137243844Y-52100710D02*
X134958129Y-52100710D01*
X136100987Y-50957853D02*
X136100987Y-53243567D01*
X220108129Y-92457853D02*
X220108129Y-95457853D01*
X218393844Y-92457853D01*
X218393844Y-95457853D01*
D11*
%TO.C,R11*%
X91633127Y-107835053D02*
X91299794Y-107358863D01*
X91061699Y-107835053D02*
X91061699Y-106835053D01*
X91442651Y-106835053D01*
X91537889Y-106882673D01*
X91585508Y-106930292D01*
X91633127Y-107025530D01*
X91633127Y-107168387D01*
X91585508Y-107263625D01*
X91537889Y-107311244D01*
X91442651Y-107358863D01*
X91061699Y-107358863D01*
X92585508Y-107835053D02*
X92014080Y-107835053D01*
X92299794Y-107835053D02*
X92299794Y-106835053D01*
X92204556Y-106977911D01*
X92109318Y-107073149D01*
X92014080Y-107120768D01*
X93537889Y-107835053D02*
X92966461Y-107835053D01*
X93252175Y-107835053D02*
X93252175Y-106835053D01*
X93156937Y-106977911D01*
X93061699Y-107073149D01*
X92966461Y-107120768D01*
%TO.C,RV1*%
X209117083Y-106445057D02*
X208783750Y-105968867D01*
X208545655Y-106445057D02*
X208545655Y-105445057D01*
X208926607Y-105445057D01*
X209021845Y-105492677D01*
X209069464Y-105540296D01*
X209117083Y-105635534D01*
X209117083Y-105778391D01*
X209069464Y-105873629D01*
X209021845Y-105921248D01*
X208926607Y-105968867D01*
X208545655Y-105968867D01*
X209402798Y-105445057D02*
X209736131Y-106445057D01*
X210069464Y-105445057D01*
X210926607Y-106445057D02*
X210355179Y-106445057D01*
X210640893Y-106445057D02*
X210640893Y-105445057D01*
X210545655Y-105587915D01*
X210450417Y-105683153D01*
X210355179Y-105730772D01*
%TO.C,SW3*%
X82676564Y-132850451D02*
X82724259Y-132707367D01*
X82724259Y-132468893D01*
X82676564Y-132373503D01*
X82628870Y-132325808D01*
X82533480Y-132278113D01*
X82438090Y-132278113D01*
X82342701Y-132325808D01*
X82295006Y-132373503D01*
X82247311Y-132468893D01*
X82199616Y-132659672D01*
X82151921Y-132755062D01*
X82104227Y-132802756D01*
X82008837Y-132850451D01*
X81913447Y-132850451D01*
X81818058Y-132802756D01*
X81770363Y-132755062D01*
X81722668Y-132659672D01*
X81722668Y-132421198D01*
X81770363Y-132278113D01*
X81722668Y-131944250D02*
X82724259Y-131705776D01*
X82008837Y-131514997D01*
X82724259Y-131324217D01*
X81722668Y-131085743D01*
X81722668Y-130799574D02*
X81722668Y-130179542D01*
X82104227Y-130513406D01*
X82104227Y-130370321D01*
X82151921Y-130274931D01*
X82199616Y-130227237D01*
X82295006Y-130179542D01*
X82533480Y-130179542D01*
X82628870Y-130227237D01*
X82676564Y-130274931D01*
X82724259Y-130370321D01*
X82724259Y-130656490D01*
X82676564Y-130751880D01*
X82628870Y-130799574D01*
%TO.C,R21*%
X85003363Y-85300530D02*
X84527173Y-85633863D01*
X85003363Y-85871958D02*
X84003363Y-85871958D01*
X84003363Y-85491006D01*
X84050983Y-85395768D01*
X84098602Y-85348149D01*
X84193840Y-85300530D01*
X84336697Y-85300530D01*
X84431935Y-85348149D01*
X84479554Y-85395768D01*
X84527173Y-85491006D01*
X84527173Y-85871958D01*
X84098602Y-84919577D02*
X84050983Y-84871958D01*
X84003363Y-84776720D01*
X84003363Y-84538625D01*
X84050983Y-84443387D01*
X84098602Y-84395768D01*
X84193840Y-84348149D01*
X84289078Y-84348149D01*
X84431935Y-84395768D01*
X85003363Y-84967196D01*
X85003363Y-84348149D01*
X85003363Y-83395768D02*
X85003363Y-83967196D01*
X85003363Y-83681482D02*
X84003363Y-83681482D01*
X84146221Y-83776720D01*
X84241459Y-83871958D01*
X84289078Y-83967196D01*
%TO.C,C2*%
X101293834Y-48759341D02*
X101341453Y-48806960D01*
X101389072Y-48949817D01*
X101389072Y-49045055D01*
X101341453Y-49187913D01*
X101246215Y-49283151D01*
X101150977Y-49330770D01*
X100960501Y-49378389D01*
X100817644Y-49378389D01*
X100627168Y-49330770D01*
X100531930Y-49283151D01*
X100436692Y-49187913D01*
X100389072Y-49045055D01*
X100389072Y-48949817D01*
X100436692Y-48806960D01*
X100484311Y-48759341D01*
X100484311Y-48378389D02*
X100436692Y-48330770D01*
X100389072Y-48235532D01*
X100389072Y-47997436D01*
X100436692Y-47902198D01*
X100484311Y-47854579D01*
X100579549Y-47806960D01*
X100674787Y-47806960D01*
X100817644Y-47854579D01*
X101389072Y-48426008D01*
X101389072Y-47806960D01*
%TO.C,U1*%
X75444702Y-119344580D02*
X76254226Y-119344580D01*
X76349464Y-119296961D01*
X76397083Y-119249342D01*
X76444702Y-119154104D01*
X76444702Y-118963628D01*
X76397083Y-118868390D01*
X76349464Y-118820771D01*
X76254226Y-118773152D01*
X75444702Y-118773152D01*
X76444702Y-117773152D02*
X76444702Y-118344580D01*
X76444702Y-118058866D02*
X75444702Y-118058866D01*
X75587560Y-118154104D01*
X75682798Y-118249342D01*
X75730417Y-118344580D01*
X70508988Y-123344580D02*
X70508988Y-122868390D01*
X70794702Y-123439818D02*
X69794702Y-123106485D01*
X70794702Y-122773152D01*
X70128036Y-122439818D02*
X70794702Y-122439818D01*
X70223274Y-122439818D02*
X70175655Y-122392199D01*
X70128036Y-122296961D01*
X70128036Y-122154104D01*
X70175655Y-122058866D01*
X70270893Y-122011247D01*
X70794702Y-122011247D01*
X70128036Y-121677914D02*
X70128036Y-121296961D01*
X69794702Y-121535056D02*
X70651845Y-121535056D01*
X70747083Y-121487437D01*
X70794702Y-121392199D01*
X70794702Y-121296961D01*
X70747083Y-120582676D02*
X70794702Y-120677914D01*
X70794702Y-120868390D01*
X70747083Y-120963628D01*
X70651845Y-121011247D01*
X70270893Y-121011247D01*
X70175655Y-120963628D01*
X70128036Y-120868390D01*
X70128036Y-120677914D01*
X70175655Y-120582676D01*
X70270893Y-120535056D01*
X70366131Y-120535056D01*
X70461369Y-121011247D01*
X70128036Y-120106485D02*
X70794702Y-120106485D01*
X70223274Y-120106485D02*
X70175655Y-120058866D01*
X70128036Y-119963628D01*
X70128036Y-119820771D01*
X70175655Y-119725533D01*
X70270893Y-119677914D01*
X70794702Y-119677914D01*
X70128036Y-119201723D02*
X70794702Y-119201723D01*
X70223274Y-119201723D02*
X70175655Y-119154104D01*
X70128036Y-119058866D01*
X70128036Y-118916009D01*
X70175655Y-118820771D01*
X70270893Y-118773152D01*
X70794702Y-118773152D01*
X70794702Y-117868390D02*
X70270893Y-117868390D01*
X70175655Y-117916009D01*
X70128036Y-118011247D01*
X70128036Y-118201723D01*
X70175655Y-118296961D01*
X70747083Y-117868390D02*
X70794702Y-117963628D01*
X70794702Y-118201723D01*
X70747083Y-118296961D01*
X70651845Y-118344580D01*
X70556607Y-118344580D01*
X70461369Y-118296961D01*
X70413750Y-118201723D01*
X70413750Y-117963628D01*
X70366131Y-117868390D01*
X70508988Y-116677914D02*
X70508988Y-116201723D01*
X70794702Y-116773152D02*
X69794702Y-116439818D01*
X70794702Y-116106485D01*
X70794702Y-115773152D02*
X70128036Y-115773152D01*
X70318512Y-115773152D02*
X70223274Y-115725533D01*
X70175655Y-115677914D01*
X70128036Y-115582676D01*
X70128036Y-115487437D01*
X70747083Y-114773152D02*
X70794702Y-114868390D01*
X70794702Y-115058866D01*
X70747083Y-115154104D01*
X70651845Y-115201723D01*
X70270893Y-115201723D01*
X70175655Y-115154104D01*
X70128036Y-115058866D01*
X70128036Y-114868390D01*
X70175655Y-114773152D01*
X70270893Y-114725533D01*
X70366131Y-114725533D01*
X70461369Y-115201723D01*
X70794702Y-113868390D02*
X70270893Y-113868390D01*
X70175655Y-113916009D01*
X70128036Y-114011247D01*
X70128036Y-114201723D01*
X70175655Y-114296961D01*
X70747083Y-113868390D02*
X70794702Y-113963628D01*
X70794702Y-114201723D01*
X70747083Y-114296961D01*
X70651845Y-114344580D01*
X70556607Y-114344580D01*
X70461369Y-114296961D01*
X70413750Y-114201723D01*
X70413750Y-113963628D01*
X70366131Y-113868390D01*
%TO.C,C8*%
X75434318Y-131514813D02*
X75386699Y-131562432D01*
X75243842Y-131610051D01*
X75148604Y-131610051D01*
X75005746Y-131562432D01*
X74910508Y-131467194D01*
X74862889Y-131371956D01*
X74815270Y-131181480D01*
X74815270Y-131038623D01*
X74862889Y-130848147D01*
X74910508Y-130752909D01*
X75005746Y-130657671D01*
X75148604Y-130610051D01*
X75243842Y-130610051D01*
X75386699Y-130657671D01*
X75434318Y-130705290D01*
X76005746Y-131038623D02*
X75910508Y-130991004D01*
X75862889Y-130943385D01*
X75815270Y-130848147D01*
X75815270Y-130800528D01*
X75862889Y-130705290D01*
X75910508Y-130657671D01*
X76005746Y-130610051D01*
X76196223Y-130610051D01*
X76291461Y-130657671D01*
X76339080Y-130705290D01*
X76386699Y-130800528D01*
X76386699Y-130848147D01*
X76339080Y-130943385D01*
X76291461Y-130991004D01*
X76196223Y-131038623D01*
X76005746Y-131038623D01*
X75910508Y-131086242D01*
X75862889Y-131133861D01*
X75815270Y-131229099D01*
X75815270Y-131419575D01*
X75862889Y-131514813D01*
X75910508Y-131562432D01*
X76005746Y-131610051D01*
X76196223Y-131610051D01*
X76291461Y-131562432D01*
X76339080Y-131514813D01*
X76386699Y-131419575D01*
X76386699Y-131229099D01*
X76339080Y-131133861D01*
X76291461Y-131086242D01*
X76196223Y-131038623D01*
%TO.C,R3*%
X121395658Y-79807553D02*
X121062325Y-79331363D01*
X120824229Y-79807553D02*
X120824229Y-78807553D01*
X121205182Y-78807553D01*
X121300420Y-78855173D01*
X121348039Y-78902792D01*
X121395658Y-78998030D01*
X121395658Y-79140887D01*
X121348039Y-79236125D01*
X121300420Y-79283744D01*
X121205182Y-79331363D01*
X120824229Y-79331363D01*
X121728991Y-78807553D02*
X122348039Y-78807553D01*
X122014705Y-79188506D01*
X122157563Y-79188506D01*
X122252801Y-79236125D01*
X122300420Y-79283744D01*
X122348039Y-79378982D01*
X122348039Y-79617077D01*
X122300420Y-79712315D01*
X122252801Y-79759934D01*
X122157563Y-79807553D01*
X121871848Y-79807553D01*
X121776610Y-79759934D01*
X121728991Y-79712315D01*
%TO.C,R5*%
X150634320Y-142520055D02*
X150300987Y-142043865D01*
X150062891Y-142520055D02*
X150062891Y-141520055D01*
X150443844Y-141520055D01*
X150539082Y-141567675D01*
X150586701Y-141615294D01*
X150634320Y-141710532D01*
X150634320Y-141853389D01*
X150586701Y-141948627D01*
X150539082Y-141996246D01*
X150443844Y-142043865D01*
X150062891Y-142043865D01*
X151539082Y-141520055D02*
X151062891Y-141520055D01*
X151015272Y-141996246D01*
X151062891Y-141948627D01*
X151158129Y-141901008D01*
X151396225Y-141901008D01*
X151491463Y-141948627D01*
X151539082Y-141996246D01*
X151586701Y-142091484D01*
X151586701Y-142329579D01*
X151539082Y-142424817D01*
X151491463Y-142472436D01*
X151396225Y-142520055D01*
X151158129Y-142520055D01*
X151062891Y-142472436D01*
X151015272Y-142424817D01*
%TO.C,SW5*%
X175290394Y-144688123D02*
X175433493Y-144735822D01*
X175671991Y-144735822D01*
X175767391Y-144688123D01*
X175815090Y-144640423D01*
X175862790Y-144545024D01*
X175862790Y-144449624D01*
X175815090Y-144354225D01*
X175767391Y-144306525D01*
X175671991Y-144258826D01*
X175481193Y-144211126D01*
X175385793Y-144163426D01*
X175338094Y-144115727D01*
X175290394Y-144020327D01*
X175290394Y-143924928D01*
X175338094Y-143829529D01*
X175385793Y-143781829D01*
X175481193Y-143734129D01*
X175719691Y-143734129D01*
X175862790Y-143781829D01*
X176196688Y-143734129D02*
X176435186Y-144735822D01*
X176625985Y-144020327D01*
X176816783Y-144735822D01*
X177055282Y-143734129D01*
X177913876Y-143734129D02*
X177436879Y-143734129D01*
X177389179Y-144211126D01*
X177436879Y-144163426D01*
X177532278Y-144115727D01*
X177770777Y-144115727D01*
X177866176Y-144163426D01*
X177913876Y-144211126D01*
X177961575Y-144306525D01*
X177961575Y-144545024D01*
X177913876Y-144640423D01*
X177866176Y-144688123D01*
X177770777Y-144735822D01*
X177532278Y-144735822D01*
X177436879Y-144688123D01*
X177389179Y-144640423D01*
%TO.C,C10*%
X78428302Y-130750530D02*
X78475921Y-130798149D01*
X78523540Y-130941006D01*
X78523540Y-131036244D01*
X78475921Y-131179101D01*
X78380683Y-131274339D01*
X78285445Y-131321958D01*
X78094969Y-131369577D01*
X77952112Y-131369577D01*
X77761636Y-131321958D01*
X77666398Y-131274339D01*
X77571160Y-131179101D01*
X77523540Y-131036244D01*
X77523540Y-130941006D01*
X77571160Y-130798149D01*
X77618779Y-130750530D01*
X78523540Y-129798149D02*
X78523540Y-130369577D01*
X78523540Y-130083863D02*
X77523540Y-130083863D01*
X77666398Y-130179101D01*
X77761636Y-130274339D01*
X77809255Y-130369577D01*
X77523540Y-129179101D02*
X77523540Y-129083863D01*
X77571160Y-128988625D01*
X77618779Y-128941006D01*
X77714017Y-128893387D01*
X77904493Y-128845768D01*
X78142588Y-128845768D01*
X78333064Y-128893387D01*
X78428302Y-128941006D01*
X78475921Y-128988625D01*
X78523540Y-129083863D01*
X78523540Y-129179101D01*
X78475921Y-129274339D01*
X78428302Y-129321958D01*
X78333064Y-129369577D01*
X78142588Y-129417196D01*
X77904493Y-129417196D01*
X77714017Y-129369577D01*
X77618779Y-129321958D01*
X77571160Y-129274339D01*
X77523540Y-129179101D01*
%TO.C,R22*%
X84833125Y-95710053D02*
X84499792Y-95233863D01*
X84261697Y-95710053D02*
X84261697Y-94710053D01*
X84642649Y-94710053D01*
X84737887Y-94757673D01*
X84785506Y-94805292D01*
X84833125Y-94900530D01*
X84833125Y-95043387D01*
X84785506Y-95138625D01*
X84737887Y-95186244D01*
X84642649Y-95233863D01*
X84261697Y-95233863D01*
X85214078Y-94805292D02*
X85261697Y-94757673D01*
X85356935Y-94710053D01*
X85595030Y-94710053D01*
X85690268Y-94757673D01*
X85737887Y-94805292D01*
X85785506Y-94900530D01*
X85785506Y-94995768D01*
X85737887Y-95138625D01*
X85166459Y-95710053D01*
X85785506Y-95710053D01*
X86166459Y-94805292D02*
X86214078Y-94757673D01*
X86309316Y-94710053D01*
X86547411Y-94710053D01*
X86642649Y-94757673D01*
X86690268Y-94805292D01*
X86737887Y-94900530D01*
X86737887Y-94995768D01*
X86690268Y-95138625D01*
X86118840Y-95710053D01*
X86737887Y-95710053D01*
%TO.C,D3*%
X76912887Y-141710053D02*
X76912887Y-140710053D01*
X77150983Y-140710053D01*
X77293840Y-140757673D01*
X77389078Y-140852911D01*
X77436697Y-140948149D01*
X77484316Y-141138625D01*
X77484316Y-141281482D01*
X77436697Y-141471958D01*
X77389078Y-141567196D01*
X77293840Y-141662434D01*
X77150983Y-141710053D01*
X76912887Y-141710053D01*
X77817649Y-140710053D02*
X78436697Y-140710053D01*
X78103363Y-141091006D01*
X78246221Y-141091006D01*
X78341459Y-141138625D01*
X78389078Y-141186244D01*
X78436697Y-141281482D01*
X78436697Y-141519577D01*
X78389078Y-141614815D01*
X78341459Y-141662434D01*
X78246221Y-141710053D01*
X77960506Y-141710053D01*
X77865268Y-141662434D01*
X77817649Y-141614815D01*
%TO.C,U6*%
X121514703Y-73254579D02*
X122324227Y-73254579D01*
X122419465Y-73206960D01*
X122467084Y-73159341D01*
X122514703Y-73064103D01*
X122514703Y-72873627D01*
X122467084Y-72778389D01*
X122419465Y-72730770D01*
X122324227Y-72683151D01*
X121514703Y-72683151D01*
X121514703Y-71778389D02*
X121514703Y-71968865D01*
X121562323Y-72064103D01*
X121609942Y-72111722D01*
X121752799Y-72206960D01*
X121943275Y-72254579D01*
X122324227Y-72254579D01*
X122419465Y-72206960D01*
X122467084Y-72159341D01*
X122514703Y-72064103D01*
X122514703Y-71873627D01*
X122467084Y-71778389D01*
X122419465Y-71730770D01*
X122324227Y-71683151D01*
X122086132Y-71683151D01*
X121990894Y-71730770D01*
X121943275Y-71778389D01*
X121895656Y-71873627D01*
X121895656Y-72064103D01*
X121943275Y-72159341D01*
X121990894Y-72206960D01*
X122086132Y-72254579D01*
%TO.C,C1*%
X112294467Y-50134341D02*
X112342086Y-50181960D01*
X112389705Y-50324817D01*
X112389705Y-50420055D01*
X112342086Y-50562913D01*
X112246848Y-50658151D01*
X112151610Y-50705770D01*
X111961134Y-50753389D01*
X111818277Y-50753389D01*
X111627801Y-50705770D01*
X111532563Y-50658151D01*
X111437325Y-50562913D01*
X111389705Y-50420055D01*
X111389705Y-50324817D01*
X111437325Y-50181960D01*
X111484944Y-50134341D01*
X112389705Y-49181960D02*
X112389705Y-49753389D01*
X112389705Y-49467675D02*
X111389705Y-49467675D01*
X111532563Y-49562913D01*
X111627801Y-49658151D01*
X111675420Y-49753389D01*
%TO.C,L1*%
X120770654Y-89857555D02*
X120294463Y-89857555D01*
X120294463Y-88857555D01*
X121627797Y-89857555D02*
X121056368Y-89857555D01*
X121342082Y-89857555D02*
X121342082Y-88857555D01*
X121246844Y-89000413D01*
X121151606Y-89095651D01*
X121056368Y-89143270D01*
%TO.C,R16*%
X96058128Y-115053222D02*
X95724795Y-114577032D01*
X95486700Y-115053222D02*
X95486700Y-114053222D01*
X95867652Y-114053222D01*
X95962890Y-114100842D01*
X96010509Y-114148461D01*
X96058128Y-114243699D01*
X96058128Y-114386556D01*
X96010509Y-114481794D01*
X95962890Y-114529413D01*
X95867652Y-114577032D01*
X95486700Y-114577032D01*
X97010509Y-115053222D02*
X96439081Y-115053222D01*
X96724795Y-115053222D02*
X96724795Y-114053222D01*
X96629557Y-114196080D01*
X96534319Y-114291318D01*
X96439081Y-114338937D01*
X97867652Y-114053222D02*
X97677176Y-114053222D01*
X97581938Y-114100842D01*
X97534319Y-114148461D01*
X97439081Y-114291318D01*
X97391462Y-114481794D01*
X97391462Y-114862746D01*
X97439081Y-114957984D01*
X97486700Y-115005603D01*
X97581938Y-115053222D01*
X97772414Y-115053222D01*
X97867652Y-115005603D01*
X97915271Y-114957984D01*
X97962890Y-114862746D01*
X97962890Y-114624651D01*
X97915271Y-114529413D01*
X97867652Y-114481794D01*
X97772414Y-114434175D01*
X97581938Y-114434175D01*
X97486700Y-114481794D01*
X97439081Y-114529413D01*
X97391462Y-114624651D01*
%TO.C,R10*%
X91633127Y-109735053D02*
X91299794Y-109258863D01*
X91061699Y-109735053D02*
X91061699Y-108735053D01*
X91442651Y-108735053D01*
X91537889Y-108782673D01*
X91585508Y-108830292D01*
X91633127Y-108925530D01*
X91633127Y-109068387D01*
X91585508Y-109163625D01*
X91537889Y-109211244D01*
X91442651Y-109258863D01*
X91061699Y-109258863D01*
X92585508Y-109735053D02*
X92014080Y-109735053D01*
X92299794Y-109735053D02*
X92299794Y-108735053D01*
X92204556Y-108877911D01*
X92109318Y-108973149D01*
X92014080Y-109020768D01*
X93204556Y-108735053D02*
X93299794Y-108735053D01*
X93395032Y-108782673D01*
X93442651Y-108830292D01*
X93490270Y-108925530D01*
X93537889Y-109116006D01*
X93537889Y-109354101D01*
X93490270Y-109544577D01*
X93442651Y-109639815D01*
X93395032Y-109687434D01*
X93299794Y-109735053D01*
X93204556Y-109735053D01*
X93109318Y-109687434D01*
X93061699Y-109639815D01*
X93014080Y-109544577D01*
X92966461Y-109354101D01*
X92966461Y-109116006D01*
X93014080Y-108925530D01*
X93061699Y-108830292D01*
X93109318Y-108782673D01*
X93204556Y-108735053D01*
%TO.C,D2*%
X116876550Y-95782551D02*
X116876550Y-94782551D01*
X117114646Y-94782551D01*
X117257503Y-94830171D01*
X117352741Y-94925409D01*
X117400360Y-95020647D01*
X117447979Y-95211123D01*
X117447979Y-95353980D01*
X117400360Y-95544456D01*
X117352741Y-95639694D01*
X117257503Y-95734932D01*
X117114646Y-95782551D01*
X116876550Y-95782551D01*
X117828931Y-94877790D02*
X117876550Y-94830171D01*
X117971788Y-94782551D01*
X118209884Y-94782551D01*
X118305122Y-94830171D01*
X118352741Y-94877790D01*
X118400360Y-94973028D01*
X118400360Y-95068266D01*
X118352741Y-95211123D01*
X117781312Y-95782551D01*
X118400360Y-95782551D01*
%TO.C,U4*%
X125159942Y-59803091D02*
X124350418Y-59803091D01*
X124255180Y-59850710D01*
X124207561Y-59898329D01*
X124159942Y-59993567D01*
X124159942Y-60184043D01*
X124207561Y-60279281D01*
X124255180Y-60326900D01*
X124350418Y-60374519D01*
X125159942Y-60374519D01*
X124826608Y-61279281D02*
X124159942Y-61279281D01*
X125207561Y-61041186D02*
X124493275Y-60803091D01*
X124493275Y-61422138D01*
%TO.C,Q1*%
X84557943Y-66713028D02*
X84510266Y-66808384D01*
X84414910Y-66903740D01*
X84271876Y-67046774D01*
X84224198Y-67142129D01*
X84224198Y-67237485D01*
X84462588Y-67189807D02*
X84414910Y-67285163D01*
X84319554Y-67380519D01*
X84128842Y-67428197D01*
X83795097Y-67428197D01*
X83604385Y-67380519D01*
X83509030Y-67285163D01*
X83461352Y-67189807D01*
X83461352Y-66999096D01*
X83509030Y-66903740D01*
X83604385Y-66808384D01*
X83795097Y-66760706D01*
X84128842Y-66760706D01*
X84319554Y-66808384D01*
X84414910Y-66903740D01*
X84462588Y-66999096D01*
X84462588Y-67189807D01*
X84462588Y-65807148D02*
X84462588Y-66379283D01*
X84462588Y-66093216D02*
X83461352Y-66093216D01*
X83604385Y-66188571D01*
X83699741Y-66283927D01*
X83747419Y-66379283D01*
%TO.C,R8*%
X117447978Y-94282551D02*
X117114645Y-93806361D01*
X116876549Y-94282551D02*
X116876549Y-93282551D01*
X117257502Y-93282551D01*
X117352740Y-93330171D01*
X117400359Y-93377790D01*
X117447978Y-93473028D01*
X117447978Y-93615885D01*
X117400359Y-93711123D01*
X117352740Y-93758742D01*
X117257502Y-93806361D01*
X116876549Y-93806361D01*
X118019406Y-93711123D02*
X117924168Y-93663504D01*
X117876549Y-93615885D01*
X117828930Y-93520647D01*
X117828930Y-93473028D01*
X117876549Y-93377790D01*
X117924168Y-93330171D01*
X118019406Y-93282551D01*
X118209883Y-93282551D01*
X118305121Y-93330171D01*
X118352740Y-93377790D01*
X118400359Y-93473028D01*
X118400359Y-93520647D01*
X118352740Y-93615885D01*
X118305121Y-93663504D01*
X118209883Y-93711123D01*
X118019406Y-93711123D01*
X117924168Y-93758742D01*
X117876549Y-93806361D01*
X117828930Y-93901599D01*
X117828930Y-94092075D01*
X117876549Y-94187313D01*
X117924168Y-94234932D01*
X118019406Y-94282551D01*
X118209883Y-94282551D01*
X118305121Y-94234932D01*
X118352740Y-94187313D01*
X118400359Y-94092075D01*
X118400359Y-93901599D01*
X118352740Y-93806361D01*
X118305121Y-93758742D01*
X118209883Y-93711123D01*
%TO.C,C9*%
X92467541Y-130074519D02*
X92515160Y-130122138D01*
X92562779Y-130264995D01*
X92562779Y-130360233D01*
X92515160Y-130503091D01*
X92419922Y-130598329D01*
X92324684Y-130645948D01*
X92134208Y-130693567D01*
X91991351Y-130693567D01*
X91800875Y-130645948D01*
X91705637Y-130598329D01*
X91610399Y-130503091D01*
X91562779Y-130360233D01*
X91562779Y-130264995D01*
X91610399Y-130122138D01*
X91658018Y-130074519D01*
X92562779Y-129598329D02*
X92562779Y-129407853D01*
X92515160Y-129312614D01*
X92467541Y-129264995D01*
X92324684Y-129169757D01*
X92134208Y-129122138D01*
X91753256Y-129122138D01*
X91658018Y-129169757D01*
X91610399Y-129217376D01*
X91562779Y-129312614D01*
X91562779Y-129503091D01*
X91610399Y-129598329D01*
X91658018Y-129645948D01*
X91753256Y-129693567D01*
X91991351Y-129693567D01*
X92086589Y-129645948D01*
X92134208Y-129598329D01*
X92181827Y-129503091D01*
X92181827Y-129312614D01*
X92134208Y-129217376D01*
X92086589Y-129169757D01*
X91991351Y-129122138D01*
%TO.C,R14*%
X96058127Y-121219891D02*
X95724794Y-120743701D01*
X95486699Y-121219891D02*
X95486699Y-120219891D01*
X95867651Y-120219891D01*
X95962889Y-120267511D01*
X96010508Y-120315130D01*
X96058127Y-120410368D01*
X96058127Y-120553225D01*
X96010508Y-120648463D01*
X95962889Y-120696082D01*
X95867651Y-120743701D01*
X95486699Y-120743701D01*
X97010508Y-121219891D02*
X96439080Y-121219891D01*
X96724794Y-121219891D02*
X96724794Y-120219891D01*
X96629556Y-120362749D01*
X96534318Y-120457987D01*
X96439080Y-120505606D01*
X97867651Y-120553225D02*
X97867651Y-121219891D01*
X97629556Y-120172272D02*
X97391461Y-120886558D01*
X98010508Y-120886558D01*
%TO.C,C6*%
X117794463Y-90571841D02*
X117842082Y-90619460D01*
X117889701Y-90762317D01*
X117889701Y-90857555D01*
X117842082Y-91000413D01*
X117746844Y-91095651D01*
X117651606Y-91143270D01*
X117461130Y-91190889D01*
X117318273Y-91190889D01*
X117127797Y-91143270D01*
X117032559Y-91095651D01*
X116937321Y-91000413D01*
X116889701Y-90857555D01*
X116889701Y-90762317D01*
X116937321Y-90619460D01*
X116984940Y-90571841D01*
X116889701Y-89714698D02*
X116889701Y-89905175D01*
X116937321Y-90000413D01*
X116984940Y-90048032D01*
X117127797Y-90143270D01*
X117318273Y-90190889D01*
X117699225Y-90190889D01*
X117794463Y-90143270D01*
X117842082Y-90095651D01*
X117889701Y-90000413D01*
X117889701Y-89809936D01*
X117842082Y-89714698D01*
X117794463Y-89667079D01*
X117699225Y-89619460D01*
X117461130Y-89619460D01*
X117365892Y-89667079D01*
X117318273Y-89714698D01*
X117270654Y-89809936D01*
X117270654Y-90000413D01*
X117318273Y-90095651D01*
X117365892Y-90143270D01*
X117461130Y-90190889D01*
%TO.C,R6*%
X163584320Y-142520055D02*
X163250987Y-142043865D01*
X163012891Y-142520055D02*
X163012891Y-141520055D01*
X163393844Y-141520055D01*
X163489082Y-141567675D01*
X163536701Y-141615294D01*
X163584320Y-141710532D01*
X163584320Y-141853389D01*
X163536701Y-141948627D01*
X163489082Y-141996246D01*
X163393844Y-142043865D01*
X163012891Y-142043865D01*
X164441463Y-141520055D02*
X164250987Y-141520055D01*
X164155748Y-141567675D01*
X164108129Y-141615294D01*
X164012891Y-141758151D01*
X163965272Y-141948627D01*
X163965272Y-142329579D01*
X164012891Y-142424817D01*
X164060510Y-142472436D01*
X164155748Y-142520055D01*
X164346225Y-142520055D01*
X164441463Y-142472436D01*
X164489082Y-142424817D01*
X164536701Y-142329579D01*
X164536701Y-142091484D01*
X164489082Y-141996246D01*
X164441463Y-141948627D01*
X164346225Y-141901008D01*
X164155748Y-141901008D01*
X164060510Y-141948627D01*
X164012891Y-141996246D01*
X163965272Y-142091484D01*
%TO.C,Q2*%
X101755744Y-86205292D02*
X101660506Y-86157673D01*
X101565268Y-86062434D01*
X101422411Y-85919577D01*
X101327173Y-85871958D01*
X101231935Y-85871958D01*
X101279554Y-86110053D02*
X101184316Y-86062434D01*
X101089078Y-85967196D01*
X101041459Y-85776720D01*
X101041459Y-85443387D01*
X101089078Y-85252911D01*
X101184316Y-85157673D01*
X101279554Y-85110053D01*
X101470030Y-85110053D01*
X101565268Y-85157673D01*
X101660506Y-85252911D01*
X101708125Y-85443387D01*
X101708125Y-85776720D01*
X101660506Y-85967196D01*
X101565268Y-86062434D01*
X101470030Y-86110053D01*
X101279554Y-86110053D01*
X102089078Y-85205292D02*
X102136697Y-85157673D01*
X102231935Y-85110053D01*
X102470030Y-85110053D01*
X102565268Y-85157673D01*
X102612887Y-85205292D01*
X102660506Y-85300530D01*
X102660506Y-85395768D01*
X102612887Y-85538625D01*
X102041459Y-86110053D01*
X102660506Y-86110053D01*
%TO.C,R18*%
X76608125Y-140110053D02*
X76274792Y-139633863D01*
X76036697Y-140110053D02*
X76036697Y-139110053D01*
X76417649Y-139110053D01*
X76512887Y-139157673D01*
X76560506Y-139205292D01*
X76608125Y-139300530D01*
X76608125Y-139443387D01*
X76560506Y-139538625D01*
X76512887Y-139586244D01*
X76417649Y-139633863D01*
X76036697Y-139633863D01*
X77560506Y-140110053D02*
X76989078Y-140110053D01*
X77274792Y-140110053D02*
X77274792Y-139110053D01*
X77179554Y-139252911D01*
X77084316Y-139348149D01*
X76989078Y-139395768D01*
X78131935Y-139538625D02*
X78036697Y-139491006D01*
X77989078Y-139443387D01*
X77941459Y-139348149D01*
X77941459Y-139300530D01*
X77989078Y-139205292D01*
X78036697Y-139157673D01*
X78131935Y-139110053D01*
X78322411Y-139110053D01*
X78417649Y-139157673D01*
X78465268Y-139205292D01*
X78512887Y-139300530D01*
X78512887Y-139348149D01*
X78465268Y-139443387D01*
X78417649Y-139491006D01*
X78322411Y-139538625D01*
X78131935Y-139538625D01*
X78036697Y-139586244D01*
X77989078Y-139633863D01*
X77941459Y-139729101D01*
X77941459Y-139919577D01*
X77989078Y-140014815D01*
X78036697Y-140062434D01*
X78131935Y-140110053D01*
X78322411Y-140110053D01*
X78417649Y-140062434D01*
X78465268Y-140014815D01*
X78512887Y-139919577D01*
X78512887Y-139729101D01*
X78465268Y-139633863D01*
X78417649Y-139586244D01*
X78322411Y-139538625D01*
%TO.C,C5*%
X113294463Y-90571841D02*
X113342082Y-90619460D01*
X113389701Y-90762317D01*
X113389701Y-90857555D01*
X113342082Y-91000413D01*
X113246844Y-91095651D01*
X113151606Y-91143270D01*
X112961130Y-91190889D01*
X112818273Y-91190889D01*
X112627797Y-91143270D01*
X112532559Y-91095651D01*
X112437321Y-91000413D01*
X112389701Y-90857555D01*
X112389701Y-90762317D01*
X112437321Y-90619460D01*
X112484940Y-90571841D01*
X112389701Y-89667079D02*
X112389701Y-90143270D01*
X112865892Y-90190889D01*
X112818273Y-90143270D01*
X112770654Y-90048032D01*
X112770654Y-89809936D01*
X112818273Y-89714698D01*
X112865892Y-89667079D01*
X112961130Y-89619460D01*
X113199225Y-89619460D01*
X113294463Y-89667079D01*
X113342082Y-89714698D01*
X113389701Y-89809936D01*
X113389701Y-90048032D01*
X113342082Y-90143270D01*
X113294463Y-90190889D01*
%TO.C,SW4*%
X162340394Y-144688123D02*
X162483493Y-144735822D01*
X162721991Y-144735822D01*
X162817391Y-144688123D01*
X162865090Y-144640423D01*
X162912790Y-144545024D01*
X162912790Y-144449624D01*
X162865090Y-144354225D01*
X162817391Y-144306525D01*
X162721991Y-144258826D01*
X162531193Y-144211126D01*
X162435793Y-144163426D01*
X162388094Y-144115727D01*
X162340394Y-144020327D01*
X162340394Y-143924928D01*
X162388094Y-143829529D01*
X162435793Y-143781829D01*
X162531193Y-143734129D01*
X162769691Y-143734129D01*
X162912790Y-143781829D01*
X163246688Y-143734129D02*
X163485186Y-144735822D01*
X163675985Y-144020327D01*
X163866783Y-144735822D01*
X164105282Y-143734129D01*
X164916176Y-144068027D02*
X164916176Y-144735822D01*
X164677678Y-143686430D02*
X164439179Y-144401925D01*
X165059275Y-144401925D01*
%TO.C,C11*%
X97184288Y-84439818D02*
X97136669Y-84487437D01*
X96993812Y-84535056D01*
X96898574Y-84535056D01*
X96755717Y-84487437D01*
X96660479Y-84392199D01*
X96612860Y-84296961D01*
X96565241Y-84106485D01*
X96565241Y-83963628D01*
X96612860Y-83773152D01*
X96660479Y-83677914D01*
X96755717Y-83582676D01*
X96898574Y-83535056D01*
X96993812Y-83535056D01*
X97136669Y-83582676D01*
X97184288Y-83630295D01*
X98136669Y-84535056D02*
X97565241Y-84535056D01*
X97850955Y-84535056D02*
X97850955Y-83535056D01*
X97755717Y-83677914D01*
X97660479Y-83773152D01*
X97565241Y-83820771D01*
X99089050Y-84535056D02*
X98517622Y-84535056D01*
X98803336Y-84535056D02*
X98803336Y-83535056D01*
X98708098Y-83677914D01*
X98612860Y-83773152D01*
X98517622Y-83820771D01*
%TO.C,R4*%
X78523540Y-133274339D02*
X78047350Y-133607673D01*
X78523540Y-133845768D02*
X77523540Y-133845768D01*
X77523540Y-133464815D01*
X77571160Y-133369577D01*
X77618779Y-133321958D01*
X77714017Y-133274339D01*
X77856874Y-133274339D01*
X77952112Y-133321958D01*
X77999731Y-133369577D01*
X78047350Y-133464815D01*
X78047350Y-133845768D01*
X77856874Y-132417196D02*
X78523540Y-132417196D01*
X77475921Y-132655292D02*
X78190207Y-132893387D01*
X78190207Y-132274339D01*
%TO.C,U3*%
X92503363Y-91094580D02*
X93312887Y-91094580D01*
X93408125Y-91046961D01*
X93455744Y-90999342D01*
X93503363Y-90904104D01*
X93503363Y-90713628D01*
X93455744Y-90618390D01*
X93408125Y-90570771D01*
X93312887Y-90523152D01*
X92503363Y-90523152D01*
X92503363Y-90142199D02*
X92503363Y-89523152D01*
X92884316Y-89856485D01*
X92884316Y-89713628D01*
X92931935Y-89618390D01*
X92979554Y-89570771D01*
X93074792Y-89523152D01*
X93312887Y-89523152D01*
X93408125Y-89570771D01*
X93455744Y-89618390D01*
X93503363Y-89713628D01*
X93503363Y-89999342D01*
X93455744Y-90094580D01*
X93408125Y-90142199D01*
%TO.C,C3*%
X124705074Y-85712317D02*
X124657455Y-85759936D01*
X124514598Y-85807555D01*
X124419360Y-85807555D01*
X124276502Y-85759936D01*
X124181264Y-85664698D01*
X124133645Y-85569460D01*
X124086026Y-85378984D01*
X124086026Y-85236127D01*
X124133645Y-85045651D01*
X124181264Y-84950413D01*
X124276502Y-84855175D01*
X124419360Y-84807555D01*
X124514598Y-84807555D01*
X124657455Y-84855175D01*
X124705074Y-84902794D01*
X125038407Y-84807555D02*
X125657455Y-84807555D01*
X125324121Y-85188508D01*
X125466979Y-85188508D01*
X125562217Y-85236127D01*
X125609836Y-85283746D01*
X125657455Y-85378984D01*
X125657455Y-85617079D01*
X125609836Y-85712317D01*
X125562217Y-85759936D01*
X125466979Y-85807555D01*
X125181264Y-85807555D01*
X125086026Y-85759936D01*
X125038407Y-85712317D01*
%TO.C,D1*%
X91039705Y-49208449D02*
X90039705Y-49208449D01*
X90039705Y-48970354D01*
X90087325Y-48827496D01*
X90182563Y-48732258D01*
X90277801Y-48684639D01*
X90468277Y-48637020D01*
X90611134Y-48637020D01*
X90801610Y-48684639D01*
X90896848Y-48732258D01*
X90992086Y-48827496D01*
X91039705Y-48970354D01*
X91039705Y-49208449D01*
X91039705Y-47684639D02*
X91039705Y-48256068D01*
X91039705Y-47970354D02*
X90039705Y-47970354D01*
X90182563Y-48065592D01*
X90277801Y-48160830D01*
X90325420Y-48256068D01*
%TO.C,Q3*%
X104998602Y-93752911D02*
X104950983Y-93848149D01*
X104855744Y-93943387D01*
X104712887Y-94086244D01*
X104665268Y-94181482D01*
X104665268Y-94276720D01*
X104903363Y-94229101D02*
X104855744Y-94324339D01*
X104760506Y-94419577D01*
X104570030Y-94467196D01*
X104236697Y-94467196D01*
X104046221Y-94419577D01*
X103950983Y-94324339D01*
X103903363Y-94229101D01*
X103903363Y-94038625D01*
X103950983Y-93943387D01*
X104046221Y-93848149D01*
X104236697Y-93800530D01*
X104570030Y-93800530D01*
X104760506Y-93848149D01*
X104855744Y-93943387D01*
X104903363Y-94038625D01*
X104903363Y-94229101D01*
X103903363Y-93467196D02*
X103903363Y-92848149D01*
X104284316Y-93181482D01*
X104284316Y-93038625D01*
X104331935Y-92943387D01*
X104379554Y-92895768D01*
X104474792Y-92848149D01*
X104712887Y-92848149D01*
X104808125Y-92895768D01*
X104855744Y-92943387D01*
X104903363Y-93038625D01*
X104903363Y-93324339D01*
X104855744Y-93419577D01*
X104808125Y-93467196D01*
%TO.C,SW2*%
X87881390Y-132843279D02*
X87929085Y-132700195D01*
X87929085Y-132461721D01*
X87881390Y-132366331D01*
X87833696Y-132318636D01*
X87738306Y-132270941D01*
X87642916Y-132270941D01*
X87547527Y-132318636D01*
X87499832Y-132366331D01*
X87452137Y-132461721D01*
X87404442Y-132652500D01*
X87356747Y-132747890D01*
X87309053Y-132795584D01*
X87213663Y-132843279D01*
X87118273Y-132843279D01*
X87022884Y-132795584D01*
X86975189Y-132747890D01*
X86927494Y-132652500D01*
X86927494Y-132414026D01*
X86975189Y-132270941D01*
X86927494Y-131937078D02*
X87929085Y-131698604D01*
X87213663Y-131507825D01*
X87929085Y-131317045D01*
X86927494Y-131078571D01*
X87022884Y-130744708D02*
X86975189Y-130697013D01*
X86927494Y-130601623D01*
X86927494Y-130363149D01*
X86975189Y-130267759D01*
X87022884Y-130220065D01*
X87118273Y-130172370D01*
X87213663Y-130172370D01*
X87356747Y-130220065D01*
X87929085Y-130792402D01*
X87929085Y-130172370D01*
%TO.C,R13*%
X96058127Y-118053223D02*
X95724794Y-117577033D01*
X95486699Y-118053223D02*
X95486699Y-117053223D01*
X95867651Y-117053223D01*
X95962889Y-117100843D01*
X96010508Y-117148462D01*
X96058127Y-117243700D01*
X96058127Y-117386557D01*
X96010508Y-117481795D01*
X95962889Y-117529414D01*
X95867651Y-117577033D01*
X95486699Y-117577033D01*
X97010508Y-118053223D02*
X96439080Y-118053223D01*
X96724794Y-118053223D02*
X96724794Y-117053223D01*
X96629556Y-117196081D01*
X96534318Y-117291319D01*
X96439080Y-117338938D01*
X97343842Y-117053223D02*
X97962889Y-117053223D01*
X97629556Y-117434176D01*
X97772413Y-117434176D01*
X97867651Y-117481795D01*
X97915270Y-117529414D01*
X97962889Y-117624652D01*
X97962889Y-117862747D01*
X97915270Y-117957985D01*
X97867651Y-118005604D01*
X97772413Y-118053223D01*
X97486699Y-118053223D01*
X97391461Y-118005604D01*
X97343842Y-117957985D01*
%TO.C,R19*%
X98473363Y-91300530D02*
X97997173Y-91633863D01*
X98473363Y-91871958D02*
X97473363Y-91871958D01*
X97473363Y-91491006D01*
X97520983Y-91395768D01*
X97568602Y-91348149D01*
X97663840Y-91300530D01*
X97806697Y-91300530D01*
X97901935Y-91348149D01*
X97949554Y-91395768D01*
X97997173Y-91491006D01*
X97997173Y-91871958D01*
X98473363Y-90348149D02*
X98473363Y-90919577D01*
X98473363Y-90633863D02*
X97473363Y-90633863D01*
X97616221Y-90729101D01*
X97711459Y-90824339D01*
X97759078Y-90919577D01*
X98473363Y-89871958D02*
X98473363Y-89681482D01*
X98425744Y-89586244D01*
X98378125Y-89538625D01*
X98235268Y-89443387D01*
X98044792Y-89395768D01*
X97663840Y-89395768D01*
X97568602Y-89443387D01*
X97520983Y-89491006D01*
X97473363Y-89586244D01*
X97473363Y-89776720D01*
X97520983Y-89871958D01*
X97568602Y-89919577D01*
X97663840Y-89967196D01*
X97901935Y-89967196D01*
X97997173Y-89919577D01*
X98044792Y-89871958D01*
X98092411Y-89776720D01*
X98092411Y-89586244D01*
X98044792Y-89491006D01*
X97997173Y-89443387D01*
X97901935Y-89395768D01*
%TO.C,R20*%
X106133363Y-91100530D02*
X105657173Y-91433863D01*
X106133363Y-91671958D02*
X105133363Y-91671958D01*
X105133363Y-91291006D01*
X105180983Y-91195768D01*
X105228602Y-91148149D01*
X105323840Y-91100530D01*
X105466697Y-91100530D01*
X105561935Y-91148149D01*
X105609554Y-91195768D01*
X105657173Y-91291006D01*
X105657173Y-91671958D01*
X105228602Y-90719577D02*
X105180983Y-90671958D01*
X105133363Y-90576720D01*
X105133363Y-90338625D01*
X105180983Y-90243387D01*
X105228602Y-90195768D01*
X105323840Y-90148149D01*
X105419078Y-90148149D01*
X105561935Y-90195768D01*
X106133363Y-90767196D01*
X106133363Y-90148149D01*
X105133363Y-89529101D02*
X105133363Y-89433863D01*
X105180983Y-89338625D01*
X105228602Y-89291006D01*
X105323840Y-89243387D01*
X105514316Y-89195768D01*
X105752411Y-89195768D01*
X105942887Y-89243387D01*
X106038125Y-89291006D01*
X106085744Y-89338625D01*
X106133363Y-89433863D01*
X106133363Y-89529101D01*
X106085744Y-89624339D01*
X106038125Y-89671958D01*
X105942887Y-89719577D01*
X105752411Y-89767196D01*
X105514316Y-89767196D01*
X105323840Y-89719577D01*
X105228602Y-89671958D01*
X105180983Y-89624339D01*
X105133363Y-89529101D01*
%TO.C,R7*%
X176584322Y-142520055D02*
X176250989Y-142043865D01*
X176012893Y-142520055D02*
X176012893Y-141520055D01*
X176393846Y-141520055D01*
X176489084Y-141567675D01*
X176536703Y-141615294D01*
X176584322Y-141710532D01*
X176584322Y-141853389D01*
X176536703Y-141948627D01*
X176489084Y-141996246D01*
X176393846Y-142043865D01*
X176012893Y-142043865D01*
X176917655Y-141520055D02*
X177584322Y-141520055D01*
X177155750Y-142520055D01*
%TO.C,J4*%
X77029526Y-90766009D02*
X77743812Y-90766009D01*
X77886669Y-90813628D01*
X77981907Y-90908866D01*
X78029526Y-91051723D01*
X78029526Y-91146961D01*
X77362860Y-89861247D02*
X78029526Y-89861247D01*
X76981907Y-90099342D02*
X77696193Y-90337437D01*
X77696193Y-89718390D01*
%TO.C,C7*%
X75434318Y-133014813D02*
X75386699Y-133062432D01*
X75243842Y-133110051D01*
X75148604Y-133110051D01*
X75005746Y-133062432D01*
X74910508Y-132967194D01*
X74862889Y-132871956D01*
X74815270Y-132681480D01*
X74815270Y-132538623D01*
X74862889Y-132348147D01*
X74910508Y-132252909D01*
X75005746Y-132157671D01*
X75148604Y-132110051D01*
X75243842Y-132110051D01*
X75386699Y-132157671D01*
X75434318Y-132205290D01*
X75767651Y-132110051D02*
X76434318Y-132110051D01*
X76005746Y-133110051D01*
%TO.C,U5*%
X121250418Y-47977378D02*
X121250418Y-48786902D01*
X121298037Y-48882140D01*
X121345656Y-48929759D01*
X121440894Y-48977378D01*
X121631370Y-48977378D01*
X121726608Y-48929759D01*
X121774227Y-48882140D01*
X121821846Y-48786902D01*
X121821846Y-47977378D01*
X122774227Y-47977378D02*
X122298037Y-47977378D01*
X122250418Y-48453569D01*
X122298037Y-48405950D01*
X122393275Y-48358331D01*
X122631370Y-48358331D01*
X122726608Y-48405950D01*
X122774227Y-48453569D01*
X122821846Y-48548807D01*
X122821846Y-48786902D01*
X122774227Y-48882140D01*
X122726608Y-48929759D01*
X122631370Y-48977378D01*
X122393275Y-48977378D01*
X122298037Y-48929759D01*
X122250418Y-48882140D01*
%TO.C,R15*%
X96058127Y-124053222D02*
X95724794Y-123577032D01*
X95486699Y-124053222D02*
X95486699Y-123053222D01*
X95867651Y-123053222D01*
X95962889Y-123100842D01*
X96010508Y-123148461D01*
X96058127Y-123243699D01*
X96058127Y-123386556D01*
X96010508Y-123481794D01*
X95962889Y-123529413D01*
X95867651Y-123577032D01*
X95486699Y-123577032D01*
X97010508Y-124053222D02*
X96439080Y-124053222D01*
X96724794Y-124053222D02*
X96724794Y-123053222D01*
X96629556Y-123196080D01*
X96534318Y-123291318D01*
X96439080Y-123338937D01*
X97915270Y-123053222D02*
X97439080Y-123053222D01*
X97391461Y-123529413D01*
X97439080Y-123481794D01*
X97534318Y-123434175D01*
X97772413Y-123434175D01*
X97867651Y-123481794D01*
X97915270Y-123529413D01*
X97962889Y-123624651D01*
X97962889Y-123862746D01*
X97915270Y-123957984D01*
X97867651Y-124005603D01*
X97772413Y-124053222D01*
X97534318Y-124053222D01*
X97439080Y-124005603D01*
X97391461Y-123957984D01*
%TO.C,R1*%
X95009315Y-61285056D02*
X94675982Y-60808866D01*
X94437886Y-61285056D02*
X94437886Y-60285056D01*
X94818839Y-60285056D01*
X94914077Y-60332676D01*
X94961696Y-60380295D01*
X95009315Y-60475533D01*
X95009315Y-60618390D01*
X94961696Y-60713628D01*
X94914077Y-60761247D01*
X94818839Y-60808866D01*
X94437886Y-60808866D01*
X95961696Y-61285056D02*
X95390267Y-61285056D01*
X95675982Y-61285056D02*
X95675982Y-60285056D01*
X95580743Y-60427914D01*
X95485505Y-60523152D01*
X95390267Y-60570771D01*
%TO.C,R17*%
X95403363Y-69675530D02*
X94927173Y-70008863D01*
X95403363Y-70246958D02*
X94403363Y-70246958D01*
X94403363Y-69866006D01*
X94450983Y-69770768D01*
X94498602Y-69723149D01*
X94593840Y-69675530D01*
X94736697Y-69675530D01*
X94831935Y-69723149D01*
X94879554Y-69770768D01*
X94927173Y-69866006D01*
X94927173Y-70246958D01*
X95403363Y-68723149D02*
X95403363Y-69294577D01*
X95403363Y-69008863D02*
X94403363Y-69008863D01*
X94546221Y-69104101D01*
X94641459Y-69199339D01*
X94689078Y-69294577D01*
X94403363Y-68389815D02*
X94403363Y-67723149D01*
X95403363Y-68151720D01*
%TO.C,R2*%
X116570654Y-79857555D02*
X116237321Y-79381365D01*
X115999225Y-79857555D02*
X115999225Y-78857555D01*
X116380178Y-78857555D01*
X116475416Y-78905175D01*
X116523035Y-78952794D01*
X116570654Y-79048032D01*
X116570654Y-79190889D01*
X116523035Y-79286127D01*
X116475416Y-79333746D01*
X116380178Y-79381365D01*
X115999225Y-79381365D01*
X116951606Y-78952794D02*
X116999225Y-78905175D01*
X117094463Y-78857555D01*
X117332559Y-78857555D01*
X117427797Y-78905175D01*
X117475416Y-78952794D01*
X117523035Y-79048032D01*
X117523035Y-79143270D01*
X117475416Y-79286127D01*
X116903987Y-79857555D01*
X117523035Y-79857555D01*
%TO.C,R9*%
X92496438Y-133474339D02*
X92020248Y-133807673D01*
X92496438Y-134045768D02*
X91496438Y-134045768D01*
X91496438Y-133664815D01*
X91544058Y-133569577D01*
X91591677Y-133521958D01*
X91686915Y-133474339D01*
X91829772Y-133474339D01*
X91925010Y-133521958D01*
X91972629Y-133569577D01*
X92020248Y-133664815D01*
X92020248Y-134045768D01*
X92496438Y-132998149D02*
X92496438Y-132807673D01*
X92448819Y-132712434D01*
X92401200Y-132664815D01*
X92258343Y-132569577D01*
X92067867Y-132521958D01*
X91686915Y-132521958D01*
X91591677Y-132569577D01*
X91544058Y-132617196D01*
X91496438Y-132712434D01*
X91496438Y-132902911D01*
X91544058Y-132998149D01*
X91591677Y-133045768D01*
X91686915Y-133093387D01*
X91925010Y-133093387D01*
X92020248Y-133045768D01*
X92067867Y-132998149D01*
X92115486Y-132902911D01*
X92115486Y-132712434D01*
X92067867Y-132617196D01*
X92020248Y-132569577D01*
X91925010Y-132521958D01*
%TO.C,C4*%
X116044463Y-84071841D02*
X116092082Y-84119460D01*
X116139701Y-84262317D01*
X116139701Y-84357555D01*
X116092082Y-84500413D01*
X115996844Y-84595651D01*
X115901606Y-84643270D01*
X115711130Y-84690889D01*
X115568273Y-84690889D01*
X115377797Y-84643270D01*
X115282559Y-84595651D01*
X115187321Y-84500413D01*
X115139701Y-84357555D01*
X115139701Y-84262317D01*
X115187321Y-84119460D01*
X115234940Y-84071841D01*
X115473035Y-83214698D02*
X116139701Y-83214698D01*
X115092082Y-83452794D02*
X115806368Y-83690889D01*
X115806368Y-83071841D01*
%TO.C,R12*%
X93903363Y-69675530D02*
X93427173Y-70008863D01*
X93903363Y-70246958D02*
X92903363Y-70246958D01*
X92903363Y-69866006D01*
X92950983Y-69770768D01*
X92998602Y-69723149D01*
X93093840Y-69675530D01*
X93236697Y-69675530D01*
X93331935Y-69723149D01*
X93379554Y-69770768D01*
X93427173Y-69866006D01*
X93427173Y-70246958D01*
X93903363Y-68723149D02*
X93903363Y-69294577D01*
X93903363Y-69008863D02*
X92903363Y-69008863D01*
X93046221Y-69104101D01*
X93141459Y-69199339D01*
X93189078Y-69294577D01*
X92998602Y-68342196D02*
X92950983Y-68294577D01*
X92903363Y-68199339D01*
X92903363Y-67961244D01*
X92950983Y-67866006D01*
X92998602Y-67818387D01*
X93093840Y-67770768D01*
X93189078Y-67770768D01*
X93331935Y-67818387D01*
X93903363Y-68389815D01*
X93903363Y-67770768D01*
%TO.C,SW1*%
X149480394Y-144688123D02*
X149623493Y-144735822D01*
X149861991Y-144735822D01*
X149957391Y-144688123D01*
X150005090Y-144640423D01*
X150052790Y-144545024D01*
X150052790Y-144449624D01*
X150005090Y-144354225D01*
X149957391Y-144306525D01*
X149861991Y-144258826D01*
X149671193Y-144211126D01*
X149575793Y-144163426D01*
X149528094Y-144115727D01*
X149480394Y-144020327D01*
X149480394Y-143924928D01*
X149528094Y-143829529D01*
X149575793Y-143781829D01*
X149671193Y-143734129D01*
X149909691Y-143734129D01*
X150052790Y-143781829D01*
X150386688Y-143734129D02*
X150625186Y-144735822D01*
X150815985Y-144020327D01*
X151006783Y-144735822D01*
X151245282Y-143734129D01*
X152151575Y-144735822D02*
X151579179Y-144735822D01*
X151865377Y-144735822D02*
X151865377Y-143734129D01*
X151769978Y-143877228D01*
X151674579Y-143972628D01*
X151579179Y-144020327D01*
%TO.C,C12*%
X124244467Y-81062317D02*
X124196848Y-81109936D01*
X124053991Y-81157555D01*
X123958753Y-81157555D01*
X123815896Y-81109936D01*
X123720658Y-81014698D01*
X123673039Y-80919460D01*
X123625420Y-80728984D01*
X123625420Y-80586127D01*
X123673039Y-80395651D01*
X123720658Y-80300413D01*
X123815896Y-80205175D01*
X123958753Y-80157555D01*
X124053991Y-80157555D01*
X124196848Y-80205175D01*
X124244467Y-80252794D01*
X125196848Y-81157555D02*
X124625420Y-81157555D01*
X124911134Y-81157555D02*
X124911134Y-80157555D01*
X124815896Y-80300413D01*
X124720658Y-80395651D01*
X124625420Y-80443270D01*
X125577801Y-80252794D02*
X125625420Y-80205175D01*
X125720658Y-80157555D01*
X125958753Y-80157555D01*
X126053991Y-80205175D01*
X126101610Y-80252794D01*
X126149229Y-80348032D01*
X126149229Y-80443270D01*
X126101610Y-80586127D01*
X125530182Y-81157555D01*
X126149229Y-81157555D01*
D15*
%TO.C,J1*%
X82300983Y-69332676D02*
X82300983Y-57332676D01*
X82300983Y-57332676D02*
X74050983Y-57332676D01*
X82300983Y-69332676D02*
X74050983Y-69332676D01*
D16*
%TO.C,PS1*%
X132175987Y-98114996D02*
X132175987Y-47514996D01*
X223525987Y-47514996D02*
X223525987Y-98114996D01*
X134175987Y-45514996D02*
X221525987Y-45514996D01*
X221525987Y-100114996D02*
X134175987Y-100114996D01*
X223525987Y-47514996D02*
G75*
G03*
X221525987Y-45514996I-1999999J1D01*
G01*
X221525987Y-100114996D02*
G75*
G03*
X223525987Y-98114996I1J1999999D01*
G01*
X134175987Y-45514996D02*
G75*
G03*
X132175987Y-47514996I0J-2000000D01*
G01*
X132175987Y-98114996D02*
G75*
G03*
X134175987Y-100114996I2000000J0D01*
G01*
D15*
%TO.C,R11*%
X88663727Y-107980173D02*
X89138243Y-107980173D01*
X88663727Y-106935173D02*
X89138243Y-106935173D01*
%TO.C,RV1*%
X203713126Y-102992677D02*
X215711518Y-102992677D01*
X203713126Y-108992677D02*
X215711518Y-108992677D01*
X215711518Y-108992677D02*
G75*
G03*
X215711518Y-102992677I-1248694J3000000D01*
G01*
X203713126Y-102992677D02*
G75*
G03*
X203713126Y-108992677I1248694J-3000000D01*
G01*
D17*
%TO.C,SW3*%
X84171159Y-130264997D02*
X84171159Y-132764997D01*
X83071159Y-133614997D02*
X82071159Y-133614997D01*
X80971159Y-130264997D02*
X80971159Y-132764997D01*
X83071159Y-129414997D02*
X82071159Y-129414997D01*
X83832962Y-128614997D02*
G75*
G03*
X83832962Y-128614997I-111803J0D01*
G01*
X83771159Y-128664997D02*
G75*
G03*
X83771159Y-128664997I-50000J0D01*
G01*
D15*
%TO.C,R21*%
X85089888Y-88327673D02*
X85564404Y-88327673D01*
X85089888Y-87282673D02*
X85564404Y-87282673D01*
%TO.C,C2*%
X101995692Y-53353675D02*
X98732692Y-53353675D01*
X106714692Y-54713675D02*
X104477692Y-54713675D01*
X101995692Y-52993675D02*
X98562692Y-52993675D01*
X107225692Y-54153675D02*
X104477692Y-54153675D01*
X108004692Y-52753675D02*
X104477692Y-52753675D01*
X105525692Y-55553675D02*
X100947692Y-55553675D01*
X101995692Y-54233675D02*
X99311692Y-54233675D01*
X104746692Y-55873675D02*
X101726692Y-55873675D01*
X108298692Y-51432675D02*
X98174692Y-51432675D01*
X101995692Y-52473675D02*
X98374692Y-52473675D01*
X108098692Y-52473675D02*
X104477692Y-52473675D01*
X108143692Y-52313675D02*
X104477692Y-52313675D01*
X105273692Y-55673675D02*
X101199692Y-55673675D01*
X105082692Y-55753675D02*
X101390692Y-55753675D01*
X101995692Y-54593675D02*
X99635692Y-54593675D01*
X107402692Y-53913675D02*
X104477692Y-53913675D01*
X108306692Y-51312675D02*
X98166692Y-51312675D01*
X101995692Y-52593675D02*
X98412692Y-52593675D01*
X101995692Y-54113675D02*
X99216692Y-54113675D01*
X106442692Y-54953675D02*
X100030692Y-54953675D01*
X107457692Y-53833675D02*
X104477692Y-53833675D01*
X101995692Y-53073675D02*
X98597692Y-53073675D01*
X101995692Y-53953675D02*
X99098692Y-53953675D01*
X105675692Y-55473675D02*
X100797692Y-55473675D01*
X108086692Y-52513675D02*
X104477692Y-52513675D01*
X107839692Y-53153675D02*
X104477692Y-53153675D01*
X108316692Y-51032675D02*
X98156692Y-51032675D01*
X107857692Y-53113675D02*
X104477692Y-53113675D01*
X106111692Y-45513029D02*
X106111692Y-46513029D01*
X107910692Y-52993675D02*
X104477692Y-52993675D01*
X104466692Y-55953675D02*
X102006692Y-55953675D01*
X107430692Y-53873675D02*
X104477692Y-53873675D01*
X106628692Y-54793675D02*
X99844692Y-54793675D01*
X101995692Y-52513675D02*
X98386692Y-52513675D01*
X107959692Y-52873675D02*
X104477692Y-52873675D01*
X108233692Y-51913675D02*
X98239692Y-51913675D01*
X108201692Y-52073675D02*
X98271692Y-52073675D01*
X104614692Y-55913675D02*
X101858692Y-55913675D01*
X106756692Y-54673675D02*
X104477692Y-54673675D01*
X107761692Y-53313675D02*
X104477692Y-53313675D01*
X108266692Y-51713675D02*
X98206692Y-51713675D01*
X101995692Y-52673675D02*
X98439692Y-52673675D01*
X101995692Y-54313675D02*
X99378692Y-54313675D01*
X108183692Y-52153675D02*
X98289692Y-52153675D01*
X101995692Y-53153675D02*
X98633692Y-53153675D01*
X107025692Y-54393675D02*
X104477692Y-54393675D01*
X101995692Y-54433675D02*
X99483692Y-54433675D01*
X104978692Y-55793675D02*
X101494692Y-55793675D01*
X106006692Y-55273675D02*
X100466692Y-55273675D01*
X101995692Y-52273675D02*
X98318692Y-52273675D01*
X108226692Y-51953675D02*
X98246692Y-51953675D01*
X105361692Y-55633675D02*
X101111692Y-55633675D01*
X107256692Y-54113675D02*
X104477692Y-54113675D01*
X107990692Y-52793675D02*
X104477692Y-52793675D01*
X101995692Y-52753675D02*
X98468692Y-52753675D01*
X101995692Y-53393675D02*
X98753692Y-53393675D01*
X101995692Y-53193675D02*
X98652692Y-53193675D01*
X106915692Y-54513675D02*
X104477692Y-54513675D01*
X108276692Y-51632675D02*
X98196692Y-51632675D01*
X105945692Y-55313675D02*
X100527692Y-55313675D01*
X107509692Y-53753675D02*
X104477692Y-53753675D01*
X104866692Y-55833675D02*
X101606692Y-55833675D01*
X108294692Y-51472675D02*
X98178692Y-51472675D01*
X106236692Y-55113675D02*
X100236692Y-55113675D01*
X108073692Y-52553675D02*
X104477692Y-52553675D01*
X107193692Y-54193675D02*
X104477692Y-54193675D01*
X105881692Y-55353675D02*
X100591692Y-55353675D01*
X107559692Y-53673675D02*
X104477692Y-53673675D01*
X108174692Y-52193675D02*
X98298692Y-52193675D01*
X101995692Y-52913675D02*
X98529692Y-52913675D01*
X107374692Y-53953675D02*
X104477692Y-53953675D01*
X108316692Y-51072675D02*
X98156692Y-51072675D01*
X101995692Y-52873675D02*
X98513692Y-52873675D01*
X106672692Y-54753675D02*
X99800692Y-54753675D01*
X101995692Y-52713675D02*
X98453692Y-52713675D01*
X108218692Y-51993675D02*
X98254692Y-51993675D01*
X101995692Y-53833675D02*
X99015692Y-53833675D01*
X108247692Y-51833675D02*
X98225692Y-51833675D01*
X101995692Y-53873675D02*
X99042692Y-53873675D01*
X106125692Y-55193675D02*
X100347692Y-55193675D01*
X107653692Y-53513675D02*
X104477692Y-53513675D01*
X106797692Y-54633675D02*
X104477692Y-54633675D01*
X107128692Y-54273675D02*
X104477692Y-54273675D01*
X108315692Y-51112675D02*
X98157692Y-51112675D01*
X104298692Y-55993675D02*
X102174692Y-55993675D01*
X108260692Y-51753675D02*
X98212692Y-51753675D01*
X101995692Y-53993675D02*
X99126692Y-53993675D01*
X107286692Y-54073675D02*
X104477692Y-54073675D01*
X101995692Y-54033675D02*
X99156692Y-54033675D01*
X101995692Y-53233675D02*
X98672692Y-53233675D01*
X101995692Y-52433675D02*
X98362692Y-52433675D01*
X101995692Y-54713675D02*
X99758692Y-54713675D01*
X108254692Y-51793675D02*
X98218692Y-51793675D01*
X101995692Y-52313675D02*
X98329692Y-52313675D01*
X103835692Y-56073675D02*
X102637692Y-56073675D01*
X107676692Y-53473675D02*
X104477692Y-53473675D01*
X107943692Y-52913675D02*
X104477692Y-52913675D01*
X107483692Y-53793675D02*
X104477692Y-53793675D01*
X101995692Y-53673675D02*
X98913692Y-53673675D01*
X107800692Y-53233675D02*
X104477692Y-53233675D01*
X101995692Y-54673675D02*
X99716692Y-54673675D01*
X107346692Y-53993675D02*
X104477692Y-53993675D01*
X106290692Y-55073675D02*
X100182692Y-55073675D01*
X107719692Y-53393675D02*
X104477692Y-53393675D01*
X107631692Y-53553675D02*
X104477692Y-53553675D01*
X105601692Y-55513675D02*
X100871692Y-55513675D01*
X106181692Y-55153675D02*
X100291692Y-55153675D01*
X101995692Y-53113675D02*
X98615692Y-53113675D01*
X101995692Y-52833675D02*
X98498692Y-52833675D01*
X101995692Y-52793675D02*
X98482692Y-52793675D01*
X106989692Y-54433675D02*
X104477692Y-54433675D01*
X106876692Y-54553675D02*
X104477692Y-54553675D01*
X107607692Y-53593675D02*
X104477692Y-53593675D01*
X101995692Y-54553675D02*
X99596692Y-54553675D01*
X101995692Y-53273675D02*
X98691692Y-53273675D01*
X108164692Y-52233675D02*
X98308692Y-52233675D01*
X107820692Y-53193675D02*
X104477692Y-53193675D01*
X108314692Y-51152675D02*
X98158692Y-51152675D01*
X106611692Y-46013029D02*
X105611692Y-46013029D01*
X101995692Y-54393675D02*
X99447692Y-54393675D01*
X105815692Y-55393675D02*
X100657692Y-55393675D01*
X108154692Y-52273675D02*
X104477692Y-52273675D01*
X108311692Y-51232675D02*
X98161692Y-51232675D01*
X101995692Y-53433675D02*
X98774692Y-53433675D01*
X101995692Y-52953675D02*
X98546692Y-52953675D01*
X101995692Y-54193675D02*
X99279692Y-54193675D01*
X106342692Y-55033675D02*
X100130692Y-55033675D01*
X108301692Y-51392675D02*
X98171692Y-51392675D01*
X101995692Y-52633675D02*
X98425692Y-52633675D01*
X107583692Y-53633675D02*
X104477692Y-53633675D01*
X105746692Y-55433675D02*
X100726692Y-55433675D01*
X101995692Y-53553675D02*
X98841692Y-53553675D01*
X108309692Y-51272675D02*
X98163692Y-51272675D01*
X107060692Y-54353675D02*
X104477692Y-54353675D01*
X106537692Y-54873675D02*
X99935692Y-54873675D01*
X106490692Y-54913675D02*
X99982692Y-54913675D01*
X101995692Y-53753675D02*
X98963692Y-53753675D01*
X101995692Y-54353675D02*
X99412692Y-54353675D01*
X107781692Y-53273675D02*
X104477692Y-53273675D01*
X101995692Y-54073675D02*
X99186692Y-54073675D01*
X108210692Y-52033675D02*
X98262692Y-52033675D01*
X107161692Y-54233675D02*
X104477692Y-54233675D01*
X108060692Y-52593675D02*
X104477692Y-52593675D01*
X106583692Y-54833675D02*
X99889692Y-54833675D01*
X101995692Y-52393675D02*
X98351692Y-52393675D01*
X107974692Y-52833675D02*
X104477692Y-52833675D01*
X101995692Y-53473675D02*
X98796692Y-53473675D01*
X107094692Y-54313675D02*
X104477692Y-54313675D01*
X101995692Y-54513675D02*
X99557692Y-54513675D01*
X107893692Y-53033675D02*
X104477692Y-53033675D01*
X101995692Y-52553675D02*
X98399692Y-52553675D01*
X108019692Y-52713675D02*
X104477692Y-52713675D01*
X101995692Y-53513675D02*
X98819692Y-53513675D01*
X108290692Y-51512675D02*
X98182692Y-51512675D01*
X108192692Y-52113675D02*
X98280692Y-52113675D01*
X101995692Y-54473675D02*
X99520692Y-54473675D01*
X108313692Y-51192675D02*
X98159692Y-51192675D01*
X108110692Y-52433675D02*
X104477692Y-52433675D01*
X108240692Y-51873675D02*
X98232692Y-51873675D01*
X105445692Y-55593675D02*
X101027692Y-55593675D01*
X101995692Y-54273675D02*
X99344692Y-54273675D01*
X101995692Y-53793675D02*
X98989692Y-53793675D01*
X108047692Y-52633675D02*
X104477692Y-52633675D01*
X107740692Y-53353675D02*
X104477692Y-53353675D01*
X101995692Y-52353675D02*
X98339692Y-52353675D01*
X108271692Y-51672675D02*
X98201692Y-51672675D01*
X106952692Y-54473675D02*
X104477692Y-54473675D01*
X107534692Y-53713675D02*
X104477692Y-53713675D01*
X101995692Y-54153675D02*
X99247692Y-54153675D01*
X101995692Y-54633675D02*
X99675692Y-54633675D01*
X107875692Y-53073675D02*
X104477692Y-53073675D01*
X101995692Y-53313675D02*
X98711692Y-53313675D01*
X106392692Y-54993675D02*
X100080692Y-54993675D01*
X108286692Y-51552675D02*
X98186692Y-51552675D01*
X108304692Y-51352675D02*
X98168692Y-51352675D01*
X105180692Y-55713675D02*
X101292692Y-55713675D01*
X108033692Y-52673675D02*
X104477692Y-52673675D01*
X106837692Y-54593675D02*
X104477692Y-54593675D01*
X108133692Y-52353675D02*
X104477692Y-52353675D01*
X104098692Y-56033675D02*
X102374692Y-56033675D01*
X108121692Y-52393675D02*
X104477692Y-52393675D01*
X107926692Y-52953675D02*
X104477692Y-52953675D01*
X107316692Y-54033675D02*
X104477692Y-54033675D01*
X106066692Y-55233675D02*
X100406692Y-55233675D01*
X101995692Y-53033675D02*
X98579692Y-53033675D01*
X101995692Y-53633675D02*
X98889692Y-53633675D01*
X107698692Y-53433675D02*
X104477692Y-53433675D01*
X101995692Y-53713675D02*
X98938692Y-53713675D01*
X101995692Y-53913675D02*
X99070692Y-53913675D01*
X101995692Y-53593675D02*
X98865692Y-53593675D01*
X108316692Y-50992675D02*
X98156692Y-50992675D01*
X108281692Y-51592675D02*
X98191692Y-51592675D01*
X108356692Y-50992675D02*
G75*
G03*
X108356692Y-50992675I-5120000J0D01*
G01*
%TO.C,U1*%
X68492322Y-110882676D02*
X73092322Y-110882676D01*
X68492322Y-126282676D02*
X68492322Y-110882676D01*
X88492322Y-110882676D02*
X88492322Y-126282676D01*
X88642322Y-126432676D02*
X87592322Y-126432676D01*
X68342322Y-111782676D02*
X68342322Y-110732676D01*
X88492322Y-126282676D02*
X73092322Y-126282676D01*
X73092322Y-110882676D02*
X88492322Y-110882676D01*
X68342322Y-110732676D02*
X69392322Y-110732676D01*
X68492322Y-126282676D02*
X73092322Y-126282676D01*
X68342322Y-125382676D02*
X68342322Y-126582676D01*
X88642322Y-125382676D02*
X88642322Y-126432676D01*
X88642322Y-111782676D02*
X88642322Y-110732676D01*
X88642322Y-110732676D02*
X87592322Y-110732676D01*
%TO.C,C8*%
X75765404Y-127322673D02*
X75484244Y-127322673D01*
X75765404Y-128342673D02*
X75484244Y-128342673D01*
%TO.C,R3*%
X121325067Y-81327673D02*
X121799583Y-81327673D01*
X121325067Y-80282673D02*
X121799583Y-80282673D01*
%TO.C,R5*%
X150988245Y-139795175D02*
X150513729Y-139795175D01*
X150988245Y-140840175D02*
X150513729Y-140840175D01*
%TO.C,TH3*%
X92275985Y-121082673D02*
X93675985Y-121082673D01*
X93675985Y-123082673D02*
X92275985Y-123082673D01*
X94375985Y-121782673D02*
X94375985Y-122382673D01*
X91575985Y-122382673D02*
X91575985Y-121782673D01*
X94375985Y-121782673D02*
G75*
G03*
X93675985Y-121082673I-700000J0D01*
G01*
X92275985Y-121082673D02*
G75*
G03*
X91575985Y-121782673I-1J-699999D01*
G01*
X91575985Y-122382673D02*
G75*
G03*
X92275985Y-123082673I699999J-1D01*
G01*
X93675985Y-123082673D02*
G75*
G03*
X94375985Y-122382673I0J700000D01*
G01*
D17*
%TO.C,SW5*%
X178430985Y-147482494D02*
X174920985Y-147482494D01*
X180230985Y-142487494D02*
X180230985Y-147482494D01*
X174920985Y-151337494D02*
X178430985Y-151337494D01*
X173120985Y-147482494D02*
X173120985Y-142502494D01*
X174920985Y-147482494D02*
X174920985Y-151337494D01*
X173095985Y-138977494D02*
X180255985Y-138977494D01*
X174920985Y-147482494D02*
X173120985Y-147482494D01*
X180230985Y-147482494D02*
X178430985Y-147482494D01*
X178430985Y-151337494D02*
X178430985Y-147482494D01*
D15*
%TO.C,C10*%
X80081160Y-130155577D02*
X80081160Y-129874417D01*
X79061160Y-130155577D02*
X79061160Y-129874417D01*
%TO.C,R22*%
X85089888Y-93327673D02*
X85564404Y-93327673D01*
X85089888Y-92282673D02*
X85564404Y-92282673D01*
%TO.C,D3*%
X81535983Y-140522673D02*
X79250983Y-140522673D01*
X81535983Y-141992673D02*
X81535983Y-140522673D01*
X79250983Y-141992673D02*
X81535983Y-141992673D01*
%TO.C,U6*%
X117062323Y-70492675D02*
X127062323Y-70492675D01*
X127062323Y-70492675D02*
X127062323Y-74492675D01*
X127062323Y-74492675D02*
X117062323Y-74492675D01*
X117062323Y-74492675D02*
X117062323Y-70492675D01*
%TO.C,C1*%
X112797325Y-49256423D02*
X112797325Y-50678927D01*
X110977325Y-49256423D02*
X110977325Y-50678927D01*
%TO.C,R16*%
X96993238Y-112560173D02*
X96518722Y-112560173D01*
X96993238Y-113605173D02*
X96518722Y-113605173D01*
%TO.C,TH1*%
X92275985Y-115082673D02*
X93675985Y-115082673D01*
X93675985Y-117082673D02*
X92275985Y-117082673D01*
X94375985Y-115782673D02*
X94375985Y-116382673D01*
X91575985Y-116382673D02*
X91575985Y-115782673D01*
X94375985Y-115782673D02*
G75*
G03*
X93675985Y-115082673I-700000J0D01*
G01*
X92275985Y-115082673D02*
G75*
G03*
X91575985Y-115782673I-1J-699999D01*
G01*
X91575985Y-116382673D02*
G75*
G03*
X92275985Y-117082673I699999J-1D01*
G01*
X93675985Y-117082673D02*
G75*
G03*
X94375985Y-116382673I0J700000D01*
G01*
%TO.C,R10*%
X89138243Y-108645174D02*
X88663727Y-108645174D01*
X89138243Y-109690174D02*
X88663727Y-109690174D01*
%TO.C,D2*%
X113629646Y-96065171D02*
X115914646Y-96065171D01*
X113629646Y-94595171D02*
X113629646Y-96065171D01*
X115914646Y-94595171D02*
X113629646Y-94595171D01*
%TO.C,U4*%
X126562323Y-55564996D02*
X122562323Y-55564996D01*
X122562323Y-55564996D02*
X122562323Y-65564996D01*
X122562323Y-65564996D02*
X126562323Y-65564996D01*
X126562323Y-65564996D02*
X126562323Y-55564996D01*
D17*
%TO.C,Q1*%
X89125985Y-67547673D02*
X89125985Y-65687673D01*
X85125985Y-65687673D02*
X85125985Y-67547673D01*
D18*
X85585985Y-68217673D02*
G75*
G03*
X85585985Y-68217673I-60000J0D01*
G01*
D15*
%TO.C,R8*%
X115331903Y-93032673D02*
X114857387Y-93032673D01*
X115331903Y-94077673D02*
X114857387Y-94077673D01*
%TO.C,C9*%
X90902326Y-130105909D02*
X90902326Y-129824749D01*
X89882326Y-130105909D02*
X89882326Y-129824749D01*
%TO.C,R14*%
X96993237Y-118560174D02*
X96518721Y-118560174D01*
X96993237Y-119605174D02*
X96518721Y-119605174D01*
%TO.C,C6*%
X115427321Y-90239595D02*
X115427321Y-90520755D01*
X116447321Y-90239595D02*
X116447321Y-90520755D01*
%TO.C,R6*%
X163988245Y-139795175D02*
X163513729Y-139795175D01*
X163988245Y-140840175D02*
X163513729Y-140840175D01*
%TO.C,Q2*%
X100290983Y-88257673D02*
X100290983Y-87607673D01*
X103410983Y-88257673D02*
X103410983Y-87607673D01*
X100290983Y-88257673D02*
X100290983Y-89932673D01*
X103410983Y-88257673D02*
X103410983Y-88907673D01*
%TO.C,R18*%
X80288241Y-139135173D02*
X79813725Y-139135173D01*
X80288241Y-140180173D02*
X79813725Y-140180173D01*
%TO.C,J2*%
X102310980Y-99099995D02*
X102310980Y-109319995D01*
X99650980Y-96499995D02*
X100980980Y-96499995D01*
X99650980Y-99099995D02*
X99650980Y-109319995D01*
X99650980Y-109319995D02*
X102310980Y-109319995D01*
X99650980Y-99099995D02*
X102310980Y-99099995D01*
X99650980Y-97829995D02*
X99650980Y-96499995D01*
%TO.C,D4*%
X83892321Y-89682676D02*
X83892321Y-90982676D01*
X87012321Y-90982676D02*
X87012321Y-88982676D01*
%TO.C,C5*%
X113759645Y-90239597D02*
X113759645Y-90520757D01*
X114779645Y-90239597D02*
X114779645Y-90520757D01*
D17*
%TO.C,SW4*%
X165430985Y-147482494D02*
X161920985Y-147482494D01*
X167230985Y-142487494D02*
X167230985Y-147482494D01*
X161920985Y-151337494D02*
X165430985Y-151337494D01*
X160120985Y-147482494D02*
X160120985Y-142502494D01*
X161920985Y-147482494D02*
X161920985Y-151337494D01*
X160095985Y-138977494D02*
X167255985Y-138977494D01*
X161920985Y-147482494D02*
X160120985Y-147482494D01*
X167230985Y-147482494D02*
X165430985Y-147482494D01*
X165430985Y-151337494D02*
X165430985Y-147482494D01*
D15*
%TO.C,C11*%
X94891563Y-83572676D02*
X94610403Y-83572676D01*
X94891563Y-84592676D02*
X94610403Y-84592676D01*
%TO.C,R4*%
X80093660Y-133252255D02*
X80093660Y-132777739D01*
X79048660Y-133252255D02*
X79048660Y-132777739D01*
%TO.C,U3*%
X93050983Y-95392676D02*
X91100983Y-95392676D01*
X93050983Y-85272676D02*
X95000983Y-85272676D01*
X93050983Y-95392676D02*
X95000983Y-95392676D01*
X93050983Y-85272676D02*
X89600983Y-85272676D01*
%TO.C,C3*%
X125152901Y-83345175D02*
X124871741Y-83345175D01*
X125152901Y-84365175D02*
X124871741Y-84365175D01*
%TO.C,D1*%
X94137325Y-50642675D02*
X88437325Y-50642675D01*
X94137325Y-50642675D02*
X94137325Y-46342675D01*
X94137325Y-46342675D02*
X88437325Y-46342675D01*
%TO.C,TH2*%
X92275985Y-118082674D02*
X93675985Y-118082674D01*
X93675985Y-120082674D02*
X92275985Y-120082674D01*
X94375985Y-118782674D02*
X94375985Y-119382674D01*
X91575985Y-119382674D02*
X91575985Y-118782674D01*
X94375985Y-118782674D02*
G75*
G03*
X93675985Y-118082674I-700000J0D01*
G01*
X92275985Y-118082674D02*
G75*
G03*
X91575985Y-118782674I-1J-699999D01*
G01*
X91575985Y-119382674D02*
G75*
G03*
X92275985Y-120082674I699999J-1D01*
G01*
X93675985Y-120082674D02*
G75*
G03*
X94375985Y-119382674I0J700000D01*
G01*
%TO.C,Q3*%
X103410983Y-92657673D02*
X103410983Y-93307673D01*
X100290983Y-92657673D02*
X100290983Y-93307673D01*
X103410983Y-92657673D02*
X103410983Y-90982673D01*
X100290983Y-92657673D02*
X100290983Y-92007673D01*
D17*
%TO.C,SW2*%
X89075985Y-130257825D02*
X89075985Y-132757825D01*
X87975985Y-133607825D02*
X86975985Y-133607825D01*
X85875985Y-130257825D02*
X85875985Y-132757825D01*
X87975985Y-129407825D02*
X86975985Y-129407825D01*
X88737788Y-128607825D02*
G75*
G03*
X88737788Y-128607825I-111803J0D01*
G01*
X88675985Y-128657825D02*
G75*
G03*
X88675985Y-128657825I-50000J0D01*
G01*
D15*
%TO.C,R13*%
X96993237Y-115560174D02*
X96518721Y-115560174D01*
X96993237Y-116605174D02*
X96518721Y-116605174D01*
%TO.C,TH4*%
X92275985Y-112082673D02*
X93675985Y-112082673D01*
X93675985Y-114082673D02*
X92275985Y-114082673D01*
X94375985Y-112782673D02*
X94375985Y-113382673D01*
X91575985Y-113382673D02*
X91575985Y-112782673D01*
X94375985Y-112782673D02*
G75*
G03*
X93675985Y-112082673I-700000J0D01*
G01*
X92275985Y-112082673D02*
G75*
G03*
X91575985Y-112782673I-1J-699999D01*
G01*
X91575985Y-113382673D02*
G75*
G03*
X92275985Y-114082673I699999J-1D01*
G01*
X93675985Y-114082673D02*
G75*
G03*
X94375985Y-113382673I0J700000D01*
G01*
%TO.C,R19*%
X99973483Y-90894931D02*
X99973483Y-90420415D01*
X98928483Y-90894931D02*
X98928483Y-90420415D01*
%TO.C,R20*%
X103728483Y-90220415D02*
X103728483Y-90694931D01*
X104773483Y-90220415D02*
X104773483Y-90694931D01*
%TO.C,R7*%
X176988247Y-139795175D02*
X176513731Y-139795175D01*
X176988247Y-140840175D02*
X176513731Y-140840175D01*
%TO.C,J4*%
X79292321Y-95132676D02*
X77292321Y-95132676D01*
X75392321Y-85732676D02*
X73492321Y-85732676D01*
X79292321Y-85732676D02*
X77292321Y-85732676D01*
X75392321Y-95132676D02*
X73492321Y-95132676D01*
X73492321Y-85732676D02*
X73492321Y-95132676D01*
%TO.C,U2*%
X122072321Y-82295173D02*
X122547321Y-82295173D01*
X119327321Y-82295173D02*
X119327321Y-82770173D01*
X122072321Y-85515173D02*
X122547321Y-85515173D01*
X119802321Y-82295173D02*
X119327321Y-82295173D01*
X119802321Y-85515173D02*
X119327321Y-85515173D01*
X122547321Y-82295173D02*
X122547321Y-82770173D01*
X119327321Y-85515173D02*
X119327321Y-85040173D01*
%TO.C,F1*%
X221187321Y-118492677D02*
X198687321Y-118492677D01*
X198687321Y-118492677D02*
X198687321Y-112492677D01*
X198687321Y-112492677D02*
X221187321Y-112492677D01*
X221187321Y-112492677D02*
X221187321Y-118492677D01*
X213937321Y-115492677D02*
G75*
G03*
X209937321Y-115492677I-2000000J-3586154D01*
G01*
X205937321Y-115492677D02*
G75*
G03*
X209937321Y-115492677I2000000J3586154D01*
G01*
%TO.C,C7*%
X75484244Y-130092673D02*
X75765404Y-130092673D01*
X75484244Y-129072673D02*
X75765404Y-129072673D01*
%TO.C,U5*%
X117062323Y-46492675D02*
X127062323Y-46492675D01*
X127062323Y-46492675D02*
X127062323Y-50492675D01*
X127062323Y-50492675D02*
X117062323Y-50492675D01*
X117062323Y-50492675D02*
X117062323Y-46492675D01*
%TO.C,R15*%
X96993237Y-121560173D02*
X96518721Y-121560173D01*
X96993237Y-122605173D02*
X96518721Y-122605173D01*
%TO.C,R1*%
X93548918Y-62192676D02*
X96603046Y-62192676D01*
X93548918Y-59472676D02*
X96603046Y-59472676D01*
%TO.C,R17*%
X89928483Y-68795415D02*
X89928483Y-69269931D01*
X90973483Y-68795415D02*
X90973483Y-69269931D01*
%TO.C,R2*%
X118325065Y-81327673D02*
X118799581Y-81327673D01*
X118325065Y-80282673D02*
X118799581Y-80282673D01*
%TO.C,R9*%
X90914826Y-133202587D02*
X90914826Y-132728071D01*
X89869826Y-133202587D02*
X89869826Y-132728071D01*
%TO.C,C4*%
X116677321Y-83764595D02*
X116677321Y-84045755D01*
X117697321Y-83764595D02*
X117697321Y-84045755D01*
%TO.C,R12*%
X92473483Y-69269931D02*
X92473483Y-68795415D01*
X91428483Y-69269931D02*
X91428483Y-68795415D01*
%TO.C,J5*%
X101100983Y-136014994D02*
X109100983Y-136014994D01*
X110100983Y-137014994D02*
X110100983Y-143014994D01*
X100100983Y-149014994D02*
X140850983Y-149014994D01*
X109100983Y-136014994D02*
X110100983Y-137014994D01*
X100100983Y-149014994D02*
X100100983Y-137014994D01*
X110100983Y-143014994D02*
X111100983Y-144014994D01*
X100100983Y-137014994D02*
X101100983Y-136014994D01*
X111100983Y-144014994D02*
X140850983Y-144014994D01*
X140850983Y-144014994D02*
X140850983Y-149014994D01*
D17*
%TO.C,SW1*%
X152430985Y-147482494D02*
X148920985Y-147482494D01*
X154230985Y-142487494D02*
X154230985Y-147482494D01*
X148920985Y-151337494D02*
X152430985Y-151337494D01*
X147120985Y-147482494D02*
X147120985Y-142502494D01*
X148920985Y-147482494D02*
X148920985Y-151337494D01*
X147095985Y-138977494D02*
X154255985Y-138977494D01*
X148920985Y-147482494D02*
X147120985Y-147482494D01*
X154230985Y-147482494D02*
X152430985Y-147482494D01*
X152430985Y-151337494D02*
X152430985Y-147482494D01*
D15*
%TO.C,C12*%
X125152901Y-81695175D02*
X124871741Y-81695175D01*
X125152901Y-82715175D02*
X124871741Y-82715175D01*
%TD*%
M02*
