%TF.GenerationSoftware,KiCad,Pcbnew,(6.0.4)*%
%TF.CreationDate,2022-11-13T14:24:48+02:00*%
%TF.ProjectId,pcb_heater_driver,7063625f-6865-4617-9465-725f64726976,rev?*%
%TF.SameCoordinates,Original*%
%TF.FileFunction,Copper,L1,Top*%
%TF.FilePolarity,Positive*%
%FSLAX46Y46*%
G04 Gerber Fmt 4.6, Leading zero omitted, Abs format (unit mm)*
G04 Created by KiCad (PCBNEW (6.0.4)) date 2022-11-13 14:24:48*
%MOMM*%
%LPD*%
G01*
G04 APERTURE LIST*
G04 Aperture macros list*
%AMRoundRect*
0 Rectangle with rounded corners*
0 $1 Rounding radius*
0 $2 $3 $4 $5 $6 $7 $8 $9 X,Y pos of 4 corners*
0 Add a 4 corners polygon primitive as box body*
4,1,4,$2,$3,$4,$5,$6,$7,$8,$9,$2,$3,0*
0 Add four circle primitives for the rounded corners*
1,1,$1+$1,$2,$3*
1,1,$1+$1,$4,$5*
1,1,$1+$1,$6,$7*
1,1,$1+$1,$8,$9*
0 Add four rect primitives between the rounded corners*
20,1,$1+$1,$2,$3,$4,$5,0*
20,1,$1+$1,$4,$5,$6,$7,0*
20,1,$1+$1,$6,$7,$8,$9,0*
20,1,$1+$1,$8,$9,$2,$3,0*%
%AMFreePoly0*
4,1,6,0.600000,-0.600000,-0.600000,-0.600000,-0.600000,0.000000,0.000000,0.600000,0.600000,0.600000,0.600000,-0.600000,0.600000,-0.600000,$1*%
%AMFreePoly1*
4,1,21,1.545000,0.775000,0.925000,0.775000,0.925000,0.525000,1.545000,0.525000,1.545000,0.125000,0.925000,0.125000,0.925000,-0.125000,1.545000,-0.125000,1.545000,-0.525000,0.925000,-0.525000,0.925000,-0.775000,1.545000,-0.775000,1.545000,-1.175000,0.925000,-1.175000,0.925000,-1.125000,-0.925000,-1.125000,-0.925000,1.125000,0.925000,1.125000,0.925000,1.175000,1.545000,1.175000,
1.545000,0.775000,1.545000,0.775000,$1*%
G04 Aperture macros list end*
%TA.AperFunction,ComponentPad*%
%ADD10C,3.600000*%
%TD*%
%TA.AperFunction,ConnectorPad*%
%ADD11C,6.400000*%
%TD*%
%TA.AperFunction,ConnectorPad*%
%ADD12C,4.400000*%
%TD*%
%TA.AperFunction,ComponentPad*%
%ADD13C,2.600000*%
%TD*%
%TA.AperFunction,SMDPad,CuDef*%
%ADD14R,0.800000X0.800000*%
%TD*%
%TA.AperFunction,SMDPad,CuDef*%
%ADD15R,1.200000X1.200000*%
%TD*%
%TA.AperFunction,SMDPad,CuDef*%
%ADD16FreePoly0,270.000000*%
%TD*%
%TA.AperFunction,SMDPad,CuDef*%
%ADD17R,0.800000X0.400000*%
%TD*%
%TA.AperFunction,SMDPad,CuDef*%
%ADD18R,0.400000X0.800000*%
%TD*%
%TA.AperFunction,SMDPad,CuDef*%
%ADD19RoundRect,0.075000X-0.650000X-0.075000X0.650000X-0.075000X0.650000X0.075000X-0.650000X0.075000X0*%
%TD*%
%TA.AperFunction,SMDPad,CuDef*%
%ADD20R,0.830000X0.400000*%
%TD*%
%TA.AperFunction,SMDPad,CuDef*%
%ADD21FreePoly1,0.000000*%
%TD*%
%TA.AperFunction,ComponentPad*%
%ADD22R,2.500000X2.500000*%
%TD*%
%TA.AperFunction,ComponentPad*%
%ADD23C,2.500000*%
%TD*%
%TA.AperFunction,ComponentPad*%
%ADD24C,4.000000*%
%TD*%
G04 APERTURE END LIST*
D10*
%TO.P,H8,1,1*%
%TO.N,unconnected-(H8-Pad1)*%
X157500000Y-27250000D03*
D11*
X157500000Y-27250000D03*
%TD*%
D10*
%TO.P,H7,1,1*%
%TO.N,unconnected-(H7-Pad1)*%
X158750000Y-112750000D03*
D11*
X158750000Y-112750000D03*
%TD*%
D10*
%TO.P,H5,1,1*%
%TO.N,unconnected-(H5-Pad1)*%
X45750000Y-112750000D03*
D11*
X45750000Y-112750000D03*
%TD*%
D10*
%TO.P,H4,1*%
%TO.N,N/C*%
X47500000Y-54500000D03*
D11*
X47500000Y-54500000D03*
%TD*%
D10*
%TO.P,H3,1*%
%TO.N,N/C*%
X47500000Y-44500000D03*
D11*
X47500000Y-44500000D03*
%TD*%
D12*
%TO.P,H2,1,1*%
%TO.N,/NEUTRAL*%
X53750000Y-35000000D03*
D13*
X53750000Y-35000000D03*
%TD*%
D12*
%TO.P,H1,1,1*%
%TO.N,/LIVE*%
X47800000Y-35000000D03*
D13*
X47800000Y-35000000D03*
%TD*%
D14*
%TO.P,U1,65,GND*%
%TO.N,Net-(U1-Pad2)*%
X103250000Y-110500000D03*
%TO.P,U1,64,GND*%
X89250000Y-110500000D03*
%TO.P,U1,63,GND*%
X89250000Y-96500000D03*
%TO.P,U1,62,GND*%
X103250000Y-96500000D03*
D15*
%TO.P,U1,61,GND*%
X97900000Y-103500000D03*
X96250000Y-103500000D03*
X94600000Y-105150000D03*
X94600000Y-103500000D03*
D16*
X97900000Y-101850000D03*
D15*
X97900000Y-105150000D03*
X96250000Y-105150000D03*
X96250000Y-101850000D03*
X94600000Y-101850000D03*
D17*
%TO.P,U1,60,GND*%
X103250000Y-97550000D03*
%TO.P,U1,59,GND*%
X103250000Y-98400000D03*
%TO.P,U1,58,GND*%
X103250000Y-99250000D03*
%TO.P,U1,57,GND*%
X103250000Y-100100000D03*
%TO.P,U1,56,GND*%
X103250000Y-100950000D03*
%TO.P,U1,55,GND*%
X103250000Y-101800000D03*
%TO.P,U1,54,GND*%
X103250000Y-102650000D03*
%TO.P,U1,53,GND*%
X103250000Y-103500000D03*
%TO.P,U1,52,GND*%
X103250000Y-104350000D03*
%TO.P,U1,51,GND*%
X103250000Y-105200000D03*
%TO.P,U1,50,GND*%
X103250000Y-106050000D03*
%TO.P,U1,49,GND*%
X103250000Y-106900000D03*
%TO.P,U1,48,GND*%
X103250000Y-107750000D03*
%TO.P,U1,47,GND*%
X103250000Y-108600000D03*
%TO.P,U1,46,GND*%
X103250000Y-109450000D03*
D18*
%TO.P,U1,45,CHIP/PU/RESET*%
%TO.N,unconnected-(U1-Pad45)*%
X102200000Y-110500000D03*
%TO.P,U1,44,GPIO46*%
%TO.N,unconnected-(U1-Pad44)*%
X101350000Y-110500000D03*
%TO.P,U1,43,GND*%
%TO.N,Net-(U1-Pad2)*%
X100500000Y-110500000D03*
%TO.P,U1,42,GND*%
X99650000Y-110500000D03*
%TO.P,U1,41,GPIO45*%
%TO.N,unconnected-(U1-Pad41)*%
X98800000Y-110500000D03*
%TO.P,U1,40,GPIO44/U0RXD/PROG*%
%TO.N,unconnected-(U1-Pad40)*%
X97950000Y-110500000D03*
%TO.P,U1,39,GPIO43/U0TXD/PROG*%
%TO.N,unconnected-(U1-Pad39)*%
X97100000Y-110500000D03*
%TO.P,U1,38,MTMS/JTAG/GPIO42*%
%TO.N,unconnected-(U1-Pad38)*%
X96250000Y-110500000D03*
%TO.P,U1,37,MTDI/JTAG/GPIO41*%
%TO.N,unconnected-(U1-Pad37)*%
X95400000Y-110500000D03*
%TO.P,U1,36,MTDO/JTAG/GPIO40*%
%TO.N,unconnected-(U1-Pad36)*%
X94550000Y-110500000D03*
%TO.P,U1,35,MTCK/JTAG/GPIO39*%
%TO.N,unconnected-(U1-Pad35)*%
X93700000Y-110500000D03*
%TO.P,U1,34,GPIO38*%
%TO.N,unconnected-(U1-Pad34)*%
X92850000Y-110500000D03*
%TO.P,U1,33,GPIO37*%
%TO.N,unconnected-(U1-Pad33)*%
X92000000Y-110500000D03*
%TO.P,U1,32,GPIO36*%
%TO.N,unconnected-(U1-Pad32)*%
X91150000Y-110500000D03*
%TO.P,U1,31,GPIO35*%
%TO.N,unconnected-(U1-Pad31)*%
X90300000Y-110500000D03*
D17*
%TO.P,U1,30,GND*%
%TO.N,Net-(U1-Pad2)*%
X89250000Y-109450000D03*
%TO.P,U1,29,GPIO34*%
%TO.N,unconnected-(U1-Pad29)*%
X89250000Y-108600000D03*
%TO.P,U1,28,GPIO33*%
%TO.N,unconnected-(U1-Pad28)*%
X89250000Y-107750000D03*
%TO.P,U1,27,NC*%
%TO.N,unconnected-(U1-Pad27)*%
X89250000Y-106900000D03*
%TO.P,U1,26,SPI_CS1/GPIO26*%
%TO.N,unconnected-(U1-Pad26)*%
X89250000Y-106050000D03*
%TO.P,U1,25,GPIO21*%
%TO.N,unconnected-(U1-Pad25)*%
X89250000Y-105200000D03*
%TO.P,U1,24,USB_D+/ADC2_CH9/GPIO20*%
%TO.N,unconnected-(U1-Pad24)*%
X89250000Y-104350000D03*
%TO.P,U1,23,USB_D-/ADC2_CH8/GPIO19*%
%TO.N,unconnected-(U1-Pad23)*%
X89250000Y-103500000D03*
%TO.P,U1,22,ADC2_CH6/DAC_1/GPIO18*%
%TO.N,unconnected-(U1-Pad22)*%
X89250000Y-102650000D03*
%TO.P,U1,21,ADC2_CH7/DAC_2/GPIO17*%
%TO.N,unconnected-(U1-Pad21)*%
X89250000Y-101800000D03*
%TO.P,U1,20,GPIO16/ADC2_CH5/XTAL_32K_N*%
%TO.N,unconnected-(U1-Pad20)*%
X89250000Y-100950000D03*
%TO.P,U1,19,GPIO15/ADC2_CH4/XTAL_32K_P*%
%TO.N,unconnected-(U1-Pad19)*%
X89250000Y-100100000D03*
%TO.P,U1,18,GPIO14/ADC2_CH3*%
%TO.N,unconnected-(U1-Pad18)*%
X89250000Y-99250000D03*
%TO.P,U1,17,GPIO13/ADC2_CH2*%
%TO.N,unconnected-(U1-Pad17)*%
X89250000Y-98400000D03*
%TO.P,U1,16,GPIO12/ADC2_CH1*%
%TO.N,unconnected-(U1-Pad16)*%
X89250000Y-97550000D03*
D18*
%TO.P,U1,15,GPIO11/ADC2_CH0*%
%TO.N,unconnected-(U1-Pad15)*%
X90300000Y-96500000D03*
%TO.P,U1,14,GPIO10/ADC1_CH9*%
%TO.N,unconnected-(U1-Pad14)*%
X91150000Y-96500000D03*
%TO.P,U1,13,GPIO9/ADC1_CH8*%
%TO.N,unconnected-(U1-Pad13)*%
X92000000Y-96500000D03*
%TO.P,U1,12,GPIO8/ADC1_CH7*%
%TO.N,unconnected-(U1-Pad12)*%
X92850000Y-96500000D03*
%TO.P,U1,11,GPIO7/ADC1_CH6*%
%TO.N,unconnected-(U1-Pad11)*%
X93700000Y-96500000D03*
%TO.P,U1,10,GPIO6/ADC1_CH5*%
%TO.N,unconnected-(U1-Pad10)*%
X94550000Y-96500000D03*
%TO.P,U1,9,GPIO5/ADC1_CH4*%
%TO.N,unconnected-(U1-Pad9)*%
X95400000Y-96500000D03*
%TO.P,U1,8,GPIO4/ADC1_CH3*%
%TO.N,unconnected-(U1-Pad8)*%
X96250000Y-96500000D03*
%TO.P,U1,7,GPIO3/ADC1_CH2*%
%TO.N,unconnected-(U1-Pad7)*%
X97100000Y-96500000D03*
%TO.P,U1,6,GPIO2/ADC1_CH1*%
%TO.N,unconnected-(U1-Pad6)*%
X97950000Y-96500000D03*
%TO.P,U1,5,GPIO1/ADC1_CH0*%
%TO.N,unconnected-(U1-Pad5)*%
X98800000Y-96500000D03*
%TO.P,U1,4,GPIO0/BOOT*%
%TO.N,unconnected-(U1-Pad4)*%
X99650000Y-96500000D03*
%TO.P,U1,3,3V3*%
%TO.N,unconnected-(U1-Pad3)*%
X100500000Y-96500000D03*
%TO.P,U1,2,GND*%
%TO.N,Net-(U1-Pad2)*%
X101350000Y-96500000D03*
%TO.P,U1,1,GND*%
%TO.N,unconnected-(U1-Pad1)*%
X102200000Y-96500000D03*
%TD*%
D19*
%TO.P,U2,1,A1*%
%TO.N,unconnected-(U2-Pad1)*%
X50800001Y-103500000D03*
%TO.P,U2,2,A0*%
%TO.N,unconnected-(U2-Pad2)*%
X50800001Y-104000000D03*
%TO.P,U2,3,~{Alert}*%
%TO.N,unconnected-(U2-Pad3)*%
X50800001Y-104500000D03*
%TO.P,U2,4,SDA*%
%TO.N,unconnected-(U2-Pad4)*%
X50800001Y-105000000D03*
%TO.P,U2,5,SCL*%
%TO.N,unconnected-(U2-Pad5)*%
X50800001Y-105500000D03*
%TO.P,U2,6,VS*%
%TO.N,unconnected-(U2-Pad6)*%
X55200001Y-105500000D03*
%TO.P,U2,7,GND*%
%TO.N,unconnected-(U2-Pad7)*%
X55200001Y-105000000D03*
%TO.P,U2,8,Vbus*%
%TO.N,unconnected-(U2-Pad8)*%
X55200001Y-104500000D03*
%TO.P,U2,9,Vin-*%
%TO.N,unconnected-(U2-Pad9)*%
X55200001Y-104000000D03*
%TO.P,U2,10,Vin+*%
%TO.N,unconnected-(U2-Pad10)*%
X55200001Y-103500000D03*
%TD*%
D20*
%TO.P,Q1,1,S*%
%TO.N,GND*%
X70965001Y-101025000D03*
%TO.P,Q1,2,S*%
X70965001Y-101675000D03*
%TO.P,Q1,3,S*%
X70965001Y-102325000D03*
%TO.P,Q1,4,G*%
%TO.N,Net-(C1-Pad1)*%
X70965001Y-102975000D03*
D21*
%TO.P,Q1,5,D*%
%TO.N,Net-(Q1-Pad5)*%
X72905001Y-102000000D03*
%TD*%
D22*
%TO.P,PS1,1,AC/L*%
%TO.N,/LIVE*%
X64550000Y-26992500D03*
D23*
%TO.P,PS1,2,AC/N*%
%TO.N,/NEUTRAL*%
X64550000Y-33742500D03*
D24*
%TO.P,PS1,3,+Vout*%
%TO.N,+12V*%
X140550000Y-68242500D03*
%TO.P,PS1,4,-Vout*%
%TO.N,GND*%
X140550000Y-62742500D03*
%TD*%
M02*
